<svg xmlns="http://www.w3.org/2000/svg" width="278.86" height="279.442" viewBox="0 0 278.86 279.442">
  <g id="Group_201" data-name="Group 201" transform="translate(-535.221 -217)" opacity="0.25">
    <path id="Path_1506" data-name="Path 1506" d="M540.857,251.676c-.149.327-.294.654-.439.982a7.365,7.365,0,0,0,1.432,8.032L710.867,437.81a7.358,7.358,0,0,0,7.954,1.807l1-.391Z" transform="translate(6.282 47.533)" fill="#49d6cb"/>
    <path id="Path_1507" data-name="Path 1507" d="M544.847,244.393l-.029.047a7.172,7.172,0,0,0,.868,8.8L723.368,439.444a7.174,7.174,0,0,0,8.748,1.278l.05-.029Z" transform="translate(11.624 37.55)" fill="#49d6cb"/>
    <path id="Path_1508" data-name="Path 1508" d="M550.951,237.95c-1.193,1.413-2.371,2.835-3.506,4.3L738.361,442.318c1.513-1.067,2.99-2.176,4.457-3.3Z" transform="translate(16.757 28.718)" fill="#49d6cb"/>
    <path id="Path_1509" data-name="Path 1509" d="M535.648,269.427q-.22,2.031-.386,4.08a7.3,7.3,0,0,0,2.022,5.6L673.91,422.289a7.306,7.306,0,0,0,5.5,2.283q2.056-.071,4.094-.2Z" transform="translate(0.024 71.866)" fill="#49d6cb"/>
    <path id="Path_1510" data-name="Path 1510" d="M538.278,295.248a137.484,137.484,0,0,0,5.2,12.845,7.591,7.591,0,0,0,1.394,2.039l59.076,61.909a7.608,7.608,0,0,0,1.972,1.489,137.638,137.638,0,0,0,12.587,5.8Z" transform="translate(4.191 107.262)" fill="#49d6cb"/>
    <path id="Path_1511" data-name="Path 1511" d="M537.737,259.933q-.324,1.156-.628,2.316a7.37,7.37,0,0,0,1.84,6.925l155.824,163.3a7.38,7.38,0,0,0,6.83,2.162c.782-.166,1.565-.339,2.342-.519Z" transform="translate(2.27 58.852)" fill="#49d6cb"/>
    <path id="Path_1512" data-name="Path 1512" d="M535.221,280.636c.178,2.248.424,4.474.716,6.688a7.361,7.361,0,0,0,1.989,4.116L646.3,405.011a7.37,7.37,0,0,0,4.019,2.176c2.2.4,4.41.747,6.648,1.031Z" transform="translate(0 87.232)" fill="#49d6cb"/>
    <path id="Path_1513" data-name="Path 1513" d="M563.2,227.365q-2.29,1.579-4.509,3.246l191.611,200.8q1.768-2.144,3.452-4.35Z" transform="translate(32.178 14.208)" fill="#49d6cb"/>
    <path id="Path_1514" data-name="Path 1514" d="M613.285,220.925a7.388,7.388,0,0,0-3.909-2.162q-3.4-.665-6.868-1.162L721.476,342.275q-.341-3.481-.842-6.916a7.363,7.363,0,0,0-1.977-4.007Z" transform="translate(92.236 0.823)" fill="#49d6cb"/>
    <path id="Path_1515" data-name="Path 1515" d="M632.826,229.995a7.687,7.687,0,0,0-1.752-1.375,140.036,140.036,0,0,0-13.656-6.8L692.7,300.711a140.069,140.069,0,0,0-6.157-13.959,7.676,7.676,0,0,0-1.29-1.811Z" transform="translate(112.676 6.604)" fill="#49d6cb"/>
    <path id="Path_1516" data-name="Path 1516" d="M600.758,219.289a7.307,7.307,0,0,0-5.4-2.288q-2.137.039-4.258.142L737.12,370.16q.2-2.116.341-4.244a7.3,7.3,0,0,0-2.032-5.5Z" transform="translate(76.605 0)" fill="#49d6cb"/>
    <path id="Path_1517" data-name="Path 1517" d="M581.924,222.8a7.323,7.323,0,0,0-7.836-1.863c-.377.142-.756.284-1.136.431L751,407.947q.245-.558.484-1.117a7.331,7.331,0,0,0-1.494-7.914Z" transform="translate(51.723 4.779)" fill="#49d6cb"/>
    <path id="Path_1518" data-name="Path 1518" d="M574.229,226.193a7.191,7.191,0,0,0-8.7-1.323l-.111.062L752.16,420.626h0a7.356,7.356,0,0,0-.937-8.95Z" transform="translate(41.398 9.547)" fill="#49d6cb"/>
    <path id="Path_1519" data-name="Path 1519" d="M749.636,434.454,556.714,232.279q-2.038,1.849-4,3.772L745.682,438.278Q747.7,436.408,749.636,434.454Z" transform="translate(23.974 20.944)" fill="#49d6cb"/>
    <path id="Path_1520" data-name="Path 1520" d="M590.629,220.376a7.376,7.376,0,0,0-6.743-2.181q-1.231.245-2.456.512L746.3,391.48q.324-1.213.628-2.43a7.378,7.378,0,0,0-1.863-6.835Z" transform="translate(63.343 1.45)" fill="#49d6cb"/>
  </g>
</svg>
