<svg xmlns="http://www.w3.org/2000/svg" width="41.839" height="50" viewBox="0 0 41.839 50">
  <g id="Group_1021" data-name="Group 1021" transform="translate(-561.507 -2166.522)">
    <path id="Path_3202" data-name="Path 3202" d="M589.347,2206a1.285,1.285,0,0,0-1.269,1.3H564.046v-31.568h24.032v.507a1.27,1.27,0,1,0,2.539,0v-2.018a7.624,7.624,0,0,0-7.522-7.705H569.028a7.624,7.624,0,0,0-7.521,7.705v34.589a7.624,7.624,0,0,0,7.521,7.706h14.065a7.624,7.624,0,0,0,7.522-7.706V2207.3A1.285,1.285,0,0,0,589.347,2206Zm-20.318-36.881h14.065a5.018,5.018,0,0,1,4.863,4.013H564.166A5.016,5.016,0,0,1,569.028,2169.123Zm14.065,44.8H569.028a5.016,5.016,0,0,1-4.862-4.014h23.791A5.017,5.017,0,0,1,583.094,2213.921Z" fill="#fff"/>
    <path id="Path_3203" data-name="Path 3203" d="M677.342,2290.97H644.065a1.31,1.31,0,0,0-1.378,1.23v22.4a1.31,1.31,0,0,0,1.378,1.23h33.277a1.31,1.31,0,0,0,1.378-1.23v-22.4A1.31,1.31,0,0,0,677.342,2290.97Zm-1.378,2.461v1.059H645.443v-1.059Zm-30.521,19.934V2296.95h30.521v16.415Z" transform="translate(-75.374 -111.726)" fill="#fff"/>
    <path id="Path_3204" data-name="Path 3204" d="M683.162,2383.318h14.092a1.378,1.378,0,0,0,1.378-1.378v-8.5a1.378,1.378,0,0,0-1.378-1.378H683.162a1.378,1.378,0,0,0-1.378,1.378v8.5A1.378,1.378,0,0,0,683.162,2383.318Zm1.378-8.5h11.336v5.742H684.54Z" transform="translate(-109.097 -186.031)" fill="#fff"/>
    <path id="Path_3205" data-name="Path 3205" d="M867.793,2374.1h-6.217a1.378,1.378,0,1,0,0,2.756h6.217a1.378,1.378,0,1,0,0-2.756Z" transform="translate(-270.65 -187.613)" fill="#fff"/>
    <path id="Path_3206" data-name="Path 3206" d="M861.576,2417.412h3.731a1.378,1.378,0,0,0,0-2.756h-3.731a1.378,1.378,0,1,0,0,2.756Z" transform="translate(-270.168 -224.273)" fill="#fff"/>
    <path id="Path_3207" data-name="Path 3207" d="M861.576,2457.947h5.6a1.378,1.378,0,1,0,0-2.756h-5.6a1.378,1.378,0,1,0,0,2.756Z" transform="translate(-270.65 -260.91)" fill="#fff"/>
    <path id="Path_3208" data-name="Path 3208" d="M709.43,2493.72H685.181a1.378,1.378,0,1,0,0,2.756H709.43a1.378,1.378,0,1,0,0-2.756Z" transform="translate(-112.287 -295.734)" fill="#fff"/>
    <path id="Path_3209" data-name="Path 3209" d="M696.82,2622.652h-2.27a1.378,1.378,0,1,0,0,2.756h2.27a1.378,1.378,0,0,0,0-2.756Z" transform="translate(-119.059 -412.481)" fill="#fff"/>
  </g>
</svg>
