<svg xmlns="http://www.w3.org/2000/svg" xmlns:xlink="http://www.w3.org/1999/xlink" width="423" height="326" viewBox="0 0 423 326">
  <defs>
    <linearGradient id="linear-gradient" y1="0.5" x2="1" y2="0.5" gradientUnits="objectBoundingBox">
      <stop offset="0.146" stop-color="#fff"/>
      <stop offset="0.316" stop-color="#fefdfc"/>
      <stop offset="0.43" stop-color="#fdf9f3"/>
      <stop offset="0.529" stop-color="#fcf2e4"/>
      <stop offset="0.618" stop-color="#fae8ce"/>
      <stop offset="0.701" stop-color="#f8dbb2"/>
      <stop offset="0.78" stop-color="#f5cb90"/>
      <stop offset="0.855" stop-color="#f1b867"/>
      <stop offset="0.927" stop-color="#eda238"/>
      <stop offset="0.994" stop-color="#e98a04"/>
      <stop offset="1" stop-color="#e98800"/>
    </linearGradient>
    <linearGradient id="linear-gradient-2" x1="0.828" y1="-0.097" x2="0.243" y2="1.159" xlink:href="#linear-gradient"/>
  </defs>
  <g id="Group_1229" data-name="Group 1229" transform="translate(-1120.841 -2455.641)">
    <path id="Path_3333" data-name="Path 3333" d="M-452.823,253.6c0,22.837-20.454,41.35-45.683,41.35s-45.684-18.514-45.684-41.35,20.454-41.35,45.684-41.35S-452.823,230.761-452.823,253.6Z" transform="translate(1665.032 2264.451)" fill="#f79200"/>
    <path id="Path_3448" data-name="Path 3448" d="M-478.983,275.7c0,5.266-3.838,9.533-8.576,9.533s-8.574-4.267-8.574-9.533,3.84-9.531,8.574-9.531S-478.983,270.439-478.983,275.7Z" transform="translate(1896.224 2226.471)" fill="#f79200"/>
    <g id="Group_1196" data-name="Group 1196" transform="translate(1182.297 2480.128)">
      <g id="Group_1192" data-name="Group 1192" transform="translate(217.297 155.222)">
        <g id="Group_1182" data-name="Group 1182" transform="translate(0 12.54)">
          <g id="Group_1173" data-name="Group 1173" transform="translate(10.363)">
            <path id="Path_3303" data-name="Path 3303" d="M658.637,360.821c.136.345.3.69.476,1.04H607.38a9.4,9.4,0,0,1,0-9.148h51.733c-.18.35-.34.695-.476,1.04H609.761a5.853,5.853,0,0,0,0,7.069Z" transform="translate(-606.193 -352.712)" fill="#bc3122"/>
          </g>
          <g id="Group_1175" data-name="Group 1175" transform="translate(8.828 1.04)">
            <g id="Group_1174" data-name="Group 1174">
              <path id="Path_3304" data-name="Path 3304" d="M658.8,360H607.064a5.853,5.853,0,0,1,0-7.069H658.8a8.38,8.38,0,0,0-.626,1.118,5.672,5.672,0,0,0-.287.729A5.8,5.8,0,0,0,658.8,360Z" transform="translate(-605.876 -352.926)" fill="#fff9ed"/>
            </g>
          </g>
          <path id="Path_3305" data-name="Path 3305" d="M632.637,353.156a5.67,5.67,0,0,0-.287.729l-19.856-.364Z" transform="translate(-571.515 -350.999)" fill="#dcd4c4" style="mix-blend-mode: multiply;isolation: isolate"/>
          <path id="Path_3306" data-name="Path 3306" d="M633.578,354.646H611.39v-.727Z" transform="translate(-575.776 -348.053)" fill="#dcd4c4" style="mix-blend-mode: multiply;isolation: isolate"/>
          <g id="Group_1176" data-name="Group 1176" transform="translate(0.665)">
            <path id="Path_3307" data-name="Path 3307" d="M644.213,361.86H605.384a9.4,9.4,0,0,1,0-9.148h38.829A9.4,9.4,0,0,0,644.213,361.86Z" transform="translate(-604.196 -352.712)" fill="#c93f24"/>
          </g>
          <g id="Group_1177" data-name="Group 1177">
            <path id="Path_3308" data-name="Path 3308" d="M644.071,361.86H605.247a9.4,9.4,0,0,1,0-9.148h38.824A9.4,9.4,0,0,0,644.071,361.86Z" transform="translate(-604.059 -352.712)" fill="#ea522d"/>
          </g>
          <g id="Group_1178" data-name="Group 1178">
            <path id="Path_3309" data-name="Path 3309" d="M644.071,361.86H605.247a9.4,9.4,0,0,1,0-9.148h38.824A9.4,9.4,0,0,0,644.071,361.86Z" transform="translate(-604.059 -352.712)" fill="#ff4140"/>
          </g>
          <g id="Group_1179" data-name="Group 1179" transform="translate(4.056)">
            <path id="Path_3310" data-name="Path 3310" d="M607.9,361.86h-1.953a10.462,10.462,0,0,1,0-9.148H607.9A10.461,10.461,0,0,0,607.9,361.86Z" transform="translate(-604.894 -352.712)" fill="#ffa631"/>
          </g>
          <g id="Group_1180" data-name="Group 1180" transform="translate(7.709)">
            <path id="Path_3311" data-name="Path 3311" d="M608.657,361.86H606.7a10.462,10.462,0,0,1,0-9.148h1.958A10.459,10.459,0,0,0,608.657,361.86Z" transform="translate(-605.646 -352.712)" fill="#ffa631"/>
          </g>
          <g id="Group_1181" data-name="Group 1181" transform="translate(43.714 2.157)">
            <path id="Path_3312" data-name="Path 3312" d="M613.057,353.156V357.1s.894-.5,1.72-1.025A13.892,13.892,0,0,1,616.4,357.1v-3.94l0,0Z" transform="translate(-613.057 -353.156)" fill="#3b3346"/>
          </g>
        </g>
        <g id="Group_1191" data-name="Group 1191" transform="translate(6.831)">
          <g id="Group_1183" data-name="Group 1183" transform="translate(10.363)">
            <path id="Path_3313" data-name="Path 3313" d="M660.043,361.247c.136.476.3.947.476,1.424H608.786a17.142,17.142,0,0,1,0-12.54H660.52c-.18.476-.34.952-.476,1.424H611.162a10.48,10.48,0,0,0,0,9.693Z" transform="translate(-607.599 -350.131)" fill="#3b3346"/>
          </g>
          <g id="Group_1185" data-name="Group 1185" transform="translate(8.828 1.424)">
            <g id="Group_1184" data-name="Group 1184">
              <path id="Path_3314" data-name="Path 3314" d="M660.2,360.117H608.47a10.48,10.48,0,0,1,0-9.693H660.2a12.836,12.836,0,0,0-.632,1.535c-.112.331-.2.661-.282,1A10.424,10.424,0,0,0,660.2,360.117Z" transform="translate(-607.283 -350.424)" fill="#fff9ed"/>
            </g>
          </g>
          <path id="Path_3315" data-name="Path 3315" d="M634.038,350.74c-.112.331-.2.661-.282,1l-19.856-.5Z" transform="translate(-572.921 -347.781)" fill="#dcd4c4" style="mix-blend-mode: multiply;isolation: isolate"/>
          <path id="Path_3316" data-name="Path 3316" d="M634.984,352.784H612.8v-1Z" transform="translate(-577.183 -343.743)" fill="#dcd4c4" style="mix-blend-mode: multiply;isolation: isolate"/>
          <g id="Group_1186" data-name="Group 1186" transform="translate(0.666)">
            <path id="Path_3317" data-name="Path 3317" d="M645.614,362.671H606.79a17.142,17.142,0,0,1,0-12.54h38.824A17.141,17.141,0,0,0,645.614,362.671Z" transform="translate(-605.603 -350.131)" fill="#3b3346"/>
          </g>
          <g id="Group_1187" data-name="Group 1187">
            <path id="Path_3318" data-name="Path 3318" d="M645.477,362.671H606.654a17.137,17.137,0,0,1,0-12.54h38.824A17.142,17.142,0,0,0,645.477,362.671Z" transform="translate(-605.466 -350.131)" fill="#ea522d"/>
          </g>
          <g id="Group_1188" data-name="Group 1188">
            <path id="Path_3319" data-name="Path 3319" d="M645.477,362.671H606.654a17.137,17.137,0,0,1,0-12.54h38.824A17.142,17.142,0,0,0,645.477,362.671Z" transform="translate(-605.466 -350.131)" fill="#4d445a"/>
          </g>
          <g id="Group_1189" data-name="Group 1189" transform="translate(3.96 2.959)">
            <path id="Path_3320" data-name="Path 3320" d="M638.373,357.362H607.235a6.22,6.22,0,0,1,0-6.622h31.138A6.22,6.22,0,0,0,638.373,357.362Z" transform="translate(-606.281 -350.74)" fill="#ffa631"/>
          </g>
          <g id="Group_1190" data-name="Group 1190" transform="translate(40.207 3.566)">
            <path id="Path_3321" data-name="Path 3321" d="M613.741,350.865v5.408s.981-.68,1.89-1.4a14.572,14.572,0,0,1,1.783,1.4v-5.408h-3.673Z" transform="translate(-613.741 -350.865)" fill="#c93f24"/>
          </g>
        </g>
      </g>
      <g id="Group_1195" data-name="Group 1195" transform="translate(249.327 107.997)">
        <g id="Group_1194" data-name="Group 1194">
          <path id="Path_3322" data-name="Path 3322" d="M614.311,365.326c-.224-4.47,1.657-8.881,4.46-12.817A75.953,75.953,0,0,1,629.013,341.6a210.571,210.571,0,0,1-12.136,28.2Z" transform="translate(-596.603 -335.772)" fill="#465c05"/>
          <path id="Path_3323" data-name="Path 3323" d="M613.173,373.173a68.4,68.4,0,0,1,4.995-32.775q-.182,16.47-.365,32.931Z" transform="translate(-602.121 -340.398)" fill="#618c03"/>
          <path id="Path_3324" data-name="Path 3324" d="M613.692,370.4a55.524,55.524,0,0,1,7.594-29.554q-.445,15.3-1.759,30.584a.924.924,0,0,1-.573.923Z" transform="translate(-599.039 -338.666)" fill="#8db90a"/>
          <path id="Path_3325" data-name="Path 3325" d="M616.822,367.631a21.823,21.823,0,0,1-5.869-12.486,54.2,54.2,0,0,1,.321-13.39,207.147,207.147,0,0,1,11,28.47Z" transform="translate(-610.652 -335.162)" fill="#465c05"/>
          <path id="Path_3326" data-name="Path 3326" d="M614.607,371.615c3.629-10.106,7.336-20.357,14.474-29.326a65.977,65.977,0,0,1-10.927,30.72Z" transform="translate(-595.392 -333.102)" fill="#618c03"/>
          <path id="Path_3327" data-name="Path 3327" d="M614.111,376.291c.836-11.694,1.812-23.792,8.939-34.184,2.891,11.068-3.974,22.179-4.936,33.436Z" transform="translate(-597.306 -333.804)" fill="#618c03"/>
          <path id="Path_3328" data-name="Path 3328" d="M615.446,378.195c-.048-6.17-2.235-12.2-3.337-18.311s-1-12.686,3.124-18.006a188.735,188.735,0,0,1,4.426,38.751Z" transform="translate(-607.323 -334.688)" fill="#618c03"/>
          <path id="Path_3329" data-name="Path 3329" d="M613.656,361.794a26.58,26.58,0,0,1,.039-17.456,46.374,46.374,0,0,1,4.941,16.611Z" transform="translate(-604.673 -325.196)" fill="#8db90a"/>
          <path id="Path_3330" data-name="Path 3330" d="M614.475,359.066q3.827-6.3,7.774-12.554a3.325,3.325,0,0,1,2.361-1.827c.224,2.541-.821,5.033-1.851,7.458q-2.113,4.948-4.217,9.892Z" transform="translate(-595.902 -323.857)" fill="#8db90a"/>
          <g id="Group_1193" data-name="Group 1193" transform="translate(4.192 31.352)">
            <path id="Path_3331" data-name="Path 3331" d="M611.515,346.851c.539,6.4,2.366,11.942,4.946,15.6h14.464c2.58-3.654,4.406-9.2,4.946-15.6Z" transform="translate(-611.515 -346.851)" fill="#ded2be"/>
            <path id="Path_3332" data-name="Path 3332" d="M619.682,358.3c-4.421-2.794-6.321-7.016-5.723-11.446h-2.444c.539,6.4,2.366,11.942,4.946,15.6h14.464a20.133,20.133,0,0,0,1.448-2.41C627.766,360.97,623.156,360.931,619.682,358.3Z" transform="translate(-611.515 -346.851)" fill="#d6c8af"/>
          </g>
        </g>
      </g>
    </g>
    <g id="Group_1579" data-name="Group 1579">
      <g id="Group_1203" data-name="Group 1203" transform="translate(1456.67 2559.248)">
        <g id="Group_1199" data-name="Group 1199" transform="translate(11.565)">
          <g id="Group_1198" data-name="Group 1198">
            <g id="Group_1197" data-name="Group 1197">
              <path id="Path_3334" data-name="Path 3334" d="M-452.194,315.111l-39.319,26.324L-526.288,294.3l39.319-26.323Z" transform="translate(527.044 -267.26)" fill="#fceca9"/>
              <path id="Path_3335" data-name="Path 3335" d="M-451.092,315.571-491.3,342.486l-35.4-47.979,40.206-26.917Zm-39.943,25.477,38.432-25.732-34.152-46.287-38.43,25.728Z" transform="translate(526.697 -267.59)" fill="#a0845c"/>
            </g>
            <path id="Path_3336" data-name="Path 3336" d="M-506.678,270.766a20.8,20.8,0,0,1,3.106,6.582c1.319,4.414,2.439,8.912,3.509,13.391a120.194,120.194,0,0,1,2.635,14.95,70.354,70.354,0,0,1,.68,9.35c-.087,3.507.067,7.079-.272,10.571-.137,1.4-1.026,2.694-.844,4.106,7.271-3.777,13.624-8.8,20.59-13.023,1.476-.894,5.287-2.6,4.518-4.583-.643-1.657-2.071-3.152-3.13-4.586-1.593-2.16-3.381-4.231-5.109-6.294-6.554-7.836-12.027-16.469-18.068-24.653-1.626-2.206-2.8-4.453-4.17-6.743-.451-.765-.708-1.1-1.706-.758a2.832,2.832,0,0,0-.977.543c-.29.268-.34.933-.556,1.116a.331.331,0,0,0,.015.185c-.061-.094-.127-.187-.2-.275Z" transform="translate(543.669 -266.444)" fill="#fff3c0"/>
          </g>
          <path id="Path_3337" data-name="Path 3337" d="M-524.326,286.836c1.136,1.258,2.132,2.648,3.211,3.958,2.251,2.731,4.475,5.467,6.6,8.291,3.32,4.407,6.441,9.073,9.956,13.348,2.9,3.529,5.771,7.186,8.306,10.974.807,1.208,1.659,2.395,2.461,3.611a9.4,9.4,0,0,0,1.149,1.868c1.027.959,2.094-.127,3.08-.791,2.1-1.4,4-3.006,6.094-4.4q3.337-2.228,6.669-4.462c2.629-1.772,5.682-3.006,8.219-4.886-1.6-.621-3.943-.268-5.7-.734a65.2,65.2,0,0,1-10.943-4.039,66.314,66.314,0,0,1-19.291-13.733c-4.7-4.847-10.178-10.44-11.488-17.123-1.425,1.013-7.238,4.03-9.586,6.3A22.07,22.07,0,0,0-524.326,286.836Z" transform="translate(527.641 -258.153)" fill="#fceca9" style="mix-blend-mode: multiply;isolation: isolate"/>
        </g>
        <path id="Path_3338" data-name="Path 3338" d="M-457.2,318.073a1.867,1.867,0,0,1,.246,2.729l-27.5,28.378a2.145,2.145,0,0,1-2.9.013l-44.688-38.631a1.871,1.871,0,0,1-.244-2.731l27.5-28.374a2.136,2.136,0,0,1,2.9-.011Z" transform="translate(533.111 -258.014)" fill="#bcc7ce" style="mix-blend-mode: multiply;isolation: isolate"/>
        <g id="Group_1202" data-name="Group 1202" transform="translate(0 22.368)">
          <g id="Group_1200" data-name="Group 1200" transform="translate(0.054)">
            <path id="Path_3339" data-name="Path 3339" d="M-505.428,280.554l-27.5,27.127,45.993,41.66,27.5-27.129c.959-.946,1.109-2.278.331-2.984l-43.184-39.11A2.37,2.37,0,0,0-505.428,280.554Z" transform="translate(532.927 -279.695)" fill="#d8bb41"/>
            <path id="Path_3340" data-name="Path 3340" d="M-516.955,281.884c.146,1.077,1.332,2.044,1.937,2.888,1.369,1.929,2.454,4.017,3.7,6.024,2.463,3.973,5.046,7.894,6.706,12.284a53.034,53.034,0,0,1,3.276,12.768,33.217,33.217,0,0,1-.255,8.993c-.8,5.462-3.609,10.957-8.548,14.193.791.868,9.339,8.842,10.056,9.13.854.342,2.053-1.918,2.759-2.45,3.139-2.361,6.116-6.7,8.906-9.455,2.655-2.624,4.514-3.873,7.068-6.624,1.778-1.918,3.57-3.823,5.248-5.8,1.207-1.419,2.72-2.6,1.748-4.429a9.958,9.958,0,0,0-2.674-2.5c-1.406-1.155-2.692-2.43-4.091-3.588-2.716-2.249-5.359-4.61-8.082-6.835-5.65-4.616-10.606-9.876-15.741-15-2.123-2.121-4.2-4.154-6.118-6.428a21.97,21.97,0,0,0-4.159-4.268c-.37-.249-1.46-.848-1.968-.394-.617.556.623,1.689.619,2.215Z" transform="translate(546.12 -279.244)" fill="#d8bb41" opacity="0.3" style="mix-blend-mode: multiply;isolation: isolate"/>
            <path id="Path_3341" data-name="Path 3341" d="M-521.856,289.174a41.9,41.9,0,0,0,10.218,15.575,104.749,104.749,0,0,0,10.109,9.021,59.444,59.444,0,0,0,9.59,5.835c5.9,2.953,14.3,5.423,21.151,2.794a58.782,58.782,0,0,1-4.935,5.237,45.912,45.912,0,0,0-5.6,5.4,45.826,45.826,0,0,1-4.146,4.579c-.388.384-1.181,1.726-1.539,1.9-.929.438-2.674-1.779-3.265-2.315-6.576-5.957-13.659-11.513-19.917-17.759-4.939-4.926-10.137-9.714-15.311-14.407a19.47,19.47,0,0,0-2.657-2.247c-.728-.445-1.547-.671-2.238-1.138-1.447-.974-2.051-1.888-.765-3.415a44.333,44.333,0,0,1,5.661-5.091c1.334-1.1,2.692-2.661,3.769-3.721Z" transform="translate(533.828 -271.659)" fill="#d8bb41" opacity="0.2" style="mix-blend-mode: multiply;isolation: isolate"/>
          </g>
          <g id="Group_1201" data-name="Group 1201" transform="translate(0 0.519)">
            <path id="Path_3342" data-name="Path 3342" d="M-505.456,280.839l-27.5,27.125,45.995,41.658,27.5-27.125c.957-.946,1.105-2.284.329-2.984L-502.318,280.4A2.365,2.365,0,0,0-505.456,280.839Z" transform="translate(532.956 -279.976)" fill="#022735"/>
            <path id="Path_3343" data-name="Path 3343" d="M-516.985,282.168c.148,1.079,1.332,2.034,1.936,2.89,1.371,1.927,2.452,4.017,3.694,6.02,2.465,3.975,5.05,7.894,6.709,12.288a53.076,53.076,0,0,1,3.276,12.763,33.276,33.276,0,0,1-.257,8.991c-.8,5.466-3.609,10.959-8.546,14.2.789.865,9.335,8.84,10.054,9.128.856.34,2.053-1.92,2.761-2.45,3.138-2.363,6.116-6.7,8.9-9.457,2.655-2.624,4.514-3.873,7.068-6.624,1.777-1.916,3.568-3.825,5.25-5.8,1.207-1.421,2.72-2.6,1.748-4.429a10.015,10.015,0,0,0-2.676-2.509c-1.408-1.151-2.69-2.426-4.093-3.587-2.714-2.247-5.357-4.608-8.078-6.833-5.651-4.614-10.608-9.875-15.739-15-2.127-2.118-4.209-4.154-6.122-6.427a22.006,22.006,0,0,0-4.158-4.267c-.368-.253-1.46-.854-1.966-.4-.619.558.623,1.691.617,2.217Z" transform="translate(546.15 -279.525)" fill="#022735" opacity="0.3" style="mix-blend-mode: multiply;isolation: isolate"/>
            <path id="Path_3344" data-name="Path 3344" d="M-521.884,289.457a41.943,41.943,0,0,0,10.216,15.571,105.754,105.754,0,0,0,10.109,9.023,59.162,59.162,0,0,0,9.592,5.833c5.9,2.949,14.3,5.425,21.151,2.8a59.011,59.011,0,0,1-4.937,5.235,45.6,45.6,0,0,0-5.6,5.394,45.114,45.114,0,0,1-4.15,4.582c-.388.384-1.179,1.728-1.539,1.9-.929.436-2.672-1.779-3.263-2.313-6.576-5.957-13.661-11.513-19.917-17.759-4.939-4.928-10.137-9.717-15.316-14.407a18.547,18.547,0,0,0-2.657-2.249c-.723-.445-1.539-.673-2.234-1.136-1.443-.976-2.051-1.888-.763-3.42a44.828,44.828,0,0,1,5.66-5.087c1.336-1.1,2.694-2.655,3.769-3.72Z" transform="translate(533.857 -271.938)" fill="#022735" opacity="0.2" style="mix-blend-mode: multiply;isolation: isolate"/>
          </g>
          <path id="Path_3345" data-name="Path 3345" d="M-473.156,325.206l-1.274,1.256-47.078-42.64,1.273-1.259Z" transform="translate(542.662 -277.264)" fill="#e5cc63"/>
        </g>
      </g>
      <g id="Group_1225" data-name="Group 1225" transform="translate(1399.889 2455.641)">
        <g id="Group_1224" data-name="Group 1224">
          <path id="Path_3346" data-name="Path 3346" d="M-430.148,299.222a1.786,1.786,0,0,1-.46,2.542l-31.883,21.083a1.924,1.924,0,0,1-2.616-.5L-495.794,279a1.786,1.786,0,0,1,.467-2.541l31.88-21.085a1.929,1.929,0,0,1,2.618.506Z" transform="translate(496.132 -238.584)" fill="#ccdae2" style="mix-blend-mode: multiply;isolation: isolate"/>
          <path id="Path_3347" data-name="Path 3347" d="M-465.764,323.769c.4-2.448,3.058-5.312,4.279-7.556,2.07-3.81,3.851-7.811,5.691-11.73,2.919-6.216,6.532-12.084,9.544-18.236,2.071-4.22,4.054-8.378,6.449-12.421,1.486-2.513,5.109-6.039,5.438-8.877-4.446-.639-.554-4.645,1.127-5.584,2.738-1.534,5.4-2.762,5.948-6.1a18.7,18.7,0,0,1,1.643,8.064c-.113,4.278-3.657,5.285-5.224,8.792-1.149,2.572-.892,5.488-2.1,8.263-2.01,4.6-3.923,9.292-5.957,13.936-7.02,16.02-12.439,32.909-22.981,47.1-2.491,3.352-7.18,7.6-7.927.972-.466-4.159.957-13.884,5.159-15.834Z" transform="translate(518.355 -240.111)" fill="#1b6d96" opacity="0.1" style="mix-blend-mode: multiply;isolation: isolate"/>
          <g id="Group_1206" data-name="Group 1206" transform="translate(51.716 13.449)">
            <g id="Group_1205" data-name="Group 1205" transform="translate(0 14.157)">
              <g id="Group_1204" data-name="Group 1204">
                <path id="Path_3348" data-name="Path 3348" d="M-441.647,265.847c-3.649,6.384-8.138,15.2-12.678,25.085-9.376,20.433-15.4,37.667-13.454,38.491s11.129-15.072,20.512-35.5c4.538-9.893,8.287-19.034,10.732-25.928C-438.3,267.366-440.051,266.5-441.647,265.847Z" transform="translate(468.144 -257.051)" fill="#e8a754"/>
                <path id="Path_3349" data-name="Path 3349" d="M-447.858,261.781a49.75,49.75,0,0,0-2.971,4.9c-.824,1.415-1.571,2.871-2.4,4.274-.719,1.218-1.487,2.456-2.134,3.7-.7,1.351-.183,2.26,1.12,3.062a6.3,6.3,0,0,0,3.539.848c1.2-.146,1.493-1.6,1.839-2.554,1.062-2.947,2.06-5.937,3.123-8.869.281-.776.588-1.515.824-2.3.1-.327.7-1.667.569-1.946-.166-.347-1.508-.684-1.887-.848-.6-.251-1.425-.708-1.783.085Z" transform="translate(478.712 -260.58)" fill="#ffc50d"/>
                <path id="Path_3350" data-name="Path 3350" d="M-444.131,262.948c-.876,1.571-3.125,8.147-3.668,9.688-.434,1.255-.865,2.53-1.282,3.769-.358,1.048-.82,1.72-2.051,1.8a4.182,4.182,0,0,1-4.329-3.045c3.611,1.754,6.595-5,7.776-7.182,1.024-1.9,2.609-4.194,1.013-6.118.49.216.941.451,1.414.671s1.114.229,1.46.48c-.076.094-.076-.017-.155,0A.628.628,0,0,1-444.131,262.948Z" transform="translate(478.896 -260.43)" fill="#d39d07"/>
                <path id="Path_3351" data-name="Path 3351" d="M-446.76,263.58a.862.862,0,0,1-1.116.423l-3.189-1.358a.8.8,0,0,1-.436-1.073h0a.861.861,0,0,1,1.114-.416l3.195,1.354a.8.8,0,0,1,.432,1.07Z" transform="translate(482.193 -261.087)" fill="#d39d07"/>
                <path id="Path_3352" data-name="Path 3352" d="M-447.586,262.455c-.333.785-1.548.569-2.252.375-.6-.17-1.378-.4-1.164-1.159.05-.185.375-.575-.048-.554-.257.015-.388.408-.416.6-.078.582.316.795.813,1,.462.2.964.358,1.4.595a4.223,4.223,0,0,0,1.3.626,1,1,0,0,0,1.114-.612c.109-.473-.477-.73-.789-.891Z" transform="translate(482.274 -261.061)" fill="#bc8804"/>
                <path id="Path_3353" data-name="Path 3353" d="M-448.43,261.945c-.455.985-1.026,1.9-1.556,2.84-.6,1.074-1.157,2.171-1.783,3.241-.641,1.116-1.255,2.241-1.923,3.346a18.652,18.652,0,0,0-1.4,2.646c.4.176,1.319-1.657,1.521-1.959.56-.846,1.068-1.72,1.632-2.565.924-1.384,1.936-2.705,3-3.995.529-.643,1.105-1.183,1.685-1.768.532-.54.534-.876-.116-1.234-.231-.127-1.1-.423-1.088-.634Z" transform="translate(479.21 -260.428)" fill="#ffd876"/>
                <path id="Path_3354" data-name="Path 3354" d="M-445.456,262.533A13.194,13.194,0,0,1-445.74,265a24.649,24.649,0,0,1-.935,2.731,35.162,35.162,0,0,1-2.271,4.939c-.621,1.072-1.547,2.446-2.835,2.849a3.485,3.485,0,0,1-2.428-.333c-.8-.412-.623-.917-.778-1.622-.46.183-.66,1.092-.556,1.515a3.374,3.374,0,0,0,1.077,1.648c1.05.9,3.333,1.75,4.376.44a9.894,9.894,0,0,0,1.417-3.029c.331-1.026.71-2.034,1.074-3.047.589-1.659,1.149-3.322,1.8-4.961.325-.809.58-1.639.909-2.45.1-.268.4-.652.172-.913a1.6,1.6,0,0,0-.9-.27Z" transform="translate(478.804 -259.892)" fill="#bc8804"/>
              </g>
              <path id="Path_3355" data-name="Path 3355" d="M-441.505,270.99c-2.968,6.463-5.769,13.01-9.285,19.2-1.4,2.456-2.8,5.309-4.836,7.371-.658.671-3.511,2.1-3.37.122-2.35,5.375-4.5,10.615-6.36,16.089-.835,2.474-1.495,4.971-2.119,7.482-.253,1.013-.715,2.6.782,1.839,1.674-.85,3.15-3.989,4.089-5.5a229,229,0,0,0,18.424-35.71c.791-1.975,1.377-3.954,2.269-5.9.5-1.1,2.807-5,.46-5.124Z" transform="translate(468.481 -252.796)" fill="#e8a754" opacity="0.4" style="mix-blend-mode: multiply;isolation: isolate"/>
              <path id="Path_3356" data-name="Path 3356" d="M-441.019,271.994c-2.993,6.512-6.137,13.757-9.815,20.205-1.465,2.563-2.777,5.508-4.786,7.742-1.327,1.476-2.491,1.367-4.215.732-1.619,2.062-2.55,5.34-3.295,7.807-.933,3.1-2.386,6.066-3.415,9.141-.316.944-1.608,3.431-1.127,4.425.735,1.532,2.559-2.216,2.921-2.818,2.753-4.49,5.534-8.98,8.152-13.533,1.881-3.276,3.766-6.545,5.342-9.984,1.234-2.681,2.337-5.466,3.71-8.079,2.236-4.281,4.667-8.864,5.972-13.47a13.224,13.224,0,0,1,.649-2.858Z" transform="translate(468.455 -252.424)" fill="#e8a754" opacity="0.6" style="mix-blend-mode: multiply;isolation: isolate"/>
              <path id="Path_3357" data-name="Path 3357" d="M-449.585,270.345c-.615.2-1.24,1.875-1.609,2.565-.6,1.125-1.234,2.276-1.881,3.381-1.389,2.38-2.413,5.017-3.564,7.526q-1.638,3.564-3.28,7.14c-.608,1.328-1.2,2.653-1.729,4-.471,1.194-1.31,2.9-1.181,4.187,4.17-7.569,7.389-15.592,12.561-22.628.815-1.1,2.884-2.9,3.149-4.187.174-.85-.467-.771-1.175-1.231-.4-.259-1.439-1.014-1.219-1.151Z" transform="translate(472.638 -253.573)" fill="#ffb361"/>
            </g>
            <path id="Path_3358" data-name="Path 3358" d="M-450.471,267.569c.22-.778-.889-1.722-.983-2.611a5.949,5.949,0,0,1,2.273-4.884c1.742-1.269,3.93-.918,5.4-2.749,1.014-1.26,1.059-2.472,1.628-3.8.675.456.514,1.347.479,2.066a8.443,8.443,0,0,0,.661,3.428c.761,2.413-.451,6.19-2.262,8.021a5.464,5.464,0,0,1-4.682,1.7c-.961-.2-2.949-.7-2.376-1.944Z" transform="translate(482.276 -253.343)" fill="#d38d42"/>
            <path id="Path_3359" data-name="Path 3359" d="M-450.229,266.931c.209-1.07-1.011-2.123-1.134-3.224a3.686,3.686,0,0,1,2.121-3.653c-.979,1.3-2.2,3.156-.7,4.608a7.26,7.26,0,0,0,1.22-1.486,16.721,16.721,0,0,1,2.456-2,13.272,13.272,0,0,0,3.1-3.936,15,15,0,0,1-4.05,5.028c-.647.562-1.639,1.364-1.8,2.254-.224,1.22.443.519,1.07.026,1.887-1.48,3.526-2.674,4.54-4.884a8.19,8.19,0,0,0,.783-4.337c-.264,1.075.089,2.3-.179,3.442a8.323,8.323,0,0,1-2.169,3.819c-.595.613-4.765,3.248-2.816,3.814,2.358.68,4.773-3.786,5.083-5.492.209-1.138.085-2.339.238-3.49a14.608,14.608,0,0,0,.421-3.115c-.249.966.187,2.164.277,3.149a9.479,9.479,0,0,1-.48,3.96,14.437,14.437,0,0,1-1.676,3.346,11.58,11.58,0,0,0-1.482,1.9c1.393.36,2.931-2.86,3.387-3.86-.852,2.494-1.43,4.62-4.377,5.205-1.4.279-3.721.155-4-1.667Z" transform="translate(482.35 -252.677)" fill="#d38d42" style="mix-blend-mode: multiply;isolation: isolate"/>
            <path id="Path_3360" data-name="Path 3360" d="M-442.328,254.053c-.778,2.2-.431,4.662-1.225,6.894-.589,1.661-2.288,4.272-4.523,3.442-1.41-.523-1-1.848-.695-2.94.249-.922-.026-1.676-1.11-.968-1.7,1.1-1.4,3.442-.732,4.924a7.557,7.557,0,0,1,.51,1.131c.087.333-.079.789.039,1.087.379.948,1.755,1.384,2.746,1.351,3.034-.094,5.915-4.529,6.382-7.214a9.216,9.216,0,0,0-.724-4.414,3.867,3.867,0,0,1-.15-2.234c.083-.418.431-2.136-.5-1.576Z" transform="translate(482.558 -253.425)" fill="#d38d42" opacity="0.3" style="mix-blend-mode: multiply;isolation: isolate"/>
          </g>
          <g id="Group_1209" data-name="Group 1209" transform="translate(2.708 15.857)">
            <g id="Group_1208" data-name="Group 1208">
              <g id="Group_1207" data-name="Group 1207">
                <path id="Path_3361" data-name="Path 3361" d="M-427.834,300.849l-35.344,22.933-31.383-46.018,35.345-22.931Z" transform="translate(494.757 -254.639)" fill="#fceca9"/>
                <path id="Path_3362" data-name="Path 3362" d="M-427.547,300.985l-35.571,23.082-31.549-46.257,35.575-23.082Zm-35.511,22.693,35.119-22.783-31.218-45.779L-494.274,277.9Z" transform="translate(494.667 -254.728)" fill="#a0845c"/>
              </g>
              <path id="Path_3363" data-name="Path 3363" d="M-476.932,257.329a21.327,21.327,0,0,1,2.811,6.345c1.192,4.217,2.212,8.5,3.18,12.77a121.007,121.007,0,0,1,2.4,14.2,69.952,69.952,0,0,1,.632,8.842c-.076,3.291.072,6.667-.229,9.937-.118,1.306-.92,2.493-.752,3.825,6.537-3.21,12.247-7.641,18.506-11.292,1.33-.774,4.758-2.2,4.063-4.1a22.208,22.208,0,0,0-2.827-4.468c-1.437-2.112-3.051-4.145-4.61-6.166-5.911-7.687-10.852-16.078-16.3-24.065-1.465-2.153-2.531-4.324-3.764-6.545-.408-.743-.639-1.07-1.537-.795a2.36,2.36,0,0,0-.878.468c-.262.236-.307.861-.5,1.025a.349.349,0,0,0,.015.174,3.2,3.2,0,0,0-.179-.266Z" transform="translate(509.702 -253.886)" fill="#fff3c0"/>
            </g>
            <path id="Path_3364" data-name="Path 3364" d="M-492.792,271.474c1.024,1.236,1.924,2.6,2.9,3.88,2.027,2.677,4.032,5.355,5.952,8.117,3,4.3,5.815,8.841,8.989,13.034,2.616,3.455,5.2,7.036,7.491,10.726.73,1.172,1.5,2.328,2.221,3.515a9.423,9.423,0,0,0,1.038,1.811c.926.951,1.887-.024,2.772-.6,1.887-1.227,3.6-2.646,5.477-3.854q3-1.937,6-3.893c2.363-1.539,5.111-2.557,7.389-4.209-1.447-.658-3.55-.44-5.133-.957a60.638,60.638,0,0,1-9.852-4.318,64.756,64.756,0,0,1-17.389-13.842c-4.244-4.788-9.18-10.307-10.37-16.663-1.279.885-6.508,3.453-8.616,5.48C-493.926,269.7-493.141,271.049-492.792,271.474Z" transform="translate(495.295 -246.678)" fill="#fceca9" style="mix-blend-mode: multiply;isolation: isolate"/>
          </g>
          <path id="Path_3365" data-name="Path 3365" d="M-430.9,304.3a1.807,1.807,0,0,1-1.4,2.186l-37.65,7.944a1.9,1.9,0,0,1-2.236-1.419l-11.865-51.388a1.812,1.812,0,0,1,1.4-2.186L-445,251.493a1.9,1.9,0,0,1,2.236,1.425Z" transform="translate(506.335 -241.647)" fill="#bcc7ce" style="mix-blend-mode: multiply;isolation: isolate"/>
          <g id="Group_1212" data-name="Group 1212" transform="translate(26.991 11.484)">
            <g id="Group_1211" data-name="Group 1211">
              <g id="Group_1210" data-name="Group 1210">
                <path id="Path_3366" data-name="Path 3366" d="M-431.543,307.181l-42.041,5.747-7.857-54.735,42.037-5.745Z" transform="translate(481.597 -252.286)" fill="#fceca9"/>
                <path id="Path_3367" data-name="Path 3367" d="M-431.314,307.384l-42.314,5.785-7.9-55.029,42.31-5.78Zm-42.083,5.46,41.771-5.71-7.82-54.447-41.767,5.7Z" transform="translate(481.525 -252.361)" fill="#a0845c"/>
              </g>
              <path id="Path_3368" data-name="Path 3368" d="M-452.753,253.737a20.988,20.988,0,0,1-.285,6.9c-.8,4.309-1.785,8.6-2.8,12.855a121.885,121.885,0,0,1-4.145,13.812,71.079,71.079,0,0,1-3.356,8.236c-1.528,2.938-2.9,6.042-4.616,8.858-.693,1.134-1.935,1.857-2.378,3.134,7.319-.137,14.435-1.717,21.695-2.36,1.541-.137,5.264.026,5.48-1.983a21.76,21.76,0,0,0-.562-5.222c-.36-2.507-.915-5.022-1.417-7.509-1.92-9.418-2.65-19.065-4.017-28.572-.366-2.559-.362-4.967-.486-7.489-.041-.843-.1-1.232-1.037-1.364a2.433,2.433,0,0,0-1,.044c-.34.107-.658.654-.905.715a.427.427,0,0,0-.065.165,2.556,2.556,0,0,0-.041-.316Z" transform="translate(491.012 -251.815)" fill="#fff3c0"/>
            </g>
            <path id="Path_3369" data-name="Path 3369" d="M-480.608,258.445c.375,1.55.584,3.154.892,4.723.638,3.269,1.26,6.532,1.765,9.832.787,5.146,1.312,10.425,2.312,15.545.824,4.224,1.567,8.54,2,12.833.135,1.364.312,2.735.438,4.108a9.486,9.486,0,0,0,.131,2.071c.414,1.247,1.709.774,2.762.63,2.245-.307,4.42-.861,6.65-1.16,2.378-.312,4.758-.643,7.129-.972,2.818-.4,5.745-.151,8.533-.678-1.009-1.2-3.006-1.894-4.2-3.032a58.262,58.262,0,0,1-6.968-8.056,62.73,62.73,0,0,1-9.531-19.819c-1.7-6.1-3.7-13.165-1.949-19.4-1.545.261-7.4.366-10.2,1.3C-480.844,256.372-480.735,257.917-480.608,258.445Z" transform="translate(482.102 -250.064)" fill="#fceca9" style="mix-blend-mode: multiply;isolation: isolate"/>
          </g>
          <path id="Path_3370" data-name="Path 3370" d="M-445.024,251.105c7.075-3.442,3.169,13.855,2.729,16.381-1.506,8.662-2.868,17.3-4.209,25.967-1.125,7.238-2.2,21.726-12.129,23-6.5.837-3.555-10.268-2.834-13.6,1.874-8.642,4.662-17,6.491-25.647,1.3-6.172,3.962-12.153,6.064-18.068.416-1.159,2.925-9.571,4.823-7.831Z" transform="translate(524.425 -242.325)" fill="#1b6d96" opacity="0.1" style="mix-blend-mode: multiply;isolation: isolate"/>
          <g id="Group_1215" data-name="Group 1215" transform="translate(60.219 5.999)">
            <g id="Group_1214" data-name="Group 1214" transform="translate(0 0.126)">
              <path id="Path_3371" data-name="Path 3371" d="M-451.956,254.532a.946.946,0,0,1-1.166.643h0a.924.924,0,0,1-.662-1.14l1.114-3.9a.952.952,0,0,1,1.166-.641h0a.924.924,0,0,1,.661,1.142Z" transform="translate(471.787 -249.461)" fill="#e2daba"/>
              <g id="Group_1213" data-name="Group 1213" transform="translate(0.241 3.918)">
                <path id="Path_3372" data-name="Path 3372" d="M-455.511,302.431a3.565,3.565,0,0,1-4.379,2.406l-.915-.251a3.465,3.465,0,0,1-2.476-4.278L-450.908,257a3.564,3.564,0,0,1,4.381-2.4l.916.249a3.461,3.461,0,0,1,2.469,4.274Z" transform="translate(463.412 -249.137)" fill="#02332a"/>
                <path id="Path_3373" data-name="Path 3373" d="M-454.841,271.355a1.486,1.486,0,0,1-1.828,1h0a1.448,1.448,0,0,1-1.029-1.783l3.411-11.922a1.483,1.483,0,0,1,1.822-1.005h0a1.446,1.446,0,0,1,1.031,1.783Z" transform="translate(468.211 -246.482)" fill="#09594a"/>
                <path id="Path_3374" data-name="Path 3374" d="M-449.445,252.263c-.373-.105-.748-.207-1.116-.3-.447-.1-.894-.205-1.338-.3-1.713,1.338-4.228,6.109-4.228,6.109a17.726,17.726,0,0,0,3.3,1.377c2.842.832,3.574.418,3.574.418s.177-5.554.063-7.212A1.206,1.206,0,0,1-449.445,252.263Z" transform="translate(469.588 -251.52)" fill="#054236"/>
                <path id="Path_3375" data-name="Path 3375" d="M-453.843,262.007l-2.856-.781.117-.408,2.854.781Z" transform="translate(469.104 -243.75)" fill="#054236"/>
                <path id="Path_3376" data-name="Path 3376" d="M-449.653,252.078a9.474,9.474,0,0,1-1.092,2.232,4.383,4.383,0,0,1-2.021,2.208,1.584,1.584,0,0,1-2.179-.846,5.364,5.364,0,0,0-1.055,1.67c.07.172.959.551,1.155.673a5.076,5.076,0,0,0,1.3.482,16.281,16.281,0,0,0,2.552.545,4.166,4.166,0,0,0,1.029.024c.48-.074.325-.22.334-.691.018-1.24.17-2.5.131-3.768-.017-.406.347-2.515-.179-2.579Z" transform="translate(469.692 -251.202)" fill="#054236" opacity="0.3" style="mix-blend-mode: multiply;isolation: isolate"/>
                <path id="Path_3377" data-name="Path 3377" d="M-452.047,251.814a8.459,8.459,0,0,1-.759,1.628,11.629,11.629,0,0,0-.746,2.079c-.236.961-.179,2.082.911,2.454,1.776.595,2.77-.979,3.178-2.406a6.227,6.227,0,0,0-.14,1.674c-.042.586-.037,1.16-.026,1.75.009.527.065.682-.473.682a5.785,5.785,0,0,1-1.1-.142,15.225,15.225,0,0,1-4.25-1.369c-.281-.14-.466-.177-.5-.508a1.376,1.376,0,0,1,.346-.843c.458-.728.9-1.463,1.345-2.2.351-.575.708-1.172,1.092-1.709.338-.471.822-.859,1.159-1.323Z" transform="translate(469.725 -251.581)" fill="#054236" opacity="0.3" style="mix-blend-mode: multiply;isolation: isolate"/>
                <path id="Path_3378" data-name="Path 3378" d="M-453.641,257.813c.185-.22.756-.113.966.074.375.329.358,1.092.353,1.536a13.961,13.961,0,0,1-.966,4.239c-.312.9-.763,2.443-1.739,2.894-.756.353-.95-.222-1.377-.612-.277.811-.443,1.67-.68,2.5a20.732,20.732,0,0,0-.678,2.361,1.673,1.673,0,0,0,1.2,1.853c1.157.257,1.755-1.011,2.014-1.881.771-2.609,1.438-5.248,2.312-7.82a19.507,19.507,0,0,0,.726-2.966,2.071,2.071,0,0,0-.283-1.887,1.469,1.469,0,0,0-1.883-.266c.07,0,.02-.05.061-.1Z" transform="translate(468.187 -246.474)" fill="#054236" opacity="0.3" style="mix-blend-mode: multiply;isolation: isolate"/>
                <path id="Path_3379" data-name="Path 3379" d="M-454.347,257.714c-.774-.144-1.358,2.361-1.486,2.9a27.01,27.01,0,0,1-.715,2.812,7.579,7.579,0,0,1,1.6.36c-.445-.126-.316-1.231-.31-1.563a10.928,10.928,0,0,1,.332-2.349,4.458,4.458,0,0,1,.689-1.694c.072-.094.344-.3.292-.412-.068-.153-.445-.059-.541-.015Z" transform="translate(469.231 -246.403)" fill="#098e74"/>
                <path id="Path_3380" data-name="Path 3380" d="M-456.422,261.13c-.231.369-.746,1.96-.026,2.11.589.129,1.171-1.364,1.288-1.8a9.515,9.515,0,0,0-1.31-.283Z" transform="translate(469.003 -243.486)" fill="#098e74"/>
              </g>
              <path id="Path_3381" data-name="Path 3381" d="M-463.322,279.842c.645-.473,1.743-.116,2.474.015.787.139,1.565.366,2.343.576.922.255,2.469.615,2.578,1.763a6.686,6.686,0,0,0,.309-.905,16.183,16.183,0,0,0-3.976-1.572,13.886,13.886,0,0,0-2.112-.565,2.946,2.946,0,0,0-1.05.006c-.235.048-.817.24-.517.514Z" transform="translate(463.7 -224.326)" fill="#fff"/>
              <path id="Path_3382" data-name="Path 3382" d="M-459.007,286.393a2.163,2.163,0,0,1-2.749,1.179h0a2.1,2.1,0,0,1-1.728-2.4l.953-3.335a2.158,2.158,0,0,1,2.75-1.171h0a2.1,2.1,0,0,1,1.73,2.389Z" transform="translate(463.543 -223.089)" fill="#000706"/>
            </g>
            <path id="Path_3383" data-name="Path 3383" d="M-443.8,256.578a8.22,8.22,0,0,0-.852,2.552q-.74,2.591-1.478,5.183a70.729,70.729,0,0,1-2.953,8.941,65.544,65.544,0,0,1-3.418,7.206c-.844,1.439-1.535,2.829-3.1,3.625a17.335,17.335,0,0,1-1.717.758c-.246.091-1.56.309-1.663.382-.541.416-4.2,12.448-4.2,14.2,0,.841.353,1.665,1.194,1.735.322.028.9-.353,1.36-.323a3.576,3.576,0,0,1,1.367.462c.893.567.767,1.563,1.779,1,.857-.479,1.367-1.833,1.746-2.639a42.973,42.973,0,0,0,1.9-6.234c1.247-4.366,2.02-8.956,3.319-13.343,1.262-4.252,2.92-8.5,4.15-12.8.394-1.375,3.311-10.734,2.511-10.954Z" transform="translate(463.851 -243.519)" fill="#02332a" opacity="0.5" style="mix-blend-mode: multiply;isolation: isolate"/>
            <path id="Path_3384" data-name="Path 3384" d="M-453.389,255.664c-1.07-.272-2.354,4.052-2.6,4.812-.6,1.794-1.419,3.714-1.924,5.423.68-2.373,1.122-4.775,1.8-7.14a16.811,16.811,0,0,1,.807-2.844c.331-.65,1.646-1.171,1.905-.187.1-.031.065-.085.105-.159Z" transform="translate(468.313 -244.485)" fill="#098e74" opacity="0.3"/>
            <path id="Path_3385" data-name="Path 3385" d="M-453.091,251.787a5.626,5.626,0,0,0-1.118,1.994c-.2.449-.71,1.912.159,1.094a14.579,14.579,0,0,0,1.12-1.659A6.128,6.128,0,0,0-452,252.04c-.312-.105-.955-.377-1.16-.207Z" transform="translate(471.176 -247.37)" fill="#098e74" opacity="0.3"/>
            <path id="Path_3386" data-name="Path 3386" d="M-451.993,268.609a115.859,115.859,0,0,1-4.22,13.274,33.107,33.107,0,0,1-1.914,4.172,2.766,2.766,0,0,1-1.491,1.2c-.224.094-1.619.4-1.641.613a.318.318,0,0,0-.011.039c.713.268,1.491.262,2.215.538a3.54,3.54,0,0,1,1.45,1.188c2.118-5.87,3-12.1,4.991-18,.277-.815,1.031-2.188.695-3.01Z" transform="translate(465.468 -233.101)" fill="#098e74" opacity="0.4"/>
            <path id="Path_3387" data-name="Path 3387" d="M-452.213,249.706c.911-.837.665,1.242.51,1.661-.257.689-.743,1.633-1.656,1.236a4.161,4.161,0,0,1-.346.924,12.348,12.348,0,0,0,1.706.545c.22-.944.7-1.816.97-2.766.205-.724.333-2.352-1.046-1.8Z" transform="translate(471.883 -249.393)" fill="#e2daba" style="mix-blend-mode: multiply;isolation: isolate"/>
            <path id="Path_3388" data-name="Path 3388" d="M-453.41,251.82c-.116.3-1.279,2.171-.785,2.3.248-.314,1.789-2.238.891-2.343a.428.428,0,0,0-.087.131Z" transform="translate(471.364 -247.374)" fill="#098e74"/>
            <path id="Path_3389" data-name="Path 3389" d="M-454.6,255.5c-1.194-.471-2.092,3.49-2.422,4.169.3-1.033.423-2.049.715-3.071a3.26,3.26,0,0,1,.623-1.358c.447-.482.78-.026,1.186.242.006.063-.041-.094-.031-.078Z" transform="translate(469.07 -244.611)" fill="#098e74"/>
          </g>
          <path id="Path_3390" data-name="Path 3390" d="M-460.783,300.687c-1.643-14.307-4.736-28.374-6.379-42.656-.24-2.116-2.134-11.279.553-11.835,4.584-.948,7.378,11.992,8.115,14.8,2.186,8.343,3.842,17.081,5.375,25.56.778,4.287,1.678,8.583,2.164,12.909.4,3.581,1.447,7.879.085,11.343-.852,2.168-2.967,5.131-5.682,4.579-3.271-.661-2.395-4.348-3.507-6.537Z" transform="translate(519.954 -246.146)" fill="#1b6d96" opacity="0.3" style="mix-blend-mode: multiply;isolation: isolate"/>
          <g id="Group_1217" data-name="Group 1217" transform="translate(51.52 1.167)">
            <path id="Path_3391" data-name="Path 3391" d="M-461.083,301.125l-7.167-48.269,7.592-.85,7.17,48.268Z" transform="translate(468.25 -242.346)" fill="#26a9e0"/>
            <path id="Path_3392" data-name="Path 3392" d="M-461.083,300.859l-7.167-48.269,2.446-.269,7.165,48.262Z" transform="translate(468.25 -242.079)" fill="#126fad"/>
            <path id="Path_3393" data-name="Path 3393" d="M-458.121,300.508l-7.163-48.267,2.112-.236,7.17,48.268Z" transform="translate(470.764 -242.346)" fill="#1b75bb"/>
            <path id="Path_3394" data-name="Path 3394" d="M-467.319,252.381a10,10,0,0,1,.1-2.021c.018-.724.074-1.454.14-2.171.035-.377-.02-1.321.658-1.4.77-.089.885.843,1.042,1.207.34.769.562,1.572.843,2.352a7.185,7.185,0,0,1,.735,2,.92.92,0,0,0-.97.09c-.015-.144-.227-.486-.462-.331-.211.133.076.519.146.621-.29.085-.695-.338-1.016-.4a2.8,2.8,0,0,0-1.112.1Z" transform="translate(469.006 -246.778)" fill="#26a9e0"/>
            <path id="Path_3395" data-name="Path 3395" d="M-468.141,255.221c.7-.913.73-2.419.979-3.472a7.826,7.826,0,0,1,.351-1.528c.3-.637,1.1-.342,1.717-.467a2.224,2.224,0,0,1,.924-.155c.3.061.471.257.756.333.362.087.484.066.717.327a5.414,5.414,0,0,1,.5.759,15.822,15.822,0,0,1,1.621,3.195.8.8,0,0,1-.553.972,2.174,2.174,0,0,1-.8.153c-.253,0-.54-.14-.745-.068.074.484-.506.97-1.1,1.133a1.932,1.932,0,0,1-1.829-.285c-.889.82-2.581.059-2.563-.826Z" transform="translate(468.313 -244.402)" fill="#fcd8b6"/>
            <path id="Path_3396" data-name="Path 3396" d="M-466.662,249.862a5.331,5.331,0,0,0-.65,1.85c-.174.632-.351,1.281-.528,1.907a3.931,3.931,0,0,0-.338,1.462,1.26,1.26,0,0,0,1,1.166c.51.046.331-.242.268-.54a1.15,1.15,0,0,1,.078-.913,5.045,5.045,0,0,0,.246-2.668,1.546,1.546,0,0,1,.636-1.567c.27-.14.547-.159.639-.466.078-.273-.146-.414-.523-.414a1.923,1.923,0,0,0-.87.224Z" transform="translate(468.301 -244.318)" fill="#e0b892"/>
            <path id="Path_3397" data-name="Path 3397" d="M-466.112,249.762a3.729,3.729,0,0,1,.968,2.075,1.763,1.763,0,0,1,.013.887,2.663,2.663,0,0,0-.285.8c.02.619.218.931-.281,1.495-.26.288-.907,1.2.1,1.014.848-.153.65-1.159,1.428-1.231.355-.037.56.157.933.061a.648.648,0,0,0,.543-.621,4.085,4.085,0,0,0-.844-2.092,10.483,10.483,0,0,0-1.035-1.663c-.24-.283-.915-1.16-1.454-.735Z" transform="translate(470.037 -244.353)" fill="#ffe5cf"/>
            <path id="Path_3398" data-name="Path 3398" d="M-465.17,249.667c-.623.285-1.3-.159-1.706.5a8.074,8.074,0,0,0-.5,1.661,11.837,11.837,0,0,0-.815,2.907,1.54,1.54,0,0,0,1.545,1.628c-.083-.277-.451-.493-.639-.741a1.1,1.1,0,0,1-.185-1.035c.188-.756.286-1.526.488-2.276a8.937,8.937,0,0,1,.486-1.813,1.006,1.006,0,0,1,.637-.46c.176-.057.719-.188.61-.294Z" transform="translate(468.3 -244.328)" fill="#c68a59"/>
            <path id="Path_3399" data-name="Path 3399" d="M-466.617,249.935c.22.055.506-.181.759-.083.163.059.412.4.536.51.081-.235-.388-.506-.211-.691.314-.344.741.1.911.2.3-.3.913.312.9.53-.187-.078-.327-.322-.567-.342-.3-.031-.423.222-.693.272-.089.238-.011.565-.336.732-.192-.172-.15-.434-.381-.625a1.283,1.283,0,0,0-.711-.294c-.244-.018-.7.194-.717-.148-.02-.307.473-.248.641-.076Z" transform="translate(469.202 -244.434)" fill="#c68a59"/>
            <path id="Path_3400" data-name="Path 3400" d="M-467.354,250.05a1.806,1.806,0,0,1,1.221-.272c.15.026.381.148.529.094s.155-.273.29-.357a.54.54,0,0,1,.565-.022c.227.1.153.137.386.179.172.03.251-.041.447.076a.782.782,0,0,1,.31.383.806.806,0,0,0-.549-.22c-.131.007-.083.172-.283.164-.08,0-.179-.105-.244-.133-.918-.37-.054.3-.346.554a2.121,2.121,0,0,0-1.044-.521,2.392,2.392,0,0,0-.776.018c-.187.033-.434.183-.588.131Z" transform="translate(468.943 -244.534)" fill="#8a5d3b"/>
            <path id="Path_3401" data-name="Path 3401" d="M-466.662,246.905c-.423.161-.286.941-.3,1.24-.022.49-.018.968-.065,1.452-.039.431-.061.843-.128,1.275a2.158,2.158,0,0,0-.076,1.136,3.3,3.3,0,0,1,1.134-.2,7.148,7.148,0,0,1-.429-1.425,11.71,11.71,0,0,1,.087-1.5,3.535,3.535,0,0,1,.142-1.275c.1-.166.453-.266.353-.488-.067-.153-.486-.272-.673-.22Z" transform="translate(469.06 -246.683)" fill="#1b75bb"/>
            <path id="Path_3402" data-name="Path 3402" d="M-466.851,247.021c.364-.259.695,1.125.721,1.3.094.612.181,1.208.275,1.816.035.249-.1.981.124,1.151.142.113.436.026.628.091.24.089.381.334.619.37a4.614,4.614,0,0,0-.5-1.325,11.535,11.535,0,0,1-.512-1.362c-.133-.445-.275-.887-.432-1.34-.052-.157-.6-1.317-.935-.763Z" transform="translate(469.427 -246.753)" fill="#52d6ff"/>
            <g id="Group_1216" data-name="Group 1216" transform="translate(6.16 55.012)">
              <path id="Path_3403" data-name="Path 3403" d="M-456.669,276.84a.648.648,0,0,1,.172-.015,13.6,13.6,0,0,0-4.958-.1,13.586,13.586,0,0,0-2.35.466c-.3.105-.661.224-.789.469-.15.288.187.543-.177.817.286.412.211.565.224.994.006.229.085.872.353,1,.517.255,2.616-.246,3.263-.323a16.364,16.364,0,0,1,3.437-.17c.4.037.948.443,1.262.436.687-.017.4-.493.349-.713s-.164-.133-.089-.34c.05-.131.4-.163.444-.329.066-.244-.237-.248-.3-.442-.052-.164.1-.231.076-.368-.076-.558.065-1.328-.983-1.377Z" transform="translate(465.039 -276.55)" fill="#faaf40"/>
              <path id="Path_3404" data-name="Path 3404" d="M-455.805,277.825a9.794,9.794,0,0,0-6.384-.71,6.028,6.028,0,0,0-2.528.977c-.421.541.139.449.54.216a5.073,5.073,0,0,1,1.229-.617,11.381,11.381,0,0,1,4.8-.227,6.786,6.786,0,0,1,1.157.314c.414.172.591.469.941.662.828.447.891-.508.109-.649Z" transform="translate(464.958 -276.269)" fill="#a87c4f"/>
              <path id="Path_3405" data-name="Path 3405" d="M-455.743,278.641c-.44-.565-1.944-.889-2.768-1a13.225,13.225,0,0,0-3.193.055,6.274,6.274,0,0,0-2.764.722c-.244.172-.783.686-.153.732.364.028.944-.552,1.271-.684a10.785,10.785,0,0,1,5.006-.161,8.537,8.537,0,0,1,2.066.691c.942.364,1.122-.468.244-.516Z" transform="translate(464.916 -275.684)" fill="#a87c4f"/>
              <path id="Path_3406" data-name="Path 3406" d="M-455.935,278.98a13.114,13.114,0,0,1-1.984-.578,12.009,12.009,0,0,0-2.446-.159c-.922.007-4.22.065-4.161,1.2.4.2,1.922-.456,2.507-.53a16.591,16.591,0,0,1,2.979-.153,5.577,5.577,0,0,1,1.356.216c.438.137.619.414.97.578,1.068.488,1.245-.44.6-.9Z" transform="translate(465.246 -275.116)" fill="#a87c4f"/>
              <path id="Path_3407" data-name="Path 3407" d="M-464.278,279.509a8.363,8.363,0,0,0,.259,2.347,7.184,7.184,0,0,0,.713,2.43c1.055,1.558,3.466,1.739,5.407.924,2.19-.928,1.7-2.574,1.726-4.122,0-.373.011-.75-.009-1.116-.035-.5-.174-.549-.735-.824a7.377,7.377,0,0,0-2.578-.772,7.764,7.764,0,0,0-5.131,1.38Z" transform="translate(465.162 -275.024)" fill="#ffe5b6"/>
              <path id="Path_3408" data-name="Path 3408" d="M-456.333,279.551a7.317,7.317,0,0,0-5.591-1.125c-.9.192-2.162.438-2.469,1.2a4.075,4.075,0,0,0,.242,2.252c.279.87.5,2.206,1.308,2.883.543.456,2.617,1.26,3.348.669-.994-.388-1.633-.586-2.106-1.419a2.607,2.607,0,0,1-.3-2.387c.922-1.824,3.638-1.681,5.643-2.023Z" transform="translate(465.284 -275.088)" fill="#ffc880" opacity="0.23" style="mix-blend-mode: multiply;isolation: isolate"/>
              <path id="Path_3409" data-name="Path 3409" d="M-463.95,280.619c-.24.421.1,1.545.192,2.11a10.691,10.691,0,0,0,.543,2.208c.5,1.327,2.581,2.857,4.525,1.985-.255-.431-.889-.51-1.4-.71a3.264,3.264,0,0,1-1.523-1.085,5.093,5.093,0,0,1-.972-2.877c-.026-.728.329-1.678-.1-2.256-.34-.451-.285-.482-.218-1,.05-.353-.355-.7-.211-1.044.116-.29.883-.551.713-.9-.144-.312-1.129-.225-1.452-.116a1.124,1.124,0,0,0-.584.366c-.146.212.055.425.015.565-.124.407-.632.7.085,1.009a2.333,2.333,0,0,0-.434,1.066c.074.447.673.46.793.929Z" transform="translate(465.036 -276.314)" fill="#a87c4f" opacity="0.79" style="mix-blend-mode: multiply;isolation: isolate"/>
              <path id="Path_3410" data-name="Path 3410" d="M-461.424,279.754c.1.283.6.379.863.59a2.825,2.825,0,0,1,.673.929,5.246,5.246,0,0,1,.575,2.018c.057.839-.035,3.1-1.632,3.335,1.589-.15,1.907-1.565,2.02-2.465.065-.558.122-1.1.146-1.665.011-.431-.279-1.079.026-1.482.687-.006.331-.955.159-1.19.39-.17.283-.486.026-.684.726-.172-.006-1.138-.019-1.46-.03-.656-.2-1-1.2-.968.449.5.972,1.423.449,2.031-.427.5-1.685.469-1.944,1.092Z" transform="translate(467.877 -276.413)" fill="#a87c4f" opacity="0.79" style="mix-blend-mode: multiply;isolation: isolate"/>
              <path id="Path_3411" data-name="Path 3411" d="M-460.291,278.294c-2.613-.412-3.973.955-3.753,2.72.155,1.249.358,3.681,2.241,4.05.275-.591-.621-1.434-.82-2.031a2.113,2.113,0,0,1,.205-2.169,8.4,8.4,0,0,1,2.568-1.476c.745-.4,1.081-1.373-.283-1.109Z" transform="translate(465.637 -275.133)" fill="#a87c4f" opacity="0.55" style="mix-blend-mode: multiply;isolation: isolate"/>
            </g>
          </g>
          <g id="Group_1223" data-name="Group 1223" transform="translate(17.734 47.504)">
            <path id="Path_3412" data-name="Path 3412" d="M-418.23,273.527a1.573,1.573,0,0,0-1.465-1.672l-41.294.649a1.606,1.606,0,0,0-1.438,1.722l.061,8.479-22.284.329a1.877,1.877,0,0,0-1.885,1.84l.253,37.571a1.845,1.845,0,0,0,1.911,1.79l53.994-.795a1.877,1.877,0,0,0,1.883-1.844l-.076-11.052,9.163-.142a1.609,1.609,0,0,0,1.439-1.724Z" transform="translate(486.535 -271.855)" fill="#bcc7ce" style="mix-blend-mode: multiply;isolation: isolate"/>
            <g id="Group_1222" data-name="Group 1222" transform="translate(1.286 1.09)">
              <g id="Group_1219" data-name="Group 1219">
                <g id="Group_1218" data-name="Group 1218">
                  <path id="Path_3413" data-name="Path 3413" d="M-418.654,285.476v-10.15a3.193,3.193,0,0,0-3.428-2.881H-455.7a3.191,3.191,0,0,0-3.428,2.881v8.836H-483.8a1.952,1.952,0,0,0-2.042,1.85v38.855a1.954,1.954,0,0,0,2.042,1.85h63.2a1.954,1.954,0,0,0,2.044-1.85V286.011A1.714,1.714,0,0,0-418.654,285.476Z" transform="translate(485.839 -272.445)" fill="#ffd62c"/>
                  <path id="Path_3414" data-name="Path 3414" d="M-418.654,285.476v-10.15a3.193,3.193,0,0,0-3.428-2.881H-455.7a3.191,3.191,0,0,0-3.428,2.881v8.836H-483.8a1.952,1.952,0,0,0-2.042,1.85v38.855a1.954,1.954,0,0,0,2.042,1.85h63.2a1.954,1.954,0,0,0,2.044-1.85V286.011A1.714,1.714,0,0,0-418.654,285.476Z" transform="translate(485.839 -272.445)" fill="url(#linear-gradient)" style="mix-blend-mode: multiply;isolation: isolate"/>
                </g>
                <path id="Path_3415" data-name="Path 3415" d="M-418.654,285.476v-10.15a3.193,3.193,0,0,0-3.428-2.881H-455.7a3.191,3.191,0,0,0-3.428,2.881v8.836H-483.8a1.952,1.952,0,0,0-2.042,1.85v38.855a1.954,1.954,0,0,0,2.042,1.85h63.2a1.954,1.954,0,0,0,2.044-1.85V286.011A1.714,1.714,0,0,0-418.654,285.476Z" transform="translate(485.839 -272.445)" fill="url(#linear-gradient-2)" style="mix-blend-mode: multiply;isolation: isolate"/>
              </g>
              <g id="Group_1221" data-name="Group 1221" transform="translate(12.4 32.855)">
                <g id="Group_1220" data-name="Group 1220">
                  <path id="Path_3416" data-name="Path 3416" d="M-471.546,311.642v-10.93a4.623,4.623,0,0,1,4.775-4.457h17.826a4.623,4.623,0,0,1,4.778,4.457v10.93H-437V294.681a4.626,4.626,0,0,0-4.776-4.455h-32.157a4.625,4.625,0,0,0-4.775,4.455v16.961Z" transform="translate(479.482 -290.226)" fill="#01665c"/>
                  <path id="Path_3417" data-name="Path 3417" d="M-471.964,311.642v-10.93a4.625,4.625,0,0,1,4.777-4.457h17.825a4.621,4.621,0,0,1,4.775,4.457v10.93h7.167V294.681a4.625,4.625,0,0,0-4.775-4.455h-32.157a4.627,4.627,0,0,0-4.776,4.455v16.961Z" transform="translate(479.128 -290.226)" fill="#a3bfbc"/>
                </g>
                <path id="Path_3418" data-name="Path 3418" d="M-473.322,290.3c-1.495.516-2.82.037-4.1,1.3-1.6,1.571-1.475,3.773-1.475,5.8,0,2.583.092,5.144.213,7.707.094,1.986.593,3.986.643,5.911.453-1.3.582-3.455.99-5.007a30.941,30.941,0,0,1,3.006-7.729c1.643-2.857,3.542-3.914,6.619-4.9.639-.207,2.125-.721,2.04-1.571-.078-.815-1.452-.887-2.143-1.009a21.563,21.563,0,0,0-5.364-.5,5.235,5.235,0,0,0-1.072.3Z" transform="translate(479.322 -290.191)" fill="#c2d3d1" opacity="0.6"/>
                <path id="Path_3419" data-name="Path 3419" d="M-464.1,290.631c6.316-.189,9.775,7.91,9.762,12.733-.007,2.578-.425,5.166-.309,7.657a10.29,10.29,0,0,0,2.668.414c1.379.116,1.4.011,1.393-1.269,0-3.032-.174-6-.213-9.032-.053-3.854,1.233-9.7-4.078-10.676a25.366,25.366,0,0,0-4.612-.126c-.776,0-1.48-.1-2.251-.1-.843-.006-1.362.4-2.145.4Z" transform="translate(491.871 -290.219)" fill="#d8e5e3" opacity="0.6"/>
                <path id="Path_3420" data-name="Path 3420" d="M-476.544,290.913c-1.587.854-1.85,3.485-1.938,5.006-.115,2-.1,4.026-.207,6.022-.094,1.724-.124,3.465-.214,5.176-.065,1.149-.346,3.182.318,4.115,1.029-.9.663-4.364.73-5.615a47.647,47.647,0,0,1,.907-7.021c.567-2.768,1.733-5.105,4.7-6,1.683-.51,3.542-1.973.643-2.079-.881-.028-1.8-.039-2.681,0a17.4,17.4,0,0,0-2.446.525c-.091.011-.091.153-.135.187.022.22.026-.285,0-.207Z" transform="translate(479.221 -290.002)" fill="#d8e5e3" opacity="0.6"/>
              </g>
            </g>
          </g>
        </g>
      </g>
      <g id="Group_1228" data-name="Group 1228" transform="translate(1137.611 2491.179)">
        <g id="Group_1227" data-name="Group 1227" transform="translate(17.512 12.963)">
          <g id="Group_1226" data-name="Group 1226">
            <path id="Path_3421" data-name="Path 3421" d="M-492.8,244.959a13.121,13.121,0,0,0-13.328-12.9,13.116,13.116,0,0,0-13.321,12.9c0,4.689,4.992,7.291,6.455,11.054.306.794-.507,1.654-.507,2.555a7.205,7.205,0,0,0,7.373,7.023,7.209,7.209,0,0,0,7.375-7.023c0-.9-.813-1.761-.507-2.555C-497.793,252.249-492.8,249.647-492.8,244.959Z" transform="translate(519.448 -232.055)" fill="#007d92"/>
            <path id="Path_3422" data-name="Path 3422" d="M-493.462,244.876A12.551,12.551,0,0,0-506.27,232.6a12.55,12.55,0,0,0-12.807,12.273c0,4.464,4.8,6.939,6.206,10.52.3.755-.212,1.718-.212,2.577a6.534,6.534,0,0,0,6.813,6.533,6.692,6.692,0,0,0,6.684-6.861c0-.855-.382-1.494-.082-2.249C-498.262,251.815-493.462,249.34-493.462,244.876Z" transform="translate(519.591 -231.844)" fill="#bae6e3"/>
            <path id="Path_3423" data-name="Path 3423" d="M-509.918,257.815a.48.48,0,0,1-.518.425h0a.479.479,0,0,1-.518-.425v-8.531a.481.481,0,0,1,.518-.425h0a.481.481,0,0,1,.518.425Z" transform="translate(522.723 -225.576)" fill="#fff"/>
            <path id="Path_3424" data-name="Path 3424" d="M-508.786,250.47c.128.159.042.393-.194.522h0a.549.549,0,0,1-.667-.049l-4.729-5.792c-.13-.157-.046-.389.2-.521h0a.545.545,0,0,1,.661.044Z" transform="translate(521.38 -227.24)" fill="#fff"/>
            <path id="Path_3425" data-name="Path 3425" d="M-509.368,257.889a.482.482,0,0,0,.52.428h0a.483.483,0,0,0,.521-.428V249.36a.484.484,0,0,0-.521-.424h0a.483.483,0,0,0-.52.424Z" transform="translate(523.335 -225.547)" fill="#fff"/>
            <path id="Path_3426" data-name="Path 3426" d="M-509.2,250.547c-.126.157-.039.392.2.525h0a.543.543,0,0,0,.661-.053l4.727-5.789c.133-.159.044-.391-.194-.524h0a.543.543,0,0,0-.661.047Z" transform="translate(523.377 -227.211)" fill="#fff"/>
            <path id="Path_3427" data-name="Path 3427" d="M-511.5,233.581c-1.169,1.246-3,2.166-4.143,3.594a9.752,9.752,0,0,0-2.095,4.791,8.742,8.742,0,0,0,.644,5.661c.762,1.556,2.707,4.259,4.141,1.634,1.417-2.588,2.766-3.763,6.077-4.679,2.579-.718,6.177-.835,7.635-3.058,2.131-3.27-1.172-6.541-4.755-7.83a12.049,12.049,0,0,0-5.048-.438,12.912,12.912,0,0,0-4.007,1.2Z" transform="translate(520.033 -231.625)" fill="#cbecec" opacity="0.7"/>
            <path id="Path_3428" data-name="Path 3428" d="M-507.5,233.251a15.576,15.576,0,0,0-6.08,2.062c-1.534,1.046-3.744,3.131-2.687,4.906,1.57,2.628,3.9-.349,4.851-1.636,1.093-1.488,2.239-3.28,4.431-3.593.928-.132,3.408.215,2.365-1.115-.633-.8-2.868-.8-3.788-.514Z" transform="translate(520.567 -231.619)" fill="#f4f5f5" opacity="0.73"/>
            <path id="Path_3429" data-name="Path 3429" d="M-507.03,237.229c.769,1.427,1.95,2.639,2.358,4.385a15.616,15.616,0,0,1,.359,5.085c-.291,2.669-1.466,5.048-2.152,7.584a13.5,13.5,0,0,0,6.807-9.109c.578-3.295.86-7.993-3.618-9.445-1.307-.42-3.5.03-3.372,1.5Z" transform="translate(524.236 -230.696)" fill="#f4f5f5" opacity="0.73"/>
            <path id="Path_3430" data-name="Path 3430" d="M-502.117,256.483c0,.991-1.085,1.8-2.417,1.8H-512c-1.33,0-2.411-.8-2.411-1.8h0c0-.995,1.081-1.8,2.411-1.8h7.463c1.332,0,2.417.8,2.417,1.8Z" transform="translate(521.392 -223.329)" fill="#007d92"/>
            <path id="Path_3431" data-name="Path 3431" d="M-502.447,258.116c0,.718-1.039,1.3-2.314,1.3h-7.148c-1.277,0-2.311-.586-2.311-1.3h0c0-.721,1.034-1.308,2.311-1.308h7.148c1.275,0,2.314.587,2.314,1.308Z" transform="translate(521.464 -222.511)" fill="#007d92"/>
            <path id="Path_3432" data-name="Path 3432" d="M-502.873,259.286c0,.63-.991,1.142-2.211,1.142h-6.828c-1.226,0-2.216-.511-2.216-1.142h0c0-.632.989-1.144,2.216-1.144h6.828c1.221,0,2.211.513,2.211,1.144Z" transform="translate(521.499 -221.997)" fill="#007d92"/>
            <path id="Path_3433" data-name="Path 3433" d="M-504.781,235.6c-1.912-.133-.3,1.846.249,2.31a7.837,7.837,0,0,1,2.337,3,10.246,10.246,0,0,1,.278,7.31c2.171-1.974,2.44-5.984,1.821-8.484a5.518,5.518,0,0,0-2.322-3.406c-.855-.575-3.626-1.542-3.4.357Z" transform="translate(524.699 -230.7)" fill="#fff"/>
            <path id="Path_3434" data-name="Path 3434" d="M-512.39,234.345a6.564,6.564,0,0,0-3.2,2.394c-.64.988-.553,2.408,1.128,1.5.956-.514,1.555-1.774,2.321-2.477a6.592,6.592,0,0,1,3.2-1.851c-1.415-.625-3.9.529-5,1.3Z" transform="translate(520.794 -231.408)" fill="#fff"/>
            <path id="Path_3435" data-name="Path 3435" d="M-505.021,260.607c0,1.532-1.767,2.774-3.946,2.774s-3.949-1.241-3.949-2.774,1.769-2.777,3.949-2.777S-505.021,259.073-505.021,260.607Z" transform="translate(521.966 -222.117)" fill="#007d92"/>
            <path id="Path_3436" data-name="Path 3436" d="M-504.4,254.949c.878.775-.179,1.757-1.078,2.038a29.28,29.28,0,0,1-3.221.716,13.682,13.682,0,0,1,2.918.466c.4.186.858.569.639.989s-.937.327-1.327.538c.3.033.822.01.992.258.236.352-.281.655-.6.765a7.05,7.05,0,0,1-2.66.251c.7.3,1.582.244,1.193,1.167a1.819,1.819,0,0,1-1.549,1.052,3.244,3.244,0,0,1-1.949-.5,3.859,3.859,0,0,1-.8-.628c-.262-.269-.478-.49-.625-.044-.176.535.539,1.211.995,1.528a4.229,4.229,0,0,0,1.948.783,3.988,3.988,0,0,0,3.634-1.653c.152-.276.263-.561.412-.834s.026-.177.31-.3c.159-.067.348-.091.515-.165.33-.136.716-.3.811-.623.1-.351-.184-.5-.384-.763.366-.3.912-.527.912-1.016,0-.549-.614-.763-.86-1.192a1.366,1.366,0,0,0,.991-1.348,1.433,1.433,0,0,0-.949-1.205c-.155.13-.06.313,0,.477Z" transform="translate(522.125 -223.228)" fill="#005d66"/>
            <path id="Path_3437" data-name="Path 3437" d="M-514.332,247.9l-.193-.145a.767.767,0,0,1,.442-.162,1.967,1.967,0,0,0,.26-.044,5.284,5.284,0,0,0,1.194-.6,2.555,2.555,0,0,1,.22-.134,6.22,6.22,0,0,0,.851-.632,1.881,1.881,0,0,1-.306-.561,1.3,1.3,0,0,1,.3-1.417,1.191,1.191,0,0,1,.906-.33.557.557,0,0,1,.429.32c.155.345-.37,1.239-.479,1.4a4.452,4.452,0,0,1-.515.6,1.367,1.367,0,0,0,.65.371,2.292,2.292,0,0,0,1.636-.265,2.849,2.849,0,0,0,.549-.381,1.779,1.779,0,0,1-.335-.791c-.006-.054-.183-1.323.522-1.645a.6.6,0,0,1,.572-.015c.381.227.358.919.316,1.172a2.47,2.47,0,0,1-.743,1.291,1.669,1.669,0,0,0,.855.456,1.649,1.649,0,0,0,1.349-.319,1.622,1.622,0,0,1-.152-1.548c.015-.035.313-.8.773-.84a.535.535,0,0,1,.488.281c.4.6-.421,1.706-.592,1.919a1.5,1.5,0,0,1-.186.211,2.389,2.389,0,0,0,1.524.7,4.837,4.837,0,0,0,2.307-.158.471.471,0,0,1,.128-.083l.891-.389-.741.567a.713.713,0,0,1-.1.065l0,.007h0a4.907,4.907,0,0,1-2.516.211,2.671,2.671,0,0,1-1.667-.758,1.949,1.949,0,0,1-1.557.349,1.9,1.9,0,0,1-.967-.5,3.67,3.67,0,0,1-.572.392,2.611,2.611,0,0,1-1.848.288,1.7,1.7,0,0,1-.751-.421,6.455,6.455,0,0,1-.862.63c-.071.042-.141.085-.219.129a5.16,5.16,0,0,1-1.262.635,2.082,2.082,0,0,1-.3.061A.5.5,0,0,0-514.332,247.9Zm3.564-3.816a.965.965,0,0,0-.6.263,1.116,1.116,0,0,0-.242,1.208,1.6,1.6,0,0,0,.238.457,3.808,3.808,0,0,0,.443-.529c.211-.3.554-1.02.463-1.212a.3.3,0,0,0-.233-.183A.343.343,0,0,0-510.769,244.081Zm5.581-.188h-.01c-.187.018-.435.375-.556.691a1.418,1.418,0,0,0,.091,1.313c.039-.043.075-.09.115-.137.344-.436.852-1.283.576-1.695C-505.019,243.987-505.1,243.893-505.188,243.893Zm-2.689-.272a.445.445,0,0,0-.2.05c-.412.187-.459.973-.391,1.427a1.525,1.525,0,0,0,.256.648,2.232,2.232,0,0,0,.64-1.138c.054-.323.011-.835-.206-.962A.2.2,0,0,0-507.877,243.621Z" transform="translate(521.346 -227.68)" fill="#005d66"/>
            <path id="Path_3438" data-name="Path 3438" d="M-513.043,254.882c-1.5.928-.848,2.044.251,2.874a1.012,1.012,0,0,0-.079,1.972c-1.186.467-.064,1.107.475,1.362a6.837,6.837,0,0,1,1.685,1.448c-.272-.319-1.351-1.47-1.236-1.769a2.485,2.485,0,0,0,2.26-.334c-.578-.184-2.664.035-2.635-.808a2.747,2.747,0,0,0,1.99-.869c-.691.107-1.435.049-1.729-.6l.054-.042a2.8,2.8,0,0,0,1.592-.579.192.192,0,0,0-.051-.09c-.748-.066-1.322-.432-.7-.986.324-.3,1.272-.6.969-1.146-.443-.794-3.073-.351-3.493.276Z" transform="translate(521.578 -223.254)" fill="#bae6e3"/>
          </g>
        </g>
        <path id="Path_3439" data-name="Path 3439" d="M-516.041,246.531c-4.022-.323-9.2,8.567-11.046,11.288,1.521.991,3.453,2.243,5.282,2.374a11.1,11.1,0,0,1,2.4-4.748c1.025-1.236,4.842-3.051,5.305-4.345.427-1.2-1.674-4.777-2.619-4.873Z" transform="translate(534.015 -213.628)" fill="#ffee05"/>
        <path id="Path_3440" data-name="Path 3440" d="M-531.563,248.945a78.683,78.683,0,0,1,15.716-2.789,38.852,38.852,0,0,0-1.018-5.4c-3.447,1.017-10.868,2.156-14.36.855-1.243,1.115-.942,6.332-.338,7.036Z" transform="translate(532.087 -215.739)" fill="#ffee05"/>
        <path id="Path_3441" data-name="Path 3441" d="M-529.824,234.214c4.075,1.164,9.106,3.875,12.764,5.681-.3-1.779,1.23-2.879,2.289-4.092-4.079-1.169-8.829-4.809-12.038-7.407-1.783.975-2.882,3.244-3.69,4.9Z" transform="translate(532.699 -220.502)" fill="#ffee05"/>
        <path id="Path_3442" data-name="Path 3442" d="M-520.327,224.949c.089-.4.643,1.262.877,1.714.734,1.41,1.718,2.691,2.523,4.069.93,1.593,1.661,3.271,2.505,4.859a12.077,12.077,0,0,1,4.135-1.067c-.689-3.995-2.939-7.744-3.856-11.684-2.213-.362-4.008,1.5-6.134,1.5.219.036.285-.058.453-.152Z" transform="translate(536.621 -222.662)" fill="#ffee05"/>
        <path id="Path_3443" data-name="Path 3443" d="M-506.054,223.007c-.488,3.464-2,7.077-3,10.333a15.6,15.6,0,0,1,4.144.611c-.213-3.238,2.627-7.411,4.157-10.2-1.973.242-3.429-1.074-5.305-1.054Z" transform="translate(540.969 -222.699)" fill="#ffee05"/>
        <path id="Path_3444" data-name="Path 3444" d="M-495.942,226.193c-2.185,2.768-4.455,5.426-6.695,8.031,1.381.841,1.916,2.271,3.174,3.108,1.322-1.272,2.4-2.633,3.893-3.821a34.065,34.065,0,0,0,5.152-4.4c-1.187-.04-4.022-2.475-5.02-3.223Z" transform="translate(543.441 -221.469)" fill="#ffee05"/>
        <path id="Path_3445" data-name="Path 3445" d="M-498.654,236.455c.28-.154,1.024,5.26.995,6.346,2.429-2.48,8.71-2.483,12.068-3.02-.068-.872-.757-1.647-1.021-2.558-.313-1.056-.306-2.163-.661-3.181-1.582.012-4,1.271-5.678,1.653-1.552.362-4.543.1-5.7.913Z" transform="translate(544.977 -218.326)" fill="#ffee05"/>
        <path id="Path_3446" data-name="Path 3446" d="M-497.027,242.05c-1.059,1.241-1.453,3.1-2.8,4.269,1.764.1,3.6,2.121,5.012,3.039a32.854,32.854,0,0,0,5.133,3.032c.626-1.095,1.768-1.76,2.529-2.685-1.783-1.158-3.91-1.854-5.685-3.087-1.621-1.129-2.542-3.055-4.193-4.115Z" transform="translate(544.526 -215.238)" fill="#ffee05"/>
        <path id="Path_3447" data-name="Path 3447" d="M-503.133,248.829c1.7,3.2,2.572,6.853,3.722,10.332.938-.2,2.11-1.186,3.158-1.617,1.024-.423,2.879-.593,2.82-1.826-.036-.791-2.307-3.465-2.867-4.3s-2.283-4.058-3.174-4.387c-1.063-.4-3.4,1.538-3.49,2.1Z" transform="translate(543.25 -213.337)" fill="#ffee05"/>
      </g>
      <g id="Group_1171" data-name="Group 1171" transform="translate(1182.296 2480.128)">
        <path id="Path_3227" data-name="Path 3227" d="M649.564,441.973c0,13.132-10.64,33.154-23.768,33.154H588.435a23.779,23.779,0,0,1-23.772-23.777V354.287a23.777,23.777,0,0,1,23.772-23.772H625.8a23.77,23.77,0,0,1,23.768,23.772Z" transform="translate(-538.776 -270.515)" fill="#466606"/>
        <path id="Path_3228" data-name="Path 3228" d="M651.255,441.973c0,13.132-10.655,27.572-23.782,27.572H590.121c-13.132,0-23.767-14.439-23.767-27.572V354.287a23.767,23.767,0,0,1,23.767-23.772h37.352a23.783,23.783,0,0,1,23.782,23.772Z" transform="translate(-532.247 -270.508)" fill="#618c03"/>
        <g id="Group_1097" data-name="Group 1097" transform="translate(66.624 290.361)">
          <g id="Group_1096" data-name="Group 1096">
            <path id="Path_3229" data-name="Path 3229" d="M573.047,383.572a5.58,5.58,0,1,1,5.582,5.568A5.574,5.574,0,0,1,573.047,383.572Z" transform="translate(-573.047 -377.988)" fill="gray"/>
            <rect id="Rectangle_838" data-name="Rectangle 838" width="1.357" height="11.151" transform="translate(5.6)" fill="gray"/>
          </g>
          <path id="Path_3230" data-name="Path 3230" d="M573.329,383.572a5.585,5.585,0,1,1,5.587,5.568A5.578,5.578,0,0,1,573.329,383.572Z" transform="translate(-571.959 -377.988)" fill="#b3b3b3"/>
        </g>
        <rect id="Rectangle_839" data-name="Rectangle 839" width="9.395" height="87.864" transform="translate(71.421 202.185)" fill="#1c1e29"/>
        <rect id="Rectangle_840" data-name="Rectangle 840" width="9.396" height="87.864" transform="translate(79.568 202.185)" fill="#292b37"/>
        <rect id="Rectangle_841" data-name="Rectangle 841" width="58.894" height="5.898" transform="translate(36.642 290.048)" fill="#1c1e29"/>
        <rect id="Rectangle_842" data-name="Rectangle 842" width="58.893" height="5.898" transform="translate(64.86 290.048)" fill="#292b37"/>
        <path id="Path_3231" data-name="Path 3231" d="M586.421,384.291h60.5A5.188,5.188,0,0,0,652.1,379.1h0a5.181,5.181,0,0,0-5.184-5.174l-80.451-19.866s.544,17.529,9.868,25.415C579.381,382.046,583.549,384.291,586.421,384.291Z" transform="translate(-531.811 -179.802)" fill="#618c03"/>
        <g id="Group_1135" data-name="Group 1135" transform="translate(48.933)">
          <g id="Group_1134" data-name="Group 1134">
            <g id="Group_1110" data-name="Group 1110" transform="translate(6.352 149.866)">
              <g id="Group_1109" data-name="Group 1109">
                <path id="Path_3232" data-name="Path 3232" d="M615.09,379.972v-8.959a22,22,0,0,0-21.941-21.941h-.384a22,22,0,0,0-21.941,21.941l-.112,6.472v2.487Z" transform="translate(-570.713 -349.072)" fill="#292a36"/>
                <g id="Group_1108" data-name="Group 1108" transform="translate(0 28.399)">
                  <g id="Group_1102" data-name="Group 1102" transform="translate(36.9)">
                    <g id="Group_1101" data-name="Group 1101" transform="translate(57.388 99.263)">
                      <rect id="Rectangle_843" data-name="Rectangle 843" width="7.808" height="6.566" transform="matrix(1, -0.023, 0.023, 1, 1.895, 0.182)" fill="#cf9b72"/>
                      <rect id="Rectangle_844" data-name="Rectangle 844" width="9.179" height="9.506" transform="matrix(1, -0.025, 0.025, 1, 1.295, 4.433)" fill="#e2f8f6"/>
                      <g id="Group_1100" data-name="Group 1100" transform="translate(0 5.508)">
                        <g id="Group_1099" data-name="Group 1099">
                          <g id="Group_1098" data-name="Group 1098">
                            <path id="Path_3233" data-name="Path 3233" d="M595.106,376.482a3.367,3.367,0,0,0-3.377,3.382v3.095a3.382,3.382,0,0,0,3.381,3.386h0a3.38,3.38,0,0,0,3.387-3.386v-3.119a3.362,3.362,0,0,0-3.391-3.357Z" transform="translate(-583.912 -376.482)" fill="#292a36"/>
                            <path id="Path_3234" data-name="Path 3234" d="M590.13,379.266a1.706,1.706,0,0,0,1.7,1.715c3.2,0,10.047,0,10.047,0l15.756-.01V378.7l-27.513.044Z" transform="translate(-590.12 -367.931)" fill="#141b2f"/>
                            <path id="Path_3235" data-name="Path 3235" d="M617.628,384.9l-27.5.024-.01-2.629v-3.474a1.711,1.711,0,0,1,1.4-1.676v.185a3.209,3.209,0,0,0,6.418.014v-.233l6.768.437v.165a1.85,1.85,0,0,0,.326,1.137,1.527,1.527,0,0,0,.233.238,2.9,2.9,0,0,0,1.419.593c.112.015.228.039.35.058.306.029.641.039,1.015.053l3.323-.015C614.825,379.775,617.624,381.456,617.628,384.9Z" transform="translate(-590.12 -374.066)" fill="#292a36"/>
                          </g>
                        </g>
                      </g>
                    </g>
                    <path id="Path_3236" data-name="Path 3236" d="M648.95,420.772c-1.02-13.429-2.079-27.319-3.236-41.112l-.024-.282a30.448,30.448,0,0,0-4.907-12.817l-.3-.452a26.882,26.882,0,0,0-15.251-10.48l-2.24-.359c-11.374-.515-32.314-.325-44.688-.292v20.449c8.318,0,16.281-.01,19.832-.039,13.152-.136,9.45-.258,22.616.282a5.922,5.922,0,0,1,2.813,2,10.928,10.928,0,0,1,1.754,3.887c1.137,13.657,2.186,27.436,3.207,40.777.51,6.676,1.03,27.8,1.569,34.66l20.541,0C650.063,449.622,649.5,427.968,648.95,420.772Z" transform="translate(-578.308 -354.917)" fill="#292a36"/>
                    <path id="Path_3237" data-name="Path 3237" d="M627.806,375.919c-3.891-7.788-17.116-9.979-18.1-20.954-10.63-.1-22.995-.01-31.4.014v20.449c8.318,0,16.281-.01,19.832-.039,13.152-.136,9.45-.258,22.616.282a5.922,5.922,0,0,1,2.813,2,10.929,10.929,0,0,1,1.754,3.887c1.137,13.657,2.186,27.436,3.207,40.777.51,6.675,1.03,27.8,1.569,34.66l20.541,0c-.165-2.089-.325-5.335-.486-9.056-3.882-1.287-8.789-1.555-12.238-3.275C623.764,422.419,637.917,398.156,627.806,375.919Z" transform="translate(-578.308 -354.917)" fill="#292a36" opacity="0.4" style="mix-blend-mode: multiply;isolation: isolate"/>
                  </g>
                  <g id="Group_1107" data-name="Group 1107" transform="translate(0 0.013)">
                    <g id="Group_1106" data-name="Group 1106" transform="translate(63.456 99.25)">
                      <rect id="Rectangle_845" data-name="Rectangle 845" width="7.809" height="6.566" transform="translate(1.891 0.182) rotate(-1.334)" fill="#edb485"/>
                      <rect id="Rectangle_846" data-name="Rectangle 846" width="9.178" height="9.506" transform="translate(1.294 4.433) rotate(-1.42)" fill="#fff"/>
                      <g id="Group_1105" data-name="Group 1105" transform="translate(0 5.508)">
                        <g id="Group_1104" data-name="Group 1104">
                          <g id="Group_1103" data-name="Group 1103">
                            <path id="Path_3238" data-name="Path 3238" d="M588.763,376.482a3.369,3.369,0,0,0-3.382,3.382v3.095a3.389,3.389,0,0,0,3.386,3.386h0a3.383,3.383,0,0,0,3.387-3.386v-3.119a3.362,3.362,0,0,0-3.391-3.357Z" transform="translate(-577.569 -376.482)" fill="#343645"/>
                            <path id="Path_3239" data-name="Path 3239" d="M583.779,379.266a1.707,1.707,0,0,0,1.705,1.715c3.192,0,10.047,0,10.047,0l15.756-.01V378.7l-27.513.044Z" transform="translate(-583.774 -367.931)" fill="#141b2f"/>
                            <path id="Path_3240" data-name="Path 3240" d="M611.282,384.9l-27.5.024,0-2.629v-3.474a1.711,1.711,0,0,1,1.4-1.676v.185a3.207,3.207,0,1,0,6.413.014v-.233l6.773.437v.165a1.822,1.822,0,0,0,.326,1.137,1.177,1.177,0,0,0,.233.238,2.877,2.877,0,0,0,1.414.593c.112.015.228.039.355.058.3.029.641.039,1.015.053l3.318-.015C608.479,379.775,611.278,381.456,611.282,384.9Z" transform="translate(-583.774 -374.066)" fill="#343645"/>
                          </g>
                        </g>
                      </g>
                    </g>
                    <path id="Path_3241" data-name="Path 3241" d="M648.079,420.762c-1.021-13.429-2.084-27.319-3.241-41.112l-.029-.287a30.378,30.378,0,0,0-4.9-12.807l-.3-.457c-3.44-4.912-8.269-9.076-14.458-10.247-3.683-.695-10.485-.889-15.037-.889h-.505c-1.841-.024-3.746-.034-5.679-.044v.058c-1.04,0-1.977,0-2.794-.015H589.51v-.044h-18.8v9.78a10.722,10.722,0,0,0,10.708,10.708s18.453.024,32.469.01c1.526.058,3.44.141,5.99.243a5.887,5.887,0,0,1,2.813,2,11.148,11.148,0,0,1,1.754,3.882c1.137,13.662,2.186,27.441,3.211,40.787.505,6.671,1.03,27.8,1.564,34.65l20.536,0C649.182,449.611,648.623,427.952,648.079,420.762Z" transform="translate(-570.713 -354.92)" fill="#343645"/>
                    <path id="Path_3242" data-name="Path 3242" d="M621.935,377.93c17.9,17.9-9.163,67.09,24.623,72.522-.447-9.566-.88-24.054-1.307-29.69-1.021-13.429-2.084-27.319-3.241-41.112l-.029-.287a30.378,30.378,0,0,0-4.9-12.807l-.3-.457c-3.44-4.912-8.269-9.076-14.459-10.247-3.683-.695-10.484-.889-15.037-.889h-.505c-1.841-.024-3.746-.034-5.679-.044v.058c-1.04,0-1.977,0-2.794-.015H586.682v-.044H571.446C572.695,379.387,610.007,364.01,621.935,377.93Z" transform="translate(-567.885 -354.92)" fill="#343645"/>
                    <path id="Path_3243" data-name="Path 3243" d="M624.763,377.93c-11.928-13.92-49.24,1.458-50.489-23.01h-3.561v9.78a10.722,10.722,0,0,0,10.708,10.708s18.453.024,32.469.01c1.526.058,3.44.141,5.99.243a5.887,5.887,0,0,1,2.813,2,11.148,11.148,0,0,1,1.754,3.882c1.137,13.662,2.186,27.441,3.211,40.787.505,6.671,1.03,27.8,1.564,34.65l20.536,0c-.126-1.594-.248-3.882-.374-6.525C615.6,445.02,642.667,395.833,624.763,377.93Z" transform="translate(-570.713 -354.92)" fill="#292a36"/>
                  </g>
                </g>
              </g>
            </g>
            <g id="Group_1114" data-name="Group 1114" transform="translate(45.029 63.393)">
              <g id="Group_1113" data-name="Group 1113">
                <g id="Group_1112" data-name="Group 1112">
                  <g id="Group_1111" data-name="Group 1111">
                    <path id="Path_3244" data-name="Path 3244" d="M639.007,332.6c5.1,8.667,9.46,21.324,7.56,28.359a8.707,8.707,0,0,1-.287.889c-.729,1.977-2.264,4.309-7.71,4.844-12.03,1.181-40.549-13.89-48.7-24.04a6.29,6.29,0,0,0-9.809,7.876c9.683,12.064,41.613,30.463,59.735,28.684,9.022-.884,15.518-5.5,18.292-13,.224-.627.428-1.263.6-1.914,2.735-10.12-1.1-23.044-6.243-33.1A50.133,50.133,0,0,1,639.007,332.6Z" transform="translate(-578.674 -331.201)" fill="#fa0"/>
                  </g>
                </g>
              </g>
            </g>
            <g id="Group_1133" data-name="Group 1133">
              <path id="Path_3245" data-name="Path 3245" d="M606.453,351.475a14.945,14.945,0,0,1-.248,2.779,16.611,16.611,0,0,1-6.807,11.228,14.066,14.066,0,0,1-7.924,2.633,1.909,1.909,0,0,1-.374.024c-8.463,0-15.343-7.477-15.343-16.665a17.829,17.829,0,0,1,1.117-6.258,15.732,15.732,0,0,1,10.256-9.809,13.2,13.2,0,0,1,3.969-.6,14.457,14.457,0,0,1,10.135,4.173A17.114,17.114,0,0,1,606.453,351.475Z" transform="translate(-544.899 -253.757)" fill="#fa0"/>
              <path id="Path_3246" data-name="Path 3246" d="M577.059,403.889a39.117,39.117,0,0,1-1.768,5.641c-7.37,15.95-3.727,32.479-3.872,33.859,9.212,4.251,40.131,1.642,49.1.185,1.006-12.739-.622-28.1-3.43-45.791-1.21-7.613,3.712-31.838,3.712-31.838.068-.534.141-1.069.16-1.6V339.864a3.346,3.346,0,0,0-1.045-2.551,3.789,3.789,0,0,0-1.044-.743,6.948,6.948,0,0,0-1.137-.442l-19.9-3.809-8.381,1.487-13.7,2.463a3.486,3.486,0,0,0-3.391,3.6s.048.214.117.583c.068.394.184.977.326,1.739.787,4.275,2.556,13.842,4.134,23.457v.044c1.6,9.892,3.017,19.808,3.017,24.059,0,.393-.024.743-.049,1.02A71.672,71.672,0,0,1,577.059,403.889Z" transform="translate(-564.625 -263.373)" fill="#f3ad7a"/>
              <path id="Path_3247" data-name="Path 3247" d="M622.892,338.535v24.487c-.025.525-.073,1.069-.146,1.594,0,0-.447,2.157-1.02,5.388-.223,1.142-.447,2.41-.671,3.775-1.292,7.7-2.759,18.156-2.036,22.674.2,1.268.4,2.507.568,3.751,2.458,16.145,3.8,30.224,2.857,42.045-2.06.35-5.339.748-9.236,1.093-7.676.719-40.208,1.142-43.065-.175.146-1.39-.3-19,7.079-34.966a37.323,37.323,0,0,0,1.759-5.641,70.743,70.743,0,0,0,2.862-13.113c.02-.272.049-.617.049-1.015,0-4.246-1.419-14.182-3.007-24.069v-.049c-1.589-9.61-3.352-19.171-4.149-23.442-.146-.773-.248-1.341-.321-1.739-.073-.374-.126-.6-.126-.6a3.48,3.48,0,0,1,3.406-3.576l12.768-2.3s6.379,11.194,17.427,3.964c4.761-3.114,2.954-3.508,2.954-3.508l8.823,1.691a7.457,7.457,0,0,1,1.142.447,3.661,3.661,0,0,1,2.084,3.279Z" transform="translate(-566.557 -262.053)" fill="#fa0"/>
              <path id="Path_3248" data-name="Path 3248" d="M584.447,428.791c-17.384-17.384,13.414-39.7,28.315-57.087-27.042,1.428-29.423.588-29.666-26.318-.019-2.531.967-6.1-.029-8.313-1.871-4.173-5.378-3.94-5.378-3.94a3.49,3.49,0,0,0-3.391,3.6s.048.214.117.583c.068.394.184.977.326,1.739.787,4.276,2.556,13.842,4.13,23.457v.048c1.6,9.887,3.022,19.8,3.022,24.054,0,.393-.024.743-.049,1.02a71.326,71.326,0,0,1-2.857,13.123,38.493,38.493,0,0,1-1.763,5.641c-7.37,15.95-6.928,33.572-7.079,34.947,2.867,1.322,35.379.909,43.065.194,3.887-.359,7.171-.758,9.246-1.093.146-1.812.223-3.688.262-5.6C608.215,436.876,594.631,437.522,584.447,428.791Z" transform="translate(-566.557 -260.241)" fill="#eb8d00"/>
              <g id="Group_1132" data-name="Group 1132">
                <g id="Group_1131" data-name="Group 1131">
                  <path id="Path_3249" data-name="Path 3249" d="M609.863,366.238s-8.964-4.2-24.356-1.292c-.549.107-16.664-30.987-12.263-34.918,10.684-9.532,39.2-5.247,39.2-5.247S617.8,341.45,609.863,366.238Z" transform="translate(-557.526 -296.164)" fill="#141b2f"/>
                  <g id="Group_1115" data-name="Group 1115" transform="translate(25.3 33.863)">
                    <path id="Path_3250" data-name="Path 3250" d="M577.247,368.3h12a8.582,8.582,0,0,0,2.638-6.195V333.732a8.636,8.636,0,0,0-17.272,0V362.1A8.6,8.6,0,0,0,577.247,368.3Z" transform="translate(-574.613 -325.098)" fill="#f3ad7a"/>
                    <path id="Path_3251" data-name="Path 3251" d="M591.885,353.117V333.732a8.636,8.636,0,0,0-17.272,0v22.31Z" transform="translate(-574.613 -325.098)" fill="#f3ad7a" opacity="0.3" style="mix-blend-mode: multiply;isolation: isolate"/>
                  </g>
                  <g id="Group_1127" data-name="Group 1127" transform="translate(7.897)">
                    <path id="Path_3252" data-name="Path 3252" d="M624.848,344.991a27.96,27.96,0,0,1-.248,3.634,24.685,24.685,0,0,1-.578,3A26.954,26.954,0,0,1,588.4,370.128h0a26.869,26.869,0,0,1-17.31-23.457c-.039-.554-.058-1.117-.058-1.681a26.877,26.877,0,0,1,26.9-26.863,26.474,26.474,0,0,1,6.734.85c.8.2,1.584.437,2.361.714a26.967,26.967,0,0,1,17.821,25.3Z" transform="translate(-571.031 -318.128)" fill="#3d414f"/>
                    <g id="Group_1125" data-name="Group 1125" transform="translate(14.162 5.684)">
                      <g id="Group_1117" data-name="Group 1117">
                        <g id="Group_1116" data-name="Group 1116">
                          <path id="Path_3253" data-name="Path 3253" d="M573.946,337.337v18.938a17.9,17.9,0,0,0,5.291,12.744,16.386,16.386,0,0,0,2.167,1.841,18.037,18.037,0,0,0,28.645-14.585V337.337c0-.228-.024-.457-.024-.69a18.046,18.046,0,0,0-36.079.69Z" transform="translate(-573.946 -319.298)" fill="#ffcd9c"/>
                        </g>
                      </g>
                      <g id="Group_1124" data-name="Group 1124" transform="translate(8.064 21.49)">
                        <g id="Group_1123" data-name="Group 1123" transform="translate(0 3.89)">
                          <g id="Group_1118" data-name="Group 1118" transform="translate(4.884)">
                            <path id="Path_3254" data-name="Path 3254" d="M581.052,327.325a2.281,2.281,0,1,1-2.22-2.8A2.562,2.562,0,0,1,581.052,327.325Z" transform="translate(-576.611 -324.522)" fill="#2a2626"/>
                            <path id="Path_3255" data-name="Path 3255" d="M578.513,325.945a.932.932,0,1,1-.909-1.142A1.046,1.046,0,0,1,578.513,325.945Z" transform="translate(-576.283 -323.438)" fill="#fff9ea"/>
                          </g>
                          <g id="Group_1119" data-name="Group 1119" transform="translate(8.863 18.406)">
                            <path id="Path_3256" data-name="Path 3256" d="M589.436,328.6c-.641,2.279-3.09,3.974-6,3.974a6.071,6.071,0,0,1-6.01-3.974c-.01-.049.155-.087.462-.121a91.713,91.713,0,0,1,11.082,0C589.28,328.512,589.445,328.551,589.436,328.6Z" transform="translate(-577.43 -328.311)" fill="#2a2626"/>
                            <path id="Path_3257" data-name="Path 3257" d="M588.607,328.478l-.015.034c-.593.85-2.842,1.487-5.519,1.487s-4.931-.636-5.529-1.487l-.019-.034A91.712,91.712,0,0,1,588.607,328.478Z" transform="translate(-577.063 -328.311)" fill="#fff9ea"/>
                          </g>
                          <g id="Group_1121" data-name="Group 1121" transform="translate(12.594 4.708)">
                            <g id="Group_1120" data-name="Group 1120">
                              <path id="Path_3258" data-name="Path 3258" d="M580.472,335.446h0a2.358,2.358,0,0,1-2.274-2.269c.029-2.167.476-3.25.51-5.417.019-1.249.651-2.269,1.764-2.269h0c1.108,0,1.744,1.02,1.763,2.269.029,2.167.476,3.25.51,5.417A2.365,2.365,0,0,1,580.472,335.446Z" transform="translate(-578.198 -325.491)" fill="#f3ad7a"/>
                            </g>
                            <ellipse id="Ellipse_157" data-name="Ellipse 157" cx="0.945" cy="1.525" rx="0.945" ry="1.525" transform="translate(2.272 5.718)" fill="#ffe9d4" opacity="0.3"/>
                          </g>
                          <g id="Group_1122" data-name="Group 1122" transform="translate(20.358)">
                            <path id="Path_3259" data-name="Path 3259" d="M584.227,327.325a2.277,2.277,0,1,1-2.225-2.8A2.558,2.558,0,0,1,584.227,327.325Z" transform="translate(-579.796 -324.522)" fill="#2a2626"/>
                            <path id="Path_3260" data-name="Path 3260" d="M581.691,325.945a.93.93,0,1,1-.909-1.142A1.046,1.046,0,0,1,581.691,325.945Z" transform="translate(-579.476 -323.438)" fill="#fff9ea"/>
                          </g>
                          <path id="Path_3261" data-name="Path 3261" d="M583.1,331.056a3.825,3.825,0,1,1-2.692-4.6A3.767,3.767,0,0,1,583.1,331.056Z" transform="translate(-575.606 -317.599)" fill="#f48fb7" opacity="0.2"/>
                          <path id="Path_3262" data-name="Path 3262" d="M587.091,331.056a3.825,3.825,0,1,1-2.692-4.6A3.761,3.761,0,0,1,587.091,331.056Z" transform="translate(-560.222 -317.599)" fill="#f48fb7" opacity="0.2"/>
                        </g>
                        <path id="Path_3263" data-name="Path 3263" d="M580.675,323.725a16.251,16.251,0,0,0-4.2.967v.4a32.97,32.97,0,0,1,4.475.442s1.122.267,1.234-.486S582.059,323.807,580.675,323.725Z" transform="translate(-572.244 -323.721)" fill="#141b2f"/>
                        <path id="Path_3264" data-name="Path 3264" d="M581.39,323.726a16.222,16.222,0,0,1,4.144,1.181l-.019.4a32.525,32.525,0,0,0-4.494.209s-1.132.2-1.205-.549S580.005,323.736,581.39,323.726Z" transform="translate(-559.404 -323.703)" fill="#141b2f"/>
                        <path id="Path_3265" data-name="Path 3265" d="M576.39,326.537a3.728,3.728,0,0,1,5.281,0S579.363,321.756,576.39,326.537Z" transform="translate(-572.579 -321.058)" fill="#2a2626"/>
                        <path id="Path_3266" data-name="Path 3266" d="M579.851,326.491a3.728,3.728,0,0,1,5.281,0S582.819,321.71,579.851,326.491Z" transform="translate(-559.226 -321.235)" fill="#2a2626"/>
                      </g>
                    </g>
                    <path id="Path_3267" data-name="Path 3267" d="M578.8,328.5c6.068-8.012,14.372-11.942,18.555-8.774s2.633,12.229-3.43,20.24-14.366,11.932-18.545,8.765S572.745,336.514,578.8,328.5Z" transform="translate(-563.314 -316.186)" fill="#3d414f"/>
                    <g id="Group_1126" data-name="Group 1126" transform="translate(8.396 32.429)">
                      <path id="Path_3268" data-name="Path 3268" d="M579.531,335.624c-1.875.9-4.533-.743-5.928-3.654s-1.015-6.02.85-6.923,4.538.743,5.932,3.663S581.4,334.725,579.531,335.624Z" transform="translate(-572.759 -324.803)" fill="#ffcd9c"/>
                      <path id="Path_3269" data-name="Path 3269" d="M576.5,329.685c-.709.491-1.9-.01-2.657-1.117s-.807-2.4-.1-2.891,1.9.015,2.667,1.122S577.213,329.2,576.5,329.685Z" transform="translate(-570.893 -322.148)" fill="#f3ad7a"/>
                    </g>
                  </g>
                  <path id="Path_3270" data-name="Path 3270" d="M610.335,321.75s5.174,4.115,2.352,14.818-30.064,15.868-14.609,49.935c0,0-15.324-5.815-20.775-9.42-8.745-5.791-9.367-9.7-6.015-32.1S599.1,312.281,610.335,321.75Z" transform="translate(-569.406 -317.722)" fill="#3d414f"/>
                  <g id="Group_1128" data-name="Group 1128" transform="translate(11.545 0.001)">
                    <path id="Path_3271" data-name="Path 3271" d="M603.892,319.352c-11.864-3.581-24.443.719-28.048,12.6l-3.095,10.2a22.736,22.736,0,0,0-.967,6.452H579.1a15.227,15.227,0,0,1,.651-4.314l3.1-10.222C586.134,319.24,603.892,319.352,603.892,319.352Z" transform="translate(-571.782 -318.128)" fill="#fff9ea"/>
                  </g>
                  <g id="Group_1129" data-name="Group 1129" transform="translate(4.044 27.718)">
                    <path id="Path_3272" data-name="Path 3272" d="M594.409,335.916A12.085,12.085,0,1,0,582.326,348,12.08,12.08,0,0,0,594.409,335.916Z" transform="translate(-570.238 -323.833)" fill="#fff9ea"/>
                  </g>
                  <g id="Group_1130" data-name="Group 1130" transform="translate(1.493 27.718)">
                    <path id="Path_3273" data-name="Path 3273" d="M593.879,335.916A12.083,12.083,0,1,0,581.791,348,12.084,12.084,0,0,0,593.879,335.916Z" transform="translate(-569.713 -323.833)" fill="#fff4de"/>
                  </g>
                  <path id="Path_3274" data-name="Path 3274" d="M581.84,370.161c-12.53-14.318-8.206-39.859,6.35-51.305a31.808,31.808,0,0,0-16.9,23.719c-3.352,22.4-2.731,26.309,6.015,32.1,4.669,3.09,16.558,7.788,19.876,9.076a24.83,24.83,0,0,0-1.652-4.47C590.964,374.724,584.119,372.44,581.84,370.161Z" transform="translate(-569.406 -315.319)" fill="#bf4223" opacity="0.3" style="mix-blend-mode: multiply;isolation: isolate"/>
                  <path id="Path_3275" data-name="Path 3275" d="M599.855,344.055a5.468,5.468,0,0,0,.214-1.006c0-1.3-6.695-18.7-11.616-22.1a26.563,26.563,0,0,0-7.977-2.317,1.825,1.825,0,0,0-.141.131c-3.814,3.586-4.581,8.828,2.308,16.145,4.5,4.761,13.744,6.5,12.836,22.772a5.435,5.435,0,0,1,.15-.6,172.329,172.329,0,0,1-4.936,29.18S599.267,373.293,599.855,344.055Z" transform="translate(-538.355 -316.187)" fill="#3d414f"/>
                </g>
              </g>
            </g>
          </g>
        </g>
        <g id="Group_1139" data-name="Group 1139" transform="translate(0 176.629)">
          <g id="Group_1138" data-name="Group 1138">
            <g id="Group_1136" data-name="Group 1136" transform="translate(62.571)">
              <rect id="Rectangle_847" data-name="Rectangle 847" width="10.04" height="118.844" transform="translate(0 5.65)" fill="#ded9cb"/>
              <rect id="Rectangle_848" data-name="Rectangle 848" width="10.046" height="118.844" transform="translate(7.091 5.65)" fill="#fff9ea"/>
              <rect id="Rectangle_849" data-name="Rectangle 849" width="10.04" height="124.883" transform="translate(198.545)" fill="#ded9cb"/>
              <rect id="Rectangle_850" data-name="Rectangle 850" width="10.04" height="124.883" transform="translate(205.641)" fill="#fff9ea"/>
            </g>
            <g id="Group_1137" data-name="Group 1137">
              <rect id="Rectangle_851" data-name="Rectangle 851" width="10.046" height="124.883" fill="#fff9ea"/>
              <rect id="Rectangle_852" data-name="Rectangle 852" width="10.044" height="124.883" transform="translate(7.097)" fill="#ded9cb"/>
              <rect id="Rectangle_853" data-name="Rectangle 853" width="10.048" height="124.883" transform="translate(197.592)" fill="#ded9cb"/>
              <rect id="Rectangle_854" data-name="Rectangle 854" width="10.046" height="124.883" transform="translate(204.696)" fill="#fff9ea"/>
            </g>
            <rect id="Rectangle_855" data-name="Rectangle 855" width="232.056" height="14.773" fill="#fff9ea"/>
            <rect id="Rectangle_856" data-name="Rectangle 856" width="208.534" height="14.773" transform="translate(69.718)" fill="#fff9ea"/>
          </g>
        </g>
        <path id="Path_3276" data-name="Path 3276" d="M593.9,360.605v-1.112a6.494,6.494,0,0,0-6.5-6.491h-4.076a6.491,6.491,0,0,0-6.5,6.491v1.112Z" transform="translate(-491.799 -183.841)" fill="#fff9ea"/>
        <path id="Path_3277" data-name="Path 3277" d="M597.256,359.923c0,4.309-4.674.534-10.616.534s-10.9,3.775-10.9-.534,4.815-7.822,10.757-7.822S597.256,355.6,597.256,359.923Z" transform="translate(-496.04 -187.313)" fill="#edb485"/>
        <g id="Group_1141" data-name="Group 1141" transform="translate(36.818 73.1)">
          <g id="Group_1140" data-name="Group 1140">
            <path id="Path_3278" data-name="Path 3278" d="M614.524,436.608a54.575,54.575,0,0,1-12.85-3.284c-7.832-3.25-33.519-16.057-34.738-44.343-.2-4.6.826-13.672,3.571-23.578,2.342-8.478,6.8-20.571,14.687-30.035a5.992,5.992,0,1,1,9.2,7.677c-11.65,13.978-15.8,38.153-15.484,45.412.583,13.545,9.134,22.47,16.208,27.572,8.016,5.8,19.04,8.595,19.04,8.595Z" transform="translate(-566.912 -333.21)" fill="#fa0"/>
          </g>
        </g>
        <g id="Group_1142" data-name="Group 1142" transform="translate(36.818 73.459)" opacity="0.2" style="mix-blend-mode: screen;isolation: isolate">
          <path id="Path_3279" data-name="Path 3279" d="M578.606,411.976c-7.419-11.539-10.99-24.448-7.691-38.178,2.2-9.887,6.039-18.4,9.338-27.465,1.7-4.674,4.708-8.852,7.511-13.05a5.953,5.953,0,0,0-2.57,1.8c-7.89,9.464-12.346,21.557-14.687,30.035-2.745,9.906-3.77,18.977-3.571,23.578,1.22,28.286,26.906,41.093,34.738,44.343a54.574,54.574,0,0,0,12.85,3.284l-.088-2.866a25.6,25.6,0,0,0-3.974-1.433C597.554,428.179,586.02,423.238,578.606,411.976Z" transform="translate(-566.912 -333.284)" fill="#618c03"/>
        </g>
        <g id="Group_1170" data-name="Group 1170" transform="translate(115.753 57.726)">
          <g id="Group_1168" data-name="Group 1168">
            <path id="Rectangle_857" data-name="Rectangle 857" d="M1.37,0H129.475a1.369,1.369,0,0,1,1.369,1.369v88.5a1.367,1.367,0,0,1-1.367,1.367H1.369A1.369,1.369,0,0,1,0,89.868V1.37A1.37,1.37,0,0,1,1.37,0Z" transform="translate(5.99)" fill="#1a222b"/>
            <path id="Path_3280" data-name="Path 3280" d="M589.805,330.041h117.55a6.661,6.661,0,0,1,6.651,6.637v77.944a6.671,6.671,0,0,1-6.651,6.656H589.805a6.677,6.677,0,0,1-6.646-6.656V336.678A6.667,6.667,0,0,1,589.805,330.041Z" transform="translate(-583.159 -330.039)" fill="#ded9cb"/>
            <path id="Path_3281" data-name="Path 3281" d="M591.043,330.041H708.584a6.661,6.661,0,0,1,6.651,6.637v77.944a6.672,6.672,0,0,1-6.651,6.656H591.043a6.674,6.674,0,0,1-6.651-6.656V336.678A6.664,6.664,0,0,1,591.043,330.041Z" transform="translate(-578.402 -330.039)" fill="#fff9ea"/>
            <path id="Path_3282" data-name="Path 3282" d="M712.8,331.557a1.145,1.145,0,0,0-.257-.02H594.988a6.675,6.675,0,0,0-6.651,6.642v77.939a6.591,6.591,0,0,0,2.449,5.136,6.644,6.644,0,0,1-6.394-6.627V336.673a6.66,6.66,0,0,1,6.651-6.632H708.584A6.606,6.606,0,0,1,712.8,331.557Z" transform="translate(-578.402 -330.039)" fill="#fff"/>
            <path id="Path_3283" data-name="Path 3283" d="M708.584,330.041H682.562c-8.794,26.226-15.717,49.3-38.076,64.2-18.856,11.787-39.922,14.745-60.094,17.141v3.236a6.674,6.674,0,0,0,6.651,6.656H708.584a6.672,6.672,0,0,0,6.651-6.656V336.678A6.661,6.661,0,0,0,708.584,330.041Z" transform="translate(-578.402 -330.039)" fill="#ede6d4"/>
            <path id="Path_3284" data-name="Path 3284" d="M604.416,339.707H591.066a4.253,4.253,0,0,1-4.237-4.237h0a4.25,4.25,0,0,1,4.237-4.236h13.351a4.246,4.246,0,0,1,4.237,4.236h0A4.25,4.25,0,0,1,604.416,339.707Z" transform="translate(-568.998 -325.436)" fill="#141b2f"/>
            <g id="Group_1167" data-name="Group 1167" transform="translate(86.553 6.124)">
              <g id="Group_1145" data-name="Group 1145">
                <g id="Group_1143" data-name="Group 1143" transform="translate(0.909 0.073)">
                  <path id="Path_3285" data-name="Path 3285" d="M603.075,332.652v13.677a1.4,1.4,0,0,1-.413,1,1.34,1.34,0,0,1-.549.34,1.409,1.409,0,0,1-.952-1.341V332.652a1.011,1.011,0,1,1,1.914,0Z" transform="translate(-601.161 -331.316)" fill="#141b2f"/>
                </g>
                <g id="Group_1144" data-name="Group 1144">
                  <path id="Path_3286" data-name="Path 3286" d="M600.974,332.71a1.416,1.416,0,0,1,1.409-1.409,1.374,1.374,0,0,1,.452.073,1.417,1.417,0,0,0-.952,1.336v13.677a1.409,1.409,0,0,0,.952,1.341,1.381,1.381,0,0,1-.452.073,1.414,1.414,0,0,1-1.409-1.414Z" transform="translate(-600.974 -331.301)" fill="#18181b"/>
                </g>
              </g>
              <g id="Group_1148" data-name="Group 1148" transform="translate(5.971)">
                <g id="Group_1146" data-name="Group 1146" transform="translate(0.909 0.073)">
                  <path id="Path_3287" data-name="Path 3287" d="M604.3,332.652v13.677a1.4,1.4,0,0,1-.413,1,1.338,1.338,0,0,1-.549.34,1.409,1.409,0,0,1-.952-1.341V332.652a1.011,1.011,0,1,1,1.914,0Z" transform="translate(-602.39 -331.316)" fill="#141b2f"/>
                </g>
                <g id="Group_1147" data-name="Group 1147">
                  <path id="Path_3288" data-name="Path 3288" d="M602.2,332.71a1.416,1.416,0,0,1,1.409-1.409,1.394,1.394,0,0,1,.452.073,1.417,1.417,0,0,0-.952,1.336v13.677a1.409,1.409,0,0,0,.952,1.341,1.413,1.413,0,0,1-1.861-1.341Z" transform="translate(-602.203 -331.301)" fill="#18181b"/>
                </g>
              </g>
              <g id="Group_1151" data-name="Group 1151" transform="translate(11.942)">
                <g id="Group_1149" data-name="Group 1149" transform="translate(0.909 0.073)">
                  <path id="Path_3289" data-name="Path 3289" d="M605.533,332.652v13.677a1.4,1.4,0,0,1-.413,1,1.377,1.377,0,0,1-.549.34,1.409,1.409,0,0,1-.952-1.341V332.652a1.011,1.011,0,1,1,1.914,0Z" transform="translate(-603.619 -331.316)" fill="#141b2f"/>
                </g>
                <g id="Group_1150" data-name="Group 1150">
                  <path id="Path_3290" data-name="Path 3290" d="M603.432,332.71a1.416,1.416,0,0,1,1.409-1.409,1.4,1.4,0,0,1,.452.073,1.417,1.417,0,0,0-.952,1.336v13.677a1.41,1.41,0,0,0,.952,1.341,1.413,1.413,0,0,1-1.861-1.341Z" transform="translate(-603.432 -331.301)" fill="#18181b"/>
                </g>
              </g>
              <g id="Group_1154" data-name="Group 1154" transform="translate(17.913)">
                <g id="Group_1152" data-name="Group 1152" transform="translate(0.909 0.073)">
                  <path id="Path_3291" data-name="Path 3291" d="M606.762,332.652v13.677a1.4,1.4,0,0,1-.413,1,1.375,1.375,0,0,1-.549.34,1.409,1.409,0,0,1-.952-1.341V332.652a1.011,1.011,0,1,1,1.914,0Z" transform="translate(-604.848 -331.316)" fill="#141b2f"/>
                </g>
                <g id="Group_1153" data-name="Group 1153">
                  <path id="Path_3292" data-name="Path 3292" d="M604.661,332.71a1.416,1.416,0,0,1,1.409-1.409,1.394,1.394,0,0,1,.452.073,1.417,1.417,0,0,0-.952,1.336v13.677a1.41,1.41,0,0,0,.952,1.341,1.413,1.413,0,0,1-1.861-1.341Z" transform="translate(-604.661 -331.301)" fill="#18181b"/>
                </g>
              </g>
              <g id="Group_1157" data-name="Group 1157" transform="translate(23.884)">
                <g id="Group_1155" data-name="Group 1155" transform="translate(0.904 0.073)">
                  <path id="Path_3293" data-name="Path 3293" d="M608,332.652v13.677a1.422,1.422,0,0,1-.413,1,1.375,1.375,0,0,1-.549.34,1.414,1.414,0,0,1-.957-1.341V332.652a1.013,1.013,0,1,1,1.919,0Z" transform="translate(-606.076 -331.316)" fill="#141b2f"/>
                </g>
                <g id="Group_1156" data-name="Group 1156">
                  <path id="Path_3294" data-name="Path 3294" d="M605.89,332.71A1.416,1.416,0,0,1,607.3,331.3a1.4,1.4,0,0,1,.452.073,1.421,1.421,0,0,0-.957,1.336v13.677a1.414,1.414,0,0,0,.957,1.341,1.413,1.413,0,0,1-1.861-1.341Z" transform="translate(-605.89 -331.301)" fill="#18181b"/>
                </g>
              </g>
              <g id="Group_1160" data-name="Group 1160" transform="translate(29.855)">
                <g id="Group_1158" data-name="Group 1158" transform="translate(0.904 0.073)">
                  <path id="Path_3295" data-name="Path 3295" d="M609.224,332.652v13.677a1.421,1.421,0,0,1-.413,1,.906.906,0,0,1-1.506-1V332.652a1.013,1.013,0,1,1,1.919,0Z" transform="translate(-607.305 -331.316)" fill="#141b2f"/>
                </g>
                <g id="Group_1159" data-name="Group 1159">
                  <path id="Path_3296" data-name="Path 3296" d="M607.119,332.71a1.416,1.416,0,0,1,1.409-1.409,1.4,1.4,0,0,1,.452.073,1.421,1.421,0,0,0-.957,1.336v13.677a1.414,1.414,0,0,0,.957,1.341,1.413,1.413,0,0,1-1.861-1.341Z" transform="translate(-607.119 -331.301)" fill="#18181b"/>
                </g>
              </g>
              <g id="Group_1163" data-name="Group 1163" transform="translate(35.826)">
                <g id="Group_1161" data-name="Group 1161" transform="translate(0.904 0.073)">
                  <path id="Path_3297" data-name="Path 3297" d="M610.453,332.652v13.677a1.014,1.014,0,1,1-1.919,0V332.652a1.013,1.013,0,1,1,1.919,0Z" transform="translate(-608.534 -331.316)" fill="#141b2f"/>
                </g>
                <g id="Group_1162" data-name="Group 1162">
                  <path id="Path_3298" data-name="Path 3298" d="M608.348,332.71a1.416,1.416,0,0,1,1.409-1.409,1.4,1.4,0,0,1,.452.073,1.421,1.421,0,0,0-.957,1.336v13.677a1.414,1.414,0,0,0,.957,1.341,1.413,1.413,0,0,1-1.861-1.341Z" transform="translate(-608.348 -331.301)" fill="#18181b"/>
                </g>
              </g>
              <g id="Group_1166" data-name="Group 1166" transform="translate(41.797)">
                <g id="Group_1164" data-name="Group 1164" transform="translate(0.904 0.073)">
                  <path id="Path_3299" data-name="Path 3299" d="M611.682,332.652v13.677a1.422,1.422,0,0,1-.413,1,1.392,1.392,0,0,1-.554.34,1.415,1.415,0,0,1-.952-1.341V332.652a1.013,1.013,0,1,1,1.919,0Z" transform="translate(-609.763 -331.316)" fill="#141b2f"/>
                </g>
                <g id="Group_1165" data-name="Group 1165">
                  <path id="Path_3300" data-name="Path 3300" d="M609.577,332.71a1.416,1.416,0,0,1,1.409-1.409,1.342,1.342,0,0,1,.447.073,1.423,1.423,0,0,0-.952,1.336v13.677a1.416,1.416,0,0,0,.952,1.341,1.348,1.348,0,0,1-.447.073,1.414,1.414,0,0,1-1.409-1.414Z" transform="translate(-609.577 -331.301)" fill="#18181b"/>
                </g>
              </g>
            </g>
          </g>
          <g id="Group_1169" data-name="Group 1169" transform="translate(46.602 53.387)">
            <path id="Path_3301" data-name="Path 3301" d="M608.658,399.972H596.706v6.894h29.5l1.725-65.837H592.751v6.9h6.826a6.086,6.086,0,0,1,5.937,4.747l9.081,39.878A6.083,6.083,0,0,1,608.658,399.972Z" transform="translate(-592.751 -341.029)" fill="#ded9cb"/>
            <path id="Path_3302" data-name="Path 3302" d="M633.1,406.871H605.87a9.437,9.437,0,0,0,9.2-11.514L604.4,348.395a9.44,9.44,0,0,0-9.212-7.365h27.232a9.436,9.436,0,0,1,9.212,7.365L642.3,395.356A9.435,9.435,0,0,1,633.1,406.871Z" transform="translate(-583.336 -341.029)" fill="#fff9ea"/>
          </g>
        </g>
      </g>
    </g>
  </g>
</svg>
