<svg xmlns="http://www.w3.org/2000/svg" width="486.818" height="297.711" viewBox="0 0 486.818 297.711">
  <g id="Group_803" data-name="Group 803" transform="translate(-561.997 -91.028)">
    <g id="Group_759" data-name="Group 759" transform="translate(835.812 91.028)">
      <g id="Group_758" data-name="Group 758">
        <g id="Group_726" data-name="Group 726" transform="translate(0 44.617)">
          <rect id="Rectangle_676" data-name="Rectangle 676" width="48.541" height="92.13" transform="translate(30.499 104.441)" fill="#2a9dd1"/>
          <rect id="Rectangle_677" data-name="Rectangle 677" width="48.541" height="22.228" transform="translate(30.499 104.441)" fill="#2895c7"/>
          <path id="Path_2622" data-name="Path 2622" d="M755.353,256.011H624.113L637.234,98.89h105Z" transform="translate(-545.433 -98.89)" fill="#2485b0"/>
          <path id="Path_2623" data-name="Path 2623" d="M624.113,166.026V126.577H755.353v39.449Z" transform="translate(-545.433 30.544)" fill="#45a8a5"/>
          <g id="Group_722" data-name="Group 722" transform="translate(1.878 182.133)">
            <path id="Path_2624" data-name="Path 2624" d="M615.391,130.985l-3.8,50.98h6.462l20.275-50.98Z" transform="translate(-605.836 -130.985)" fill="#240e01"/>
            <path id="Path_2625" data-name="Path 2625" d="M614.381,130.985l-3.8,50.98h6.467l20.273-50.98Z" transform="translate(-610.579 -130.985)" fill="#451b01"/>
          </g>
          <g id="Group_723" data-name="Group 723" transform="translate(51.908 182.133)">
            <path id="Path_2626" data-name="Path 2626" d="M624.211,130.985l-3.8,50.98h6.467l20.266-50.98Z" transform="translate(-614.655 -130.985)" fill="#120700"/>
            <path id="Path_2627" data-name="Path 2627" d="M623.191,130.985l-3.8,50.98h6.463l20.274-50.98Z" transform="translate(-619.395 -130.985)" fill="#331400"/>
          </g>
          <g id="Group_724" data-name="Group 724" transform="translate(133.129 182.133)">
            <path id="Path_2628" data-name="Path 2628" d="M657.646,130.985l3.8,50.98h-6.467l-20.262-50.98Z" transform="translate(-628.966 -130.985)" fill="#240e01"/>
            <path id="Path_2629" data-name="Path 2629" d="M656.636,130.985l3.8,50.98h-6.464l-20.267-50.98Z" transform="translate(-633.708 -130.985)" fill="#451b01"/>
          </g>
          <g id="Group_725" data-name="Group 725" transform="translate(181.673 182.133)">
            <path id="Path_2630" data-name="Path 2630" d="M666.006,130.985l3.8,50.98h-6.464l-20.273-50.98Z" transform="translate(-638.477 -130.985)" fill="#120700"/>
            <path id="Path_2631" data-name="Path 2631" d="M665.2,130.985l3.8,50.98h-6.458l-20.279-50.98Z" transform="translate(-642.261 -130.985)" fill="#331400"/>
          </g>
          <path id="Path_2632" data-name="Path 2632" d="M751.915,256.011H620.672L633.8,98.89H747.29Z" transform="translate(-561.519 -98.89)" fill="#4fbef0"/>
          <path id="Path_2633" data-name="Path 2633" d="M648.71,109.424H747.6L747.29,98.89H633.8L620.672,256.011h16.112Z" transform="translate(-561.519 -98.89)" fill="#54caff"/>
          <rect id="Rectangle_678" data-name="Rectangle 678" width="48.555" height="92.13" transform="translate(161.742 104.441)" fill="#2a9dd1"/>
          <rect id="Rectangle_679" data-name="Rectangle 679" width="48.555" height="22.228" transform="translate(161.742 104.441)" fill="#2895c7"/>
          <path id="Path_2634" data-name="Path 2634" d="M610.248,166.026V126.577H741.484v39.449Z" transform="translate(-610.248 30.544)" fill="#2eabe3"/>
          <path id="Path_2635" data-name="Path 2635" d="M650.3,133.813h91.187v-8.67H610.248v39.449H650.3Z" transform="translate(-610.248 23.838)" fill="#2485b0"/>
          <rect id="Rectangle_680" data-name="Rectangle 680" width="30.499" height="92.13" transform="translate(0 104.441)" fill="#71cff3"/>
        </g>
        <g id="Group_757" data-name="Group 757" transform="translate(10.096)">
          <g id="Group_756" data-name="Group 756">
            <g id="DOCTOR">
              <g id="Group_730" data-name="Group 730" transform="translate(19.574 77.127)">
                <g id="Group_729" data-name="Group 729">
                  <g id="Group_728" data-name="Group 728">
                    <path id="Path_2636" data-name="Path 2636" d="M618.3,118.305l5.795-1.011-1.759-10.023-5.8,1Z" transform="translate(-610.51 -92.216)" fill="#edb485"/>
                    <g id="Group_727" data-name="Group 727">
                      <path id="Path_2637" data-name="Path 2637" d="M621.5,114.421a1.507,1.507,0,0,1-.879,1.924h0a1.511,1.511,0,0,1-1.918-.885l-3.127-8.382a1.488,1.488,0,0,1,.885-1.924h0a1.486,1.486,0,0,1,1.913.88Z" transform="translate(-615.477 -102.559)" fill="#edb485"/>
                      <path id="Path_2638" data-name="Path 2638" d="M621.585,114.669a1.5,1.5,0,0,1-1.192,1.742h0a1.49,1.49,0,0,1-1.748-1.186l-1.691-8.779a1.491,1.491,0,0,1,1.18-1.754h0a1.5,1.5,0,0,1,1.748,1.186Z" transform="translate(-608.698 -104.396)" fill="#edb485"/>
                      <path id="Path_2639" data-name="Path 2639" d="M621.429,114.37a1.486,1.486,0,0,1-1.056,1.827h0a1.487,1.487,0,0,1-1.821-1.05l-2.338-8.643a1.481,1.481,0,0,1,1.056-1.833h0a1.494,1.494,0,0,1,1.833,1.05Z" transform="translate(-612.283 -104.619)" fill="#edb485"/>
                      <path id="Rectangle_681" data-name="Rectangle 681" d="M.521,0H9.606a.521.521,0,0,1,.521.521V9.612a.52.52,0,0,1-.52.52H.52A.52.52,0,0,1,0,9.611V.521A.521.521,0,0,1,.521,0Z" transform="translate(2.15 8.996) rotate(-15.157)" fill="#edb485"/>
                    </g>
                  </g>
                </g>
              </g>
              <path id="Path_2640" data-name="Path 2640" d="M613.686,102.795c.738,0,32.035-4.3,32.035-4.3l2.82,46.381L616.3,147.132Z" transform="translate(-604.271 -56.128)" fill="#fff9ed"/>
              <path id="Path_2641" data-name="Path 2641" d="M624.25,106.365a1.621,1.621,0,0,0-2.287.193l-4.67,5.5a5.1,5.1,0,0,0,1.174,2.156c.346.329,1.7.034,1.7.034l4.279-5.6A1.617,1.617,0,0,0,624.25,106.365Z" transform="translate(-587.409 -21.121)" fill="#edb485"/>
              <g id="Group_742" data-name="Group 742" transform="translate(0 145.153)">
                <path id="Path_2642" data-name="Path 2642" d="M626.262,148.845V139.5a22.961,22.961,0,0,1,22.892-22.892h.4A22.956,22.956,0,0,1,672.444,139.5l.125,6.753v2.593Z" transform="translate(-545.48 -116.606)" fill="#141b2f"/>
                <g id="Group_741" data-name="Group 741" transform="translate(0 29.63)">
                  <g id="Group_735" data-name="Group 735">
                    <g id="Group_734" data-name="Group 734" transform="translate(0 103.564)">
                      <rect id="Rectangle_682" data-name="Rectangle 682" width="6.851" height="8.146" transform="translate(18.429 6.849) rotate(-88.666)" fill="#cf9b72"/>
                      <rect id="Rectangle_683" data-name="Rectangle 683" width="9.918" height="9.576" transform="translate(17.54 14.303) rotate(-88.583)" fill="#edd6b6"/>
                      <g id="Group_733" data-name="Group 733" transform="translate(0 5.744)">
                        <g id="Group_732" data-name="Group 732">
                          <g id="Group_731" data-name="Group 731">
                            <path id="Path_2643" data-name="Path 2643" d="M617.941,141.089a3.514,3.514,0,0,1,3.524,3.53v3.229a3.526,3.526,0,0,1-3.53,3.53h0a3.523,3.523,0,0,1-3.53-3.53V144.59a3.511,3.511,0,0,1,3.536-3.5Z" transform="translate(-600.91 -141.089)" fill="#141b2f"/>
                            <path id="Path_2644" data-name="Path 2644" d="M640.731,143.659a1.788,1.788,0,0,1-1.782,1.793c-3.331-.006-10.476-.006-10.476-.006l-16.446-.011v-2.366l28.709.045Z" transform="translate(-612.027 -131.833)" fill="#17191a"/>
                            <path id="Path_2645" data-name="Path 2645" d="M612.028,149.77l28.7.028.005-2.741v-3.626a1.779,1.779,0,0,0-1.464-1.748v.193a3.345,3.345,0,1,1-6.69.017v-.244l-7.06.454v.176a1.931,1.931,0,0,1-.341,1.186,1.648,1.648,0,0,1-.244.244,2.95,2.95,0,0,1-1.476.619c-.119.017-.238.04-.369.062-.318.028-.67.04-1.062.057l-3.467-.017C614.956,144.43,612.034,146.183,612.028,149.77Z" transform="translate(-612.022 -138.471)" fill="#141b2f"/>
                          </g>
                        </g>
                      </g>
                    </g>
                    <path id="Path_2646" data-name="Path 2646" d="M616.1,190.537c1.067-14.011,2.168-28.5,3.377-42.9l.028-.3a31.754,31.754,0,0,1,5.119-13.37l.312-.471a28.014,28.014,0,0,1,15.906-10.935l2.338-.375c11.866-.533,33.714-.34,46.624-.3v21.337c-8.677-.006-16.985-.017-20.7-.045-13.716-.142-9.857-.267-23.59.289a6.244,6.244,0,0,0-2.94,2.094,11.486,11.486,0,0,0-1.827,4.052c-1.186,14.25-2.281,28.63-3.348,42.55-.528,6.963-1.073,29-1.635,36.154l-21.428-.006C614.941,220.636,615.525,198.045,616.1,190.537Z" transform="translate(-601.219 -121.827)" fill="#141b2f"/>
                    <path id="Path_2647" data-name="Path 2647" d="M638.157,143.737c4.063-8.126,17.859-10.408,18.886-21.86,11.094-.108,23.988-.011,32.761.017v21.337c-8.677-.006-16.985-.017-20.7-.045-13.716-.142-9.857-.267-23.59.289a6.244,6.244,0,0,0-2.94,2.094,11.486,11.486,0,0,0-1.827,4.052c-1.186,14.25-2.281,28.63-3.348,42.55-.528,6.963-1.073,29-1.635,36.154l-21.428-.006c.17-2.173.34-5.561.5-9.443,4.052-1.345,9.171-1.623,12.768-3.422C642.379,192.251,627.612,166.941,638.157,143.737Z" transform="translate(-601.219 -121.827)" fill="#141b2f"/>
                  </g>
                  <g id="Group_740" data-name="Group 740" transform="translate(32.171 0.016)">
                    <g id="Group_739" data-name="Group 739" transform="translate(0 103.548)">
                      <rect id="Rectangle_684" data-name="Rectangle 684" width="6.851" height="8.148" transform="translate(18.429 6.849) rotate(-88.666)" fill="#edb485"/>
                      <rect id="Rectangle_685" data-name="Rectangle 685" width="9.918" height="9.576" transform="translate(17.538 14.303) rotate(-88.583)" fill="#fff"/>
                      <g id="Group_738" data-name="Group 738" transform="translate(0 5.744)">
                        <g id="Group_737" data-name="Group 737">
                          <g id="Group_736" data-name="Group 736">
                            <path id="Path_2648" data-name="Path 2648" d="M623.609,141.089a3.519,3.519,0,0,1,3.53,3.53v3.229a3.526,3.526,0,0,1-3.53,3.53h0a3.528,3.528,0,0,1-3.536-3.53V144.59a3.515,3.515,0,0,1,3.536-3.5Z" transform="translate(-606.584 -141.089)" fill="#141b2f"/>
                            <path id="Path_2649" data-name="Path 2649" d="M646.4,143.659a1.788,1.788,0,0,1-1.782,1.793c-3.331-.006-10.481-.006-10.481-.006l-16.44-.011v-2.366l28.709.045Z" transform="translate(-617.696 -131.833)" fill="#17191a"/>
                            <path id="Path_2650" data-name="Path 2650" d="M617.7,149.77l28.7.028.005-2.741v-3.626a1.785,1.785,0,0,0-1.464-1.748v.193a3.345,3.345,0,1,1-6.691.017v-.244l-7.065.454v.176a1.931,1.931,0,0,1-.34,1.186,1.238,1.238,0,0,1-.244.244,2.923,2.923,0,0,1-1.475.619c-.113.017-.238.04-.369.062-.318.028-.664.04-1.062.057l-3.461-.017C620.625,144.43,617.7,146.183,617.7,149.77Z" transform="translate(-617.691 -138.471)" fill="#141b2f"/>
                          </g>
                        </g>
                      </g>
                    </g>
                    <path id="Path_2651" data-name="Path 2651" d="M621.648,190.518c1.061-14.006,2.168-28.5,3.377-42.891l.028-.3a31.747,31.747,0,0,1,5.119-13.364l.307-.477c3.592-5.124,8.625-9.471,15.083-10.691,3.848-.726,10.941-.931,15.691-.931h.528c1.918-.023,3.9-.028,5.925-.04v.057c1.083,0,2.065-.006,2.911-.017h12.133v-.04h19.618v10.2A11.183,11.183,0,0,1,691.193,143.2s-19.255.028-33.879.011c-1.594.062-3.592.148-6.254.25a6.186,6.186,0,0,0-2.934,2.094,11.593,11.593,0,0,0-1.827,4.052c-1.186,14.25-2.281,28.624-3.348,42.55-.528,6.957-1.078,29-1.635,36.154l-21.428-.006C620.49,220.624,621.074,198.026,621.648,190.518Z" transform="translate(-607.449 -121.83)" fill="#141b2f"/>
                    <path id="Path_2652" data-name="Path 2652" d="M645.647,145.835c-18.682,18.676,9.562,70-25.69,75.663.465-9.976.919-25.094,1.368-30.979,1.061-14.006,2.168-28.5,3.377-42.891l.028-.3a31.673,31.673,0,0,1,5.119-13.364l.307-.477c3.592-5.124,8.625-9.471,15.083-10.691,3.848-.726,10.941-.931,15.691-.931h.528c1.918-.023,3.91-.028,5.925-.04v.057c1.083,0,2.065-.006,2.911-.017h12.133v-.04h15.895C697.022,147.356,658.093,131.313,645.647,145.835Z" transform="translate(-607.127 -121.83)" fill="#141b2f"/>
                    <path id="Path_2653" data-name="Path 2653" d="M645.97,145.835c12.445-14.522,51.374,1.521,52.674-24h3.723v10.2A11.183,11.183,0,0,1,691.193,143.2s-19.255.028-33.879.011c-1.594.062-3.592.148-6.254.25a6.186,6.186,0,0,0-2.934,2.094,11.593,11.593,0,0,0-1.827,4.052c-1.186,14.25-2.281,28.624-3.348,42.55-.528,6.957-1.078,29-1.635,36.154l-21.428-.006c.131-1.663.261-4.052.391-6.81C655.532,215.834,627.288,164.511,645.97,145.835Z" transform="translate(-607.449 -121.83)" fill="#141b2f"/>
                  </g>
                </g>
              </g>
              <g id="Group_743" data-name="Group 743" transform="translate(23.363 66.522)">
                <path id="Path_2654" data-name="Path 2654" d="M640.359,174.2c.585.284,1.186.539,1.788.777,7.263,2.747,14.788.931,21.19-5.124,12.853-12.15,19.725-47.283,17.053-62.077a6.11,6.11,0,0,0-12.025,2.173c2.247,12.445-4.892,42.959-13.421,51.023-3.865,3.655-6.56,3.3-8.467,2.571-.284-.1-.562-.227-.84-.357-8.353-4.058-16.946-22.177-17.779-31.4l-11.713,2.128C617.12,144.739,626.217,167.331,640.359,174.2Z" transform="translate(-616.144 -102.75)" fill="#141b2f"/>
              </g>
              <g id="Body" transform="translate(77.893 62.766)">
                <path id="Path_2655" data-name="Path 2655" d="M677.962,110.2v96.7a3.886,3.886,0,0,1-1.975,3.433,3.448,3.448,0,0,1-1.067.369,2.961,2.961,0,0,1-.6.057H629.4a3.066,3.066,0,0,1-.687-.074,3.559,3.559,0,0,1-2.208-1.447H626.5a3.823,3.823,0,0,1-.533-1.038,3.943,3.943,0,0,1-.216-1.3V110.2a4.708,4.708,0,0,1,.062-.76,3.627,3.627,0,0,1,1.527-2.366,6.3,6.3,0,0,1,1.9-.891l1.85-.357,9.057-1.731,1.39-.267,9.063-1.742.114.023,6.282,1.124,1.09.193L672.457,106l1.861.335a3.493,3.493,0,0,1,2.293.857,3.853,3.853,0,0,1,1.277,2.236A4.339,4.339,0,0,1,677.962,110.2Z" transform="translate(-625.753 -102.088)" fill="#1c2842"/>
              </g>
              <g id="Body-2" data-name="Body" transform="translate(77.893 65.978)" opacity="0.4" style="mix-blend-mode: multiply;isolation: isolate">
                <path id="Path_2656" data-name="Path 2656" d="M677.888,106.78a3.861,3.861,0,0,0-1.283-2.236,3.466,3.466,0,0,0-2.287-.857l-1.861-.335-3.915-.7c1.867,20.344,3.824,40.887,3.365,61.215,0,9.443-2.423,19.13-8.717,26.876-5.573,7.508-14.777,9.687-23.493,11.14a117.213,117.213,0,0,1-13.943,1.01v1.362a3.943,3.943,0,0,0,.216,1.3,3.823,3.823,0,0,0,.533,1.038l.006.006a3.6,3.6,0,0,0,2.208,1.441,3.065,3.065,0,0,0,.687.074h44.916a2.961,2.961,0,0,0,.6-.057,3.448,3.448,0,0,0,1.067-.369,3.886,3.886,0,0,0,1.975-3.433v-96.7A4.339,4.339,0,0,0,677.888,106.78Z" transform="translate(-625.753 -102.654)" fill="#e2f1f1"/>
              </g>
              <g id="Bathrobe" transform="translate(70.998 175.775)">
                <path id="Path_2657" data-name="Path 2657" d="M624.538,124.13a2.122,2.122,0,1,1,2.122,2.122A2.128,2.128,0,0,1,624.538,124.13Z" transform="translate(-624.538 -122.002)" fill="#141b2f"/>
              </g>
              <g id="Head" transform="translate(80.109)">
                <g id="Group_747" data-name="Group 747">
                  <g id="Group_744" data-name="Group 744" transform="translate(14.349 32.502)">
                    <path id="Path_2658" data-name="Path 2658" d="M628.672,130.833a7.948,7.948,0,0,0,7.945,7.95h0a7.946,7.946,0,0,0,7.956-7.95V104.7a7.945,7.945,0,0,0-7.956-7.945h0a7.946,7.946,0,0,0-7.945,7.945Z" transform="translate(-628.672 -96.755)" fill="#f3ad7a"/>
                    <path id="Path_2659" data-name="Path 2659" d="M637.457,128.988c-2.173-1.305-5.833,2.366-8.785,1.844V104.7a7.95,7.95,0,0,1,15.9,0v26.133a7.941,7.941,0,0,1-3.887,6.827C641.786,132.4,642.462,131.99,637.457,128.988Z" transform="translate(-628.672 -96.755)" fill="#f3ad7a" opacity="0.3" style="mix-blend-mode: multiply;isolation: isolate"/>
                  </g>
                  <g id="Group_746" data-name="Group 746">
                    <path id="Path_2660" data-name="Path 2660" d="M626.542,126.143A16.555,16.555,0,0,0,643.1,142.7h0a16.562,16.562,0,0,0,16.571-16.559V108.755A16.559,16.559,0,0,0,643.1,92.2h0a16.551,16.551,0,0,0-16.553,16.559Z" transform="translate(-624.281 -85.566)" fill="#ffcd9c"/>
                    <path id="Path_2661" data-name="Path 2661" d="M650.9,122.789c3.252-5.419,5.42-15.714-.545-18.971-5.964-3.791-13.552,0-20.594-2.168a7.829,7.829,0,0,0-3.013.965,16.563,16.563,0,0,1,31.944,6.14v17.388a16.565,16.565,0,0,1-24.827,14.352A51.274,51.274,0,0,0,650.9,122.789Z" transform="translate(-623.308 -85.566)" fill="#fec08a"/>
                    <path id="Path_2662" data-name="Path 2662" d="M626.646,112.974S623.78,89.531,646.576,91.1c12.3-.079,12.3,7.355,12.3,7.355s8.223-.289,10.612,5.141c1.64,3.734,2.628,9.931,2.628,14.346,0,10.544-6.038,19.255-13.892,20.7a17.219,17.219,0,0,0,1.4-6.844l.1-8.773a22.325,22.325,0,0,0-2.111,4.143c-1.385,3.433-1.85,4.812-1.85,3.1,0,0,4.625-24.617-2.469-24.89-5.822-.227-3.643,2.236-11.855,2.406-4.478.1-7.905-3.535-10.391-2.9C626.9,105.96,626.646,112.974,626.646,112.974Z" transform="translate(-624.333 -91.028)" fill="#bf4223"/>
                    <path id="Path_2663" data-name="Path 2663" d="M659,95.755s-.238,15.85-7,16.945a64.074,64.074,0,0,1-15.038.369,36.06,36.06,0,0,1-8.37-2.23S624,130.264,627.4,132.159c7.5,4.216,22.927,1.725,28.925-6.872,1.856-2.667,7.7-13.256,7.7-24.135l6.345-4.245Z" transform="translate(-626.143 -68.928)" fill="#bf4223"/>
                    <path id="Path_2664" data-name="Path 2664" d="M628.206,143.327c12.468,5.425,26.558-1.623,32.523-14.091.539-1.623,5.419-3.252,7.042-5.419,7.048-7.048,3.8-18.971,1.629-28.181-.369-1.107-1.742-2.213-3.263-3.15a8.241,8.241,0,0,1,5.158,4.3c1.64,3.734,2.628,9.931,2.628,14.346,0,10.175-5.624,18.648-13.081,20.52a47.89,47.89,0,0,1-4.517,8.921c-6,8.6-21.422,11.089-28.925,6.872-1.055-.584-1.339-2.843-1.237-5.686A9.9,9.9,0,0,0,628.206,143.327Z" transform="translate(-626.143 -84.21)" fill="#91321b"/>
                    <g id="Group_745" data-name="Group 745" transform="translate(33.283 28.397)">
                      <path id="Path_2665" data-name="Path 2665" d="M633.748,106.152c1.765.732,4.114-.908,5.244-3.649s.63-5.567-1.123-6.3-4.12.908-5.255,3.655S631.989,105.42,633.748,106.152Z" transform="translate(-632.008 -96.032)" fill="#fec08a"/>
                      <path id="Path_2666" data-name="Path 2666" d="M632.987,100.706c.7.363,1.731-.227,2.3-1.322s.46-2.276-.238-2.644-1.736.227-2.3,1.322S632.283,100.337,632.987,100.706Z" transform="translate(-630.277 -93.224)" fill="#f3ad7a"/>
                    </g>
                  </g>
                </g>
                <g id="Group_755" data-name="Group 755" transform="translate(2.349 25.451)">
                  <g id="Group_748" data-name="Group 748" transform="translate(17.084 4.48)">
                    <path id="Path_2667" data-name="Path 2667" d="M629.568,98.873a2.095,2.095,0,1,0,2.038-2.571A2.353,2.353,0,0,0,629.568,98.873Z" transform="translate(-629.568 -96.302)" fill="#2a2626"/>
                    <path id="Path_2668" data-name="Path 2668" d="M629.927,97.435a.854.854,0,1,0,.834-1.05A.962.962,0,0,0,629.927,97.435Z" transform="translate(-627.89 -95.914)" fill="#fefefe"/>
                  </g>
                  <g id="Group_750" data-name="Group 750" transform="translate(9.241 7.698)">
                    <g id="Group_749" data-name="Group 749">
                      <path id="Path_2669" data-name="Path 2669" d="M630.944,107.595h0a2.719,2.719,0,0,0,2.752-2.446c-.039-2.332-.579-3.5-.619-5.834a2.218,2.218,0,0,0-2.134-2.446h0a2.223,2.223,0,0,0-2.139,2.446c-.04,2.332-.579,3.5-.619,5.834A2.725,2.725,0,0,0,630.944,107.595Z" transform="translate(-628.186 -96.869)" fill="#f3ad7a"/>
                    </g>
                    <path id="Path_2670" data-name="Path 2670" d="M628.286,99.368c0,.772.386,1.4.869,1.4s.868-.624.868-1.4-.391-1.4-.868-1.4S628.286,98.6,628.286,99.368Z" transform="translate(-627.718 -91.741)" fill="#ffe9d4" opacity="0.3"/>
                  </g>
                  <g id="Group_751" data-name="Group 751" transform="translate(2.892 4.48)">
                    <path id="Path_2671" data-name="Path 2671" d="M627.067,98.873A2.088,2.088,0,1,0,629.1,96.3,2.349,2.349,0,0,0,627.067,98.873Z" transform="translate(-627.067 -96.302)" fill="#2a2626"/>
                    <path id="Path_2672" data-name="Path 2672" d="M627.425,97.435a.854.854,0,1,0,.835-1.05A.963.963,0,0,0,627.425,97.435Z" transform="translate(-625.393 -95.914)" fill="#fefefe"/>
                  </g>
                  <path id="Path_2673" data-name="Path 2673" d="M629.976,100.915c.3,1.05,1.935,1.509,3.671,1.027s2.906-1.725,2.616-2.775-1.935-1.515-3.672-1.033S629.686,99.865,629.976,100.915Z" transform="translate(-610.785 -84.148)" fill="#f48fb7" opacity="0.1"/>
                  <path id="Path_2674" data-name="Path 2674" d="M633.091,100.915c-.29,1.05-1.935,1.509-3.666,1.027s-2.905-1.725-2.616-2.775,1.935-1.515,3.672-1.033S633.386,99.865,633.091,100.915Z" transform="translate(-625.591 -84.148)" fill="#f48fb7" opacity="0.1"/>
                  <g id="Group_752" data-name="Group 752" transform="translate(4.441 20.58)">
                    <path id="Path_2675" data-name="Path 2675" d="M627.357,99.139a13.717,13.717,0,0,0,.051,2.162c.54,1.907,2.917,3.433,5.851,3.6s5.482-1.073,6.242-2.9a14.257,14.257,0,0,0,.29-2.151Z" transform="translate(-627.34 -99.139)" fill="#462119"/>
                    <path id="Path_2676" data-name="Path 2676" d="M627.441,99.144a1.035,1.035,0,0,0,.079.386c.545.891,2.769,1.657,5.47,1.816s5.011-.352,5.658-1.175a1,1,0,0,0,.119-.369Z" transform="translate(-626.868 -99.116)" fill="#fefefe"/>
                  </g>
                  <g id="Group_753" data-name="Group 753" transform="translate(13.86)">
                    <path id="Path_2677" data-name="Path 2677" d="M631.061,99.142a19.06,19.06,0,0,1,5.9,0,1.818,1.818,0,0,0,2.032-1.379h0a1.747,1.747,0,0,0-1.595-1.986,21.882,21.882,0,0,0-6.776,0,1.751,1.751,0,0,0-1.595,1.986h0A1.822,1.822,0,0,0,631.061,99.142Z" transform="translate(-629 -95.513)" fill="#bf4223"/>
                  </g>
                  <g id="Group_754" data-name="Group 754">
                    <path id="Path_2678" data-name="Path 2678" d="M628.615,99.142a19.1,19.1,0,0,1,5.908,0,1.812,1.812,0,0,0,2.026-1.379h0a1.743,1.743,0,0,0-1.589-1.986,21.918,21.918,0,0,0-6.781,0,1.743,1.743,0,0,0-1.589,1.986h0A1.813,1.813,0,0,0,628.615,99.142Z" transform="translate(-626.558 -95.513)" fill="#bf4223"/>
                  </g>
                </g>
              </g>
            </g>
          </g>
        </g>
        <rect id="Rectangle_686" data-name="Rectangle 686" width="30.505" height="92.13" transform="translate(131.237 149.058)" fill="#71cff3"/>
      </g>
    </g>
    <g id="Group_764" data-name="Group 764" transform="translate(561.997 135.645)">
      <rect id="Rectangle_687" data-name="Rectangle 687" width="48.542" height="92.13" transform="translate(133.963 104.441)" fill="#2a9dd1"/>
      <rect id="Rectangle_688" data-name="Rectangle 688" width="48.542" height="22.228" transform="translate(133.963 104.441)" fill="#2895c7"/>
      <path id="Path_2679" data-name="Path 2679" d="M562.541,256.011h131.24L680.659,98.89h-105Z" transform="translate(-559.457 -98.89)" fill="#2485b0"/>
      <path id="Path_2680" data-name="Path 2680" d="M693.781,166.026V126.577H562.541v39.449Z" transform="translate(-559.457 30.544)" fill="#45a8a5"/>
      <g id="Group_760" data-name="Group 760" transform="translate(178.631 182.133)">
        <path id="Path_2681" data-name="Path 2681" d="M616.414,130.985l3.8,50.98H613.75l-20.275-50.98Z" transform="translate(-593.475 -130.985)" fill="#240e01"/>
        <path id="Path_2682" data-name="Path 2682" d="M617.427,130.985l3.8,50.98h-6.467l-20.273-50.98Z" transform="translate(-588.734 -130.985)" fill="#451b01"/>
      </g>
      <g id="Group_761" data-name="Group 761" transform="translate(128.61 182.133)">
        <path id="Path_2683" data-name="Path 2683" d="M607.591,130.985l3.8,50.98h-6.467l-20.266-50.98Z" transform="translate(-584.66 -130.985)" fill="#120700"/>
        <path id="Path_2684" data-name="Path 2684" d="M608.615,130.985l3.8,50.98h-6.462l-20.274-50.98Z" transform="translate(-579.924 -130.985)" fill="#331400"/>
      </g>
      <g id="Group_762" data-name="Group 762" transform="translate(47.391 182.133)">
        <path id="Path_2685" data-name="Path 2685" d="M574.152,130.985l-3.8,50.98h6.466l20.262-50.98Z" transform="translate(-570.348 -130.985)" fill="#240e01"/>
        <path id="Path_2686" data-name="Path 2686" d="M575.166,130.985l-3.8,50.98h6.465l20.266-50.98Z" transform="translate(-565.61 -130.985)" fill="#451b01"/>
      </g>
      <g id="Group_763" data-name="Group 763" transform="translate(0 182.133)">
        <path id="Path_2687" data-name="Path 2687" d="M565.8,130.985l-3.8,50.98h6.464l20.272-50.98Z" transform="translate(-561.998 -130.985)" fill="#120700"/>
        <path id="Path_2688" data-name="Path 2688" d="M566.609,130.985l-3.8,50.98h6.457l20.28-50.98Z" transform="translate(-558.213 -130.985)" fill="#331400"/>
      </g>
      <path id="Path_2689" data-name="Path 2689" d="M565.981,256.011H697.224L684.1,98.89H570.605Z" transform="translate(-543.373 -98.89)" fill="#4fbef0"/>
      <path id="Path_2690" data-name="Path 2690" d="M665.633,109.424H566.741l.312-10.534H680.545l13.127,157.121H677.56Z" transform="translate(-539.821 -98.89)" fill="#54caff"/>
      <rect id="Rectangle_689" data-name="Rectangle 689" width="48.555" height="92.13" transform="translate(2.707 104.441)" fill="#2a9dd1"/>
      <rect id="Rectangle_690" data-name="Rectangle 690" width="48.555" height="22.228" transform="translate(2.707 104.441)" fill="#2895c7"/>
      <path id="Path_2691" data-name="Path 2691" d="M707.643,166.026V126.577H576.406v39.449Z" transform="translate(-494.639 30.544)" fill="#2eabe3"/>
      <path id="Path_2692" data-name="Path 2692" d="M667.593,133.813H576.406v-8.67H707.643v39.449h-40.05Z" transform="translate(-494.639 23.838)" fill="#2485b0"/>
      <rect id="Rectangle_691" data-name="Rectangle 691" width="30.498" height="92.13" transform="translate(182.505 104.441)" fill="#71cff3"/>
    </g>
    <rect id="Rectangle_692" data-name="Rectangle 692" width="30.505" height="92.13" transform="translate(613.26 240.085)" fill="#71cff3"/>
    <g id="Group_790" data-name="Group 790" transform="translate(636.777 94.735)">
      <g id="Group_789" data-name="Group 789">
        <g id="Group_786" data-name="Group 786" transform="translate(5.795)">
          <g id="Group_785" data-name="Group 785">
            <path id="Path_2693" data-name="Path 2693" d="M582.552,109.3A66.163,66.163,0,0,1,584.5,95.491h14.125a23.886,23.886,0,0,0,2.69,11.628c3.666,7.36,8.087,13.432,7.8,22.126-.216,6.486-3.74,13.4-9.539,16.179-4.409,2.111-10.521,3.314-14.823.329a.94.94,0,0,1,.159-1.7,27.1,27.1,0,0,0,3.882-3.564c2.752-2.962.624-8.813-.8-11.934C585.06,122.151,581.854,116.579,582.552,109.3Z" transform="translate(-546.936 -73.87)" fill="#bd6500"/>
            <g id="Group_771" data-name="Group 771" transform="translate(0 57.412)">
              <g id="Group_766" data-name="Group 766" transform="translate(113.497 69.689)">
                <rect id="Rectangle_693" data-name="Rectangle 693" width="10.771" height="6.226" transform="translate(0 12.631) rotate(-20.853)" fill="#ffcd9c"/>
                <g id="Group_765" data-name="Group 765" transform="translate(7.592)">
                  <path id="Path_2694" data-name="Path 2694" d="M600.1,117.674a1.575,1.575,0,0,0-1.271,1.827h0a1.581,1.581,0,0,0,1.833,1.277l9.324-1.685a1.593,1.593,0,0,0,1.271-1.85h0a1.582,1.582,0,0,0-1.833-1.266Z" transform="translate(-591.579 -105.316)" fill="#ffcd9c"/>
                  <path id="Path_2695" data-name="Path 2695" d="M599.5,117.725a1.582,1.582,0,0,0-.953,2.015h0a1.57,1.57,0,0,0,2.02.953l8.915-3.206a1.588,1.588,0,0,0,.954-2.026h0a1.606,1.606,0,0,0-2.02-.953Z" transform="translate(-593.237 -112.472)" fill="#ffcd9c"/>
                  <path id="Path_2696" data-name="Path 2696" d="M602.644,114.173a1.718,1.718,0,0,1,1.073,2.185l-2.48,7.235a5.506,5.506,0,0,1-2.6.091c-.494-.131-.942-1.521-.942-1.521l2.764-6.923A1.723,1.723,0,0,1,602.644,114.173Z" transform="translate(-596.803 -114.078)" fill="#ffcd9c"/>
                  <path id="Path_2697" data-name="Path 2697" d="M600.032,117.7a1.575,1.575,0,0,0-1.1,1.946h0a1.587,1.587,0,0,0,1.94,1.1l9.137-2.554a1.592,1.592,0,0,0,1.107-1.946h0a1.6,1.6,0,0,0-1.952-1.1Z" transform="translate(-591.28 -109.338)" fill="#ffcd9c"/>
                  <path id="Rectangle_694" data-name="Rectangle 694" d="M.551,0h9.626a.551.551,0,0,1,.551.551v9.618a.553.553,0,0,1-.553.553H.552A.552.552,0,0,1,0,10.17V.551A.551.551,0,0,1,.551,0Z" transform="matrix(0.963, -0.271, 0.271, 0.963, 0, 6.897)" fill="#ffcd9c"/>
                </g>
              </g>
              <g id="Group_767" data-name="Group 767" transform="translate(52.135 4.794)">
                <path id="Path_2698" data-name="Path 2698" d="M656.659,185.292a54.128,54.128,0,0,1-12.9,2.525c-8.4.426-36.853-.1-50-24.918-2.134-4.035-5.079-12.6-6.838-22.637-1.515-8.592-2.673-21.315.363-33.153a5.944,5.944,0,0,1,11.514,2.957c-4.489,17.479,2.094,40.893,5.465,47.266,6.293,11.877,17.751,16.23,26.257,17.791,9.647,1.776,20.714-.414,20.714-.414Z" transform="translate(-585.383 -102.643)" fill="#ded9cb"/>
              </g>
              <path id="Path_2699" data-name="Path 2699" d="M632.055,147.492a18.449,18.449,0,0,0,7.213-14.851,18.686,18.686,0,0,0-5.527-13.427v-9.131a3.671,3.671,0,0,0-1.158-2.786,4.874,4.874,0,0,0-1.152-.812,6.485,6.485,0,0,0-1.248-.488l-21.854-4.2-9.222,1.657-15.033,2.684a3.847,3.847,0,0,0-3.729,3.944s9.261,47.515,8.3,55.926c-1.986,17.331-11.2,30.962-11.2,30.962l23.971,22.779h32.142l-.584-4.285c-1.334-9.715-4.393-33.294-4.211-42.5C628.872,167.711,630.693,155.783,632.055,147.492Z" transform="translate(-570.352 -101.798)" fill="#fff9ea"/>
              <g id="Group_768" data-name="Group 768" transform="translate(39.838 6.356)">
                <path id="Path_2700" data-name="Path 2700" d="M586.371,104.5a1.578,1.578,0,1,0-1.578,1.578A1.574,1.574,0,0,0,586.371,104.5Z" transform="translate(-583.216 -102.918)" fill="#1c1e29"/>
                <path id="Path_2701" data-name="Path 2701" d="M586.371,106.723a1.578,1.578,0,1,0-1.578,1.572A1.574,1.574,0,0,0,586.371,106.723Z" transform="translate(-583.216 -92.507)" fill="#1c1e29"/>
                <path id="Path_2702" data-name="Path 2702" d="M586.371,108.95a1.578,1.578,0,1,0-1.578,1.572A1.574,1.574,0,0,0,586.371,108.95Z" transform="translate(-583.216 -82.096)" fill="#1c1e29"/>
                <circle id="Ellipse_134" data-name="Ellipse 134" cx="1.576" cy="1.576" r="1.576" transform="translate(0.002 37.912)" fill="#1c1e29"/>
                <circle id="Ellipse_135" data-name="Ellipse 135" cx="1.576" cy="1.576" r="1.576" transform="translate(0.002 50.548)" fill="#1c1e29"/>
                <circle id="Ellipse_136" data-name="Ellipse 136" cx="1.576" cy="1.576" r="1.576" transform="translate(0.002 63.185)" fill="#1c1e29"/>
                <path id="Path_2703" data-name="Path 2703" d="M586.371,118.1a1.578,1.578,0,1,0-1.578,1.578A1.578,1.578,0,0,0,586.371,118.1Z" transform="translate(-583.216 -39.317)" fill="#1c1e29"/>
                <path id="Path_2704" data-name="Path 2704" d="M586.371,120.052a1.578,1.578,0,1,0-1.578,1.578A1.578,1.578,0,0,0,586.371,120.052Z" transform="translate(-583.216 -30.196)" fill="#1c1e29"/>
              </g>
              <path id="Path_2705" data-name="Path 2705" d="M599.022,186.757c-6.838-7.519-3.422-19.147,1.368-26.666,4.784-9.573,19.147-3.422,24.618-13.676-10.941-4.1-27.8,2.917-32.591-8.705-4.784-12.309,6.605-21.383,5.238-35.059-.023-.176-.057-.346-.091-.511l-13.489,2.406a3.847,3.847,0,0,0-3.729,3.944s9.261,47.515,8.3,55.926c-1.981,17.331-11.2,30.962-11.2,30.962l23.971,22.779h32.142l-.584-4.285c-.562-4.109-1.436-10.691-2.242-17.62C630.37,193.113,602.438,190.86,599.022,186.757Z" transform="translate(-570.352 -100.204)" fill="#ded9cb" opacity="0.4"/>
              <path id="Path_2706" data-name="Path 2706" d="M657.182,158.122h-61.2A19.783,19.783,0,0,1,576.2,138.345h0c0-10.924,3.78-15.878,7.315-19.788l76.344,7.02S668.1,158.122,657.182,158.122Z" transform="translate(-576.196 -23.452)" fill="#1c2842"/>
              <path id="Path_2707" data-name="Path 2707" d="M583.511,118.557l7.1.658c-5.908,9.823-5.312,23.176,4.069,28.386,20.974,12.91,44.956,1.793,67.741,4.387-.664,3.621-2.213,6.135-5.244,6.135h-61.2A19.783,19.783,0,0,1,576.2,138.345C576.2,127.421,579.976,122.467,583.511,118.557Z" transform="translate(-576.196 -23.452)" fill="#141b2f"/>
              <path id="Path_2708" data-name="Path 2708" d="M629.919,136.544c0-9.261-8.853-16.775-19.777-16.775h-4.109c-10.913,0-19.771,7.514-19.771,16.775,0,9.278,8.858,16.781,19.771,16.781h4.109C621.067,153.324,629.919,145.822,629.919,136.544Z" transform="translate(-529.134 -17.786)" fill="#141b2f"/>
              <g id="Group_769" data-name="Group 769" transform="translate(84.096 107.839)">
                <path id="Path_2709" data-name="Path 2709" d="M606.5,236.318l1.85-106.846a8.665,8.665,0,1,0-17.331,0l6.52,104.968Z" transform="translate(-591.015 -120.801)" fill="#f3ad7a"/>
              </g>
              <path id="Path_2710" data-name="Path 2710" d="M614.283,155.81c.937-.511.8-.108.817-1.521.034-2.128-10.2-8.989-11.395-9.914-8.467-6.589-9.2-4.188-9.255-4.1a6.317,6.317,0,0,0-2.542,7.377c1.333,3.91,6.129.573,8.206,4.012C603.211,156.775,611.655,156.576,614.283,155.81Z" transform="translate(-504.282 75.747)" fill="#141b2f"/>
              <path id="Path_2711" data-name="Path 2711" d="M594.18,149.436h-1.748l-.764-8.211h2.915Z" transform="translate(-503.866 82.518)" fill="#141b2f"/>
              <path id="Path_2712" data-name="Path 2712" d="M601.245,144.927s6.8,4.449,6.594,6.384c-.181,1.595-12.973-4.239-14.329-5.238a3.682,3.682,0,0,1-1.226-4.54c.431-1.129,3.592-2.843,5.953-1.47C600.189,141.2,601.245,144.927,601.245,144.927Z" transform="translate(-502.456 74.706)" fill="#f3ad7a"/>
              <g id="Group_770" data-name="Group 770" transform="translate(62.991 106.284)">
                <path id="Path_2713" data-name="Path 2713" d="M602.556,234.336l1.827-105.263a8.543,8.543,0,1,0-17.087,0l6.424,103.413Z" transform="translate(-587.296 -120.527)" fill="#f3ad7a"/>
              </g>
              <path id="Path_2714" data-name="Path 2714" d="M610.669,155.81c.937-.511.8-.108.817-1.521.023-2.128-10.2-8.989-11.395-9.914-8.473-6.589-9.2-4.188-9.267-4.1a6.314,6.314,0,0,0-2.537,7.377c1.328,3.91,6.123.573,8.206,4.012C599.6,156.775,608.025,156.576,610.669,155.81Z" transform="translate(-521.2 75.747)" fill="#141b2f"/>
              <path id="Path_2715" data-name="Path 2715" d="M590.556,149.436h-1.751l-.755-8.211h2.916Z" transform="translate(-520.781 82.518)" fill="#141b2f"/>
              <path id="Path_2716" data-name="Path 2716" d="M597.625,144.927s6.8,4.449,6.594,6.384c-.175,1.595-12.972-4.239-14.335-5.238a3.686,3.686,0,0,1-1.22-4.54c.426-1.129,3.6-2.843,5.953-1.47C596.576,141.2,597.625,144.927,597.625,144.927Z" transform="translate(-519.375 74.706)" fill="#f3ad7a"/>
            </g>
            <path id="Path_2717" data-name="Path 2717" d="M625.648,115.192a24.522,24.522,0,0,1-.215,3.184,23.458,23.458,0,0,1-23.346,20.339,23.517,23.517,0,0,1-8.336-1.515h-.011a23.53,23.53,0,0,1-15.152-20.532c-.034-.488-.051-.982-.051-1.475a23.517,23.517,0,0,1,23.551-23.511,23.154,23.154,0,0,1,5.9.743,20.1,20.1,0,0,1,2.066.624,23.6,23.6,0,0,1,15.6,22.143Z" transform="translate(-565.262 -91.681)" fill="#e89700"/>
            <g id="Group_784" data-name="Group 784" transform="translate(23.727 4.977)">
              <g id="Group_776" data-name="Group 776">
                <g id="Group_774" data-name="Group 774" transform="translate(0 24.669)">
                  <path id="Path_2718" data-name="Path 2718" d="M596.748,129.4c0,4.188-4.671,2.554-4.671,2.554-4.2,0-10.493,1.634-10.493-2.554V104.481a7.572,7.572,0,0,1,7.582-7.576h0a7.576,7.576,0,0,1,7.582,7.576Z" transform="translate(-574.73 -96.905)" fill="#f3ad7a"/>
                  <g id="Group_773" data-name="Group 773" transform="translate(0 28.42)">
                    <g id="Group_772" data-name="Group 772">
                      <path id="Path_2719" data-name="Path 2719" d="M597.543,108.592,589.3,116l-8.92-13.279,4.528-.806C587.187,109.228,597.543,108.592,597.543,108.592Z" transform="translate(-580.377 -101.913)" fill="#fff9ea"/>
                      <path id="Path_2720" data-name="Path 2720" d="M583.4,107.9l9.466,4.591-.074-9.715-4.54-.715C588.254,109.087,583.4,107.9,583.4,107.9Z" transform="translate(-566.236 -101.221)" fill="#fff9ea"/>
                    </g>
                  </g>
                  <path id="Path_2721" data-name="Path 2721" d="M589.167,96.9a7.572,7.572,0,0,0-7.582,7.576V129.4a7.6,7.6,0,0,0,.6,2.945h2.582c-.256-3.6.59-6.776,4.2-8.944,2.077-1.243,4.965-1.4,7.781-1.9V104.481A7.576,7.576,0,0,0,589.167,96.9Z" transform="translate(-574.73 -96.905)" fill="#f3ad7a" opacity="0.3" style="mix-blend-mode: multiply;isolation: isolate"/>
                </g>
                <g id="Group_775" data-name="Group 775" transform="translate(1.946)">
                  <path id="Path_2722" data-name="Path 2722" d="M580.72,108.345v16.576a15.682,15.682,0,0,0,4.637,11.162,13.912,13.912,0,0,0,1.89,1.606,15.787,15.787,0,0,0,25.077-12.768V108.345c0-.2-.023-.4-.023-.6a15.8,15.8,0,0,0-31.581.6Z" transform="translate(-580.72 -92.558)" fill="#ffcd9c"/>
                </g>
              </g>
              <g id="Group_777" data-name="Group 777" transform="translate(17.467 39.832)">
                <path id="Path_2723" data-name="Path 2723" d="M592.813,99.844a4.837,4.837,0,0,1-9.358,0c-.011-.045.119-.079.357-.114a61.023,61.023,0,0,1,8.643,0C592.694,99.764,592.825,99.8,592.813,99.844Z" transform="translate(-583.455 -99.577)" fill="#2a2626"/>
                <path id="Path_2724" data-name="Path 2724" d="M592.161,99.73l-.017.034c-.46.772-2.214,1.351-4.3,1.351s-3.847-.579-4.313-1.351l-.017-.034A61.024,61.024,0,0,1,592.161,99.73Z" transform="translate(-583.16 -99.577)" fill="#fff7dc"/>
              </g>
              <g id="Group_783" data-name="Group 783" transform="translate(9.004 18.809)">
                <g id="Group_782" data-name="Group 782" transform="translate(0 3.408)">
                  <g id="Group_778" data-name="Group 778" transform="translate(4.274)">
                    <path id="Path_2725" data-name="Path 2725" d="M586.6,98.925a2,2,0,1,1-1.941-2.452A2.243,2.243,0,0,1,586.6,98.925Z" transform="translate(-582.717 -96.473)" fill="#2a2626"/>
                    <path id="Path_2726" data-name="Path 2726" d="M584.37,97.687a.816.816,0,1,1-.794-1A.916.916,0,0,1,584.37,97.687Z" transform="translate(-582.418 -95.491)" fill="#fff7dc"/>
                  </g>
                  <g id="Group_780" data-name="Group 780" transform="translate(11.022 5.09)">
                    <g id="Group_779" data-name="Group 779">
                      <path id="Path_2727" data-name="Path 2727" d="M585.9,106.087h0a2.07,2.07,0,0,1-1.992-1.986c.028-1.9.42-2.843.448-4.744.017-1.09.573-1.986,1.544-1.986h0c.97,0,1.526.9,1.543,1.986.028,1.9.42,2.849.448,4.744A2.066,2.066,0,0,1,585.9,106.087Z" transform="translate(-583.906 -97.37)" fill="#f3ad7a"/>
                    </g>
                    <path id="Path_2728" data-name="Path 2728" d="M585.914,99.586c0,.738-.375,1.339-.828,1.339s-.828-.6-.828-1.339.369-1.334.828-1.334S585.914,98.848,585.914,99.586Z" transform="translate(-582.265 -93.247)" fill="#ffe9d4" opacity="0.3"/>
                  </g>
                  <g id="Group_781" data-name="Group 781" transform="translate(17.821)">
                    <path id="Path_2729" data-name="Path 2729" d="M588.98,98.925a1.992,1.992,0,1,1-1.941-2.452A2.235,2.235,0,0,1,588.98,98.925Z" transform="translate(-585.104 -96.473)" fill="#2a2626"/>
                    <path id="Path_2730" data-name="Path 2730" d="M586.755,97.687a.816.816,0,1,1-.794-1A.916.916,0,0,1,586.755,97.687Z" transform="translate(-584.814 -95.491)" fill="#fff7dc"/>
                  </g>
                  <path id="Path_2731" data-name="Path 2731" d="M588.526,101.962a3.347,3.347,0,1,1-2.355-4.018A3.3,3.3,0,0,1,588.526,101.962Z" transform="translate(-581.964 -90.187)" fill="#f48fb7" opacity="0.2"/>
                  <path id="Path_2732" data-name="Path 2732" d="M591.513,101.962a3.347,3.347,0,1,1-2.355-4.018A3.292,3.292,0,0,1,591.513,101.962Z" transform="translate(-567.995 -90.187)" fill="#f48fb7" opacity="0.2"/>
                </g>
                <path id="Path_2733" data-name="Path 2733" d="M586.294,95.875a14.3,14.3,0,0,0-3.677.846v.352a28.827,28.827,0,0,1,3.916.386s.982.233,1.078-.42S587.5,95.949,586.294,95.875Z" transform="translate(-578.91 -95.873)" fill="#e89700"/>
                <path id="Path_2734" data-name="Path 2734" d="M586.5,95.876a14.259,14.259,0,0,1,3.632,1.033l-.017.352a29.191,29.191,0,0,0-3.938.182s-.987.182-1.055-.477S585.29,95.882,586.5,95.876Z" transform="translate(-567.254 -95.856)" fill="#e89700"/>
                <path id="Path_2735" data-name="Path 2735" d="M582.552,98.251a3.258,3.258,0,0,1,4.62,0S585.151,94.063,582.552,98.251Z" transform="translate(-579.214 -93.453)" fill="#2a2626"/>
                <path id="Path_2736" data-name="Path 2736" d="M585.146,98.216a3.258,3.258,0,0,1,4.62,0S587.745,94.028,585.146,98.216Z" transform="translate(-567.087 -93.617)" fill="#2a2626"/>
              </g>
            </g>
            <path id="Path_2737" data-name="Path 2737" d="M585.088,100.7c5.312-7.014,12.581-10.453,16.236-7.684s2.31,10.708-3,17.717-12.575,10.447-16.236,7.672S579.782,107.708,585.088,100.7Z" transform="translate(-558.252 -89.918)" fill="#e89700"/>
            <path id="Path_2738" data-name="Path 2738" d="M602.356,113.429a24.522,24.522,0,0,1-.215,3.184c-3.654-.414-8.246-2.991-12.184-7.162-6.026-6.407-8.217-14.142-4.874-17.28l.119-.114a23.2,23.2,0,0,1,6.985,2.026A23.478,23.478,0,0,1,602.356,113.429Z" transform="translate(-541.97 -89.919)" fill="#e89700"/>
          </g>
        </g>
        <path id="Path_2739" data-name="Path 2739" d="M604.005,126.327c0,4.273-4.636.533-10.527.533s-10.81,3.74-10.81-.533c0-4.29,4.772-7.757,10.663-7.757S604.005,122.036,604.005,126.327Z" transform="translate(-540.145 34.016)" fill="#edb485"/>
        <g id="Group_787" data-name="Group 787" transform="translate(0 61.575)">
          <path id="Path_2740" data-name="Path 2740" d="M622.385,205.062a54.192,54.192,0,0,1-12.74-3.257c-7.764-3.223-33.238-15.918-34.447-43.974-.2-4.557.817-13.557,3.541-23.38,2.321-8.4,6.736-20.4,14.562-29.782a5.943,5.943,0,0,1,9.131,7.61c-11.56,13.864-15.668,37.834-15.362,45.036.585,13.427,9.063,22.279,16.077,27.341,7.95,5.749,18.88,8.524,18.88,8.524Z" transform="translate(-575.175 -102.531)" fill="#fffbf2"/>
        </g>
        <path id="Path_2741" data-name="Path 2741" d="M600.271,101.539c-3.3.817-5.777,3.83-7.236,7.179-3.53-.346-1.107-18.415-2.905-15.623-12.644,19.646-11.884,30.849-12.4,36.171-.7,7.275,1.339,12.842,1.226,19.885-.176,10.794,11.39,18.352,15.8,16.241,5.8-2.775,9.318-9.693,9.534-16.179.289-8.694-4.126-14.766-7.8-22.126-4.228-8.49-4.035-18.438,4.318-24.385A.649.649,0,0,0,600.271,101.539Z" transform="translate(-563.922 -86.444)" fill="#e89700"/>
        <g id="Group_788" data-name="Group 788" transform="translate(26.42 28.387)">
          <path id="Path_2742" data-name="Path 2742" d="M585.758,106.153c-1.64.789-3.967-.647-5.187-3.2s-.891-5.266.743-6.055,3.972.647,5.193,3.206S587.393,105.37,585.758,106.153Z" transform="translate(-579.831 -96.683)" fill="#ffcd9c"/>
          <path id="Path_2743" data-name="Path 2743" d="M583.047,100.873c-.619.426-1.663-.011-2.327-.982s-.7-2.1-.085-2.531,1.668.017,2.332.982S583.671,100.448,583.047,100.873Z" transform="translate(-578.135 -94.275)" fill="#f3ad7a"/>
        </g>
        <rect id="Rectangle_695" data-name="Rectangle 695" width="10.854" height="2.734" transform="translate(55.325 73.673)" fill="#141b2f"/>
      </g>
    </g>
    <g id="Group_797" data-name="Group 797" transform="translate(842.731 219.403)">
      <g id="Group_792" data-name="Group 792" transform="translate(6.74 15.91)">
        <g id="Group_791" data-name="Group 791">
          <path id="Path_2744" data-name="Path 2744" d="M673.082,124.288l-38.212.12h-21.2l-.23-1.75-.125-1.031-.657-5.174H634.87Z" transform="translate(-612.655 -116.453)" fill="#efe7d8"/>
          <path id="Path_2745" data-name="Path 2745" d="M676.576,116.453l-.288,2.824-.187,1.156-.619,3.788-20.7.067-38.212.12v-7.955Z" transform="translate(-594.354 -116.453)" fill="#fff9ed"/>
        </g>
        <path id="Path_2746" data-name="Path 2746" d="M646,116.951l-.185,1.154-22.771-.577Z" transform="translate(-564.071 -114.126)" fill="#dcd4c4" style="mix-blend-mode: multiply;isolation: isolate"/>
        <path id="Path_2747" data-name="Path 2747" d="M633.027,117.88l-20.133.515-.124-1.03Z" transform="translate(-612.112 -112.191)" fill="#dcd4c4" style="mix-blend-mode: multiply;isolation: isolate"/>
        <path id="Path_2748" data-name="Path 2748" d="M633.941,117.481l-17.371.433v-.865Z" transform="translate(-594.356 -113.668)" fill="#dcd4c4" style="mix-blend-mode: multiply;isolation: isolate"/>
        <path id="Path_2749" data-name="Path 2749" d="M653.662,118.524H630.372l-13.436-.576,12.919-.493Z" transform="translate(-592.642 -111.768)" fill="#dcd4c4" style="mix-blend-mode: multiply;isolation: isolate"/>
      </g>
      <g id="Group_794" data-name="Group 794" transform="translate(11.767 7.955)">
        <g id="Group_793" data-name="Group 793">
          <path id="Path_2750" data-name="Path 2750" d="M673.969,122.886l-38.213.12h-21.2l-.23-1.75-.125-1.031-.657-5.174h22.215Z" transform="translate(-613.541 -115.051)" fill="#efe7d8"/>
          <path id="Path_2751" data-name="Path 2751" d="M677.462,115.051l-.288,2.824-.187,1.156-.618,3.788-20.7.067-38.213.12v-7.955Z" transform="translate(-595.24 -115.051)" fill="#fff9ed"/>
        </g>
        <path id="Path_2752" data-name="Path 2752" d="M646.89,115.549,646.7,116.7l-22.771-.577Z" transform="translate(-564.957 -112.725)" fill="#dcd4c4" style="mix-blend-mode: multiply;isolation: isolate"/>
        <path id="Path_2753" data-name="Path 2753" d="M633.914,116.478l-20.133.515-.123-1.03Z" transform="translate(-612.998 -110.789)" fill="#dcd4c4" style="mix-blend-mode: multiply;isolation: isolate"/>
        <path id="Path_2754" data-name="Path 2754" d="M634.827,116.079l-17.372.433v-.865Z" transform="translate(-595.242 -112.266)" fill="#dcd4c4" style="mix-blend-mode: multiply;isolation: isolate"/>
        <path id="Path_2755" data-name="Path 2755" d="M654.548,117.122H631.258l-13.436-.576,12.92-.493Z" transform="translate(-593.528 -110.367)" fill="#dcd4c4" style="mix-blend-mode: multiply;isolation: isolate"/>
      </g>
      <g id="Group_796" data-name="Group 796">
        <g id="Group_795" data-name="Group 795">
          <path id="Path_2756" data-name="Path 2756" d="M671.9,121.485l-38.212.12h-21.2l-.23-1.75-.125-1.031-.657-5.174h22.216Z" transform="translate(-611.467 -113.649)" fill="#efe7d8"/>
          <path id="Path_2757" data-name="Path 2757" d="M675.388,113.649l-.287,2.824-.188,1.156-.618,3.788-20.7.067-38.212.12v-7.955Z" transform="translate(-593.166 -113.649)" fill="#fff9ed"/>
        </g>
        <path id="Path_2758" data-name="Path 2758" d="M644.817,114.147l-.186,1.154-22.771-.577Z" transform="translate(-562.884 -111.323)" fill="#dcd4c4" style="mix-blend-mode: multiply;isolation: isolate"/>
        <path id="Path_2759" data-name="Path 2759" d="M631.84,115.076l-20.133.515-.123-1.03Z" transform="translate(-610.924 -109.387)" fill="#dcd4c4" style="mix-blend-mode: multiply;isolation: isolate"/>
        <path id="Path_2760" data-name="Path 2760" d="M632.754,114.678l-17.372.433v-.865Z" transform="translate(-593.168 -110.864)" fill="#dcd4c4" style="mix-blend-mode: multiply;isolation: isolate"/>
        <path id="Path_2761" data-name="Path 2761" d="M652.474,115.72h-23.29l-13.436-.576,12.92-.493Z" transform="translate(-591.454 -108.964)" fill="#dcd4c4" style="mix-blend-mode: multiply;isolation: isolate"/>
      </g>
    </g>
    <g id="Group_802" data-name="Group 802" transform="translate(883.106 158.367)">
      <g id="Group_801" data-name="Group 801">
        <g id="Group_799" data-name="Group 799" transform="translate(0 70.01)">
          <rect id="Rectangle_696" data-name="Rectangle 696" width="6.227" height="10.772" transform="matrix(0.263, -0.965, 0.965, 0.263, 15.844, 14.497)" fill="#ffcd9c"/>
          <g id="Group_798" data-name="Group 798">
            <path id="Path_2762" data-name="Path 2762" d="M629.854,118.1a1.579,1.579,0,0,1,1.441,1.7h0a1.581,1.581,0,0,1-1.7,1.447l-9.438-.766a1.589,1.589,0,0,1-1.452-1.714h0a1.59,1.59,0,0,1,1.708-1.441Z" transform="translate(-618.043 -105.478)" fill="#ffcd9c"/>
            <path id="Path_2763" data-name="Path 2763" d="M630.126,118.128a1.573,1.573,0,0,1,1.141,1.912h0a1.573,1.573,0,0,1-1.918,1.146l-9.182-2.327a1.577,1.577,0,0,1-1.146-1.918h0a1.6,1.6,0,0,1,1.918-1.146Z" transform="translate(-616.755 -112.793)" fill="#ffcd9c"/>
            <path id="Path_2764" data-name="Path 2764" d="M621.757,115.391a1.715,1.715,0,0,0-.857,2.281l3.178,6.957a5.565,5.565,0,0,0,2.594-.165c.482-.182.788-1.606.788-1.606l-3.422-6.623A1.716,1.716,0,0,0,621.757,115.391Z" transform="translate(-608.472 -115.231)" fill="#ffcd9c"/>
            <path id="Path_2765" data-name="Path 2765" d="M629.774,118.138a1.577,1.577,0,0,1,1.288,1.827h0a1.6,1.6,0,0,1-1.827,1.288l-9.341-1.651a1.59,1.59,0,0,1-1.288-1.833h0a1.592,1.592,0,0,1,1.833-1.283Z" transform="translate(-618.582 -109.466)" fill="#ffcd9c"/>
            <path id="Rectangle_697" data-name="Rectangle 697" d="M.551,0h9.62a.551.551,0,0,1,.551.551v9.627a.55.55,0,0,1-.55.55H.552A.552.552,0,0,1,0,10.176V.551A.551.551,0,0,1,.551,0Z" transform="translate(7.312 15.026) rotate(-79.866)" fill="#ffcd9c"/>
          </g>
        </g>
        <g id="Group_800" data-name="Group 800" transform="translate(20.572)">
          <path id="Path_2766" data-name="Path 2766" d="M622.207,192.284l.256.085a76.49,76.49,0,0,0,32.664,2.888c13.109-1.782,26.416-7.684,32.63-16.037,12.882-17.337,17.575-50.966,8.161-72.3a6.755,6.755,0,0,0-12.36,5.454c7.093,16.06,3.6,46.29-6.611,60.029-8.649,11.628-35.32,12.785-51.737,7.491Z" transform="translate(-622.207 -102.894)" fill="#253759"/>
        </g>
      </g>
    </g>
  </g>
</svg>
