<svg xmlns="http://www.w3.org/2000/svg" width="367.867" height="442.458" viewBox="0 0 367.867 442.458">
  <g id="Group_942" data-name="Group 942" transform="translate(-936.641 65.607)">
    <g id="Group_804" data-name="Group 804" transform="translate(1076.81 -19.839)">
      <path id="Path_2767" data-name="Path 2767" d="M1001.529,18.747l57.155-1.222-6.812-74.616-85.409,5.428L962.72,19.854l21.346-.437L966.5,62.941Z" transform="translate(-962.72 57.091)" fill="#fff9ea"/>
    </g>
    <g id="Group_805" data-name="Group 805" transform="translate(939.855 -24.366)">
      <path id="Path_2768" data-name="Path 2768" d="M1011.958,8.819,1046.434,7.5l-6.812-65.43-99.85,4.84-2.534,63.542L991.5,9.372l30.033,34.7Z" transform="translate(-937.239 57.934)" fill="#fff9ea"/>
    </g>
    <g id="Group_810" data-name="Group 810" transform="translate(940.96 224.609)">
      <path id="Path_2769" data-name="Path 2769" d="M952.432-11.588l-2.985,150.394,73.933.008-2.115-143.5Z" transform="translate(-884.939 11.708)" fill="#3e2624"/>
      <g id="Group_809" data-name="Group 809" transform="translate(0 0)">
        <g id="Group_808" data-name="Group 808">
          <g id="Group_806" data-name="Group 806">
            <path id="Path_2770" data-name="Path 2770" d="M944.174-11.611l-6.729,150.5,67.494.008L1004.927-4.62Z" transform="translate(-937.444 11.611)" fill="#351f1d"/>
            <rect id="Rectangle_698" data-name="Rectangle 698" width="150.993" height="11.87" transform="matrix(0.001, -1, 1, 0.001, 275.793, 151.017)" fill="#2c1816"/>
            <path id="Path_2771" data-name="Path 2771" d="M990.983,139.382l10.55.012.012-151L990.982-3.866Z" transform="translate(-703.232 11.636)" fill="#593d3d"/>
          </g>
          <g id="Group_807" data-name="Group 807" transform="translate(233.659 0.012)">
            <rect id="Rectangle_699" data-name="Rectangle 699" width="10.55" height="150.993" transform="translate(0 0.012)" fill="#2c1816"/>
            <rect id="Rectangle_700" data-name="Rectangle 700" width="10.544" height="150.993" transform="translate(7.368 0.012) rotate(-0.067)" fill="#593d3d"/>
          </g>
          <rect id="Rectangle_701" data-name="Rectangle 701" width="263.123" height="15.508" transform="translate(6.73 0.009)" fill="#3e2624"/>
          <rect id="Rectangle_702" data-name="Rectangle 702" width="230.822" height="15.498" transform="translate(67.488 0.016)" fill="#593d3d"/>
        </g>
      </g>
      <path id="Path_2772" data-name="Path 2772" d="M1008.384,21.654H951.029L951.6-6.9h56.365Z" transform="translate(-878.019 32.226)" fill="#2c1816"/>
      <path id="Path_2773" data-name="Path 2773" d="M1009.681,33.874l-.5-33.952H951.548l-.674,33.952Z" transform="translate(-878.697 62.06)" fill="#2c1816"/>
      <path id="Path_2774" data-name="Path 2774" d="M951.361,7.818l-.638,32.137,60.212.006-.474-32.143Z" transform="translate(-879.353 96.604)" fill="#2c1816"/>
      <path id="Path_2775" data-name="Path 2775" d="M974.349-6.9c0,3.343-4.509,6.057-10.067,6.057S954.215-3.555,954.215-6.9Z" transform="translate(-864.078 32.227)" fill="#593d3d"/>
      <path id="Path_2776" data-name="Path 2776" d="M974.625-.079c0,3.348-4.509,6.057-10.067,6.057S954.491,3.269,954.491-.079Z" transform="translate(-862.871 62.058)" fill="#593d3d"/>
      <path id="Path_2777" data-name="Path 2777" d="M974.447,7.818c0,3.343-4.509,6.057-10.067,6.057s-10.072-2.714-10.072-6.057Z" transform="translate(-863.672 96.606)" fill="#593d3d"/>
    </g>
    <g id="Group_858" data-name="Group 858" transform="translate(936.641 66.89)">
      <path id="Path_2778" data-name="Path 2778" d="M957.173-22.3a59.7,59.7,0,0,1,1.747-12.378h12.668A21.424,21.424,0,0,0,974-24.256c3.289,6.6,7.25,12.045,6.987,19.844-.188,5.81-3.349,12.018-8.546,14.506a15.591,15.591,0,0,1-13.3.3c-1.854-.914-.511-5.09.312-5.977,2.467-2.66,3.875-6.649,2.59-9.449C959.42-10.782,956.544-15.775,957.173-22.3Z" transform="translate(-847.201 68.393)" fill="#e69d32"/>
      <g id="Paramedic">
        <g id="Group_813" data-name="Group 813" transform="translate(122.75 68.302)">
          <g id="Group_812" data-name="Group 812">
            <g id="Group_811" data-name="Group 811">
              <path id="Path_2779" data-name="Path 2779" d="M1000.471,22.888A25.958,25.958,0,0,1,992,21.55c-16.748-5.52-30.561-27.207-32.479-43.218a5.115,5.115,0,0,1,4.472-5.686,5.115,5.115,0,0,1,5.687,4.472c1.521,12.663,13,30.582,25.524,34.71,6.289,2.075,11.921.355,17.21-5.256C1017.966.68,1024.5-19,1024.356-28.247l5.692.005c.15,10.121-1.9,33.033-10.2,41.832C1014.166,19.626,1007.479,22.786,1000.471,22.888Z" transform="translate(-959.479 28.247)" fill="#ffcd9c"/>
            </g>
          </g>
        </g>
        <g id="Group_816" data-name="Group 816" transform="translate(122.75 69.158)">
          <g id="Group_815" data-name="Group 815">
            <g id="Group_814" data-name="Group 814">
              <path id="Path_2780" data-name="Path 2780" d="M1021.717-23.1c-.559,9.492-4.273,23.644-9.309,28.975-5.289,5.611-10.922,7.331-17.21,5.256-12.523-4.128-24-22.047-25.524-34.71a5.115,5.115,0,0,0-5.687-4.472,5.115,5.115,0,0,0-4.472,5.686c1.919,16.011,15.732,37.7,32.479,43.218a25.958,25.958,0,0,0,8.476,1.338c7.008-.1,13.695-3.262,19.381-9.3,7.482-7.928,10.288-25.24,10.658-35.995Z" transform="translate(-959.479 28.088)" fill="#fefefe"/>
            </g>
          </g>
        </g>
        <g id="Group_819" data-name="Group 819" transform="translate(122.75 69.158)">
          <g id="Group_818" data-name="Group 818">
            <g id="Group_817" data-name="Group 817">
              <path id="Path_2781" data-name="Path 2781" d="M1020.557-20.849c-.419,9.153-3.171,21.451-8.148,26.723-5.289,5.611-10.922,7.331-17.21,5.256-12.523-4.128-24-22.047-25.524-34.71a5.115,5.115,0,0,0-5.687-4.472,5.115,5.115,0,0,0-4.472,5.686c1.919,16.011,15.732,37.7,32.479,43.218a25.958,25.958,0,0,0,8.476,1.338c7.008-.1,13.695-3.262,19.381-9.3,7.514-7.965,10.836-23.38,11.292-33.743Z" transform="translate(-959.479 28.088)" fill="#1c2842"/>
            </g>
          </g>
        </g>
        <g id="Group_847" data-name="Group 847">
          <g id="Group_844" data-name="Group 844">
            <g id="Group_827" data-name="Group 827">
              <g id="Group_820" data-name="Group 820" transform="translate(19.704 32.629)">
                <rect id="Rectangle_703" data-name="Rectangle 703" width="10.755" height="6.212" transform="translate(0 10.755) rotate(-89.799)" fill="#edb485"/>
              </g>
              <g id="Group_821" data-name="Group 821" transform="translate(5.995 30.345)">
                <path id="Path_2782" data-name="Path 2782" d="M937.765-33.486c.231-3.983,4.364-.247,9.868.075,5.5.306,10.3-2.924,10.072,1.07s-4.886,6.987-10.39,6.692C941.818-25.977,937.534-29.476,937.765-33.486Z" transform="translate(-937.756 35.309)" fill="#edb485"/>
              </g>
              <g id="Group_826" data-name="Group 826">
                <g id="Group_825" data-name="Group 825">
                  <g id="Group_823" data-name="Group 823">
                    <g id="Group_822" data-name="Group 822" transform="translate(2.989)">
                      <path id="Path_2783" data-name="Path 2783" d="M937.2-25.529A15.426,15.426,0,0,0,952.623-10.1V-40.955A15.426,15.426,0,0,0,937.2-25.529Z" transform="translate(-937.197 40.955)" fill="#f4b222"/>
                      <path id="Path_2784" data-name="Path 2784" d="M955.493-25.529a15.25,15.25,0,0,1-.7,4.622,15.384,15.384,0,0,1-3.187,5.622,15.455,15.455,0,0,1-8.616,4.907,15.8,15.8,0,0,1-2.918.274V-40.955c.349,0,.7.011,1.042.032A15.428,15.428,0,0,1,955.493-25.529Z" transform="translate(-924.642 40.955)" fill="#f4b222"/>
                    </g>
                    <path id="Path_2785" data-name="Path 2785" d="M952.061-40.955a15.421,15.421,0,0,0-15.42,15.426A15.421,15.421,0,0,0,952.061-10.1a15.426,15.426,0,0,0,15.426-15.426A15.426,15.426,0,0,0,952.061-40.955Z" transform="translate(-936.641 40.955)" fill="#ffca00"/>
                    <path id="Path_2786" data-name="Path 2786" d="M949.953-40.472a12.828,12.828,0,0,0-12.83,12.83,12.832,12.832,0,0,0,12.83,12.83,12.828,12.828,0,0,0,12.83-12.83A12.825,12.825,0,0,0,949.953-40.472Z" transform="translate(-934.532 43.068)" fill="#f4b222"/>
                    <path id="Path_2787" data-name="Path 2787" d="M950.294-25.272c0,4.069-2.414,4.993-4.789,4.993v1.956h-2.285v-1.989a12.462,12.462,0,0,1-4.192-.726v-3.037c.957.075,3.306.236,5.525.236,1.016,0,1.827-.242,1.827-1.274V-25.8c0-.86-.269-1.371-1.445-1.371h-1.849c-4.284,0-4.606-3.51-4.606-4.821v-1.489c.005-3.418,2.118-4.526,4.74-4.606v-2.053h2.285v2.069a16.173,16.173,0,0,1,4.149.715v3.053c-1.446-.124-4.015-.237-5.2-.237-1.381-.016-2.064.1-2.064,1.419v.586c0,1.032.43,1.451,1.7,1.451h1.918c3.547,0,4.284,2.9,4.284,4.821Z" transform="translate(-928.591 44.503)" fill="#ffca00"/>
                  </g>
                  <g id="Group_824" data-name="Group 824" opacity="0.3" style="mix-blend-mode: screen;isolation: isolate">
                    <path id="Path_2788" data-name="Path 2788" d="M948.342-40.5l-11.25,11.255a15.136,15.136,0,0,0-.451,3.687l15.388-15.393A15.465,15.465,0,0,0,948.342-40.5Z" transform="translate(-936.641 40.955)" fill="#ffca00"/>
                    <path id="Path_2789" data-name="Path 2789" d="M956.657-40.776,936.819-20.943a15.513,15.513,0,0,0,4.929,6.756l21.666-21.66A15.469,15.469,0,0,0,956.657-40.776Z" transform="translate(-935.862 41.738)" fill="#ffca00"/>
                  </g>
                </g>
              </g>
            </g>
            <g id="Group_828" data-name="Group 828" transform="translate(16.75 41.036)">
              <path id="Path_2790" data-name="Path 2790" d="M1021.876-5.506a5.547,5.547,0,0,0-7.541-2.145c-.881.494-1.833,1.032-2.816,1.6C1003.532-1.475,992.6,4.792,980.727,4.19,972.482,3.766,964.35-.556,958.6-7.365a34.683,34.683,0,0,1-2.886-3.95,23.034,23.034,0,0,1-1.811-3.644c-2.134-5.391-2.8-12.222-2.3-18.36H940.218A39.031,39.031,0,0,0,942.325-13.5a45.243,45.243,0,0,0,4.01,8.067c.15.231.3.468.451.688,7.713,11.873,20.139,19.328,33.377,20a46.336,46.336,0,0,0,11.9-1c10.04-2.145,18.667-7.089,24.955-10.7.951-.548,1.859-1.064,2.709-1.537A5.539,5.539,0,0,0,1021.876-5.506Z" transform="translate(-939.757 33.32)" fill="#1c2842"/>
            </g>
            <g id="Body" transform="translate(84.609 64.965)">
              <path id="Path_2791" data-name="Path 2791" d="M998.993,56.112v-77.73a3.934,3.934,0,0,0-.038-.683,3.123,3.123,0,0,0-1.37-2.1,5.718,5.718,0,0,0-1.693-.828l-1.661-.29-4.333-.828-3.751-.72-1.225-.253-8.116-1.553-.075.038-5.627.973-.973.177-12.846,2.311-1.655.29a3.091,3.091,0,0,0-2.021.758,3.438,3.438,0,0,0-1.156,2.021,3.765,3.765,0,0,0-.07.683v77.73Z" transform="translate(-952.383 28.868)" fill="#e1e7e8"/>
            </g>
            <g id="Head" transform="translate(103.356 40.063)">
              <g id="Group_830" data-name="Group 830">
                <g id="Group_829" data-name="Group 829">
                  <path id="Path_2792" data-name="Path 2792" d="M969.674-3.924a6.9,6.9,0,0,1-6.9,6.9h0a6.9,6.9,0,0,1-6.9-6.9V-26.605a6.894,6.894,0,0,1,6.9-6.9h0a6.9,6.9,0,0,1,6.9,6.9Z" transform="translate(-955.871 33.501)" fill="#f3ad7a"/>
                  <path id="Path_2793" data-name="Path 2793" d="M962.59-9.379c1.892-1.134,4.525-1.274,7.084-1.731v-15.5a6.9,6.9,0,0,0-6.9-6.9,6.894,6.894,0,0,0-6.9,6.9V-3.924A6.886,6.886,0,0,0,959.247,2C958.29-2.564,958.247-6.772,962.59-9.379Z" transform="translate(-955.871 33.501)" fill="#f3ad7a" opacity="0.3" style="mix-blend-mode: multiply;isolation: isolate"/>
                </g>
              </g>
            </g>
            <g id="Group_843" data-name="Group 843" transform="translate(89.941 14.318)">
              <g id="Group_842" data-name="Group 842">
                <path id="Path_2794" data-name="Path 2794" d="M995.615-17.206a21.621,21.621,0,0,1-.194,2.854A20.452,20.452,0,0,1,994.97-12,21.125,21.125,0,0,1,974.493,3.89a21.215,21.215,0,0,1-7.482-1.36h-.005a21.1,21.1,0,0,1-13.587-18.414c-.032-.435-.043-.876-.043-1.322a21.082,21.082,0,0,1,14.6-20.059,20.932,20.932,0,0,1,6.52-1.027,20.837,20.837,0,0,1,5.283.666c.628.156,1.247.344,1.849.559a21.333,21.333,0,0,1,4.875,2.51A21.057,21.057,0,0,1,995.615-17.206Z" transform="translate(-953.375 38.291)" fill="#ffae38"/>
                <g id="Group_841" data-name="Group 841" transform="translate(11.115 4.466)">
                  <g id="Group_831" data-name="Group 831" transform="translate(2.542 24.923)">
                    <path id="Path_2795" data-name="Path 2795" d="M969.477-3.778A6.777,6.777,0,0,1,962.7,3h0a6.775,6.775,0,0,1-6.783-6.778V-26.051a6.774,6.774,0,0,1,6.783-6.772h0a6.776,6.776,0,0,1,6.778,6.772Z" transform="translate(-955.916 32.823)" fill="#f3ad7a"/>
                    <path id="Path_2796" data-name="Path 2796" d="M969.477-10.835V-26.051a6.776,6.776,0,0,0-6.778-6.772,6.774,6.774,0,0,0-6.783,6.772V-8.54Z" transform="translate(-955.916 32.823)" fill="#f3ad7a" opacity="0.3" style="mix-blend-mode: multiply;isolation: isolate"/>
                  </g>
                  <g id="Group_833" data-name="Group 833">
                    <g id="Group_832" data-name="Group 832">
                      <path id="Path_2797" data-name="Path 2797" d="M955.443-23.3V-8.436a14.044,14.044,0,0,0,4.155,10,12.536,12.536,0,0,0,1.7,1.446,14.074,14.074,0,0,0,8.326,2.709,14.067,14.067,0,0,0,6.88-1.784,14.173,14.173,0,0,0,6.81-8.761,14.059,14.059,0,0,0,.473-3.612V-23.3c0-.177-.021-.36-.021-.543a14.173,14.173,0,0,0-4.294-9.642,14.214,14.214,0,0,0-9.847-3.972A14.163,14.163,0,0,0,955.443-23.3Z" transform="translate(-955.443 37.46)" fill="#ffcd9c"/>
                    </g>
                  </g>
                  <g id="Group_840" data-name="Group 840" transform="translate(6.33 16.869)">
                    <g id="Group_839" data-name="Group 839" transform="translate(0 3.05)">
                      <g id="Group_834" data-name="Group 834" transform="translate(3.834)">
                        <path id="Path_2798" data-name="Path 2798" d="M960.817-31.55a2.008,2.008,0,0,1-1.741,2.193,2.008,2.008,0,0,1-1.742-2.193,2.012,2.012,0,0,1,1.742-2.2A2.012,2.012,0,0,1,960.817-31.55Z" transform="translate(-957.334 33.754)" fill="#2a2626"/>
                        <path id="Path_2799" data-name="Path 2799" d="M958.814-32.652a.815.815,0,0,1-.709.892.815.815,0,0,1-.709-.892.823.823,0,0,1,.709-.9A.823.823,0,0,1,958.814-32.652Z" transform="translate(-957.067 34.625)" fill="#fff7dc"/>
                      </g>
                      <g id="Group_835" data-name="Group 835" transform="translate(6.956 14.449)">
                        <path id="Path_2800" data-name="Path 2800" d="M967.337-30.836a4.737,4.737,0,0,1-4.7,3.117,4.763,4.763,0,0,1-4.719-3.117c-.005-.038.124-.07.365-.1a71.143,71.143,0,0,1,8.7,0C967.219-30.906,967.348-30.874,967.337-30.836Z" transform="translate(-957.915 31.066)" fill="#2a2626"/>
                        <path id="Path_2801" data-name="Path 2801" d="M966.68-30.933l-.011.027c-.467.666-2.23,1.166-4.332,1.166s-3.875-.5-4.343-1.166l-.011-.027A71.143,71.143,0,0,1,966.68-30.933Z" transform="translate(-957.617 31.066)" fill="#fff7dc"/>
                      </g>
                      <g id="Group_837" data-name="Group 837" transform="translate(9.885 3.698)">
                        <g id="Group_836" data-name="Group 836">
                          <path id="Path_2802" data-name="Path 2802" d="M960.245-25.251h0a1.852,1.852,0,0,1-1.784-1.784c.027-1.7.376-2.548.4-4.251.011-.978.511-1.779,1.381-1.779h0c.871,0,1.371.8,1.387,1.779.022,1.7.371,2.553.4,4.251A1.853,1.853,0,0,1,960.245-25.251Z" transform="translate(-958.46 33.066)" fill="#f3ad7a"/>
                        </g>
                        <path id="Path_2803" data-name="Path 2803" d="M960.275-31.038c0,.661-.333,1.2-.742,1.2s-.742-.537-.742-1.2.333-1.193.742-1.193S960.275-31.7,960.275-31.038Z" transform="translate(-957.007 36.719)" fill="#ffe9d4" opacity="0.3"/>
                      </g>
                      <g id="Group_838" data-name="Group 838" transform="translate(15.981)">
                        <path id="Path_2804" data-name="Path 2804" d="M963.072-31.55a2,2,0,0,1-1.747,2.193,2,2,0,0,1-1.731-2.193,2.008,2.008,0,0,1,1.731-2.2A2.008,2.008,0,0,1,963.072-31.55Z" transform="translate(-959.594 33.754)" fill="#2a2626"/>
                        <path id="Path_2805" data-name="Path 2805" d="M961.072-32.652a.815.815,0,0,1-.709.892.815.815,0,0,1-.709-.892.823.823,0,0,1,.709-.9A.823.823,0,0,1,961.072-32.652Z" transform="translate(-959.336 34.625)" fill="#fff7dc"/>
                      </g>
                      <path id="Path_2806" data-name="Path 2806" d="M962.5-28.765a2.954,2.954,0,0,1-3.666,2,2.957,2.957,0,0,1-2.112-3.606,2.951,2.951,0,0,1,3.666-1.994A2.95,2.95,0,0,1,962.5-28.765Z" transform="translate(-956.621 39.326)" fill="#f48fb7" opacity="0.2"/>
                      <path id="Path_2807" data-name="Path 2807" d="M965.336-28.765a2.959,2.959,0,0,1-3.671,2,2.958,2.958,0,0,1-2.112-3.606,2.956,2.956,0,0,1,3.671-1.994A2.949,2.949,0,0,1,965.336-28.765Z" transform="translate(-944.245 39.326)" fill="#f48fb7" opacity="0.2"/>
                    </g>
                    <path id="Path_2808" data-name="Path 2808" d="M960.534-34.319a12.843,12.843,0,0,0-3.294.752v.317a25.854,25.854,0,0,1,3.515.349s.876.21.967-.376S961.62-34.254,960.534-34.319Z" transform="translate(-953.916 34.322)" fill="#cf8312"/>
                    <path id="Path_2809" data-name="Path 2809" d="M960.846-34.319a13.009,13.009,0,0,1,3.252.924l-.016.322a25.266,25.266,0,0,0-3.526.161s-.892.161-.946-.43S959.755-34.314,960.846-34.319Z" transform="translate(-943.586 34.332)" fill="#cf8312"/>
                    <path id="Path_2810" data-name="Path 2810" d="M957.178-32.165a2.925,2.925,0,0,1,4.144,0S959.505-35.916,957.178-32.165Z" transform="translate(-954.183 36.462)" fill="#2a2626"/>
                    <path id="Path_2811" data-name="Path 2811" d="M959.633-32.2a2.924,2.924,0,0,1,4.144,0S961.966-35.949,959.633-32.2Z" transform="translate(-943.443 36.318)" fill="#2a2626"/>
                  </g>
                </g>
                <path id="Path_2812" data-name="Path 2812" d="M959.326-30.187c4.762-6.288,11.282-9.374,14.56-6.885s2.069,9.6-2.687,15.882-11.276,9.368-14.56,6.88S954.569-23.9,959.326-30.187Z" transform="translate(-947.168 39.856)" fill="#ffae38"/>
                <path id="Path_2813" data-name="Path 2813" d="M974.983-18.768a21.621,21.621,0,0,1-.194,2.854c-3.273-.371-7.39-2.682-10.921-6.423-5.407-5.74-7.369-12.684-4.375-15.5l.107-.1a20.834,20.834,0,0,1,6.267,1.817A21.057,21.057,0,0,1,974.983-18.768Z" transform="translate(-932.743 39.853)" fill="#ffae38"/>
              </g>
            </g>
            <rect id="Rectangle_704" data-name="Rectangle 704" width="12.981" height="6.673" transform="translate(103.357 72.139)" fill="#e1e7e8"/>
            <path id="Path_2814" data-name="Path 2814" d="M969.363-27.533,962.633-21.7l-6.73-5.829Z" transform="translate(-852.375 99.672)" fill="#ff4040"/>
            <path id="Path_2815" data-name="Path 2815" d="M957.157-21.663,960.3-27.1l3.139,5.439a5.351,5.351,0,0,1,.688,3.257l-3.827,35.1-3.827-35.1A5.348,5.348,0,0,1,957.157-21.663Z" transform="translate(-850.038 101.558)" fill="#ff4040"/>
            <path id="Path_2816" data-name="Path 2816" d="M998.993,65.341V-22.729a4.029,4.029,0,0,0-.038-.688,3.124,3.124,0,0,0-1.37-2.091,5.718,5.718,0,0,0-1.693-.828l-1.661-.29-4.333-.828-3.751-.726L977.918,17.9l-7.788-46.7-12.846,2.311-1.655.29a3.091,3.091,0,0,0-2.021.758,3.44,3.44,0,0,0-1.156,2.016,3.878,3.878,0,0,0-.07.688V65.341Z" transform="translate(-867.774 94.165)" fill="#253759"/>
            <path id="Path_2817" data-name="Path 2817" d="M963.6-28.678c-.495.086-4.956.887-4.956.887L954.1-9.737l9.5,6.412L961.914,8.117l8.5,10.072Z" transform="translate(-860.266 94.664)" fill="#1c2842"/>
            <path id="Path_2818" data-name="Path 2818" d="M964.138-28.579c.483.081,3.907.747,3.907.747L971.9-10.171l-8.621,6.412L965.745,8.05l-8.61,9.707Z" transform="translate(-846.99 95.097)" fill="#1c2842"/>
            <circle id="Ellipse_137" data-name="Ellipse 137" cx="2.624" cy="2.624" r="2.624" transform="translate(107.009 119.691)" fill="#141b2f"/>
            <circle id="Ellipse_138" data-name="Ellipse 138" cx="2.624" cy="2.624" r="2.624" transform="translate(107.009 146.159)" fill="#141b2f"/>
            <path id="Path_2819" data-name="Path 2819" d="M961.8-13.6a2.627,2.627,0,0,0-2.623-2.623,2.623,2.623,0,0,0-2.623,2.623,2.624,2.624,0,0,0,2.623,2.628A2.628,2.628,0,0,0,961.8-13.6Z" transform="translate(-849.54 149.147)" fill="#141b2f"/>
          </g>
          <g id="Group_846" data-name="Group 846" transform="translate(99.771 65.986)">
            <g id="Group_845" data-name="Group 845">
              <path id="Path_2820" data-name="Path 2820" d="M965.668-22.486c.005.263-1.655,1.72-3.407,3.193-1.978,1.65-4.075,3.322-4.075,3.322L955.2-28.038l3.564-.64C960.5-22.175,965.668-23.282,965.668-22.486Z" transform="translate(-955.204 28.678)" fill="#fff"/>
              <path id="Path_2821" data-name="Path 2821" d="M957.151-22.906c0,.559,7.477,7.03,7.477,7.03l2.961-12-3.542-.709C962.311-22.079,957.156-23.7,957.151-22.906Z" transform="translate(-946.686 29.098)" fill="#fff"/>
            </g>
          </g>
        </g>
      </g>
      <path id="Path_2822" data-name="Path 2822" d="M972.818-29.376c-2.957.731-5.176,3.429-6.488,6.434-3.166-.312-.994-16.517-2.606-14.012C952.388-19.33,953.065-9.29,952.6-4.517c-.628,6.53,1.2,11.518,1.1,17.833-.156,9.68,10.212,16.457,14.167,14.566,5.2-2.489,8.358-8.7,8.551-14.506.258-7.8-3.7-13.243-6.992-19.844-3.794-7.611-3.623-16.533,3.87-21.864A.582.582,0,0,0,972.818-29.376Z" transform="translate(-867.387 57.308)" fill="#ffae38"/>
      <path id="Path_2823" data-name="Path 2823" d="M966.094,8.452c-3.58,0,0-8.954-1.79-12.539-1.79-1.79-5.375,3.585-7.164,1.8-3.682-11.04-3.155-22.079-.162-32.544-4.289,10.067-4.036,16.4-4.375,19.9-.628,6.53,1.2,11.518,1.1,17.833-.156,9.68,10.212,16.457,14.167,14.566,4.939-2.365,8-8.084,8.465-13.636C974.548,7.619,971.888,10.382,966.094,8.452Z" transform="translate(-867.387 67.724)" fill="#fc9d12"/>
      <g id="Group_857" data-name="Group 857" transform="translate(179.086 24.673)">
        <g id="Group_851" data-name="Group 851" transform="translate(7.917 36.365)">
          <g id="Group_850" data-name="Group 850">
            <g id="Group_849" data-name="Group 849">
              <g id="Group_848" data-name="Group 848">
                <path id="Path_2824" data-name="Path 2824" d="M973.827-28.129a3.325,3.325,0,0,0-2.269,4.1l1.333,4.542a3.306,3.306,0,0,0,4.1,2.263l4.531-1.317a3.313,3.313,0,0,0,2.268-4.106l-1.317-4.526a3.336,3.336,0,0,0-4.1-2.3Z" transform="translate(-971.434 29.598)" fill="#ffcd9c"/>
              </g>
            </g>
          </g>
        </g>
        <g id="Group_853" data-name="Group 853">
          <path id="Path_2825" data-name="Path 2825" d="M985.993-11.861,980.9-30.893l-9.685-.355,9.32,21.295a2.9,2.9,0,0,0,2.494,1.731h0A2.9,2.9,0,0,0,985.993-11.861Z" transform="translate(-964.461 58.747)" fill="#fefefe"/>
          <path id="Path_2826" data-name="Path 2826" d="M977.871-26c-1.269,3.8,0,8.449,3.171,11.83.844.844-1.269,1.478-1.9.844-4.225-4.225-4.225-10.142-2.956-15.845.209-.634-.425-1.9-1.059-1.059a23.965,23.965,0,0,0-3.214,4.251l5.6,12.8A2.9,2.9,0,0,0,980-11.446h0a2.9,2.9,0,0,0,2.961-3.639L979.58-27.753C978.79-27.7,978.171-27.2,977.871-26Z" transform="translate(-961.434 61.971)" fill="#ecedf8" style="mix-blend-mode: multiply;isolation: isolate"/>
          <path id="Path_2827" data-name="Path 2827" d="M977.862-28.546a4.215,4.215,0,0,0-4.3-4.112,4.217,4.217,0,0,0-3.585,4.746,4.222,4.222,0,0,0,4.3,4.112A4.22,4.22,0,0,0,977.862-28.546Z" transform="translate(-969.961 52.53)" fill="#ff4040"/>
          <g id="Group_852" data-name="Group 852" transform="translate(3.489)">
            <rect id="Rectangle_705" data-name="Rectangle 705" width="11.615" height="12.776" rx="0.286" transform="matrix(0.997, -0.08, 0.08, 0.997, 0, 18.442)" fill="#fefefe"/>
            <rect id="Rectangle_706" data-name="Rectangle 706" width="15.14" height="16.654" rx="0.373" transform="translate(2.291 16.312) rotate(-4.592)" fill="#ff4040"/>
            <path id="Path_2828" data-name="Path 2828" d="M987.013-21.283c-4.333,1.731-8.772,3.408-12.05-.919-2.354-3.128-2.344-7.17-2.328-11.11a2.922,2.922,0,0,0-1.547,2.811l.865,10.787a2.925,2.925,0,0,0,3.139,2.677l9.277-.747a2.926,2.926,0,0,0,2.677-3.139Z" transform="translate(-968.561 49.718)" fill="#b93131"/>
            <path id="Path_2829" data-name="Path 2829" d="M973.062-20.932l1.334,16.6L997.953,7.494l-3.524-43.858Z" transform="translate(-959.884 36.368)" fill="#fefefe"/>
            <path id="Path_2830" data-name="Path 2830" d="M976.432-33.946l-3.37,2.44L974.4-14.9,997.953-3.084l-.446-5.531a27.511,27.511,0,0,1-7.562-2.994A26.22,26.22,0,0,1,976.432-33.946Z" transform="translate(-959.883 46.944)" fill="#ecedf8" style="mix-blend-mode: multiply;isolation: isolate"/>
            <path id="Path_2831" data-name="Path 2831" d="M984.592-14.74c.135,1.623.226,3.2.291,4.724.419,9.879-.516,17.366-2.338,17.511s-3.939-7.084-5.1-16.882c-.183-1.521-.344-3.107-.473-4.741-.161-1.994-.269-3.929-.328-5.772-.312-9.352.619-16.318,2.376-16.463s3.794,6.6,4.982,15.893C984.232-18.647,984.437-16.723,984.592-14.74Z" transform="translate(-944.475 36.364)" fill="#ff4040"/>
            <path id="Path_2832" data-name="Path 2832" d="M983.3-15.993c.124,1.5.215,2.967.279,4.375l.021.376c.392,8.96-.3,15.7-1.757,15.818s-3.22-6.428-4.263-15.334l-.037-.344c-.162-1.414-.307-2.881-.425-4.391-.15-1.849-.258-3.644-.323-5.353l-.016-.425c-.3-8.444.393-14.678,1.8-14.791s3.085,5.934,4.139,14.318l.054.441C982.975-19.616,983.158-17.832,983.3-15.993Z" transform="translate(-943.906 37.677)" fill="#b93131"/>
            <path id="Path_2833" data-name="Path 2833" d="M985.972-30.894l.408,5.068a2.736,2.736,0,0,1-2.123,2.875,2.261,2.261,0,0,1-.381.064l-6.348.505-.037-.344c-.162-1.414-.307-2.881-.425-4.391-.15-1.849-.258-3.644-.323-5.353l-.016-.425,6.305-.505a2.446,2.446,0,0,1,.344-.005A2.741,2.741,0,0,1,985.972-30.894Z" transform="translate(-943.85 49.299)" fill="#fefefe"/>
          </g>
        </g>
        <path id="Path_2834" data-name="Path 2834" d="M976.63-30.429a1.847,1.847,0,0,1,1.177,2.3l-2.559,7.707a6.005,6.005,0,0,1-2.768.113c-.516-.145-1.021-1.612-1.021-1.612l2.881-7.353A1.8,1.8,0,0,1,976.63-30.429Z" transform="translate(-963.407 61.927)" fill="#ffcd9c"/>
        <g id="Group_854" data-name="Group 854" transform="translate(16.346 34.871)">
          <path id="Path_2835" data-name="Path 2835" d="M973.4-25.869a2,2,0,0,1,1.462-2.4l.473-.113a1.986,1.986,0,0,1,2.4,1.473h0a1.993,1.993,0,0,1-1.462,2.392l-.467.118a2,2,0,0,1-2.4-1.467Z" transform="translate(-971.485 36.159)" fill="#ffcd9c"/>
          <path id="Path_2836" data-name="Path 2836" d="M973.235-26.584a1.979,1.979,0,0,1,1.451-2.4l.473-.118a1.983,1.983,0,0,1,2.392,1.478h0a1.965,1.965,0,0,1-1.457,2.386l-.473.113a1.967,1.967,0,0,1-2.386-1.457Z" transform="translate(-972.241 33.015)" fill="#ffcd9c"/>
          <path id="Path_2837" data-name="Path 2837" d="M973.061-27.3a1.968,1.968,0,0,1,1.451-2.392l.479-.124a1.972,1.972,0,0,1,2.386,1.473h0a1.964,1.964,0,0,1-1.457,2.381l-.473.118a1.97,1.97,0,0,1-2.386-1.457Z" transform="translate(-973.002 29.876)" fill="#ffcd9c"/>
        </g>
        <g id="Group_856" data-name="Group 856" transform="translate(47.544 8.465)">
          <path id="Path_2838" data-name="Path 2838" d="M980.338-29.915a1.433,1.433,0,0,1-1.435-1.424h0a1.435,1.435,0,0,1,1.435-1.435h8.938a1.43,1.43,0,0,1,1.43,1.435h0a1.428,1.428,0,0,1-1.43,1.424Z" transform="translate(-978.385 43.606)" fill="#ff4040"/>
          <g id="Group_855" data-name="Group 855">
            <path id="Path_2839" data-name="Path 2839" d="M979.7-28.973a1.421,1.421,0,0,1-.779-1.86h0a1.437,1.437,0,0,1,1.865-.79l7.922,5.2a1.433,1.433,0,0,1,.779,1.86h0a1.43,1.43,0,0,1-1.865.79Z" transform="translate(-978.807 48.195)" fill="#ff4040"/>
            <path id="Path_2840" data-name="Path 2840" d="M979.7-29.488a1.423,1.423,0,0,0-.779,1.86h0a1.432,1.432,0,0,0,1.865.79l7.922-5.2a1.431,1.431,0,0,0,.779-1.86h0a1.439,1.439,0,0,0-1.865-.79Z" transform="translate(-978.807 34.789)" fill="#ff4040"/>
          </g>
        </g>
      </g>
    </g>
    <path id="Path_2841" data-name="Path 2841" d="M999.243-6.3c0,4.848-5.256.58-11.932.613-6.675-.032-12.249,4.251-12.249-.613s5.412-8.793,12.1-8.809C993.831-15.1,999.238-11.164,999.243-6.3Z" transform="translate(168.082 220.893)" fill="#edb485"/>
    <g id="Group_859" data-name="Group 859" transform="translate(1161.311 161.835)">
      <path id="Path_2842" data-name="Path 2842" d="M1046.825-23.29c-6.31,15.592-16.35,29.222-21.031,33.56-12.684,11.744-28.411,12.131-39.381,10.373a71.807,71.807,0,0,1-7.97-1.763V32.742A76.848,76.848,0,0,0,996.152,34.9c12.438,0,26.535-3.375,38.795-14.743,4.166-3.843,11.163-12.727,17.409-23.842a123.429,123.429,0,0,0,8.874-19.6Z" transform="translate(-978.442 23.29)" fill="#df8510"/>
    </g>
    <g id="Group_866" data-name="Group 866" transform="translate(1189.922 65.856)">
      <g id="Group_865" data-name="Group 865">
        <path id="Path_2843" data-name="Path 2843" d="M1025.175-30.958c-1.226,1.946-.607,7.944-.854,9.443-.441,2.666-.838,5.477-3.22,6.288-10.5,3.585-19.951,2.515-33.512,2.967-2.51.086-4.456-7.234-3.278-13.689Z" transform="translate(-982.92 85.723)" fill="#91321b"/>
        <path id="Path_2844" data-name="Path 2844" d="M987.387,4.342a9.034,9.034,0,0,0,9.035,9.035h0a9.022,9.022,0,0,0,9.029-9.035V-25.337a9.021,9.021,0,0,0-9.029-9.03h0a9.033,9.033,0,0,0-9.035,9.03Z" transform="translate(-967.921 70.81)" fill="#f3ad7a"/>
        <path id="Path_2845" data-name="Path 2845" d="M984.833-21.022V-1.281a18.823,18.823,0,0,0,13.728,18.124,18.811,18.811,0,0,0,5.079.693,18.783,18.783,0,0,0,12.985-5.192c.113-.1.215-.21.328-.317a18.775,18.775,0,0,0,5.509-13.308V-21.022a18.81,18.81,0,0,0-18.822-18.812,18.741,18.741,0,0,0-13.3,5.509A18.731,18.731,0,0,0,984.833-21.022Z" transform="translate(-979.094 46.893)" fill="#ffcd9c"/>
        <path id="Path_2846" data-name="Path 2846" d="M987.387-25.342V-7.078a18.811,18.811,0,0,0,5.079.693,18.783,18.783,0,0,0,12.985-5.192V-25.342a9.018,9.018,0,0,0-9.035-9.024,9.019,9.019,0,0,0-6.385,2.639A9,9,0,0,0,987.387-25.342Z" transform="translate(-967.921 70.814)" fill="#f3ad7a"/>
        <path id="Path_2847" data-name="Path 2847" d="M987.387,4.342a9.034,9.034,0,0,0,9.035,9.035h0a9.022,9.022,0,0,0,9.029-9.035V-25.337a9.021,9.021,0,0,0-9.029-9.03h0a9.033,9.033,0,0,0-9.035,9.03Z" transform="translate(-967.921 70.81)" fill="#f3ad7a" opacity="0.3" style="mix-blend-mode: multiply;isolation: isolate"/>
        <path id="Path_2848" data-name="Path 2848" d="M988.95-29.573c.333,1.193,2.2,1.72,4.171,1.172s3.3-1.962,2.967-3.155-2.2-1.715-4.171-1.166S988.616-30.766,988.95-29.573Z" transform="translate(-961.309 77.05)" fill="#f48fb7" opacity="0.1"/>
        <g id="Group_864" data-name="Group 864">
          <g id="Group_863" data-name="Group 863">
            <g id="Group_860" data-name="Group 860">
              <path id="Path_2849" data-name="Path 2849" d="M985.833,32.112c11.572,1.688,17.119-7.4,19.516-13.071a9.169,9.169,0,0,0,7.643,4.832c1.489.124,5.552.107,7.686.457,9.159,1.5,24.923-15.049,23.654-35.027-1.526-23.9-18.435-22.031-18.435-22.031s0-8.444-14.3-8.358c-21.585-1.457-21.961,23.59-21.961,23.59s1.5-7.514,3.908-7.922a7.27,7.27,0,0,1,3.493.656c2.967,1.053,1.35,15.415,1.28,20.569-.049,3.784.849,12.969-5.579,12.969-1.7,0-2.236-.618-2.9-.613C987.166,8.195,980.367,31.312,985.833,32.112Z" transform="translate(-983.765 41.147)" fill="#bf4223"/>
            </g>
            <g id="Group_861" data-name="Group 861" transform="translate(0.002 8.978)">
              <path id="Path_2850" data-name="Path 2850" d="M986.972,5.338c-.807,5.052-3.284,10-.118,13.614,6.772,7.39,16.624-6.154,18.473-13.544,6.154,5.541,14.775,3.7,22.16,1.231a15.6,15.6,0,0,0,9.239-12.926c1.671-10.583,3.843-26.207-5.789-33.189,5.117,1.419,12.416,6.154,13.394,21.472,1.269,19.978-14.5,36.527-23.654,35.027-2.133-.349-6.2-.333-7.686-.457a9.169,9.169,0,0,1-7.643-4.832c-2.4,5.676-7.944,14.759-19.516,13.071C981.9,24.23,984.316,12.11,986.972,5.338Z" transform="translate(-983.766 39.477)" fill="#91321b"/>
            </g>
            <g id="Group_862" data-name="Group 862" transform="translate(15.983 32.239)">
              <path id="Path_2851" data-name="Path 2851" d="M988.529-23.823c1.956.93,4.735-.8,6.17-3.854,1.451-3.048,1.043-6.278-.919-7.229-1.961-.908-4.729.806-6.192,3.854C986.164-27.978,986.567-24.748,988.529-23.823Z" transform="translate(-986.739 35.149)" fill="#ffcd9c"/>
              <path id="Path_2852" data-name="Path 2852" d="M987.905-29.888c.8.414,1.967-.258,2.612-1.5s.522-2.591-.274-3-1.967.258-2.617,1.5S987.11-30.3,987.905-29.888Z" transform="translate(-984.659 37.929)" fill="#f3ad7a"/>
            </g>
            <path id="Path_2853" data-name="Path 2853" d="M986.96-30.238c.038,0,.048.064.005.064S986.917-30.238,986.96-30.238Z" transform="translate(-969.913 88.873)" fill="#d41e1e"/>
          </g>
        </g>
      </g>
    </g>
    <g id="Group_873" data-name="Group 873" transform="translate(1130.234 354.443)">
      <rect id="Rectangle_707" data-name="Rectangle 707" width="7.397" height="8.798" transform="matrix(0.025, -1, 1, 0.025, 19.917, 7.394)" fill="#cf9b72"/>
      <rect id="Rectangle_708" data-name="Rectangle 708" width="10.731" height="10.353" transform="matrix(0.023, -1, 1, 0.023, 18.961, 15.474)" fill="#e6dad1"/>
      <g id="Group_872" data-name="Group 872" transform="translate(0 6.193)">
        <g id="Group_868" data-name="Group 868">
          <g id="Group_867" data-name="Group 867">
            <path id="Path_2854" data-name="Path 2854" d="M979.19,13.7A3.838,3.838,0,0,1,983,17.536v3.483a3.829,3.829,0,0,1-3.822,3.821h0a3.812,3.812,0,0,1-3.8-3.821V17.525A3.829,3.829,0,0,1,979.19,13.7Z" transform="translate(-960.787 -13.698)" fill="#ff4040"/>
            <path id="Path_2855" data-name="Path 2855" d="M1003.683,16.575a1.93,1.93,0,0,1-1.929,1.924H972.66V15.968l31.023.005Z" transform="translate(-972.66 -3.767)" fill="#422121"/>
            <path id="Path_2856" data-name="Path 2856" d="M972.66,23.132l31.023.021V20.176h0V16.269a1.929,1.929,0,0,0-1.575-1.881V14.6a3.617,3.617,0,1,1-7.234,0v-.263l-7.626.489v.183a2.07,2.07,0,0,1-.366,1.279,1.131,1.131,0,0,1-.274.279,2.975,2.975,0,0,1-1.6.666c-.129.027-.247.038-.393.064a8.329,8.329,0,0,1-1.145.059l-3.762-.011C975.815,17.36,972.66,19.23,972.66,23.132Z" transform="translate(-972.66 -10.894)" fill="#ff4040"/>
          </g>
          <path id="Path_2857" data-name="Path 2857" d="M972.66,20.682l7.079.005a6.6,6.6,0,0,0,.758-5.778l-.79-.011C975.815,14.91,972.66,16.78,972.66,20.682Z" transform="translate(-972.66 -8.444)" fill="#e6dad1"/>
        </g>
        <g id="Group_869" data-name="Group 869" transform="translate(13.948 5.396)">
          <path id="Path_2858" data-name="Path 2858" d="M976.035,17.658a.193.193,0,0,0,.177.2h.021a.192.192,0,0,0,.188-.172,5.292,5.292,0,0,0-.892-2.983,1.131,1.131,0,0,1-.274.279A5,5,0,0,1,976.035,17.658Z" transform="translate(-975.255 -14.702)" fill="#e6dad1"/>
        </g>
        <g id="Group_870" data-name="Group 870" transform="translate(11.953 6.342)">
          <path id="Path_2859" data-name="Path 2859" d="M975.276,16.872a.194.194,0,0,0,.177.21l.011.005a.2.2,0,0,0,.2-.183,6.187,6.187,0,0,0-.387-2.026c-.129.027-.247.038-.393.064A5.286,5.286,0,0,1,975.276,16.872Z" transform="translate(-974.884 -14.878)" fill="#e6dad1"/>
        </g>
        <g id="Group_871" data-name="Group 871" transform="translate(9.911 6.466)">
          <path id="Path_2860" data-name="Path 2860" d="M974.875,16.771a.185.185,0,0,0,.172.215h.011a.189.189,0,0,0,.193-.172A5.315,5.315,0,0,0,974.9,14.9h-.4A5.706,5.706,0,0,1,974.875,16.771Z" transform="translate(-974.504 -14.901)" fill="#e6dad1"/>
        </g>
      </g>
    </g>
    <g id="Group_880" data-name="Group 880" transform="translate(1088.908 354.434)">
      <rect id="Rectangle_709" data-name="Rectangle 709" width="7.406" height="8.805" transform="matrix(0.024, -1, 1, 0.024, 19.922, 7.404)" fill="#cf9b72"/>
      <rect id="Rectangle_710" data-name="Rectangle 710" width="10.728" height="10.353" transform="matrix(0.024, -1, 1, 0.024, 18.96, 15.472)" fill="#e6dad1"/>
      <g id="Group_879" data-name="Group 879" transform="translate(0 6.218)">
        <g id="Group_875" data-name="Group 875">
          <g id="Group_874" data-name="Group 874">
            <path id="Path_2861" data-name="Path 2861" d="M971.506,13.7a3.8,3.8,0,0,1,3.811,3.811l0,3.494a3.814,3.814,0,0,1-3.811,3.821h0a3.818,3.818,0,0,1-3.816-3.821V17.48a3.786,3.786,0,0,1,3.821-3.778Z" transform="translate(-953.098 -13.701)" fill="#ff4040"/>
            <path id="Path_2862" data-name="Path 2862" d="M996,16.6a1.924,1.924,0,0,1-1.924,1.93H982.74l-17.769-.005V15.962L996,16Z" transform="translate(-964.971 -3.81)" fill="#422121"/>
            <path id="Path_2863" data-name="Path 2863" d="M964.972,23.132,996,23.154V16.269a1.913,1.913,0,0,0-1.58-1.892v.22a3.615,3.615,0,0,1-7.229.005v-.263l-7.632.489v.193a2.124,2.124,0,0,1-.371,1.279,2.522,2.522,0,0,1-.264.269,3.2,3.2,0,0,1-1.6.666c-.134.027-.252.038-.4.07-.354.032-.715.043-1.145.054l-3.746-.011C968.138,17.349,964.972,19.246,964.972,23.132Z" transform="translate(-964.967 -10.91)" fill="#ff4040"/>
          </g>
          <path id="Path_2864" data-name="Path 2864" d="M964.972,20.682l7.079.005A6.591,6.591,0,0,0,972.8,14.9h-.769C968.138,14.9,964.972,16.8,964.972,20.682Z" transform="translate(-964.967 -8.46)" fill="#e6dad1"/>
        </g>
        <g id="Group_876" data-name="Group 876" transform="translate(13.953 5.391)">
          <path id="Path_2865" data-name="Path 2865" d="M968.341,17.633a.208.208,0,0,0,.183.21l.011.005a.2.2,0,0,0,.2-.183,5.332,5.332,0,0,0-.9-2.961,2.522,2.522,0,0,1-.264.269A4.88,4.88,0,0,1,968.341,17.633Z" transform="translate(-967.567 -14.704)" fill="#e6dad1"/>
        </g>
        <g id="Group_877" data-name="Group 877" transform="translate(11.959 6.326)">
          <path id="Path_2866" data-name="Path 2866" d="M967.594,16.872a.159.159,0,0,0,.167.188l.016.021a.2.2,0,0,0,.188-.177,5.858,5.858,0,0,0-.371-2.026c-.134.027-.252.038-.4.07A5.67,5.67,0,0,1,967.594,16.872Z" transform="translate(-967.196 -14.878)" fill="#e6dad1"/>
        </g>
        <g id="Group_878" data-name="Group 878" transform="translate(9.911 6.45)">
          <path id="Path_2867" data-name="Path 2867" d="M967.181,16.771a.193.193,0,0,0,.167.21l.027.005a.193.193,0,0,0,.188-.183,5.135,5.135,0,0,0-.333-1.9h-.414A5.218,5.218,0,0,1,967.181,16.771Z" transform="translate(-966.815 -14.901)" fill="#e6dad1"/>
        </g>
      </g>
    </g>
    <g id="Group_881" data-name="Group 881" transform="translate(1142.86 258.818)">
      <path id="Path_2868" data-name="Path 2868" d="M1046.653-5.129c-15.651-.14-31.813-.29-47.754.419l-1.263.048-1.2.322c-9.282,2.472-17.054,10.088-20.3,19.838l-.516,1.543-.075,1.634c-.71,17.817-.559,35.919-.419,53.425.07,7.181.129,14.49.129,21.811H998.34c0-7.39-.054-14.759-.118-22.01-.134-16.56-.274-33.684.328-50.308a7.813,7.813,0,0,1,3.053-3.305c14.8-.607,30.056-.446,44.836-.3,2.881.011,5.794.048,8.734.07V-5.032C1052.313-5.064,1049.47-5.086,1046.653-5.129Z" transform="translate(-975.009 5.246)" fill="#141b2f"/>
    </g>
    <path id="Path_2869" data-name="Path 2869" d="M987.776-6.522H1009a12.1,12.1,0,0,1,12.083,12.093v5.391A12.1,12.1,0,0,1,1009,23.044H987.776Z" transform="translate(223.703 258.48)" fill="#141b2f"/>
    <g id="Group_882" data-name="Group 882" transform="translate(1102.081 258.818)">
      <path id="Path_2870" data-name="Path 2870" d="M1076.669-5.059c-10.013.129-20.343.027-30.314-.07-15.651-.14-31.823-.29-47.765.419l-1.284.048-1.231.36a30.227,30.227,0,0,0-17.2,11.814l-.333.511A34.217,34.217,0,0,0,973,22.482l-.033.312c-1.295,15.565-2.5,31.227-3.649,46.379-.613,8.116-1.252,16.425-1.9,24.74h23.165c.6-7.74,1.193-15.442,1.758-22.982,1.155-15.044,2.354-30.588,3.622-45.992a12.546,12.546,0,0,1,1.979-4.38,6.643,6.643,0,0,1,3.187-2.268c14.845-.607,30.158-.468,44.987-.312,10.126.081,20.58.188,30.856.059Z" transform="translate(-967.422 5.246)" fill="#1c2842"/>
    </g>
    <path id="Path_2871" data-name="Path 2871" d="M982.8,94.328a4.529,4.529,0,0,0,4.386,4.638l54.172.005a4.518,4.518,0,0,0,4.391-4.633l.006-116.643a4.532,4.532,0,0,0-4.386-4.665l-54.365-.161c-2.489.726-4.182,2.252-4.192,4.821Z" transform="translate(201.951 168.326)" fill="#f59a22"/>
    <g id="Group_883" data-name="Group 883" transform="translate(1163.827 281.512)">
      <rect id="Rectangle_711" data-name="Rectangle 711" width="60.67" height="10.184" fill="#618c03"/>
      <rect id="Rectangle_712" data-name="Rectangle 712" width="60.667" height="10.2" transform="translate(29.25 0.154)" fill="#8db90a"/>
    </g>
    <g id="Group_885" data-name="Group 885" transform="translate(1161.006 291.693)">
      <g id="Group_884" data-name="Group 884" transform="translate(0 0)">
        <rect id="Rectangle_713" data-name="Rectangle 713" width="67.186" height="5.444" transform="translate(0 0)" fill="#fff9ea"/>
        <rect id="Rectangle_714" data-name="Rectangle 714" width="61.128" height="5.449" transform="translate(33.143)" fill="#fff9ea"/>
      </g>
      <rect id="Rectangle_715" data-name="Rectangle 715" width="14.483" height="70.655" transform="translate(39.899 9.431)" fill="#ded9cb"/>
      <rect id="Rectangle_716" data-name="Rectangle 716" width="24.178" height="5.53" transform="translate(35.051 5.459)" fill="#ded9cb"/>
      <rect id="Rectangle_717" data-name="Rectangle 717" width="48.548" height="5.529" transform="translate(22.866 79.629)" fill="#ded9cb"/>
    </g>
    <g id="Group_886" data-name="Group 886" transform="translate(1214.702 195.905)">
      <rect id="Rectangle_718" data-name="Rectangle 718" width="11.06" height="101.248" fill="#fff9ea"/>
    </g>
    <g id="Group_887" data-name="Group 887" transform="translate(1217.894 195.895)">
      <rect id="Rectangle_719" data-name="Rectangle 719" width="11.048" height="101.257" fill="#fff9ea"/>
    </g>
    <rect id="Rectangle_720" data-name="Rectangle 720" width="85.426" height="3.272" transform="translate(1075.126 221.34)" fill="#fff"/>
    <g id="Group_889" data-name="Group 889" transform="translate(1081.075 141.129)">
      <path id="Path_2872" data-name="Path 2872" d="M987.7-5.9c-.118,4.837-5.267.484-11.948.306-6.659-.15-12.351,3.95-12.233-.892.118-4.859,5.627-8.648,12.3-8.5C982.488-14.822,987.814-10.754,987.7-5.9Z" transform="translate(-963.514 80.316)" fill="#edb485"/>
      <g id="Group_888" data-name="Group 888" transform="translate(16.647)">
        <path id="Path_2873" data-name="Path 2873" d="M1058.7-27.1a6.741,6.741,0,0,0-7.423,5.982c-2.51,22.773-20.837,47.6-27.7,53.661-12.948,11.432-28.674,11.427-39.606,9.39a68.75,68.75,0,0,1-12.883-3.655c-.479,4.16-2.607,8.492-4.235,12.168-.07.161-.161.339-.242.527a82.324,82.324,0,0,0,26.739,5.434c12.427.322,26.61-2.709,39.15-13.77,4.251-3.746,11.464-12.448,17.962-23.407,5.563-9.374,12.534-23.74,14.2-38.881A6.757,6.757,0,0,0,1058.7-27.1Z" transform="translate(-966.611 27.142)" fill="#f4b222"/>
      </g>
    </g>
    <g id="Group_890" data-name="Group 890" transform="translate(1189.492 165.282)">
      <path id="Rectangle_721" data-name="Rectangle 721" d="M3.32,0H58.178A3.318,3.318,0,0,1,61.5,3.318V104.537a3.319,3.319,0,0,1-3.319,3.319H3.318A3.318,3.318,0,0,1,0,104.537V3.32A3.32,3.32,0,0,1,3.32,0Z" fill="#618c03"/>
      <path id="Path_2874" data-name="Path 2874" d="M984.531-4.825a17.818,17.818,0,0,1,17.839-17.823h25.81a17.842,17.842,0,0,1,17.838,17.839l-.01,72.172A17.836,17.836,0,0,1,1028.168,85.2h-25.825A17.832,17.832,0,0,1,984.52,67.363l.011-72.188Z" transform="translate(-980.034 22.652)" fill="#8db90a"/>
      <path id="Path_2875" data-name="Path 2875" d="M1028.672-22.588a31.368,31.368,0,0,0,.543,4.719c3.354,20.6,5.751,29.029-1.435,48.674-3.354,8.626-6.708,17.248-14.377,23.955-9.39,7.8-18.7,15.651-28.223,23.025a17.792,17.792,0,0,0,14.275,7.154h25.825A17.836,17.836,0,0,0,1043.12,67.1l.01-72.172A17.847,17.847,0,0,0,1028.672-22.588Z" transform="translate(-977.147 22.914)" fill="#8db90a" opacity="0.2" style="mix-blend-mode: multiply;isolation: isolate"/>
    </g>
    <g id="Group_912" data-name="Group 912" transform="translate(939.687 193.417)">
      <g id="Group_900" data-name="Group 900" transform="translate(0 13.732)">
        <g id="Group_891" data-name="Group 891" transform="translate(11.346)">
          <path id="Path_2876" data-name="Path 2876" d="M996.744-5.98a11.826,11.826,0,0,0,.521,1.134H940.621a10.278,10.278,0,0,1,0-10.013h56.645a11.909,11.909,0,0,0-.521,1.139H943.228a6.4,6.4,0,0,0,0,7.74Z" transform="translate(-939.319 14.859)" fill="#bc3122"/>
        </g>
        <g id="Group_893" data-name="Group 893" transform="translate(9.668 1.139)">
          <g id="Group_892" data-name="Group 892">
            <path id="Path_2877" data-name="Path 2877" d="M996.949-6.907H940.3a6.418,6.418,0,0,1,0-7.74h56.645a9.38,9.38,0,0,0-.688,1.225,6.587,6.587,0,0,0-.312.8A6.359,6.359,0,0,0,996.949-6.907Z" transform="translate(-939.006 14.647)" fill="#fff9ed"/>
          </g>
        </g>
        <path id="Path_2878" data-name="Path 2878" d="M967.613-14.419a6.587,6.587,0,0,0-.312.8l-21.747-.4Z" transform="translate(-900.69 16.784)" fill="#dcd4c4" style="mix-blend-mode: multiply;isolation: isolate"/>
        <path id="Path_2879" data-name="Path 2879" d="M968.758-12.868H944.463v-.8Z" transform="translate(-905.468 20.088)" fill="#dcd4c4" style="mix-blend-mode: multiply;isolation: isolate"/>
        <g id="Group_894" data-name="Group 894" transform="translate(0.731)">
          <path id="Path_2880" data-name="Path 2880" d="M981.155-4.846H938.646a10.278,10.278,0,0,1,0-10.013h42.509A10.278,10.278,0,0,0,981.155-4.846Z" transform="translate(-937.344 14.859)" fill="#c93f24"/>
        </g>
        <g id="Group_895" data-name="Group 895">
          <path id="Path_2881" data-name="Path 2881" d="M981.019-4.846H938.51a10.278,10.278,0,0,1,0-10.013h42.509A10.29,10.29,0,0,0,981.019-4.846Z" transform="translate(-937.208 14.859)" fill="#ea522d"/>
        </g>
        <g id="Group_896" data-name="Group 896">
          <path id="Path_2882" data-name="Path 2882" d="M981.019-4.846H938.51a10.278,10.278,0,0,1,0-10.013h42.509A10.29,10.29,0,0,0,981.019-4.846Z" transform="translate(-937.208 14.859)" fill="#ff4140"/>
        </g>
        <g id="Group_897" data-name="Group 897" transform="translate(4.438)">
          <path id="Path_2883" data-name="Path 2883" d="M941.331-4.846h-2.145a11.445,11.445,0,0,1,0-10.013h2.145A11.412,11.412,0,0,0,941.331-4.846Z" transform="translate(-938.033 14.859)" fill="#ffa631"/>
        </g>
        <g id="Group_898" data-name="Group 898" transform="translate(8.442)">
          <path id="Path_2884" data-name="Path 2884" d="M942.077-4.846h-2.145a11.448,11.448,0,0,1,0-10.013h2.145A11.409,11.409,0,0,0,942.077-4.846Z" transform="translate(-938.779 14.859)" fill="#ffa631"/>
        </g>
        <g id="Group_899" data-name="Group 899" transform="translate(47.863 2.365)">
          <path id="Path_2885" data-name="Path 2885" d="M946.113-14.419V-10.1s.979-.543,1.887-1.123a15.6,15.6,0,0,1,1.779,1.123v-4.316h-3.666Z" transform="translate(-946.113 14.419)" fill="#3b3346"/>
        </g>
      </g>
      <g id="Group_909" data-name="Group 909" transform="translate(7.476)">
        <g id="Group_901" data-name="Group 901" transform="translate(11.346 0.001)">
          <path id="Path_2886" data-name="Path 2886" d="M998.135-5.241c.15.521.328,1.037.521,1.559H942.012a18.743,18.743,0,0,1,0-13.727q28.323-.008,56.645,0c-.193.516-.371,1.037-.521,1.559H944.619a11.456,11.456,0,0,0,0,10.61Z" transform="translate(-940.71 17.414)" fill="#3b3346"/>
        </g>
        <g id="Group_903" data-name="Group 903" transform="translate(9.669 1.564)">
          <g id="Group_902" data-name="Group 902">
            <path id="Path_2887" data-name="Path 2887" d="M998.344-6.513H941.7a11.459,11.459,0,0,1,0-10.61h56.645a13.838,13.838,0,0,0-.694,1.677c-.124.365-.226.726-.312,1.091A11.429,11.429,0,0,0,998.344-6.513Z" transform="translate(-940.398 17.123)" fill="#fff9ed"/>
          </g>
        </g>
        <path id="Path_2888" data-name="Path 2888" d="M969-16.811c-.124.365-.226.726-.312,1.091l-21.741-.548Z" transform="translate(-902.077 20.052)" fill="#dcd4c4" style="mix-blend-mode: multiply;isolation: isolate"/>
        <path id="Path_2889" data-name="Path 2889" d="M970.149-14.684H945.854v-1.091Z" transform="translate(-906.858 24.585)" fill="#dcd4c4" style="mix-blend-mode: multiply;isolation: isolate"/>
        <g id="Group_904" data-name="Group 904" transform="translate(0.731)">
          <path id="Path_2890" data-name="Path 2890" d="M982.545-3.682H940.037a18.758,18.758,0,0,1,0-13.732h42.509A18.812,18.812,0,0,0,982.545-3.682Z" transform="translate(-938.735 17.414)" fill="#3b3346"/>
        </g>
        <g id="Group_905" data-name="Group 905">
          <path id="Path_2891" data-name="Path 2891" d="M982.415-3.682H939.9a18.758,18.758,0,0,1,0-13.732h42.514A18.758,18.758,0,0,0,982.415-3.682Z" transform="translate(-938.599 17.414)" fill="#ea522d"/>
        </g>
        <g id="Group_906" data-name="Group 906" transform="translate(0 0.001)">
          <path id="Path_2892" data-name="Path 2892" d="M982.415-3.683H939.9a18.743,18.743,0,0,1,0-13.727h6.434c13.845-.005,19.542-.005,36.08,0A18.743,18.743,0,0,0,982.415-3.683Z" transform="translate(-938.599 17.414)" fill="#4d445a"/>
        </g>
        <g id="Group_907" data-name="Group 907" transform="translate(4.337 3.241)">
          <path id="Path_2893" data-name="Path 2893" d="M974.542-9.555H940.45a6.825,6.825,0,0,1,0-7.256h34.092A6.848,6.848,0,0,0,974.542-9.555Z" transform="translate(-939.406 16.811)" fill="#ffa631"/>
        </g>
        <g id="Group_908" data-name="Group 908" transform="translate(44.026 3.907)">
          <path id="Path_2894" data-name="Path 2894" d="M946.79-16.687v5.923s1.075-.747,2.069-1.543a16.3,16.3,0,0,1,1.952,1.543v-5.923H946.79Z" transform="translate(-946.79 16.687)" fill="#c93f24"/>
        </g>
      </g>
      <g id="Group_911" data-name="Group 911" transform="translate(11.295 23.769)">
        <g id="Group_910" data-name="Group 910">
          <path id="Path_2895" data-name="Path 2895" d="M996.542-5.571l-36.191.114H940.268l-.218-1.658-.118-.977-.623-4.9H960.35Z" transform="translate(-939.309 12.992)" fill="#efe7d8"/>
          <path id="Path_2896" data-name="Path 2896" d="M1000.057-12.992l-.272,2.675-.178,1.094-.585,3.588-19.606.063-36.191.114v-7.534Z" transform="translate(-922.183 12.992)" fill="#fff9ed"/>
        </g>
        <path id="Path_2897" data-name="Path 2897" d="M971.444-12.494l-.175,1.093L949.7-11.947Z" transform="translate(-893.844 15.169)" fill="#dcd4c4" style="mix-blend-mode: multiply;isolation: isolate"/>
        <path id="Path_2898" data-name="Path 2898" d="M958.61-11.592l-19.068.488-.117-.976Z" transform="translate(-938.801 16.98)" fill="#dcd4c4" style="mix-blend-mode: multiply;isolation: isolate"/>
        <path id="Path_2899" data-name="Path 2899" d="M959.677-11.986l-16.453.41v-.82Z" transform="translate(-922.185 15.598)" fill="#dcd4c4" style="mix-blend-mode: multiply;isolation: isolate"/>
        <path id="Path_2900" data-name="Path 2900" d="M978.374-10.977H956.316l-12.726-.546,12.236-.467Z" transform="translate(-920.58 17.376)" fill="#dcd4c4" style="mix-blend-mode: multiply;isolation: isolate"/>
      </g>
    </g>
    <g id="Group_915" data-name="Group 915" transform="translate(942.811 131.989)">
      <g id="Group_914" data-name="Group 914">
        <path id="Path_2901" data-name="Path 2901" d="M942.127,3.686c-.29-5.858,2.172-11.647,5.848-16.8s8.546-9.761,13.426-14.308A275.652,275.652,0,0,1,945.492,9.55Z" transform="translate(-918.914 35.055)" fill="#465c05"/>
        <path id="Path_2902" data-name="Path 2902" d="M940.816,14.117a89.637,89.637,0,0,1,6.547-42.96q-.242,21.582-.479,43.17Z" transform="translate(-926.326 28.843)" fill="#618c03"/>
        <path id="Path_2903" data-name="Path 2903" d="M941.394,10.43a72.767,72.767,0,0,1,9.959-38.741q-.58,20.059-2.306,40.1a1.2,1.2,0,0,1-.752,1.2Z" transform="translate(-922.19 31.17)" fill="#8db90a"/>
        <path id="Path_2904" data-name="Path 2904" d="M945.878,6.685a28.583,28.583,0,0,1-7.7-16.371c-.806-5.826-.221-11.712.419-17.549a270.968,270.968,0,0,1,14.42,37.317Z" transform="translate(-937.789 35.878)" fill="#465c05"/>
        <path id="Path_2905" data-name="Path 2905" d="M942.475,11.843C947.232-1.406,952.1-14.843,961.448-26.6c-.957,13.362-6.487,28.932-14.324,40.273Z" transform="translate(-917.289 38.642)" fill="#618c03"/>
        <path id="Path_2906" data-name="Path 2906" d="M941.887,18c1.1-15.329,2.375-31.2,11.722-44.815,3.79,14.506-5.208,29.072-6.471,43.831Z" transform="translate(-919.861 37.702)" fill="#618c03"/>
        <path id="Path_2907" data-name="Path 2907" d="M943.965,20.525c-.064-8.089-2.929-16-4.375-24.009s-1.306-16.629,4.1-23.606a247.969,247.969,0,0,1,5.8,50.8Z" transform="translate(-933.318 36.512)" fill="#618c03"/>
        <path id="Path_2908" data-name="Path 2908" d="M941.533-1.289a34.8,34.8,0,0,1,.054-22.886A60.836,60.836,0,0,1,948.058-2.4Z" transform="translate(-929.757 49.264)" fill="#8db90a"/>
        <path id="Path_2909" data-name="Path 2909" d="M942.319-4.914q5.023-8.256,10.2-16.452a4.329,4.329,0,0,1,3.09-2.4c.3,3.327-1.075,6.6-2.43,9.771Q950.411-7.5,947.65-1.017Z" transform="translate(-917.971 51.067)" fill="#8db90a"/>
        <g id="Group_913" data-name="Group 913" transform="translate(5.493 41.101)">
          <path id="Path_2910" data-name="Path 2910" d="M938.811-21.2c.709,8.385,3.106,15.657,6.487,20.44h18.962c3.38-4.784,5.772-12.056,6.487-20.44Z" transform="translate(-938.811 21.196)" fill="#ded2be"/>
          <path id="Path_2911" data-name="Path 2911" d="M949.523-6.2c-5.8-3.66-8.293-9.191-7.5-15h-3.209c.709,8.385,3.106,15.657,6.487,20.44h18.962a27.694,27.694,0,0,0,1.9-3.155C960.117-2.685,954.075-2.745,949.523-6.2Z" transform="translate(-938.811 21.196)" fill="#d6c8af"/>
        </g>
      </g>
    </g>
    <g id="Group_924" data-name="Group 924" transform="translate(1088.028 -15.675)">
      <g id="Group_919" data-name="Group 919" transform="translate(0.819 22.242)">
        <g id="Group_916" data-name="Group 916" transform="translate(0 26.656)">
          <rect id="Rectangle_722" data-name="Rectangle 722" width="19.819" height="17.975" fill="#ff4140"/>
        </g>
        <g id="Group_917" data-name="Group 917" transform="translate(23.741 13.907)">
          <rect id="Rectangle_723" data-name="Rectangle 723" width="19.822" height="30.724" fill="#f4b222"/>
        </g>
        <g id="Group_918" data-name="Group 918" transform="translate(47.481)">
          <rect id="Rectangle_724" data-name="Rectangle 724" width="19.823" height="44.631" fill="#14b0bf"/>
        </g>
      </g>
      <g id="Group_923" data-name="Group 923">
        <g id="Group_920" data-name="Group 920" transform="translate(0 3.801)">
          <path id="Path_2912" data-name="Path 2912" d="M966.447-22.7l-1.64-1.753,21.75-20.259,13.686,10.876,23.529-21.775,1.63,1.763-25.041,23.17L986.68-41.547Z" transform="translate(-964.807 55.61)" fill="#ff4140"/>
        </g>
        <g id="Group_922" data-name="Group 922" transform="translate(55.499)">
          <g id="Group_921" data-name="Group 921">
            <path id="Path_2913" data-name="Path 2913" d="M981.637-47.171l2.833-9.145L975.133-54.2Z" transform="translate(-975.133 56.317)" fill="#ff4140"/>
          </g>
        </g>
      </g>
    </g>
    <g id="Group_931" data-name="Group 931" transform="translate(946.205 -17.038)">
      <g id="Group_930" data-name="Group 930">
        <g id="Group_926" data-name="Group 926" transform="translate(38.852)">
          <path id="Path_2914" data-name="Path 2914" d="M998.5-30.222l-.774-5.643a1.192,1.192,0,0,0-1.343-1.016l-5.644-.242a1.468,1.468,0,0,1-.575-.043,19.155,19.155,0,0,0-1.86-3.617,1.423,1.423,0,0,1,.22-1.268l2.553-5.042a1.187,1.187,0,0,0-.231-1.666L984.7-52.7a1.191,1.191,0,0,0-1.666.231l-4.166,3.821a1.523,1.523,0,0,1-.436.376,6.491,6.491,0,0,0-2.257-.742,1.427,1.427,0,0,1-.742-1.053l-1.747-5.477a1.184,1.184,0,0,0-1.338-1.016l-5.644.779a1.187,1.187,0,0,0-1.016,1.338l-.252,5.751a1.342,1.342,0,0,1-.049.57,18.987,18.987,0,0,0-3.612,1.865,1.44,1.44,0,0,1-1.268-.226l-6.687-3.279a1.2,1.2,0,0,0-1.671.226l-3.44,4.542a1.191,1.191,0,0,0,.231,1.666l5.472,4.9a1.377,1.377,0,0,1,.371.435,18.669,18.669,0,0,0-1.242,3.87,1.413,1.413,0,0,1-1.053.736l-5.37,1.758a1.2,1.2,0,0,0-1.016,1.344l.779,5.643a1.181,1.181,0,0,0,1.339,1.016l5.648.242a1.45,1.45,0,0,1,.57.043,19.1,19.1,0,0,0,1.86,3.617,1.421,1.421,0,0,1-.221,1.268L952.5-12.212a1.191,1.191,0,0,0,.226,1.672l4.542,3.44a1.2,1.2,0,0,0,1.666-.231l5.192-5.031a1.339,1.339,0,0,1,.441-.371,19.063,19.063,0,0,0,3.865,1.236,1.439,1.439,0,0,1,.742,1.053l1.816,5.251a1.184,1.184,0,0,0,1.338,1.016l5.644-.779a1.184,1.184,0,0,0,1.016-1.338l.188-5.525a1.35,1.35,0,0,1,.043-.57,11.048,11.048,0,0,0,2.779-1.333c.425-.124.527.2.9.478l5.042,2.553a1.191,1.191,0,0,0,1.666-.231l4.638-5.326a1.19,1.19,0,0,0-.226-1.666l-3.827-4.16a1.451,1.451,0,0,1-.371-.441,19,19,0,0,0,1.242-3.87,1.423,1.423,0,0,1,1.054-.736l5.369-1.763A1.187,1.187,0,0,0,998.5-30.222ZM972.36-14.335A15.925,15.925,0,0,1,956.376-30.2a15.924,15.924,0,0,1,15.861-15.984,15.926,15.926,0,0,1,15.99,15.866A15.925,15.925,0,0,1,972.36-14.335Z" transform="translate(-943.73 56.57)" fill="#22232c"/>
          <g id="Group_925" data-name="Group 925" transform="translate(0 0.322)">
            <path id="Path_2915" data-name="Path 2915" d="M997.284-35.908a1.2,1.2,0,0,0-1.338-1.021l-5.649-.242a1.443,1.443,0,0,1-.57-.038,18.836,18.836,0,0,0-1.865-3.617,1.439,1.439,0,0,1,.226-1.268l2.553-5.042a1.186,1.186,0,0,0-.231-1.666l-4.542-3.44a1.19,1.19,0,0,0-1.666.226l-4.16,3.821a1.463,1.463,0,0,1-.441.376,19,19,0,0,0-3.87-1.242A1.424,1.424,0,0,1,975-50.108l-1.763-5.375a1.184,1.184,0,0,0-1.338-1.016l-5.644.774a1.192,1.192,0,0,0-1.016,1.344l-.242,5.649a1.45,1.45,0,0,1-.043.57,18.558,18.558,0,0,0-3.617,1.865,1.43,1.43,0,0,1-1.263-.226l-5.047-2.553a1.19,1.19,0,0,0-1.666.226l-3.44,4.542a1.186,1.186,0,0,0,.231,1.666l3.821,4.165a1.614,1.614,0,0,1,.376.435,18.791,18.791,0,0,0-1.242,3.875,1.433,1.433,0,0,1-1.054.736l-5.375,1.758a1.2,1.2,0,0,0-1.016,1.344l.78,5.643a1.189,1.189,0,0,0,1.343,1.016l5.644.242a1.349,1.349,0,0,1,.57.043,19.317,19.317,0,0,0,1.859,3.617,1.408,1.408,0,0,1-.215,1.263l-2.553,5.042a1.185,1.185,0,0,0,.226,1.666l4.542,3.445a1.2,1.2,0,0,0,1.666-.231l4.161-3.821a1.462,1.462,0,0,1,.44-.376,19.356,19.356,0,0,0,3.87,1.242,1.421,1.421,0,0,1,.736,1.053l1.763,5.369A1.181,1.181,0,0,0,971.83-4.1l5.644-.779a1.185,1.185,0,0,0,1.016-1.338l.242-5.643a1.469,1.469,0,0,1,.043-.575,18.825,18.825,0,0,0,3.617-1.86,1.439,1.439,0,0,1,1.269.22l5.042,2.553a1.186,1.186,0,0,0,1.666-.231l3.44-4.536a1.2,1.2,0,0,0-.231-1.672l-3.822-4.16a1.359,1.359,0,0,1-.371-.435,19.447,19.447,0,0,0,1.242-3.87,1.433,1.433,0,0,1,1.048-.742l5.375-1.758a1.2,1.2,0,0,0,1.016-1.344Zm-25.363,21.4a15.784,15.784,0,0,1-15.85-15.727A15.792,15.792,0,0,1,971.8-46.088a15.792,15.792,0,0,1,15.85,15.732A15.791,15.791,0,0,1,971.921-14.511Z" transform="translate(-945.649 56.51)" fill="#292b37"/>
          </g>
        </g>
        <g id="Group_927" data-name="Group 927" transform="translate(0 12.79)">
          <path id="Path_2916" data-name="Path 2916" d="M957.927-46.512l-.693-1.983a.437.437,0,0,0-.559-.269l-2.064.323a.471.471,0,0,1-.209.027,7.106,7.106,0,0,0-.935-1.172.508.508,0,0,1-.016-.473L954-52.075a.436.436,0,0,0-.2-.586l-2.708-1.005a.434.434,0,0,0-.586.2s-1.075,1.876-1.129,1.924a2.611,2.611,0,0,0-.908-.14.535.535,0,0,1-.344-.328L947.076-53.9a.44.44,0,0,0-.559-.269l-1.914.672a.549.549,0,0,0-.328.623l.328,2.1a.482.482,0,0,1,.027.21,7.118,7.118,0,0,0-1.172.941.523.523,0,0,1-.473.011l-2.887-.7a.438.438,0,0,0-.586.2l-.914,1.9a.433.433,0,0,0,.2.586l2.563,1.376a.574.574,0,0,1,.167.134,6.874,6.874,0,0,0-.167,1.489.53.53,0,0,1-.328.349l-1.817,1.027a.442.442,0,0,0-.269.559l.7,1.989a.434.434,0,0,0,.559.269l2.059-.328a.563.563,0,0,1,.209-.027,7.205,7.205,0,0,0,.941,1.177.523.523,0,0,1,.011.473l-.93,2.666a.441.441,0,0,0,.2.591l1.9.908a.437.437,0,0,0,.586-.2l1.6-2.343a.519.519,0,0,1,.135-.167,7.218,7.218,0,0,0,1.489.161.535.535,0,0,1,.344.328l1.043,1.768a.428.428,0,0,0,.564.242l1.983-.7a.435.435,0,0,0,.269-.559l-.339-1.983a.553.553,0,0,1-.026-.21,3.979,3.979,0,0,0,.908-.683c.146-.075.129.151.285.22l2.01.554a.434.434,0,0,0,.586-.2l1.371-2.381a.441.441,0,0,0-.2-.591l-1.687-1.225a.514.514,0,0,1-.167-.129,7.286,7.286,0,0,0,.167-1.494.514.514,0,0,1,.322-.344l1.817-1.032A.435.435,0,0,0,957.927-46.512Zm-8.3,7.67a5.886,5.886,0,0,1-6.949-4.574,5.883,5.883,0,0,1,4.574-6.95,5.883,5.883,0,0,1,6.95,4.574A5.886,5.886,0,0,1,949.628-38.842Z" transform="translate(-937.833 54.191)" fill="#22232c"/>
          <path id="Path_2917" data-name="Path 2917" d="M957.418-46.516l-.694-1.983a.44.44,0,0,0-.559-.274l-2.064.328a.563.563,0,0,1-.209.027,6.889,6.889,0,0,0-.936-1.172.535.535,0,0,1-.016-.478l.554-2.01a.435.435,0,0,0-.2-.586l-1.9-.914a.446.446,0,0,0-.586.2l-1.225,1.688a.524.524,0,0,1-.129.172,6.961,6.961,0,0,0-1.494-.167.534.534,0,0,1-.344-.328l-1.032-1.817a.44.44,0,0,0-.559-.269l-1.983.693a.441.441,0,0,0-.269.564l.322,2.059a.472.472,0,0,1,.027.21,7.37,7.37,0,0,0-1.172.941.523.523,0,0,1-.473.011l-2.016-.554a.441.441,0,0,0-.586.2l-.914,1.9a.444.444,0,0,0,.209.586l1.688,1.225a.666.666,0,0,1,.167.129,6.961,6.961,0,0,0-.167,1.494.513.513,0,0,1-.328.344l-1.817,1.032a.442.442,0,0,0-.269.559l.7,1.983a.436.436,0,0,0,.559.274l2.059-.328a.563.563,0,0,1,.209-.027,6.94,6.94,0,0,0,.94,1.172.551.551,0,0,1,.016.478l-.559,2.01a.438.438,0,0,0,.2.586l1.9.914a.445.445,0,0,0,.586-.2l1.225-1.688a.456.456,0,0,1,.135-.167,7.214,7.214,0,0,0,1.488.161.524.524,0,0,1,.344.328l1.032,1.817a.438.438,0,0,0,.559.269l1.989-.693a.442.442,0,0,0,.269-.559l-.328-2.064a.564.564,0,0,1-.027-.21,6.9,6.9,0,0,0,1.177-.941.523.523,0,0,1,.473-.011l2.01.554a.438.438,0,0,0,.586-.2l.914-1.9a.436.436,0,0,0-.2-.586l-1.687-1.225a.511.511,0,0,1-.167-.129,7.319,7.319,0,0,0,.167-1.494.514.514,0,0,1,.323-.344l1.817-1.032A.438.438,0,0,0,957.418-46.516Zm-8.3,7.664a5.879,5.879,0,0,1-6.95-4.569,5.883,5.883,0,0,1,4.574-6.95,5.884,5.884,0,0,1,6.95,4.569A5.884,5.884,0,0,1,949.119-38.852Z" transform="translate(-938.42 54.501)" fill="#292b37"/>
        </g>
        <g id="Group_928" data-name="Group 928" transform="translate(17.97 0.647)">
          <path id="Path_2918" data-name="Path 2918" d="M964.846-44.922l-.339-2.462a.511.511,0,0,0-.58-.441l-2.462-.108a.627.627,0,0,1-.247-.016,8.578,8.578,0,0,0-.812-1.575.6.6,0,0,1,.1-.554l1.112-2.2a.516.516,0,0,0-.1-.726l-2.9-1.8a.521.521,0,0,0-.726.1s-1.682,1.919-1.757,1.962a3.088,3.088,0,0,0-1.016-.376.639.639,0,0,1-.322-.457L954.026-56a.519.519,0,0,0-.581-.446l-2.371.333a.63.63,0,0,0-.521.64l-.113,2.5a.636.636,0,0,1-.021.247,8.231,8.231,0,0,0-1.575.812.643.643,0,0,1-.553-.1l-3.171-1.489a.515.515,0,0,0-.726.1l-1.5,1.978a.521.521,0,0,0,.1.726l2.639,2.193a.591.591,0,0,1,.161.188,8.316,8.316,0,0,0-.537,1.688.612.612,0,0,1-.462.322l-2.338.769a.514.514,0,0,0-.441.586l.339,2.456a.508.508,0,0,0,.58.441l2.462.107a.541.541,0,0,1,.247.021,8.722,8.722,0,0,0,.812,1.575.613.613,0,0,1-.1.548l-1.7,2.87a.517.517,0,0,0,.1.726l1.978,1.5a.516.516,0,0,0,.725-.1l2.408-2.333a.619.619,0,0,1,.188-.167,8.6,8.6,0,0,0,1.688.543.638.638,0,0,1,.323.457l.79,2.29a.5.5,0,0,0,.591.4l2.461-.333a.52.52,0,0,0,.441-.586l.075-2.37a.571.571,0,0,1,.016-.253,4.561,4.561,0,0,0,1.209-.58c.188-.054.113.2.274.328l2.2,1.113a.521.521,0,0,0,.726-.1l2.139-2.435a.522.522,0,0,0-.1-.731l-1.666-1.811a.562.562,0,0,1-.162-.194,8.059,8.059,0,0,0,.538-1.682.611.611,0,0,1,.462-.322l2.338-.769A.511.511,0,0,0,964.846-44.922ZM953.457-38a6.938,6.938,0,0,1-6.96-6.912,6.935,6.935,0,0,1,6.912-6.966,6.939,6.939,0,0,1,6.966,6.912A6.944,6.944,0,0,1,953.457-38Z" transform="translate(-940.675 56.45)" fill="#292b37"/>
          <path id="Path_2919" data-name="Path 2919" d="M964.6-44.978l-.339-2.462a.517.517,0,0,0-.585-.441l-2.457-.107a.662.662,0,0,1-.252-.016,8.184,8.184,0,0,0-.807-1.575.607.607,0,0,1,.1-.554l1.107-2.2a.515.515,0,0,0-.1-.726l-1.979-1.5a.516.516,0,0,0-.726.1l-1.816,1.661a.689.689,0,0,1-.188.167,8.6,8.6,0,0,0-1.687-.543.638.638,0,0,1-.323-.457l-.769-2.338a.516.516,0,0,0-.581-.446l-2.462.339a.521.521,0,0,0-.44.586l-.1,2.462a.637.637,0,0,1-.021.247,8.229,8.229,0,0,0-1.575.812.623.623,0,0,1-.553-.1l-2.193-1.113a.526.526,0,0,0-.731.1l-1.5,1.978a.528.528,0,0,0,.1.731l1.666,1.811a.6.6,0,0,1,.162.188,8.347,8.347,0,0,0-.538,1.688.61.61,0,0,1-.462.322l-2.338.769a.513.513,0,0,0-.441.586l.339,2.456a.508.508,0,0,0,.58.441L945.15-42a.634.634,0,0,1,.247.016,8.275,8.275,0,0,0,.812,1.58.611.611,0,0,1-.1.548L945-37.658a.516.516,0,0,0,.1.726l1.978,1.5a.517.517,0,0,0,.726-.1l1.811-1.661a.637.637,0,0,1,.193-.167,8.594,8.594,0,0,0,1.688.543.639.639,0,0,1,.322.457l.763,2.338a.521.521,0,0,0,.586.446l2.457-.339a.521.521,0,0,0,.446-.586l.1-2.462a.645.645,0,0,1,.021-.247,8.212,8.212,0,0,0,1.575-.812.643.643,0,0,1,.554.1l2.193,1.113a.515.515,0,0,0,.726-.1l1.5-1.978a.522.522,0,0,0-.1-.731l-1.666-1.811a.64.64,0,0,1-.167-.193,7.741,7.741,0,0,0,.543-1.682.612.612,0,0,1,.457-.322l2.343-.769A.511.511,0,0,0,964.6-44.978Zm-11.389,6.923a6.944,6.944,0,0,1-6.966-6.917,6.943,6.943,0,0,1,6.917-6.96,6.931,6.931,0,0,1,6.96,6.912A6.939,6.939,0,0,1,953.207-38.056Z" transform="translate(-941.764 56.603)" fill="#383c48"/>
        </g>
        <g id="Group_929" data-name="Group 929" transform="translate(14.406 25.928)">
          <path id="Path_2920" data-name="Path 2920" d="M969.909-39.894l-1.086-3.171a.654.654,0,0,0-.822-.408l-3.047.446c-.1.032-.113.269-.215.258a10.6,10.6,0,0,0-1.366-1.747.793.793,0,0,1-.011-.7l.854-2.956a.644.644,0,0,0-.29-.871l-3.908-1.973a.653.653,0,0,0-.871.3L957.3-48.257c-.048.1,1.011.769.93.833a10.335,10.335,0,0,0-2.2-.269.788.788,0,0,1-.5-.489L953.768-51.3a.649.649,0,0,0-.822-.408l-2.94.989c-.344.118-.253.908-.135,1.247l.441,3.053a.685.685,0,0,1,.038.312,10.041,10.041,0,0,0-1.747,1.36.774.774,0,0,1-.7.011l-4.332-1.231a.649.649,0,0,0-.871.29L941.315-42.9c-.161.322,1.344,1.086,1.666,1.247l2.467,1.844a.687.687,0,0,1,.248.194,10.354,10.354,0,0,0-.269,2.2.789.789,0,0,1-.489.505l-2.7,1.489a.652.652,0,0,0-.408.822l-.484,3.123a.646.646,0,0,0,.822.4l4.525-.618a.688.688,0,0,1,.312-.032,10.6,10.6,0,0,0,1.366,1.747.78.78,0,0,1,.011.7L947.1-25.731a.649.649,0,0,0,.29.871l2.784,1.387a.653.653,0,0,0,.871-.3l2.263-3.058a.793.793,0,0,1,.2-.247,10.7,10.7,0,0,0,2.2.274c.226.07-.925.672-.844.914l1.489,2.7a.651.651,0,0,0,.822.408l4.289-1.419a.642.642,0,0,0,.409-.817l-.441-3.053a.694.694,0,0,1-.038-.312,10.071,10.071,0,0,0,1.747-1.365c.215-.108.226.269.451.382l2.962.855a.651.651,0,0,0,.871-.29l1.629-3.171a.646.646,0,0,0-.291-.871l-2.473-1.844a.791.791,0,0,1-.242-.194,10.435,10.435,0,0,0,.269-2.2.793.793,0,0,1,.489-.5l2.7-1.489A.645.645,0,0,0,969.909-39.894ZM957.52-28.725A8.678,8.678,0,0,1,947.345-35.6a8.683,8.683,0,0,1,6.869-10.18,8.682,8.682,0,0,1,10.18,6.874A8.684,8.684,0,0,1,957.52-28.725Z" transform="translate(-940.217 51.746)" fill="#292b37"/>
          <path id="Path_2921" data-name="Path 2921" d="M969.217-40.238l-.989-2.945a.654.654,0,0,0-.822-.408l-3.053.446a.749.749,0,0,1-.307.032,10.592,10.592,0,0,0-1.365-1.747.773.773,0,0,1-.011-.7l.855-2.956a.651.651,0,0,0-.291-.871l-2.784-1.381a.651.651,0,0,0-.871.29l-1.844,2.472a.714.714,0,0,1-.193.242,10.791,10.791,0,0,0-2.2-.269.781.781,0,0,1-.5-.489l-1.489-2.7a.651.651,0,0,0-.822-.408l-2.945.989a.653.653,0,0,0-.408.822l.446,3.053a.888.888,0,0,1,.038.312,10.113,10.113,0,0,0-1.752,1.36.763.763,0,0,1-.7.011l-2.962-.855a.651.651,0,0,0-.871.29l-1.381,2.784a.646.646,0,0,0,.29.871l2.472,1.844a.787.787,0,0,1,.248.193,10.024,10.024,0,0,0-.274,2.2.776.776,0,0,1-.489.505l-2.7,1.489a.654.654,0,0,0-.409.822L942.129-32a.649.649,0,0,0,.822.408L946-32.037a.682.682,0,0,1,.312-.032,10.313,10.313,0,0,0,1.365,1.747.8.8,0,0,1,.011.7l-.86,2.961a.653.653,0,0,0,.3.871l2.784,1.381a.644.644,0,0,0,.865-.3l1.843-2.467a.791.791,0,0,1,.193-.247,10.1,10.1,0,0,0,2.2.274.78.78,0,0,1,.5.489l1.489,2.7a.651.651,0,0,0,.822.408l2.946-.994a.646.646,0,0,0,.408-.817l-.446-3.053a.774.774,0,0,1-.032-.312,10.066,10.066,0,0,0,1.747-1.365.791.791,0,0,1,.7-.005l2.956.855a.647.647,0,0,0,.871-.3l1.381-2.779a.646.646,0,0,0-.29-.871l-2.473-1.838a1,1,0,0,1-.247-.2,10.091,10.091,0,0,0,.274-2.2.778.778,0,0,1,.489-.5l2.7-1.489A.651.651,0,0,0,969.217-40.238ZM956.829-29.07a8.687,8.687,0,0,1-10.18-6.874,8.691,8.691,0,0,1,6.874-10.18,8.691,8.691,0,0,1,10.18,6.88A8.682,8.682,0,0,1,956.829-29.07Z" transform="translate(-941.101 52.096)" fill="#383c48"/>
          <path id="Path_2922" data-name="Path 2922" d="M952.442-33.452a8.687,8.687,0,0,1-10.18-6.874,8.691,8.691,0,0,1,6.874-10.18,8.691,8.691,0,0,1,10.18,6.88A8.682,8.682,0,0,1,952.442-33.452Z" transform="translate(-936.715 56.478)" fill="#292b37"/>
          <path id="Path_2923" data-name="Path 2923" d="M950-37.826a6.25,6.25,0,0,1-7.326-4.945,6.253,6.253,0,0,1,4.945-7.326,6.25,6.25,0,0,1,7.326,4.95A6.248,6.248,0,0,1,950-37.826Z" transform="translate(-934.732 58.461)" fill="#383c48"/>
        </g>
      </g>
    </g>
    <g id="Group_941" data-name="Group 941" transform="translate(1214.799 -65.607)">
      <g id="Group_932" data-name="Group 932">
        <path id="Path_2924" data-name="Path 2924" d="M1024.673,32.9l53.429-1.143-6.686-97.365-79.842,5.074-3.181,94.468,19.955-.408-11.636,27.03Z" transform="translate(-988.394 65.607)" fill="#ff4140"/>
      </g>
      <g id="Group_940" data-name="Group 940" transform="translate(16.954 11.156)">
        <g id="Group_934" data-name="Group 934">
          <path id="Path_2925" data-name="Path 2925" d="M1043.645-39.646c-1.161-14.044-11.717-23.885-25.853-23.885h-.193c-14.13,0-24.691,9.841-25.847,23.885-.575,6.885-.694,13.12,10.631,26.4,2.365,2.779,3.063,8.342,3.321,11.62.145,1.784,8.772,2.951,11.991,3.187h0c3.225-.237,11.846-1.4,11.991-3.187.264-3.279.962-8.841,3.327-11.62C1044.333-26.526,1044.209-32.761,1043.645-39.646Z" transform="translate(-991.548 63.531)" fill="#fbf9f7"/>
          <path id="Path_2926" data-name="Path 2926" d="M1007.586-53.071H993.859v17.645h0c.027.306.414.7,1.182,1.134l9.374,5.224a6.639,6.639,0,0,0,3.171.736,6.66,6.66,0,0,0,3.176-.736l9.368-5.224c.769-.43,1.156-.828,1.188-1.134h0V-53.071Z" transform="translate(-981.439 109.291)" fill="#141b2f"/>
          <g id="Group_933" data-name="Group 933" transform="translate(11.115 56.22)">
            <rect id="Rectangle_725" data-name="Rectangle 725" width="30.065" height="3.585" fill="#383c48"/>
            <rect id="Rectangle_726" data-name="Rectangle 726" width="30.065" height="3.581" transform="translate(0 7.228)" fill="#383c48"/>
            <rect id="Rectangle_727" data-name="Rectangle 727" width="30.065" height="3.587" transform="translate(0 14.448)" fill="#383c48"/>
          </g>
        </g>
        <g id="Group_939" data-name="Group 939" transform="translate(3.815 5.412)">
          <g id="Group_938" data-name="Group 938">
            <g id="Group_936" data-name="Group 936">
              <g id="Group_935" data-name="Group 935" transform="translate(3.972)">
                <path id="Path_2927" data-name="Path 2927" d="M993-42.035a20.483,20.483,0,0,0,20.489,20.483V-62.524A20.487,20.487,0,0,0,993-42.035Z" transform="translate(-992.997 62.524)" fill="#f4b222"/>
                <path id="Path_2928" data-name="Path 2928" d="M1017.292-42.035a20.532,20.532,0,0,1-.935,6.143,20.429,20.429,0,0,1-4.235,7.46,20.44,20.44,0,0,1-11.437,6.514,20.5,20.5,0,0,1-3.875.365V-62.524c.462,0,.924.016,1.381.048A20.484,20.484,0,0,1,1017.292-42.035Z" transform="translate(-976.32 62.524)" fill="#f4b222"/>
              </g>
              <path id="Path_2929" data-name="Path 2929" d="M1012.741-62.524a20.486,20.486,0,0,0-20.483,20.488,20.481,20.481,0,0,0,20.483,20.483,20.486,20.486,0,0,0,20.488-20.483A20.49,20.49,0,0,0,1012.741-62.524Z" transform="translate(-992.258 62.524)" fill="#ffca00"/>
              <circle id="Ellipse_139" data-name="Ellipse 139" cx="17.038" cy="17.038" r="17.038" transform="translate(3.445 3.451)" fill="#f4b222"/>
              <path id="Path_2930" data-name="Path 2930" d="M1010.4-41.689c0,5.4-3.214,6.627-6.364,6.627v2.6H1001v-2.639a16.661,16.661,0,0,1-5.568-.962V-40.1c1.263.1,4.386.312,7.336.312,1.349,0,2.424-.323,2.424-1.693V-42.4c0-1.139-.354-1.822-1.918-1.822h-2.456c-5.687,0-6.117-4.66-6.117-6.4V-52.6c.011-4.542,2.811-6.009,6.3-6.116v-2.73h3.031V-58.7a21.609,21.609,0,0,1,5.509.951V-53.7c-1.919-.161-5.332-.306-6.9-.306-1.838-.022-2.741.124-2.741,1.881v.779c0,1.376.57,1.924,2.252,1.924h2.553c4.708,0,5.692,3.854,5.692,6.4Z" transform="translate(-981.566 67.236)" fill="#ffca00"/>
            </g>
            <g id="Group_937" data-name="Group 937" opacity="0.3" style="mix-blend-mode: screen;isolation: isolate">
              <path id="Path_2931" data-name="Path 2931" d="M1007.8-61.922,992.855-46.975a20.382,20.382,0,0,0-.6,4.9l20.44-20.445A20.7,20.7,0,0,0,1007.8-61.922Z" transform="translate(-992.258 62.524)" fill="#ffca00"/>
              <path id="Path_2932" data-name="Path 2932" d="M1018.842-62.286,992.495-35.939a20.512,20.512,0,0,0,6.547,8.965l28.771-28.766A20.525,20.525,0,0,0,1018.842-62.286Z" transform="translate(-991.221 63.565)" fill="#ffca00"/>
            </g>
          </g>
        </g>
      </g>
    </g>
  </g>
</svg>
