<svg xmlns="http://www.w3.org/2000/svg" width="192.885" height="71.656" viewBox="0 0 192.885 71.656">
  <g id="Group_217" data-name="Group 217" transform="translate(-212.508 -180.601)">
    <g id="Group_215" data-name="Group 215" transform="translate(212.508 180.601)">
      <circle id="Ellipse_97" data-name="Ellipse 97" cx="3.646" cy="3.646" r="3.646" transform="translate(34.08 2.862)" fill="#1f3440"/>
      <circle id="Ellipse_98" data-name="Ellipse 98" cx="3.646" cy="3.646" r="3.646" transform="translate(11.884 11.513)" fill="#1f3440"/>
      <circle id="Ellipse_99" data-name="Ellipse 99" cx="3.646" cy="3.646" r="3.646" transform="translate(4.056 34.061)" fill="#1f3440"/>
      <circle id="Ellipse_100" data-name="Ellipse 100" cx="3.646" cy="3.646" r="3.646" transform="translate(16.034 54.911)" fill="#1f3440"/>
      <circle id="Ellipse_101" data-name="Ellipse 101" cx="3.646" cy="3.646" r="3.646" transform="translate(39.772 57.838)" fill="#1f3440"/>
      <circle id="Ellipse_102" data-name="Ellipse 102" cx="3.646" cy="3.646" r="3.646" transform="translate(56.919 40.31)" fill="#1f3440"/>
      <circle id="Ellipse_103" data-name="Ellipse 103" cx="3.646" cy="3.646" r="3.646" transform="translate(56.5 29.246)" fill="#1f3440"/>
      <circle id="Ellipse_104" data-name="Ellipse 104" cx="2.401" cy="2.401" r="2.401" transform="translate(56.686 58.07)" fill="#1f3440"/>
      <circle id="Ellipse_105" data-name="Ellipse 105" cx="2.401" cy="2.401" r="2.401" transform="translate(26.324 66.853)" fill="#1f3440"/>
      <circle id="Ellipse_106" data-name="Ellipse 106" cx="2.401" cy="2.401" r="2.401" transform="translate(2.401 50.108)" fill="#1f3440"/>
      <circle id="Ellipse_107" data-name="Ellipse 107" cx="2.401" cy="2.401" r="2.401" transform="translate(0 19.573)" fill="#1f3440"/>
      <circle id="Ellipse_108" data-name="Ellipse 108" cx="2.401" cy="2.401" r="2.401" transform="translate(22.751)" fill="#1f3440"/>
      <circle id="Ellipse_109" data-name="Ellipse 109" cx="2.401" cy="2.401" r="2.401" transform="translate(51.924 2.401)" fill="#1f3440"/>
      <circle id="Ellipse_110" data-name="Ellipse 110" cx="3.646" cy="3.646" r="3.646" transform="translate(54.326 16.521)" fill="#1f3440"/>
      <circle id="Ellipse_111" data-name="Ellipse 111" cx="4.24" cy="4.24" r="4.24" transform="translate(42.631 30.18)" fill="#1f3440"/>
      <path id="Path_1523" data-name="Path 1523" d="M369.575,279.35s5.463,4.068,8.832-.5a27.527,27.527,0,0,1,.714,5.924s-4.93-3.246-8.163.866C366.8,282.554,369.575,279.35,369.575,279.35Z" transform="translate(-320.697 -248.666)" fill="#1f3440"/>
      <g id="Group_209" data-name="Group 209" transform="translate(38.026 39.678)">
        <circle id="Ellipse_112" data-name="Ellipse 112" cx="3.646" cy="3.646" r="3.646" transform="translate(10.232 9.851)" fill="#1f3440"/>
        <circle id="Ellipse_113" data-name="Ellipse 113" cx="4.24" cy="4.24" r="4.24" fill="#1f3440"/>
        <path id="Path_1524" data-name="Path 1524" d="M354.661,320.851s.346,6.8,6.016,6.485a27.528,27.528,0,0,1-4.111,4.325s-.64-5.867-5.869-5.74C350.425,320.756,354.661,320.851,354.661,320.851Z" transform="translate(-346.263 -317.445)" fill="#1f3440"/>
      </g>
      <g id="Group_210" data-name="Group 210" transform="translate(25.499 41.811)">
        <circle id="Ellipse_114" data-name="Ellipse 114" cx="3.646" cy="3.646" r="3.646" transform="translate(0 13.619)" fill="#1f3440"/>
        <circle id="Ellipse_115" data-name="Ellipse 115" cx="4.24" cy="4.24" r="4.24" transform="translate(2.392)" fill="#1f3440"/>
        <path id="Path_1525" data-name="Path 1525" d="M307.689,336.439s-5.658,3.793-2.471,8.494a27.552,27.552,0,0,1-5.823-1.3s4.7-3.565,1.906-7.985C305.593,332.757,307.689,336.439,307.689,336.439Z" transform="translate(-298.203 -329.061)" fill="#1f3440"/>
      </g>
      <g id="Group_211" data-name="Group 211" transform="translate(8.681 35.805)">
        <circle id="Ellipse_116" data-name="Ellipse 116" cx="3.646" cy="3.646" r="3.646" transform="translate(0 7.266)" fill="#1f3440"/>
        <circle id="Ellipse_117" data-name="Ellipse 117" cx="4.24" cy="4.24" r="4.24" transform="translate(10.984)" fill="#1f3440"/>
        <path id="Path_1526" data-name="Path 1526" d="M264.545,312.938s-6.629-1.566-7.906,3.967a27.549,27.549,0,0,1-3.006-5.154s5.813,1.023,7.15-4.035C265.818,308.9,264.545,312.938,264.545,312.938Z" transform="translate(-249.68 -304.472)" fill="#1f3440"/>
      </g>
      <g id="Group_212" data-name="Group 212" transform="translate(8.051 20.773)">
        <circle id="Ellipse_118" data-name="Ellipse 118" cx="3.646" cy="3.646" r="3.646" fill="#1f3440"/>
        <circle id="Ellipse_119" data-name="Ellipse 119" cx="4.24" cy="4.24" r="4.24" transform="translate(11.741 4.544)" fill="#1f3440"/>
        <path id="Path_1527" data-name="Path 1527" d="M261.162,263.082s-2.785-6.216-7.956-3.867a27.555,27.555,0,0,1,2.266-5.52s2.721,5.237,7.55,3.225C265.145,261.636,261.162,263.082,261.162,263.082Z" transform="translate(-248.754 -252.014)" fill="#1f3440"/>
      </g>
      <g id="Group_213" data-name="Group 213" transform="translate(37.564 10.057)">
        <circle id="Ellipse_120" data-name="Ellipse 120" cx="3.646" cy="3.646" r="3.646" transform="translate(8.196)" fill="#1f3440"/>
        <circle id="Ellipse_121" data-name="Ellipse 121" cx="4.24" cy="4.24" r="4.24" transform="translate(0 10.396)" fill="#1f3440"/>
        <path id="Path_1528" data-name="Path 1528" d="M343.752,232.327s6.661-1.426,5.443-6.973a27.545,27.545,0,0,1,4.925,3.369s-5.69,1.568-4.73,6.709C344.334,236.524,343.752,232.327,343.752,232.327Z" transform="translate(-340.999 -221.663)" fill="#1f3440"/>
      </g>
      <g id="Group_214" data-name="Group 214" transform="translate(23.882 8.143)">
        <circle id="Ellipse_122" data-name="Ellipse 122" cx="3.477" cy="3.477" r="3.477" fill="#1f3440"/>
        <circle id="Ellipse_123" data-name="Ellipse 123" cx="4.044" cy="4.044" r="4.044" transform="translate(3.942 11.353)" fill="#1f3440"/>
        <path id="Path_1529" data-name="Path 1529" d="M297.785,231.267s2.489-6-2.525-8.05a26.276,26.276,0,0,1,5.312-2.041s-1.852,5.316,2.7,7.348C301.395,233.084,297.785,231.267,297.785,231.267Z" transform="translate(-293.722 -216.854)" fill="#1f3440"/>
      </g>
      <circle id="Ellipse_124" data-name="Ellipse 124" cx="2.401" cy="2.401" r="2.401" transform="translate(66.768 29.853)" fill="#1f3440"/>
      <circle id="Ellipse_125" data-name="Ellipse 125" cx="0.993" cy="0.993" r="0.993" transform="translate(54.222 27.941)" fill="#1f3440"/>
      <circle id="Ellipse_126" data-name="Ellipse 126" cx="0.993" cy="0.993" r="0.993" transform="translate(10.51 29.849)" fill="#1f3440"/>
      <circle id="Ellipse_127" data-name="Ellipse 127" cx="0.993" cy="0.993" r="0.993" transform="translate(41.804 13.356)" fill="#1f3440"/>
      <circle id="Ellipse_128" data-name="Ellipse 128" cx="0.993" cy="0.993" r="0.993" transform="translate(33.087 53.918)" fill="#1f3440"/>
      <circle id="Ellipse_144" data-name="Ellipse 144" cx="0.993" cy="0.993" r="0.993" transform="translate(17.087 48.918)" fill="#1f3440"/>
      <circle id="Ellipse_129" data-name="Ellipse 129" cx="0.993" cy="0.993" r="0.993" transform="translate(52.447 46.338)" fill="#1f3440"/>
      <circle id="Ellipse_130" data-name="Ellipse 130" cx="0.993" cy="0.993" r="0.993" transform="translate(21.948 14.502)" fill="#1f3440"/>
    </g>
    <g id="Group_216" data-name="Group 216" transform="translate(291.928 198.226)">
      <path id="Path_1530" data-name="Path 1530" d="M568.973,246.583a2.409,2.409,0,0,1-1.766-.744,2.462,2.462,0,0,1-.744-1.812,2.32,2.32,0,0,1,.767-1.835,2.627,2.627,0,0,1,1.789-.674,2.569,2.569,0,0,1,1.743.674,2.32,2.32,0,0,1,.767,1.835,2.539,2.539,0,0,1-2.556,2.556Zm.046,30.251a1.684,1.684,0,0,1-1.812-1.812V253.228a1.684,1.684,0,0,1,1.812-1.812,1.728,1.728,0,0,1,1.278.488,1.79,1.79,0,0,1,.488,1.324v21.794a1.789,1.789,0,0,1-.488,1.324A1.728,1.728,0,0,1,569.019,276.834Z" transform="translate(-537.15 -240.43)" fill="#1f3440"/>
      <path id="Path_1531" data-name="Path 1531" d="M483.232,237.977a12.191,12.191,0,0,0-12.191,12.191c0,.135,0,.268.008.4v0c-.005.065-.008.133-.008.2v21.794a1.688,1.688,0,0,0,1.813,1.813,1.729,1.729,0,0,0,1.277-.489,1.79,1.79,0,0,0,.489-1.324V258.8a12.192,12.192,0,1,0,8.612-20.823Zm-.005,20.917a8.717,8.717,0,0,1-8.775-8.726c0-.08,0-.161,0-.245a8.775,8.775,0,1,1,8.773,8.97Z" transform="translate(-471.041 -237.977)" fill="#1f3440"/>
      <path id="Path_1532" data-name="Path 1532" d="M624.319,297.76a1.5,1.5,0,0,1-.581,1.023,1.627,1.627,0,0,1-1,.372,1.9,1.9,0,0,1-.906-.187,2.425,2.425,0,0,1-.719-.648l-7.643-9.72-7.88,10a1.47,1.47,0,0,1-1.253.559,1.557,1.557,0,0,1-1.186-.467,1.638,1.638,0,0,1-.464-1.115,1.816,1.816,0,0,1,.488-1.253l8.03-10.036-7.612-9.667a1.771,1.771,0,0,1-.046-2.393,1.5,1.5,0,0,1,1.207-.488,1.842,1.842,0,0,1,1.349.559l7.5,9.6,7.367-9.323a1.8,1.8,0,0,1,1.533-.839,1.507,1.507,0,0,1,1.21.488,1.646,1.646,0,0,1,.393,1.161,2.183,2.183,0,0,1-.488,1.278l-7.732,9.572,7.919,10.131A1.836,1.836,0,0,1,624.319,297.76Z" transform="translate(-562.247 -262.75)" fill="#1f3440"/>
      <path id="Path_1533" data-name="Path 1533" d="M709.534,241.177,696.85,261.206v11.618a1.825,1.825,0,0,1-1.812,1.812,1.825,1.825,0,0,1-1.812-1.812V261.206l-12.641-20.029a1.8,1.8,0,0,1-.347-1.345,1.823,1.823,0,0,1,.581-1.069,1.669,1.669,0,0,1,1.161-.418,1.619,1.619,0,0,1,.906.23,2.277,2.277,0,0,1,.627.651l11.572,18.643,11.523-18.551a2.233,2.233,0,0,1,.722-.743,1.853,1.853,0,0,1,.952-.23,1.489,1.489,0,0,1,1.09.439,1.765,1.765,0,0,1,.513,1.094A1.976,1.976,0,0,1,709.534,241.177Z" transform="translate(-615.956 -238.232)" fill="#1f3440"/>
      <path id="Path_1534" data-name="Path 1534" d="M838.861,282.505l-.009.018.012-.015Z" transform="translate(-725.863 -268.826)" fill="#1f3440"/>
      <path id="Path_1535" data-name="Path 1535" d="M793.769,297.527a1.438,1.438,0,0,1-1.625,1.628H774.9a1.438,1.438,0,0,1-1.625-1.628,1.712,1.712,0,0,1,.344-1.149l-.021-.012,15.243-19.378H774.717a1.627,1.627,0,0,1,0-3.253H791.96a1.439,1.439,0,0,1,1.625,1.628,1.777,1.777,0,0,1-.283,1.066l-.009.018a.156.156,0,0,1-.021.027L778.124,295.9h14.02A1.435,1.435,0,0,1,793.769,297.527Z" transform="translate(-680.304 -262.75)" fill="#1f3440"/>
    </g>
  </g>
</svg>
