<svg xmlns="http://www.w3.org/2000/svg" width="312.67" height="533.594" viewBox="0 0 312.67 533.594">
  <g id="Group_1006" data-name="Group 1006" transform="translate(-1306.665 -7355.994)">
    <path id="Path_3053" data-name="Path 3053" d="M-10062.719,6889.526s-93.188-70.083,7.541-86.782,106.655-51.172,81.338-65.716-86.186,10.773-101.807,2.693" transform="translate(11439 835)" fill="none" stroke="#707070" stroke-width="3" stroke-dasharray="5" opacity="0.59"/>
    <ellipse id="Ellipse_140" data-name="Ellipse 140" cx="156.335" cy="9.123" rx="156.335" ry="9.123" transform="translate(1306.665 7871.03)" opacity="0.15"/>
    <g id="Group_975" data-name="Group 975" transform="translate(1296.158 7549.64)" opacity="0.7">
      <g id="Group_974" data-name="Group 974" transform="translate(19.305 0)">
        <path id="Path_3110" data-name="Path 3110" d="M1234.219,392.56l-7.407,8.457-46.16-13.44Z" transform="translate(-1180.652 -387.577)" fill="#ffd844"/>
        <path id="Path_3111" data-name="Path 3111" d="M1224.794,418.678l2.018-17.661-46.16-13.44L1219.99,408.4Z" transform="translate(-1180.652 -387.577)" fill="#f6af00"/>
        <path id="Path_3112" data-name="Path 3112" d="M1207.517,421.039,1219.99,408.4l-39.339-20.827Z" transform="translate(-1180.651 -387.576)" fill="#ffd844"/>
      </g>
    </g>
    <g id="Group_976" data-name="Group 976" transform="translate(1356.863 7661.439)" opacity="0.8">
      <path id="Path_3113" data-name="Path 3113" d="M1374.189,1149.959a9.1,9.1,0,0,1-2.669,6.709,9.689,9.689,0,0,1-6.253,2.246l-196.659.363a10.681,10.681,0,0,1-6.262-2.223,9.1,9.1,0,0,1-2.694-6.7l-.242-130.957,214.537-.4.242,130.957Z" transform="translate(-1159.41 -944.336)" fill="#738598"/>
      <path id="Path_3114" data-name="Path 3114" d="M1379.721,1290.8a9.688,9.688,0,0,1-6.253,2.246l-196.659.363a10.682,10.682,0,0,1-6.262-2.223l104.421-90.031Z" transform="translate(-1167.611 -1078.469)" fill="#3c415e"/>
      <path id="Path_3115" data-name="Path 3115" d="M1373.947,810.449l-30.352,21.957-70.971,51.084a10.057,10.057,0,0,1-12.068.022l-70.712-50.822-30.433-21.844,30.352-21.957,66.061-47.5,4.91-3.585a10.057,10.057,0,0,1,12.068-.022l4.923,3.566,31.776,22.736,15.664,11.145,18.35,13.375Z" transform="translate(-1159.41 -735.782)" fill="#3c415e"/>
      <path id="Path_3116" data-name="Path 3116" d="M1428.057,784.293l.117,63.467L1357.2,898.844a10.057,10.057,0,0,1-12.068.022l-70.713-50.822-.152-82.239a8.966,8.966,0,0,1,8.923-8.956l116.654-.215Z" transform="translate(-1243.99 -751.137)" fill="#faf9f9"/>
      <path id="Path_3117" data-name="Path 3117" d="M1752.333,777.19a7.06,7.06,0,0,0,7.164,7.138l20.559-.038L1752.3,756.63l.038,20.56Z" transform="translate(-1595.99 -751.134)" fill="#afb9ca"/>
    </g>
    <g id="Group_981" data-name="Group 981" transform="translate(1320.541 7809.326)">
      <path id="Path_3118" data-name="Path 3118" d="M1162.555,1346.115c-1.852-.282-3.858.788-5.5,1.507-.176.077-.544.28-.926.483q.982-1.123,1.978-2.235c.441-.492.888-.98,1.335-1.469.479.075,1.483-.1,2.629.032,1.355.152,1.929.683,3.166-.347,1.167-.971,1.66-2.663-.184-2.941-1.568-.236-3.021.786-4.318,1.821a28.017,28.017,0,0,0,3.625-4.912c4.874-2.47,7.189-9.713,6.495-14.763a2.283,2.283,0,0,0-.519-1.345c-.752-.75-2.076-.224-2.781.571a7.266,7.266,0,0,0-1.584,4.1c-.158,1.48-.066,2.974-.141,4.46a16.788,16.788,0,0,1-.625,3.562.3.3,0,0,0-.039.061,20.26,20.26,0,0,1-3.191,5.2,16.1,16.1,0,0,0,.795-3.582,8.754,8.754,0,0,0-.982-5.54,1.213,1.213,0,0,0-.781-.671c-.443-.061-.813.325-1.056.7a6.31,6.31,0,0,0-.9,4.516c.363,1.98,1.415,3.793,1.858,5.757a.64.64,0,0,0,.074-.01c-.805.914-1.647,1.8-2.486,2.675a13.481,13.481,0,0,0,.139-4.493,3.706,3.706,0,0,0-.884-1.947,1.747,1.747,0,0,0-1.98-.425,1.831,1.831,0,0,0-.792.954c-.507,1.252-.061,2.666.387,3.941s.843,2.594,1.344,3.851c-.1.107-.2.213-.3.32q-2.139,2.331-4.217,4.723a23.154,23.154,0,0,0,1.059-3.4,13.679,13.679,0,0,0-.113-7.066,4.98,4.98,0,0,0-1.433-2.39,1.07,1.07,0,0,0-1.039-.291,1.129,1.129,0,0,0-.457.409,5.265,5.265,0,0,0-.689,3.739,39.321,39.321,0,0,0,1.607,5.892,11.446,11.446,0,0,1,.6,3.64q-2.137,2.487-4.167,5.061a24.141,24.141,0,0,0,1.635-6.656c.227-1.873.036-4.044-1.447-5.21a1.771,1.771,0,0,0-.729-.369c-.844-.17-1.614.6-1.9,1.407a5.349,5.349,0,0,0,.063,3.249c.3,1.058.779,2.06,1.109,3.111a13.769,13.769,0,0,1,.388,5.6q-1.547,2.014-3.018,4.089a19.114,19.114,0,0,0,.428-2.754,13.253,13.253,0,0,0-.724-5.631c-.22-.607-.569-1.271-1.2-1.414a1.733,1.733,0,0,0-1.5.6,4.589,4.589,0,0,0-1.314,3.943,9.051,9.051,0,0,0,.993,2.6l1.306,2.585a6.16,6.16,0,0,1,.639,2.051q-1.574,2.326-3.025,4.731a16.335,16.335,0,0,0,.446-2.294,8.812,8.812,0,0,0-.79-5.118,2.224,2.224,0,0,0-1.268-1.217,1.73,1.73,0,0,0-1.933,1.273,3.663,3.663,0,0,0,.33,2.485,8.758,8.758,0,0,0,1.248,2.026,7.027,7.027,0,0,1,1.012,1.361,5.02,5.02,0,0,1,.34,2.061c0,.144.006.291.01.437-.744,1.26-1.483,2.545-2.185,3.852a8.9,8.9,0,0,0-1.189-4.551c-.468-.8-1.3-1.609-2.192-1.369a1.414,1.414,0,0,0-.718.483,2.507,2.507,0,0,0,.235,2.948c.624.858,1.524,1.476,2.211,2.285a15.356,15.356,0,0,1,.863,1.723,42.646,42.646,0,0,0-2.681,6.459.517.517,0,0,0,.967.364c.817-1.58,1.6-3.167,2.4-4.749a45.4,45.4,0,0,0,4.669,1.192,2.1,2.1,0,0,0,2.311-.6,1.745,1.745,0,0,0-.477-2.2,3.4,3.4,0,0,0-2.327-.62,11.78,11.78,0,0,0-3.606,1.1c.822-1.62,1.665-3.23,2.561-4.817a6.721,6.721,0,0,1,1.6.008c.841.153,1.624.549,2.468.686a2.148,2.148,0,0,0,2.258-.825,1.87,1.87,0,0,0-1.14-2.448,4.11,4.11,0,0,0-2.974.279c-.3.123-.727.289-1.156.5.077-.128.15-.257.228-.384.424-.691.859-1.375,1.3-2.056a24.323,24.323,0,0,0,3.849-.089,7.189,7.189,0,0,0,3.271-.349,2.093,2.093,0,0,0,1.171-2.711,2.507,2.507,0,0,0-2.7-.8,12.094,12.094,0,0,0-4.281,1.969q1.445-2.143,2.973-4.228c1.925-.229,4.418,1.257,6.484.517.835-.3,1.984-1.259,1.564-2.324-.331-.839-1.764-.9-2.516-.97a7.964,7.964,0,0,0-4.193.971q.613-.814,1.234-1.621.8-1.038,1.62-2.061a15.128,15.128,0,0,1,3.182.123c1.521.25,3.114.842,4.337-.551,1.118-1.274,1.627-3.925-.716-3.784a11.785,11.785,0,0,0-4.956,1.933q1.6-1.943,3.255-3.844a13.773,13.773,0,0,1,3.8.505c1.335.456,2.945,1.724,4.18.585A2.023,2.023,0,0,0,1162.555,1346.115Z" transform="translate(-1102.897 -1315.031)" fill="#ffda32"/>
      <path id="Path_3119" data-name="Path 3119" d="M1126.285,1321.979c-1.794.538-3.149,2.365-4.323,3.717-.125.145-.372.486-.63.833q.406-1.436.83-2.866c.188-.633.383-1.266.577-1.9.465-.138,1.3-.723,2.39-1.1,1.289-.443,2.035-.209,2.713-1.67.639-1.377.36-3.117-1.426-2.579-1.518.458-2.393,2-3.122,3.494a28.014,28.014,0,0,0,1.173-5.991c3.347-4.319,2.337-11.856-.453-16.122a2.28,2.28,0,0,0-1.045-.993c-1-.356-1.971.687-2.269,1.707a7.268,7.268,0,0,0,.323,4.38c.491,1.4,1.214,2.716,1.783,4.091a16.8,16.8,0,0,1,.96,3.487.3.3,0,0,0-.009.071,20.275,20.275,0,0,1-.658,6.062,16.1,16.1,0,0,0-.816-3.578,8.753,8.753,0,0,0-3.26-4.586,1.213,1.213,0,0,0-.993-.272c-.427.134-.6.642-.655,1.085a6.307,6.307,0,0,0,1.12,4.467c1.176,1.633,2.9,2.821,4.145,4.407a.623.623,0,0,0,.063-.041c-.336,1.171-.718,2.331-1.1,3.482a13.467,13.467,0,0,0-1.8-4.12,3.707,3.707,0,0,0-1.633-1.381,1.747,1.747,0,0,0-1.971.464,1.829,1.829,0,0,0-.307,1.2c.078,1.349,1.087,2.435,2.038,3.4s1.873,1.983,2.864,2.9c-.044.139-.089.278-.132.417q-.934,3.022-1.788,6.074a23.122,23.122,0,0,0-.5-3.522,13.676,13.676,0,0,0-3.128-6.337,4.982,4.982,0,0,0-2.319-1.547,1.071,1.071,0,0,0-1.064.182,1.127,1.127,0,0,0-.238.565,5.265,5.265,0,0,0,.978,3.673,39.337,39.337,0,0,0,3.975,4.637,11.455,11.455,0,0,1,2.1,3.031q-.867,3.162-1.6,6.358a24.146,24.146,0,0,0-1.373-6.714c-.6-1.79-1.7-3.67-3.539-4.088a1.774,1.774,0,0,0-.816-.021,1.875,1.875,0,0,0-1.117,2.086,5.35,5.35,0,0,0,1.448,2.909c.729.825,1.586,1.528,2.334,2.336a13.766,13.766,0,0,1,2.75,4.9q-.536,2.482-.977,4.987a19.121,19.121,0,0,0-.792-2.672,13.249,13.249,0,0,0-3.066-4.778,1.981,1.981,0,0,0-1.689-.764,1.732,1.732,0,0,0-1.1,1.181,4.588,4.588,0,0,0,.5,4.126,9.051,9.051,0,0,0,2.013,1.928l2.287,1.777a6.16,6.16,0,0,1,1.456,1.58q-.426,2.777-.708,5.57a16.381,16.381,0,0,0-.58-2.264,8.811,8.811,0,0,0-2.906-4.287,2.224,2.224,0,0,0-1.667-.557,1.73,1.73,0,0,0-1.2,1.979,3.661,3.661,0,0,0,1.362,2.1,8.777,8.777,0,0,0,1.995,1.3,7.012,7.012,0,0,1,1.5.8,5.027,5.027,0,0,1,1.19,1.717l.2.391c-.133,1.458-.25,2.935-.324,4.417a8.9,8.9,0,0,0-3.024-3.6c-.766-.524-1.86-.9-2.567-.3a1.413,1.413,0,0,0-.442.744,2.508,2.508,0,0,0,1.475,2.564c.931.509,2.009.681,2.976,1.118.555.251,1.021.88,1.517,1.188a42.632,42.632,0,0,0,.343,6.985.517.517,0,0,0,1.03-.085c.062-1.777.094-3.549.134-5.319a45.54,45.54,0,0,0,4.73-.922,2.1,2.1,0,0,0,1.831-1.531,1.744,1.744,0,0,0-1.373-1.782,3.4,3.4,0,0,0-2.369.436,11.783,11.783,0,0,0-2.787,2.54c.049-1.816.121-3.632.252-5.45a6.73,6.73,0,0,1,1.446-.677c.825-.221,1.7-.2,2.524-.437a2.147,2.147,0,0,0,1.687-1.712,1.87,1.87,0,0,0-2.078-1.724,4.111,4.111,0,0,0-2.568,1.526c-.217.239-.533.572-.831.946.015-.148.026-.3.042-.444.088-.806.187-1.61.293-2.414a24.291,24.291,0,0,0,3.44-1.728,7.188,7.188,0,0,0,2.807-1.717,2.093,2.093,0,0,0-.1-2.952,2.507,2.507,0,0,0-2.787.431,12.1,12.1,0,0,0-3.025,3.612q.387-2.555.875-5.094c1.641-1.031,4.53-.756,6.081-2.31.626-.627,1.253-1.987.417-2.77-.658-.616-1.98-.059-2.689.2a7.966,7.966,0,0,0-3.373,2.673q.205-1,.421-1.994c.186-.854.382-1.706.581-2.556a15.137,15.137,0,0,1,2.928-1.252c1.482-.426,3.175-.573,3.683-2.355.465-1.63-.211-4.244-2.267-3.113a11.787,11.787,0,0,0-3.651,3.869q.616-2.442,1.3-4.867a13.757,13.757,0,0,1,3.647-1.169c1.4-.16,3.4.3,4.028-1.261A2.023,2.023,0,0,0,1126.285,1321.979Z" transform="translate(-1085.362 -1296.734)" fill="#ffda32"/>
      <g id="Group_977" data-name="Group 977" transform="translate(18.486 41.163)">
        <path id="Path_3120" data-name="Path 3120" d="M1096.332,1481.341s-7.547-11.749-3.259-28.471c0,0,12.349,2.745,16.465,28.471Z" transform="translate(-1091.755 -1452.87)" fill="#00b256"/>
        <path id="Path_3121" data-name="Path 3121" d="M1116.417,1509.127s-3.224-15.436-5.025-18.523c0,0,5.419,9.776,6.225,18.523Z" transform="translate(-1106.215 -1480.656)" fill="#00663e"/>
      </g>
      <g id="Group_978" data-name="Group 978" transform="translate(30.72 41.385)">
        <path id="Path_3122" data-name="Path 3122" d="M1151.366,1482.185s7.547-11.749,3.259-28.471c0,0-12.349,2.744-16.465,28.471Z" transform="translate(-1138.159 -1453.714)" fill="#00b256"/>
        <path id="Path_3123" data-name="Path 3123" d="M1163.563,1509.97s3.224-15.436,5.025-18.523c0,0-5.419,9.776-6.225,18.523Z" transform="translate(-1155.981 -1481.499)" fill="#00663e"/>
      </g>
      <g id="Group_979" data-name="Group 979" transform="translate(41.174 33.155)">
        <path id="Path_3124" data-name="Path 3124" d="M1194.837,1459.2s9.728-15.145,4.2-36.7c0,0-15.918,3.537-21.225,36.7Z" transform="translate(-1177.813 -1422.497)" fill="#aaff6e"/>
        <path id="Path_3125" data-name="Path 3125" d="M1210.561,1495.015s4.156-19.9,6.477-23.878c0,0-6.985,12.6-8.025,23.878Z" transform="translate(-1200.788 -1458.314)" fill="#00663e"/>
      </g>
      <g id="Group_980" data-name="Group 980" transform="translate(0 33.155)">
        <path id="Path_3126" data-name="Path 3126" d="M1027.533,1459.2s-9.728-15.145-4.2-36.7c0,0,15.919,3.537,21.225,36.7Z" transform="translate(-1021.634 -1422.497)" fill="#aaff6e"/>
        <path id="Path_3127" data-name="Path 3127" d="M1053.424,1495.015s-4.156-19.9-6.477-23.878c0,0,6.985,12.6,8.025,23.878Z" transform="translate(-1040.273 -1458.314)" fill="#00663e"/>
      </g>
    </g>
    <g id="Group_983" data-name="Group 983" transform="translate(1526.27 7799.022)">
      <circle id="Ellipse_141" data-name="Ellipse 141" cx="32.02" cy="32.02" r="32.02" transform="translate(0 45.283) rotate(-45)" fill="#faf9f9"/>
      <circle id="Ellipse_142" data-name="Ellipse 142" cx="18.473" cy="18.473" r="18.473" transform="translate(26.81 26.81)" fill="#3c415e"/>
      <path id="Path_3128" data-name="Path 3128" d="M1895.572,1539.808a1.232,1.232,0,0,1-.871-2.1l4.844-4.844a1.231,1.231,0,0,1,1.741,1.741l-4.844,4.844A1.228,1.228,0,0,1,1895.572,1539.808Z" transform="translate(-1869.994 -1460.042)" fill="#ff666a"/>
      <path id="Path_3129" data-name="Path 3129" d="M2031.424,1539.7a1.228,1.228,0,0,1-.871-.361l-4.88-4.88a1.231,1.231,0,0,1,1.741-1.742l4.881,4.881a1.232,1.232,0,0,1-.871,2.1Z" transform="translate(-1966.437 -1459.939)" fill="#ff666a"/>
      <path id="Path_3130" data-name="Path 3130" d="M2054.838,1329.134a1.232,1.232,0,0,1-.871-2.1l3.695-3.695a1.231,1.231,0,0,1,1.741,1.742l-3.695,3.695A1.227,1.227,0,0,1,2054.838,1329.134Z" transform="translate(-1987.272 -1305.755)" fill="#fcc072"/>
      <path id="Path_3131" data-name="Path 3131" d="M1875.476,1329.134a1.228,1.228,0,0,1-.871-.361l-3.695-3.695a1.231,1.231,0,1,1,1.741-1.742l3.694,3.695a1.232,1.232,0,0,1-.87,2.1Z" transform="translate(-1852.475 -1305.755)" fill="#fcc072"/>
      <path id="Path_3132" data-name="Path 3132" d="M1877.44,1367.586a34.483,34.483,0,1,1,34.483-34.483A34.522,34.522,0,0,1,1877.44,1367.586Zm0-64.04A29.557,29.557,0,1,0,1907,1333.1,29.59,29.59,0,0,0,1877.44,1303.546Z" transform="translate(-1832.157 -1287.82)" fill="#ffda32"/>
      <g id="Group_982" data-name="Group 982" transform="translate(16.958 16.809)">
        <path id="Path_3133" data-name="Path 3133" d="M1970.315,1321.412a1.231,1.231,0,0,0-1.231,1.231v1.231a1.231,1.231,0,1,0,2.463,0v-1.231A1.23,1.23,0,0,0,1970.315,1321.412Z" transform="translate(-1941.99 -1321.412)" fill="#fb7668"/>
        <path id="Path_3134" data-name="Path 3134" d="M1970.315,1522.281a1.231,1.231,0,0,0-1.231,1.231v1.232a1.231,1.231,0,0,0,2.463,0v-1.232A1.23,1.23,0,0,0,1970.315,1522.281Z" transform="translate(-1941.99 -1469.325)" fill="#fb7668"/>
        <path id="Path_3135" data-name="Path 3135" d="M2069.646,1424.182h-1.231a1.232,1.232,0,0,0,0,2.463h1.231a1.232,1.232,0,1,0,0-2.463Z" transform="translate(-2014.227 -1397.088)" fill="#fb7668"/>
        <path id="Path_3136" data-name="Path 3136" d="M1868.776,1424.182h-1.231a1.232,1.232,0,1,0,0,2.463h1.231a1.232,1.232,0,1,0,0-2.463Z" transform="translate(-1866.313 -1397.088)" fill="#fb7668"/>
        <path id="Path_3137" data-name="Path 3137" d="M2039.679,1351.87l-.87.871a1.231,1.231,0,1,0,1.741,1.741l.871-.871a1.231,1.231,0,0,0-1.742-1.741Z" transform="translate(-1993.067 -1343.574)" fill="#fb7668"/>
        <path id="Path_3138" data-name="Path 3138" d="M1897.646,1493.909l-.871.871a1.231,1.231,0,1,0,1.741,1.741l.871-.871a1.231,1.231,0,0,0-1.741-1.741Z" transform="translate(-1888.479 -1448.167)" fill="#fb7668"/>
        <path id="Path_3139" data-name="Path 3139" d="M2040.55,1493.908a1.231,1.231,0,0,0-1.741,1.741l.87.871a1.231,1.231,0,1,0,1.742-1.741Z" transform="translate(-1993.067 -1448.166)" fill="#fb7668"/>
        <path id="Path_3140" data-name="Path 3140" d="M1898.517,1351.87a1.231,1.231,0,0,0-1.741,1.741l.871.871a1.231,1.231,0,0,0,1.741-1.741Z" transform="translate(-1888.479 -1343.574)" fill="#fb7668"/>
      </g>
      <path id="Path_3141" data-name="Path 3141" d="M1917.7,1377.821a1.23,1.23,0,0,0,1.231,1.231h8.8a4.916,4.916,0,1,0,5.983-5.983v-12.49a1.232,1.232,0,0,0-2.463,0v12.49a4.918,4.918,0,0,0-3.52,3.52h-8.8A1.231,1.231,0,0,0,1917.7,1377.821Zm12.315,0a2.463,2.463,0,1,1,2.463,2.463A2.465,2.465,0,0,1,1930.016,1377.821Z" transform="translate(-1887.196 -1332.538)" fill="#fb7668"/>
      <path id="Path_3142" data-name="Path 3142" d="M2060.168,1295.785a8.77,8.77,0,0,1,0,12.4l-12.4-12.4A8.772,8.772,0,0,1,2060.168,1295.785Z" transform="translate(-1982.97 -1283.841)" fill="#ff666a"/>
      <path id="Path_3143" data-name="Path 3143" d="M1845.526,1295.785a8.77,8.77,0,0,0,0,12.4l12.4-12.4A8.77,8.77,0,0,0,1845.526,1295.785Z" transform="translate(-1832.157 -1283.841)" fill="#ff666a"/>
    </g>
    <g id="Group_985" data-name="Group 985" transform="translate(1551.856 7722.801)">
      <path id="Path_3144" data-name="Path 3144" d="M1965.014,1039.052a19.963,19.963,0,0,1-.589-2.931h-4.043v2.995Z" transform="translate(-1944.211 -1018.303)" fill="#fccb95"/>
      <path id="Path_3145" data-name="Path 3145" d="M1901.588,968.534a7.368,7.368,0,0,0-2.545,4.941S1902.337,974.224,1901.588,968.534Z" transform="translate(-1899.043 -968.534)" fill="#fcc072"/>
      <path id="Path_3146" data-name="Path 3146" d="M1940.243,1133.81l-1.8,15.722,8.086,23.658h-4.043l-9.364-20.147a5.569,5.569,0,0,1-.519-2.346l-.748-6.107-1.647,6.888.9,21.711h-3.594l-4.342-23.67a6.387,6.387,0,0,1,.236-3.209l4.256-12.5Z" transform="translate(-1916.735 -1090.238)" fill="#3c415e"/>
      <path id="Path_3147" data-name="Path 3147" d="M1938.836,1065.221h-15.123l1.647-16.471-6.439-2.845,4.043-5.24,10.309,1.429a5.772,5.772,0,0,1,4.976,5.525Z" transform="translate(-1913.681 -1021.649)" fill="#fb7668"/>
      <path id="Path_3148" data-name="Path 3148" d="M1956.493,1012.66a11.754,11.754,0,0,1-2.845-1.947c-.749-.9,1.048-5.241,2.845-6.289s4.792-1.2,4.792.6,1.5,4.792,0,5.54S1959.338,1012.81,1956.493,1012.66Z" transform="translate(-1939.124 -994.393)" fill="#ffe1bd"/>
      <path id="Path_3149" data-name="Path 3149" d="M1965.017,993.266s-2.4-2.995-.9-5.989a3.614,3.614,0,0,0,2.545,1.946c1.947.449,4.172.879,4.941,2.995,1.2,3.294,1.269,7.048-5.241,7.936,0,0,2.7-2.4,2.1-4.043S1966.065,994.165,1965.017,993.266Z" transform="translate(-1946.6 -982.336)" fill="#3c415e"/>
      <path id="Path_3150" data-name="Path 3150" d="M1916.113,978.566l-14.524-10.032s-.749,4.043-2.545,4.941Z" transform="translate(-1899.043 -968.534)" fill="#ffd200"/>
      <g id="Group_984" data-name="Group 984" transform="translate(1.772 2.995)">
        <path id="Path_3151" data-name="Path 3151" d="M1905.771,997.064l1.165-14.122-.005,0c0-.022.007-.044.011-.066l.008-.093.007,0c.409-2.36,1.389-2.892,1.829-2.892a1.756,1.756,0,0,1,1.347,1.5c.14.841-.84,2.295-.965,2.477l.067,11.3,4.043.749-3.594,4.642-2-.668A2.8,2.8,0,0,1,1905.771,997.064Z" transform="translate(-1905.766 -979.893)" fill="#ffe1bd"/>
        <path id="Path_3152" data-name="Path 3152" d="M1937.1,998.914l.671,11.118-3.516-.487.552-11.141Z" transform="translate(-1926.745 -993.524)" fill="#ffe1bd"/>
      </g>
      <path id="Path_3153" data-name="Path 3153" d="M1988.873,1283.183h-4.043l-4,3.136a.675.675,0,0,0,.416,1.206h6.953a.675.675,0,0,0,.675-.675Z" transform="translate(-1959.076 -1200.231)" fill="#3c415e"/>
      <path id="Path_3154" data-name="Path 3154" d="M1930.424,1283.183h-3.594l-4.406,3.116a.675.675,0,0,0,.39,1.226h6.934a.675.675,0,0,0,.675-.675Z" transform="translate(-1916.049 -1200.231)" fill="#3c415e"/>
    </g>
    <path id="Path_3155" data-name="Path 3155" d="M1015.192,849.659l2.477-1.844a15.359,15.359,0,0,0-4.727-4.726l-1.844,2.476a12.135,12.135,0,0,0-3.448-1.429l.447-3.059a14.989,14.989,0,0,0-6.686,0l.448,3.059a12.132,12.132,0,0,0-3.448,1.429l-1.844-2.476a15.356,15.356,0,0,0-4.727,4.727l2.476,1.844a12.135,12.135,0,0,0-1.429,3.448l-3.059-.447a14.991,14.991,0,0,0,0,6.686l3.059-.448a12.133,12.133,0,0,0,1.429,3.448l-2.476,1.844a15.36,15.36,0,0,0,4.727,4.727l1.844-2.477a12.124,12.124,0,0,0,3.448,1.43l-.448,3.059a14.991,14.991,0,0,0,6.686,0l-.447-3.059a12.127,12.127,0,0,0,3.448-1.43l1.844,2.477a15.358,15.358,0,0,0,4.727-4.727l-2.477-1.844a12.131,12.131,0,0,0,1.429-3.448l3.059.448a14.992,14.992,0,0,0,0-6.686l-3.059.448A12.133,12.133,0,0,0,1015.192,849.659Zm-10.438,14.466a8.123,8.123,0,1,1,8.123-8.122A8.123,8.123,0,0,1,1004.754,864.125Z" transform="translate(322.605 6848.4)" fill="#738598" opacity="0.1"/>
    <g id="Group_987" data-name="Group 987" transform="translate(1346.332 7603.987)" opacity="0.1">
      <g id="Group_986" data-name="Group 986" transform="translate(0 0)">
        <rect id="Rectangle_728" data-name="Rectangle 728" width="31.545" height="20.509" transform="translate(6.485 7.315) rotate(18.432)" fill="#3c415e"/>
        <path id="Path_3156" data-name="Path 3156" d="M1173.986,535.146l-29.927-9.974,19.064-7.315Z" transform="translate(-1137.574 -517.856)" fill="#3c415e"/>
        <rect id="Rectangle_729" data-name="Rectangle 729" width="25.253" height="21.331" transform="translate(9.892 6.772) rotate(18.433)" fill="#fff"/>
        <path id="Path_3157" data-name="Path 3157" d="M1125.946,545.6l-6.485,19.457,17.977-4.054Z" transform="translate(-1119.461 -538.289)" fill="#738598"/>
        <path id="Path_3158" data-name="Path 3158" d="M1206.085,583.438l-6.485,19.457-11.95-14.028Z" transform="translate(-1169.674 -566.148)" fill="#738598"/>
        <path id="Path_3159" data-name="Path 3159" d="M1149.389,608.949l-29.927-9.974,19.064-7.315Z" transform="translate(-1119.461 -572.202)" fill="#3c415e"/>
      </g>
      <path id="Path_3160" data-name="Path 3160" d="M1119.461,598.413l4.737-1.9,4.75-1.871,4.758-1.85,4.761-1.843.125-.049.071.114,2.7,4.33c.9,1.445,1.808,2.883,2.7,4.334l2.677,4.347,2.648,4.365-2.784-4.28-2.754-4.3c-.922-1.43-1.824-2.873-2.735-4.31l-2.728-4.315.2.065-4.771,1.815-4.774,1.807-4.782,1.786Z" transform="translate(-1119.461 -571.641)" fill="#3c415e"/>
    </g>
    <g id="Group_990" data-name="Group 990" transform="translate(1523.152 7603.563)" opacity="0.1">
      <g id="Group_988" data-name="Group 988" transform="translate(0 23.659)">
        <path id="Path_3161" data-name="Path 3161" d="M1794.485,608.153a2.161,2.161,0,1,1-2.159-2.16A2.16,2.16,0,0,1,1794.485,608.153Z" transform="translate(-1790.164 -605.993)" fill="#738598"/>
      </g>
      <g id="Group_989" data-name="Group 989" transform="translate(0 0)">
        <path id="Path_3162" data-name="Path 3162" d="M1790.164,579.875a9.041,9.041,0,0,1,9.03,9.03h2.957a12,12,0,0,0-11.987-11.986Z" transform="translate(-1790.164 -560.925)" fill="#738598"/>
        <path id="Path_3163" data-name="Path 3163" d="M1790.164,549.488a16.749,16.749,0,0,1,16.73,16.729h3.379a20.131,20.131,0,0,0-20.109-20.108Z" transform="translate(-1790.164 -538.237)" fill="#738598"/>
        <path id="Path_3164" data-name="Path 3164" d="M1790.164,519.888a24.37,24.37,0,0,1,24.344,24.342h3.638a28.012,28.012,0,0,0-27.981-27.98Z" transform="translate(-1790.164 -516.25)" fill="#738598"/>
      </g>
    </g>
    <g id="Group_993" data-name="Group 993" transform="translate(1570.357 7657.575)" opacity="0.1">
      <g id="Group_991" data-name="Group 991" transform="translate(7.513 17.391)">
        <path id="Path_3165" data-name="Path 3165" d="M2026.811,804.829v-6.385H2023.9a11.967,11.967,0,0,0-1.153-2.775l2.061-2.061-4.515-4.516-2.062,2.062a11.983,11.983,0,0,0-2.774-1.153V787.09h-6.386V790a11.958,11.958,0,0,0-2.775,1.153l-2.061-2.062-4.516,4.516,2.061,2.061a12,12,0,0,0-1.153,2.775h-2.911v6.385h2.911a11.985,11.985,0,0,0,1.153,2.775l-2.061,2.062,4.516,4.516,2.061-2.062a11.971,11.971,0,0,0,2.775,1.154v2.911h6.386v-2.911a12,12,0,0,0,2.774-1.154l2.062,2.062,4.515-4.516-2.061-2.062a11.953,11.953,0,0,0,1.153-2.775Zm-14.547,2.49a5.682,5.682,0,1,1,5.682-5.683A5.689,5.689,0,0,1,2012.264,807.319Z" transform="translate(-1997.717 -787.09)" fill="#738598"/>
      </g>
      <g id="Group_992" data-name="Group 992" transform="translate(0 0)">
        <path id="Path_3166" data-name="Path 3166" d="M1980.825,740.155v-1.9a7.9,7.9,0,0,0,1.815-.755l1.347,1.348,2.954-2.953-1.348-1.348a7.883,7.883,0,0,0,.754-1.814h1.9v-4.178h-1.9a7.869,7.869,0,0,0-.754-1.814l1.348-1.349-2.954-2.953-1.348,1.348a7.86,7.86,0,0,0-1.814-.754v-1.9h-4.177v1.9a7.86,7.86,0,0,0-1.815.754l-1.348-1.348-2.954,2.953,1.348,1.348a7.878,7.878,0,0,0-.754,1.815h-1.9v4.178h1.9a7.871,7.871,0,0,0,.754,1.814l-1.348,1.348,2.954,2.953,1.348-1.348a7.873,7.873,0,0,0,1.815.755v1.9Zm-5.805-9.515a3.717,3.717,0,1,1,3.717,3.716A3.721,3.721,0,0,1,1975.019,730.64Z" transform="translate(-1969.221 -721.125)" fill="#738598"/>
      </g>
    </g>
    <g id="Group_995" data-name="Group 995" transform="translate(1577.079 7599.183)" opacity="0.1">
      <path id="Path_3167" data-name="Path 3167" d="M1994.716,512.064l3.222,10.049h18.15l-3.223-10.049Z" transform="translate(-1994.716 -508.787)" fill="#738598"/>
      <g id="Group_994" data-name="Group 994" transform="translate(3.222)">
        <path id="Path_3168" data-name="Path 3168" d="M2021.866,502.312h.438l.133.418,2.652,8.267V500.945h-14.341l-.776-1.309h-3.033v2.676Z" transform="translate(-2006.938 -499.636)" fill="#738598"/>
      </g>
    </g>
    <path id="Path_3169" data-name="Path 3169" d="M1486.417,274.236l-16.5-25.643L1453.7,274.236h9.14v21.207h14.443V274.236Z" transform="translate(-19.249 7284.406)" fill="#738598" opacity="0.1"/>
    <g id="Group_996" data-name="Group 996" transform="translate(1507.416 7547.855)" opacity="0.1">
      <path id="Path_3170" data-name="Path 3170" d="M1730.475,321.507l19.182,9.731,16.578-26.3Z" transform="translate(-1730.475 -304.941)" fill="#738598"/>
      <path id="Path_3171" data-name="Path 3171" d="M1786.867,304.941l-28.373,20.313V336l4.886-8.263Z" transform="translate(-1751.107 -304.941)" fill="#04659b"/>
      <path id="Path_3172" data-name="Path 3172" d="M1786.867,304.941l-28.373,20.313V336l4.886-8.263Z" transform="translate(-1751.107 -304.941)" fill="#3c415e"/>
    </g>
    <path id="Path_3173" data-name="Path 3173" d="M-9985.7,6833.453s-61.946-58.715-9.157-109.887,46.032-151.661-43.054-86.607" transform="translate(11444 832)" fill="none" stroke="#707070" stroke-width="3" stroke-dasharray="5" opacity="0.59"/>
    <g id="Group_1000" data-name="Group 1000" transform="translate(251.654 6851.729)" opacity="0.7">
      <g id="Group_999" data-name="Group 999" transform="translate(1119.461 517.856)">
        <rect id="Rectangle_730" data-name="Rectangle 730" width="31.088" height="20.212" transform="translate(6.391 7.209) rotate(18.432)" fill="#3c415e"/>
        <path id="Path_3174" data-name="Path 3174" d="M1173.552,534.9l-29.493-9.83,18.787-7.209Z" transform="translate(-1137.668 -517.856)" fill="#3c415e"/>
        <rect id="Rectangle_731" data-name="Rectangle 731" width="24.887" height="21.022" transform="translate(9.748 6.674) rotate(18.433)" fill="#fff"/>
        <path id="Path_3175" data-name="Path 3175" d="M1125.852,545.6l-6.391,19.175,17.716-4Z" transform="translate(-1119.461 -538.395)" fill="#738598"/>
        <path id="Path_3176" data-name="Path 3176" d="M1205.818,583.438l-6.391,19.175-11.777-13.825Z" transform="translate(-1169.934 -566.399)" fill="#738598"/>
        <path id="Path_3177" data-name="Path 3177" d="M1148.955,608.7l-29.493-9.83,18.787-7.209Z" transform="translate(-1119.461 -572.484)" fill="#3c415e"/>
      </g>
      <path id="Path_3178" data-name="Path 3178" d="M1119.461,598.3l4.669-1.876,4.681-1.844,4.689-1.824,4.692-1.816.124-.048.07.113,2.664,4.267c.886,1.424,1.781,2.841,2.657,4.272l2.639,4.284,2.609,4.3-2.743-4.218-2.715-4.236c-.909-1.409-1.8-2.832-2.7-4.247l-2.688-4.252.194.064-4.7,1.789-4.705,1.781-4.713,1.76Z" transform="translate(0 -54.064)" fill="#3c415e"/>
    </g>
    <g id="Group_1002" data-name="Group 1002" transform="matrix(0.966, -0.259, 0.259, 0.966, 1204.461, 7357.312)" opacity="0.7">
      <path id="Path_3179" data-name="Path 3179" d="M139.432,136.418l-1.5,2.455s-5.685,7.8,6.5,20.062l0,0,.058.056.056.058,0,0c12.266,12.181,20.061,6.5,20.061,6.5l2.455-1.5a2.894,2.894,0,0,0,.31-4.361l-2.928-2.928a2.894,2.894,0,0,0-3.783-.268l-3.116,1.992s-2.094,1.236-7.95-4.6c-5.833-5.856-4.6-7.95-4.6-7.95l1.992-3.115a2.9,2.9,0,0,0-.268-3.783l-2.928-2.928A2.894,2.894,0,0,0,139.432,136.418Z" fill="#001746" stroke="#001746" stroke-linecap="round" stroke-linejoin="round" stroke-width="1.347"/>
      <g id="Group_1001" data-name="Group 1001" transform="translate(150.027 135.49)">
        <path id="Path_3180" data-name="Path 3180" d="M157.585,144.016a4.669,4.669,0,0,1,6.6,6.6" transform="translate(-153.351 -136.661)" fill="none" stroke="#001746" stroke-linecap="round" stroke-linejoin="round" stroke-width="1.347"/>
        <path id="Path_3181" data-name="Path 3181" d="M155.093,141.361a7.635,7.635,0,1,1,10.8,10.8" transform="translate(-152.956 -136.103)" fill="none" stroke="#001746" stroke-linecap="round" stroke-linejoin="round" stroke-width="1.347"/>
        <path id="Path_3182" data-name="Path 3182" d="M152.554,138.655a10.656,10.656,0,1,1,15.07,15.07" transform="translate(-152.554 -135.534)" fill="none" stroke="#001746" stroke-linecap="round" stroke-linejoin="round" stroke-width="1.347"/>
      </g>
    </g>
    <path id="Path_3183" data-name="Path 3183" d="M-9973.088,6834.453s153.3-152.367,99.438-158.831-72.18-69.487-57.1-94.266,12.281-92.756-97.66-26.932" transform="translate(11443 831)" fill="none" stroke="#707070" stroke-width="3" stroke-dasharray="5" opacity="0.59"/>
  </g>
</svg>
