<svg xmlns="http://www.w3.org/2000/svg" width="419.262" height="376.524" viewBox="0 0 419.262 376.524">
  <g id="Group_721" data-name="Group 721" transform="translate(-564.895 17.084)">
    <g id="Group_720" data-name="Group 720" transform="translate(564.895 -17.084)">
      <g id="Group_587" data-name="Group 587" transform="translate(276.675 281.759)">
        <g id="Group_582" data-name="Group 582" transform="translate(69.525 84.127)">
          <g id="Group_581" data-name="Group 581">
            <path id="Path_2460" data-name="Path 2460" d="M632.13,59.3a5.327,5.327,0,1,1,5.329,5.309A5.32,5.32,0,0,1,632.13,59.3Z" transform="translate(-632.13 -53.974)" fill="gray"/>
            <rect id="Rectangle_640" data-name="Rectangle 640" width="1.291" height="10.638" transform="translate(5.343 0.001)" fill="gray"/>
          </g>
          <path id="Path_2461" data-name="Path 2461" d="M632.386,59.3a5.322,5.322,0,1,1,5.314,5.309A5.31,5.31,0,0,1,632.386,59.3Z" transform="translate(-631.068 -53.974)" fill="#b3b3b3"/>
        </g>
        <g id="Group_584" data-name="Group 584" transform="translate(28.61 84.127)">
          <g id="Group_583" data-name="Group 583">
            <path id="Path_2462" data-name="Path 2462" d="M624.184,59.3a5.324,5.324,0,1,1,5.319,5.309A5.315,5.315,0,0,1,624.184,59.3Z" transform="translate(-624.184 -53.974)" fill="gray"/>
            <rect id="Rectangle_641" data-name="Rectangle 641" width="1.297" height="10.638" transform="translate(5.335 0.001)" fill="gray"/>
          </g>
          <path id="Path_2463" data-name="Path 2463" d="M624.437,59.3a5.329,5.329,0,1,1,5.329,5.309A5.323,5.323,0,0,1,624.437,59.3Z" transform="translate(-623.134 -53.974)" fill="#b3b3b3"/>
        </g>
        <g id="Group_586" data-name="Group 586" transform="translate(1.515 84.127)">
          <g id="Group_585" data-name="Group 585">
            <path id="Path_2464" data-name="Path 2464" d="M618.922,59.3a5.327,5.327,0,1,1,5.329,5.309A5.32,5.32,0,0,1,618.922,59.3Z" transform="translate(-618.922 -53.974)" fill="#5c5c5c"/>
            <rect id="Rectangle_642" data-name="Rectangle 642" width="1.293" height="10.638" transform="translate(5.348 0.001)" fill="#5c5c5c"/>
          </g>
          <path id="Path_2465" data-name="Path 2465" d="M629.862,59.3a5.324,5.324,0,1,0-5.329,5.309A5.323,5.323,0,0,0,629.862,59.3Z" transform="translate(-617.71 -53.974)" fill="gray"/>
        </g>
        <rect id="Rectangle_643" data-name="Rectangle 643" width="8.964" height="83.835" transform="translate(33.18 0)" fill="#1c2842"/>
        <rect id="Rectangle_644" data-name="Rectangle 644" width="8.963" height="83.835" transform="translate(40.959 0)" fill="#141b2f"/>
        <rect id="Rectangle_645" data-name="Rectangle 645" width="56.189" height="5.623" transform="translate(0 83.835)" fill="#1c2842"/>
        <rect id="Rectangle_646" data-name="Rectangle 646" width="56.191" height="5.623" transform="translate(26.922 83.835)" fill="#141b2f"/>
      </g>
      <g id="Group_673" data-name="Group 673" transform="translate(0 104.944)">
        <g id="Group_669" data-name="Group 669">
          <g id="Group_596" data-name="Group 596" transform="translate(27.129 24.133)">
            <g id="Group_595" data-name="Group 595">
              <g id="Group_589" data-name="Group 589" transform="translate(86.64 231.155)">
                <g id="Group_588" data-name="Group 588">
                  <path id="Path_2466" data-name="Path 2466" d="M586.99,57.69a4.812,4.812,0,1,1,4.814,4.794A4.807,4.807,0,0,1,586.99,57.69Z" transform="translate(-586.99 -52.876)" fill="gray"/>
                  <rect id="Rectangle_647" data-name="Rectangle 647" width="1.166" height="9.608" transform="translate(4.824 0.001)" fill="gray"/>
                </g>
                <path id="Path_2467" data-name="Path 2467" d="M587.221,57.69a4.807,4.807,0,1,1,4.8,4.794A4.8,4.8,0,0,1,587.221,57.69Z" transform="translate(-586.031 -52.876)" fill="#b3b3b3"/>
              </g>
              <g id="Group_591" data-name="Group 591" transform="translate(49.685 231.155)">
                <g id="Group_590" data-name="Group 590">
                  <path id="Path_2468" data-name="Path 2468" d="M579.813,57.69a4.809,4.809,0,1,1,4.8,4.794A4.8,4.8,0,0,1,579.813,57.69Z" transform="translate(-579.813 -52.876)" fill="gray"/>
                  <rect id="Rectangle_648" data-name="Rectangle 648" width="1.171" height="9.608" transform="translate(4.817 0.001)" fill="gray"/>
                </g>
                <path id="Path_2469" data-name="Path 2469" d="M580.042,57.69a4.812,4.812,0,1,1,4.809,4.794A4.806,4.806,0,0,1,580.042,57.69Z" transform="translate(-578.863 -52.876)" fill="#b3b3b3"/>
              </g>
              <g id="Group_593" data-name="Group 593" transform="translate(25.211 231.155)">
                <g id="Group_592" data-name="Group 592">
                  <path id="Path_2470" data-name="Path 2470" d="M575.06,57.69a4.812,4.812,0,1,1,4.814,4.794A4.807,4.807,0,0,1,575.06,57.69Z" transform="translate(-575.06 -52.876)" fill="#5c5c5c"/>
                  <rect id="Rectangle_649" data-name="Rectangle 649" width="1.168" height="9.608" transform="translate(4.831 0.001)" fill="#5c5c5c"/>
                </g>
                <path id="Path_2471" data-name="Path 2471" d="M584.937,57.69a4.807,4.807,0,1,0-4.809,4.794A4.806,4.806,0,0,0,584.937,57.69Z" transform="translate(-573.965 -52.876)" fill="gray"/>
              </g>
              <rect id="Rectangle_650" data-name="Rectangle 650" width="8.096" height="75.721" transform="translate(53.812 155.171)" fill="#141b2f"/>
              <rect id="Rectangle_651" data-name="Rectangle 651" width="8.095" height="75.721" transform="translate(60.838 155.171)" fill="#1c2842"/>
              <rect id="Rectangle_652" data-name="Rectangle 652" width="50.75" height="5.079" transform="translate(23.843 230.891)" fill="#141b2f"/>
              <rect id="Rectangle_653" data-name="Rectangle 653" width="50.752" height="5.079" transform="translate(48.16 230.891)" fill="#1c2842"/>
              <g id="Group_594" data-name="Group 594">
                <path id="Path_2472" data-name="Path 2472" d="M658.4,136.439c-.623,10.865-8.192,28.109-20.983,28.552H605.225c-10.849-.036-20.823-9.449-21.039-20.452-2.338-37.872-8.738-75.213-13.892-112.76-1.71-13.8,13.835-22.054,25.426-22.744,14.675-.814,29.3-1.153,44-1.025,11.987.149,27.373,8.12,26.286,22.141C662.946,65.552,659.81,100.921,658.4,136.439Z" transform="translate(-570.164 -7.984)" fill="#ff4140"/>
                <path id="Path_2473" data-name="Path 2473" d="M675.619,138.374c-2.672-.01-15.107-.01-17.764-.015.087-.644.154-1.292.185-1.931,1.854-35.405,5.927-70.579,9.686-105.819,1.349-13.959-14.067-22.043-25.931-22.393-14.691-.376-29.324-.283-44.01.283-11.75.5-27.208,8.666-25.684,22.563,4.243,35.091,9.073,70.079,11.3,105.382a23.942,23.942,0,0,0,.309,2.544l-.17-.041c.876,7.78,3.239,16.652,9.181,21.868,2.539,2.224,6.22,4.155,8.692,4.155h73.467a6.249,6.249,0,0,0,6.22-6.158c.1-5.716.2-8.573.5-14.278A5.857,5.857,0,0,0,675.619,138.374Z" transform="translate(-562.559 -7.962)" fill="#bc3122"/>
              </g>
            </g>
          </g>
          <g id="DOCTOR" transform="translate(65.218)">
            <g id="Group_608" data-name="Group 608" transform="translate(1.777 124.063)">
              <path id="Path_2474" data-name="Path 2474" d="M619.933,56.653V48.168a20.839,20.839,0,0,0-20.776-20.777H598.8a20.84,20.84,0,0,0-20.782,20.777l-.108,6.133v2.353Z" transform="translate(-577.906 -27.391)" fill="#141b2f"/>
              <g id="Group_607" data-name="Group 607" transform="translate(0 26.896)">
                <g id="Group_601" data-name="Group 601" transform="translate(34.947)">
                  <g id="Group_600" data-name="Group 600" transform="translate(54.354 94.009)">
                    <rect id="Rectangle_654" data-name="Rectangle 654" width="7.395" height="6.218" transform="matrix(1, -0.023, 0.023, 1, 1.793, 0.172)" fill="#cf9b72"/>
                    <rect id="Rectangle_655" data-name="Rectangle 655" width="8.693" height="9.003" transform="translate(1.225 4.198) rotate(-1.413)" fill="#edd6b6"/>
                    <g id="Group_599" data-name="Group 599" transform="translate(0 5.217)">
                      <g id="Group_598" data-name="Group 598">
                        <g id="Group_597" data-name="Group 597">
                          <path id="Path_2475" data-name="Path 2475" d="M599.889,51.885a3.19,3.19,0,0,0-3.2,3.2v2.93a3.2,3.2,0,0,0,3.208,3.2h0a3.2,3.2,0,0,0,3.2-3.2V55.062a3.182,3.182,0,0,0-3.208-3.177Z" transform="translate(-589.287 -51.885)" fill="#141b2f"/>
                          <path id="Path_2476" data-name="Path 2476" d="M595.254,54.406a1.616,1.616,0,0,0,1.612,1.622c3.028-.005,9.516-.005,9.516-.005l14.927-.01V53.865l-26.059.041Z" transform="translate(-595.249 -43.67)" fill="#141b2f"/>
                          <path id="Path_2477" data-name="Path 2477" d="M621.3,59.818l-26.049.026-.005-2.487v-3.3a1.619,1.619,0,0,1,1.323-1.586v.18a3.038,3.038,0,1,0,6.076.01v-.221l6.411.417v.154a1.743,1.743,0,0,0,.309,1.076,1.514,1.514,0,0,0,.221.227,2.769,2.769,0,0,0,1.344.561c.1.015.216.036.335.057.283.026.608.036.958.046l3.146-.01C618.646,54.972,621.293,56.563,621.3,59.818Z" transform="translate(-595.249 -49.566)" fill="#141b2f"/>
                        </g>
                      </g>
                    </g>
                  </g>
                  <path id="Path_2478" data-name="Path 2478" d="M651.6,94.982c-.968-12.718-1.972-25.874-3.069-38.938l-.021-.268a28.839,28.839,0,0,0-4.649-12.136l-.283-.427A25.408,25.408,0,0,0,629.14,33.29l-2.127-.34c-10.767-.489-30.6-.309-42.32-.278V52.038c7.878,0,15.422-.01,18.784-.041,12.456-.129,8.949-.242,21.42.268a5.611,5.611,0,0,1,2.662,1.9,10.353,10.353,0,0,1,1.663,3.676c1.076,12.935,2.07,25.988,3.038,38.623.484,6.323.973,26.327,1.483,32.826l19.453-.005C652.651,122.3,652.121,101.794,651.6,94.982Z" transform="translate(-584.693 -32.613)" fill="#141b2f"/>
                  <path id="Path_2479" data-name="Path 2479" d="M631.575,52.5c-3.687-7.374-16.209-9.449-17.146-19.845-10.067-.1-21.771-.005-29.736.015V52.04c7.878,0,15.422-.01,18.784-.041,12.456-.129,8.949-.242,21.42.268a5.612,5.612,0,0,1,2.662,1.9,10.353,10.353,0,0,1,1.663,3.676c1.076,12.935,2.07,25.988,3.038,38.623.484,6.323.973,26.327,1.483,32.826l19.453-.005c-.155-1.977-.309-5.051-.458-8.578-3.677-1.22-8.326-1.468-11.591-3.1C627.745,96.543,641.148,73.563,631.575,52.5Z" transform="translate(-584.693 -32.614)" fill="#141b2f" opacity="0.2" style="mix-blend-mode: multiply;isolation: isolate"/>
                </g>
                <g id="Group_606" data-name="Group 606" transform="translate(0 0.013)">
                  <g id="Group_605" data-name="Group 605" transform="translate(60.095 93.996)">
                    <rect id="Rectangle_656" data-name="Rectangle 656" width="7.396" height="6.218" transform="matrix(1, -0.023, 0.023, 1, 1.796, 0.172)" fill="#edb485"/>
                    <rect id="Rectangle_657" data-name="Rectangle 657" width="8.692" height="9.003" transform="matrix(1, -0.025, 0.025, 1, 1.23, 4.198)" fill="#fff"/>
                    <g id="Group_604" data-name="Group 604" transform="translate(0 5.217)">
                      <g id="Group_603" data-name="Group 603">
                        <g id="Group_602" data-name="Group 602">
                          <path id="Path_2480" data-name="Path 2480" d="M594.218,51.885a3.19,3.19,0,0,0-3.2,3.2v2.93a3.2,3.2,0,0,0,3.208,3.2h0a3.2,3.2,0,0,0,3.2-3.2V55.062a3.182,3.182,0,0,0-3.208-3.177Z" transform="translate(-583.611 -51.885)" fill="#141b2f"/>
                          <path id="Path_2481" data-name="Path 2481" d="M589.587,54.406a1.616,1.616,0,0,0,1.612,1.622c3.027-.005,9.515-.005,9.515-.005l14.922-.01V53.865l-26.059.041Z" transform="translate(-589.577 -43.67)" fill="#141b2f"/>
                          <path id="Path_2482" data-name="Path 2482" d="M615.631,59.818l-26.044.026-.01-2.487v-3.3a1.624,1.624,0,0,1,1.328-1.586v.18a3.038,3.038,0,1,0,6.076.01v-.221l6.411.417v.154a1.743,1.743,0,0,0,.309,1.076,1.308,1.308,0,0,0,.221.227,2.769,2.769,0,0,0,1.344.561c.1.015.211.036.329.057.288.026.608.036.963.046l3.146-.01C612.974,54.972,615.626,56.563,615.631,59.818Z" transform="translate(-589.577 -49.566)" fill="#141b2f"/>
                        </g>
                      </g>
                    </g>
                  </g>
                  <path id="Path_2483" data-name="Path 2483" d="M651.178,94.973c-.968-12.718-1.972-25.874-3.063-38.938l-.031-.268a28.759,28.759,0,0,0-4.644-12.131l-.283-.433c-3.254-4.655-7.827-8.6-13.691-9.7a95.965,95.965,0,0,0-14.237-.85h-.479c-1.745-.015-3.548-.026-5.381-.036v.051c-.983,0-1.874-.005-2.646-.015H595.712v-.036H577.906V41.88A10.153,10.153,0,0,0,588.05,52.019s17.471.021,30.745.01c1.452.057,3.265.134,5.68.227a5.612,5.612,0,0,1,2.662,1.9,10.414,10.414,0,0,1,1.658,3.676c1.076,12.935,2.075,25.988,3.043,38.623.479,6.318.978,26.327,1.483,32.82l19.448-.005C652.223,122.294,651.693,101.785,651.178,94.973Z" transform="translate(-577.906 -32.617)" fill="#1c2842"/>
                  <path id="Path_2484" data-name="Path 2484" d="M629.1,54.408c-11.3-13.182-46.636,1.38-47.815-21.791h-3.378V41.88A10.153,10.153,0,0,0,588.05,52.019s17.471.021,30.745.01c1.452.057,3.265.134,5.68.227a5.612,5.612,0,0,1,2.662,1.9,10.414,10.414,0,0,1,1.658,3.676c1.076,12.935,2.075,25.988,3.043,38.623.479,6.318.978,26.327,1.483,32.82l19.448-.005c-.118-1.509-.237-3.676-.35-6.179C620.417,117.948,646.054,71.364,629.1,54.408Z" transform="translate(-577.906 -32.617)" fill="#253759" opacity="0.3" style="mix-blend-mode: multiply;isolation: isolate"/>
                </g>
              </g>
            </g>
            <g id="Group_638" data-name="Group 638">
              <g id="Group_613" data-name="Group 613" transform="translate(39.983 53.904)">
                <g id="Group_612" data-name="Group 612">
                  <g id="Group_610" data-name="Group 610" transform="translate(53.573 4.622)">
                    <rect id="Rectangle_658" data-name="Rectangle 658" width="9.829" height="5.679" transform="translate(1.839 24.902) rotate(-85.965)" fill="#ffcd9c"/>
                    <g id="Group_609" data-name="Group 609">
                      <path id="Path_2485" data-name="Path 2485" d="M597.28,24.5a1.453,1.453,0,0,0,1.035,1.761h0a1.453,1.453,0,0,0,1.756-1.035l2.173-8.362a1.434,1.434,0,0,0-1.035-1.761h0a1.434,1.434,0,0,0-1.751,1.03Z" transform="translate(-589.486 -13.038)" fill="#ffcd9c"/>
                      <path id="Path_2486" data-name="Path 2486" d="M595.938,24.728a1.443,1.443,0,0,0,1.313,1.555h0a1.443,1.443,0,0,0,1.565-1.313l.757-8.6a1.448,1.448,0,0,0-1.3-1.57h0a1.455,1.455,0,0,0-1.565,1.318Z" transform="translate(-594.894 -14.112)" fill="#ffcd9c"/>
                      <path id="Path_2487" data-name="Path 2487" d="M596.634,24.409a1.436,1.436,0,0,0,1.195,1.648h0a1.434,1.434,0,0,0,1.648-1.184l1.4-8.537a1.433,1.433,0,0,0-1.2-1.653h0a1.441,1.441,0,0,0-1.653,1.189Z" transform="translate(-592.053 -14.663)" fill="#ffcd9c"/>
                      <path id="Rectangle_659" data-name="Rectangle 659" d="M.553,0H9.23a.552.552,0,0,1,.552.552V9.224a.553.553,0,0,1-.553.553H.554A.554.554,0,0,1,0,9.223V.553A.553.553,0,0,1,.553,0Z" transform="matrix(0.161, -0.987, 0.987, 0.161, 0, 16.402)" fill="#ffcd9c"/>
                    </g>
                  </g>
                  <g id="Group_611" data-name="Group 611">
                    <path id="Path_2488" data-name="Path 2488" d="M637.806,41.964c-1.55,9.526-7.137,23.068-13.553,27.038a8.659,8.659,0,0,1-.767.422c-1.761.886-4.315,1.5-8.383-1.627-8.991-6.9-18.856-35.508-17.929-47.681a5.9,5.9,0,0,0-11.766-.9c-1.1,14.469,8.959,47.537,22.507,57.938,6.745,5.18,14.15,6.184,20.854,2.827.556-.283,1.107-.587,1.648-.922,11.369-7.039,17.77-25.421,19.042-36.873A79.189,79.189,0,0,0,637.806,41.964Z" transform="translate(-585.326 -13.766)" fill="#141b2f"/>
                    <path id="Path_2489" data-name="Path 2489" d="M607.909,19.567a79.189,79.189,0,0,0-11.652-.221c-.222,1.38-.536,2.837-.917,4.341,3.785.69,7.657,1.287,11.58,1.766A57.077,57.077,0,0,0,607.909,19.567Z" transform="translate(-543.776 8.853)" fill="#141b2f" opacity="0.3" style="mix-blend-mode: multiply;isolation: isolate"/>
                    <path id="Path_2490" data-name="Path 2490" d="M595.945,18.295a29.008,29.008,0,0,1-.427,4.876,79.188,79.188,0,0,1,11.652.221,35.148,35.148,0,0,0,.237-4.212Z" transform="translate(-543.038 5.027)" fill="#fff9ea"/>
                  </g>
                </g>
              </g>
              <g id="Group_635" data-name="Group 635">
                <g id="Body" transform="translate(0 49.988)">
                  <path id="Path_2491" data-name="Path 2491" d="M627.667,20.07a3.327,3.327,0,0,0-1.478-2.25,6.027,6.027,0,0,0-1.823-.9l-1.787-.309-4.655-.891-4.037-.778-1.318-.273L603.837,13l-.077.041L597.7,14.091l-1.051.2-13.815,2.482-1.534.268v2.472h-3.517a3.941,3.941,0,0,0-.149.561,4.044,4.044,0,0,0-.077.736v92.916a3.752,3.752,0,0,0,1.9,3.3,4.671,4.671,0,0,0,1.009.35,3.157,3.157,0,0,0,.582.036h43.16a1.829,1.829,0,0,0,.659-.077,3.42,3.42,0,0,0,2.137-1.359v-.036a2.97,2.97,0,0,0,.5-.973,3.339,3.339,0,0,0,.191-1.241V20.806A4.737,4.737,0,0,0,627.667,20.07Z" transform="translate(-577.561 -13.005)" fill="#e1e7e8"/>
                </g>
                <g id="Head" transform="translate(9.979)">
                  <g id="Group_634" data-name="Group 634">
                    <g id="Group_614" data-name="Group 614" transform="translate(10.103 23.83)">
                      <path id="Path_2492" data-name="Path 2492" d="M596.388,39.916a7.464,7.464,0,0,1-7.466,7.461h0a7.453,7.453,0,0,1-7.461-7.461V15.386a7.456,7.456,0,0,1,7.461-7.461h0a7.467,7.467,0,0,1,7.466,7.461Z" transform="translate(-581.461 -7.925)" fill="#f3ad7a"/>
                      <path id="Path_2493" data-name="Path 2493" d="M588.726,34.01c2.044-1.225,4.892-1.375,7.662-1.864V15.386a7.464,7.464,0,0,0-14.927,0v24.53a7.451,7.451,0,0,0,3.646,6.411C584.072,41.389,584.03,36.832,588.726,34.01Z" transform="translate(-581.461 -7.925)" fill="#f3ad7a" opacity="0.3" style="mix-blend-mode: multiply;isolation: isolate"/>
                    </g>
                    <g id="Group_633" data-name="Group 633">
                      <g id="Group_627" data-name="Group 627">
                        <g id="Group_618" data-name="Group 618">
                          <g id="Group_615" data-name="Group 615" transform="translate(27.387 14.971)">
                            <path id="Path_2494" data-name="Path 2494" d="M591.951,8.02a36.063,36.063,0,0,0-3.641-1.663c-1.385-.577-3,.541-3.414,2.41-.685,4.773,3.275,5.062,4.634,7.059.757,1.112-.381,4.444.968,5.113A1.421,1.421,0,0,0,591.75,21a2.967,2.967,0,0,0,2.425-2.75c0-4.66.185-2.775.185-7.435C594.36,9.456,593.392,8.885,591.951,8.02Z" transform="translate(-584.818 -6.204)" fill="#6e777d"/>
                          </g>
                          <path id="Path_2495" data-name="Path 2495" d="M611.248,34.846a15.384,15.384,0,0,1-15.38,15.391h0a15.391,15.391,0,0,1-15.4-15.391V18.688A15.391,15.391,0,0,1,595.868,3.3h0a15.384,15.384,0,0,1,15.38,15.391Z" transform="translate(-575.483 -3.297)" fill="#ffcd9c"/>
                          <path id="Path_2496" data-name="Path 2496" d="M587.521,43.154c-6.256-13.079-3.038-28.778,5.747-39.813a15.382,15.382,0,0,0-12.8,15.164V34.663a15.4,15.4,0,0,0,21.456,14.15C596.069,49.781,589.787,48.138,587.521,43.154Z" transform="translate(-575.483 -3.114)" fill="#fec08a" opacity="0.3" style="mix-blend-mode: multiply;isolation: isolate"/>
                          <path id="Path_2497" data-name="Path 2497" d="M586.332,16.047c-1.442,1.035-3.919.051-5.525-2.188s-1.751-4.9-.314-5.937,3.918-.051,5.53,2.194S587.763,15.017,586.332,16.047Z" transform="translate(-579.499 14.193)" fill="#fec08a"/>
                          <path id="Path_2498" data-name="Path 2498" d="M582.948,11.413c-.551.474-1.6.165-2.338-.69s-.9-1.936-.35-2.415,1.6-.165,2.338.69S583.494,10.939,582.948,11.413Z" transform="translate(-577.691 16.573)" fill="#f3ad7a"/>
                          <path id="Path_2499" data-name="Path 2499" d="M582.948,11.413c-.551.474-1.6.165-2.338-.69s-.9-1.936-.35-2.415,1.6-.165,2.338.69S583.494,10.939,582.948,11.413Z" transform="translate(-577.691 16.573)" fill="#f3ad7a"/>
                          <g id="Group_616" data-name="Group 616" transform="translate(2.424 14.971)">
                            <path id="Path_2500" data-name="Path 2500" d="M587.1,8.02a36.62,36.62,0,0,0-3.64-1.663c-1.385-.577-3,.541-3.414,2.41-.685,4.773,3.275,5.062,4.634,7.059.757,1.112-.381,4.444.968,5.113A1.421,1.421,0,0,0,586.9,21a2.967,2.967,0,0,0,2.425-2.75c0-4.66.185-2.775.185-7.435C589.513,9.456,588.544,8.885,587.1,8.02Z" transform="translate(-579.97 -6.204)" fill="#6e777d"/>
                          </g>
                          <g id="Group_617" data-name="Group 617" transform="translate(2.424 14.989)">
                            <path id="Path_2501" data-name="Path 2501" d="M587.262,17.052c-1.838-3.676-7.5-6.508-4.814-10.844a3.093,3.093,0,0,0-2.4,2.544c-.685,4.773,3.275,5.062,4.634,7.059.757,1.112-.381,4.444.968,5.113a1.421,1.421,0,0,0,1.251.062,2.967,2.967,0,0,0,2.425-2.75v-.2A1.658,1.658,0,0,1,587.262,17.052Z" transform="translate(-579.97 -6.208)" fill="#3d414f"/>
                          </g>
                        </g>
                        <g id="Group_626" data-name="Group 626" transform="translate(11.967 18.125)">
                          <path id="Path_2502" data-name="Path 2502" d="M593.639,10.462a10.734,10.734,0,0,1-.149,1.823c-.546,1.581-2.626,2.755-5.113,2.755s-4.573-1.174-5.123-2.755a11.867,11.867,0,0,1-.139-1.823Z" transform="translate(-576.467 8.306)" fill="#2a2626"/>
                          <g id="Group_625" data-name="Group 625">
                            <g id="Group_619" data-name="Group 619" transform="translate(4.052 3.532)">
                              <path id="Path_2503" data-name="Path 2503" d="M586.4,9.892a1.946,1.946,0,1,1-3.79,0,1.946,1.946,0,1,1,3.79,0Z" transform="translate(-582.61 -7.503)" fill="#2a2626"/>
                              <path id="Path_2504" data-name="Path 2504" d="M584.223,8.566a.793.793,0,1,1-1.545,0,.794.794,0,1,1,1.545,0Z" transform="translate(-582.328 -7.15)" fill="#fefefe"/>
                            </g>
                            <path id="Path_2505" data-name="Path 2505" d="M592.8,10.462a.851.851,0,0,1-.082.319c-.5.726-2.425,1.267-4.712,1.267s-4.207-.541-4.717-1.267a.961.961,0,0,1-.082-.319Z" transform="translate(-576.094 8.306)" fill="#fefefe"/>
                            <g id="Group_620" data-name="Group 620" transform="translate(17.254 3.532)">
                              <path id="Path_2506" data-name="Path 2506" d="M588.953,9.892a1.942,1.942,0,1,1-3.78,0,1.942,1.942,0,1,1,3.78,0Z" transform="translate(-585.174 -7.503)" fill="#2a2626"/>
                              <path id="Path_2507" data-name="Path 2507" d="M586.786,8.566a.793.793,0,1,1-1.545,0,.794.794,0,1,1,1.545,0Z" transform="translate(-584.896 -7.15)" fill="#fefefe"/>
                            </g>
                            <path id="Path_2508" data-name="Path 2508" d="M587.7,11.942c-.268.978-1.8,1.406-3.409.958s-2.7-1.6-2.43-2.58,1.8-1.406,3.414-.958S587.976,10.964,587.7,11.942Z" transform="translate(-581.823 3.006)" fill="#f48fb7" opacity="0.1"/>
                            <path id="Path_2509" data-name="Path 2509" d="M585.107,11.942c.273.978,1.8,1.406,3.414.958s2.7-1.6,2.431-2.58-1.8-1.406-3.414-.958S584.84,10.964,585.107,11.942Z" transform="translate(-568.363 3.006)" fill="#f48fb7" opacity="0.1"/>
                            <g id="Group_621" data-name="Group 621" transform="translate(1.802)">
                              <path id="Path_2510" data-name="Path 2510" d="M588.722,9.8a15.669,15.669,0,0,0-4.856,0A1.491,1.491,0,0,1,582.2,8.666h0a1.432,1.432,0,0,1,1.308-1.632,18.083,18.083,0,0,1,5.577,0,1.432,1.432,0,0,1,1.308,1.632h0A1.491,1.491,0,0,1,588.722,9.8Z" transform="translate(-582.173 -6.817)" fill="#6e777d"/>
                            </g>
                            <g id="Group_622" data-name="Group 622" transform="translate(15.021)">
                              <path id="Path_2511" data-name="Path 2511" d="M591.289,9.8a15.67,15.67,0,0,0-4.856,0,1.494,1.494,0,0,1-1.668-1.133h0a1.436,1.436,0,0,1,1.308-1.632,18.081,18.081,0,0,1,5.576,0,1.436,1.436,0,0,1,1.313,1.632h0A1.5,1.5,0,0,1,591.289,9.8Z" transform="translate(-584.74 -6.817)" fill="#6e777d"/>
                            </g>
                            <g id="Group_623" data-name="Group 623" transform="translate(2.425 14.938)">
                              <path id="Path_2512" data-name="Path 2512" d="M582.294,14.831l8.764-5.046,1.236-.036,1.23-.031,9.021,4.557c-1.123,1.045-7.713-.227-10.154-.747C589.992,14.172,583.478,15.8,582.294,14.831Z" transform="translate(-582.294 -9.718)" fill="#6e777d"/>
                            </g>
                            <g id="Group_624" data-name="Group 624" transform="translate(10.009 5.921)">
                              <path id="Path_2513" data-name="Path 2513" d="M586.326,17.936h0a2.529,2.529,0,0,1-2.559-2.276c.036-2.168.535-3.254.571-5.422a2.064,2.064,0,0,1,1.987-2.271h0a2.062,2.062,0,0,1,1.988,2.271c.036,2.168.536,3.254.571,5.422A2.529,2.529,0,0,1,586.326,17.936Z" transform="translate(-583.767 -7.967)" fill="#f3ad7a"/>
                            </g>
                            <path id="Path_2514" data-name="Path 2514" d="M585.916,10.382c0,.711-.355,1.287-.793,1.287s-.8-.577-.8-1.287.355-1.282.8-1.282S585.916,9.677,585.916,10.382Z" transform="translate(-571.442 2.655)" fill="#ffe9d4" opacity="0.3"/>
                          </g>
                        </g>
                      </g>
                      <g id="Group_632" data-name="Group 632" transform="translate(7.943 18.439)">
                        <g id="Group_631" data-name="Group 631">
                          <g id="Group_628" data-name="Group 628" transform="translate(19.218)">
                            <path id="Path_2515" data-name="Path 2515" d="M596.283,17.81h-.072l-9.474-.366a1.841,1.841,0,0,1-1.766-1.776l-.2-6.9a1.812,1.812,0,0,1,.535-1.349,1.792,1.792,0,0,1,1.344-.536l8.769.237a1.821,1.821,0,0,1,1.766,1.6l.911,7.029a1.859,1.859,0,0,1-.464,1.473A1.837,1.837,0,0,1,596.283,17.81Zm-9.675-9.938a.844.844,0,0,0-.839.86l.2,6.9a.837.837,0,0,0,.8.808l9.48.366a.731.731,0,0,0,.649-.273.832.832,0,0,0,.211-.669L596.2,8.84a.83.83,0,0,0-.8-.731l-8.769-.237Z" transform="translate(-584.774 -6.878)" fill="#362825"/>
                          </g>
                          <g id="Group_629" data-name="Group 629" transform="translate(0 0.036)">
                            <path id="Path_2516" data-name="Path 2516" d="M593.3,17.693h-.026l-10.525-.082a1.727,1.727,0,0,1-1.246-.551,1.748,1.748,0,0,1-.464-1.287l.448-7.25A1.73,1.73,0,0,1,583.217,6.9h.015l10.278-.01a1.732,1.732,0,0,1,1.725,1.776l-.2,7.343A1.747,1.747,0,0,1,593.3,17.693Zm-10.082-9.8a.734.734,0,0,0-.736.69l-.443,7.25a.731.731,0,0,0,.721.778l10.53.082h.005a.74.74,0,0,0,.741-.716l.2-7.343a.73.73,0,0,0-.731-.752l-10.278.01Z" transform="translate(-581.041 -6.885)" fill="#362825"/>
                          </g>
                          <g id="Group_630" data-name="Group 630" transform="translate(13.551 6.268)">
                            <path id="Path_2517" data-name="Path 2517" d="M589.541,9.217l-5.867-.125.019-1,5.868.125Z" transform="translate(-583.673 -8.095)" fill="#362825"/>
                          </g>
                        </g>
                        <path id="Path_2518" data-name="Path 2518" d="M585.807,7.071a.844.844,0,0,0-.839.86l.2,6.9a.837.837,0,0,0,.8.808l9.48.366a.731.731,0,0,0,.649-.273.832.832,0,0,0,.211-.669L595.4,8.039a.83.83,0,0,0-.8-.731l-8.769-.237Z" transform="translate(-564.755 -6.077)" fill="#fff" opacity="0.3"/>
                        <path id="Path_2519" data-name="Path 2519" d="M582.417,7.089a.734.734,0,0,0-.736.69l-.443,7.25a.731.731,0,0,0,.721.778l10.53.082h.005a.74.74,0,0,0,.741-.716l.2-7.343a.73.73,0,0,0-.731-.752l-10.277.01Z" transform="translate(-580.236 -6.044)" fill="#fff" opacity="0.3"/>
                      </g>
                    </g>
                  </g>
                </g>
                <rect id="Rectangle_660" data-name="Rectangle 660" width="13.965" height="7.178" transform="translate(20.17 57.51)" fill="#e1e7e8"/>
                <path id="Path_2520" data-name="Path 2520" d="M584.159,14.975l-2.118,30.1,4.084,28.834,4.97-28.834-2.3-30.1Z" transform="translate(-558.973 45.157)" fill="#ff4040"/>
                <path id="Path_2521" data-name="Path 2521" d="M591.288,17.087a2.629,2.629,0,0,1-2.626,2.636h-4.016a2.629,2.629,0,0,1-2.626-2.636h0a2.626,2.626,0,0,1,2.626-2.621h4.016a2.626,2.626,0,0,1,2.626,2.621Z" transform="translate(-559.06 43.044)" fill="#d62626"/>
                <path id="Path_2522" data-name="Path 2522" d="M627.7,19.773v92.916a3.339,3.339,0,0,1-.191,1.241,2.97,2.97,0,0,1-.5.973v.036a3.42,3.42,0,0,1-2.137,1.359,1.829,1.829,0,0,1-.659.077h-43.16a3.157,3.157,0,0,1-.582-.036,4.671,4.671,0,0,1-1.009-.35,3.752,3.752,0,0,1-1.9-3.3V19.773a4.044,4.044,0,0,1,.077-.736,3.689,3.689,0,0,1,1.241-2.173,6.42,6.42,0,0,1,2.173-.819l1.787-.309,13.815-2.482,8.378,50.235,8.857-49.576,4.037.778,4.655.891,1.787.309a6.027,6.027,0,0,1,1.823.9,3.327,3.327,0,0,1,1.478,2.25A4.737,4.737,0,0,1,627.7,19.773Z" transform="translate(-577.561 38.016)" fill="#1c2842"/>
                <path id="Path_2523" data-name="Path 2523" d="M594.972,17.846a3.327,3.327,0,0,0-1.478-2.25,6.027,6.027,0,0,0-1.823-.9l-1.787-.309-4.418-.85a6.629,6.629,0,0,1,2.22,3.115c5.015,28.85,1.251,57.068,0,85.29a54.3,54.3,0,0,1-2.245,13.238h6.076a1.829,1.829,0,0,0,.659-.077,3.42,3.42,0,0,0,2.137-1.359v-.036a2.971,2.971,0,0,0,.5-.973,3.339,3.339,0,0,0,.191-1.241V18.582A4.737,4.737,0,0,0,594.972,17.846Z" transform="translate(-544.866 39.206)" fill="#1c2842"/>
                <path id="Path_2524" data-name="Path 2524" d="M584.461,17.522c-3.285,6.014-3.229,12.986-6.9,18.83V94.98a3.763,3.763,0,0,0,1.9,3.3,4.671,4.671,0,0,0,1.009.35,3.158,3.158,0,0,0,.582.036h1.565C574.95,73.287,583.436,43.535,584.461,17.522Z" transform="translate(-577.561 55.724)" fill="#1c2842"/>
                <path id="Path_2525" data-name="Path 2525" d="M589.71,13.218c-.536.093-5.335.953-5.335.953l-4.886,19.422,10.221,6.9L587.887,52.8l9.145,10.834Z" transform="translate(-569.561 37.866)" fill="#141b2f"/>
                <path id="Path_2526" data-name="Path 2526" d="M590.434,13.329c.515.088,4.2.808,4.2.808l4.145,19-9.279,6.9,2.657,12.7L582.9,63.178Z" transform="translate(-555.425 38.327)" fill="#141b2f"/>
                <path id="Path_2527" data-name="Path 2527" d="M587.889,27.261a2.824,2.824,0,1,0-2.827,2.822A2.824,2.824,0,0,0,587.889,27.261Z" transform="translate(-558.143 84.423)" fill="#141b2f"/>
                <path id="Path_2528" data-name="Path 2528" d="M587.889,32.791a2.824,2.824,0,1,0-2.827,2.822A2.827,2.827,0,0,0,587.889,32.791Z" transform="translate(-558.143 107.368)" fill="#141b2f"/>
                <path id="Path_2529" data-name="Path 2529" d="M587.889,30.026a2.824,2.824,0,1,0-2.827,2.822A2.827,2.827,0,0,0,587.889,30.026Z" transform="translate(-558.143 95.896)" fill="#141b2f"/>
              </g>
              <g id="Group_637" data-name="Group 637" transform="translate(16.313 51.084)">
                <g id="Group_636" data-name="Group 636">
                  <path id="Path_2530" data-name="Path 2530" d="M591.99,19.644a36.027,36.027,0,0,1-3.671,3.671c-2.127,1.776-4.382,3.573-4.382,3.573l-3.208-12.981,3.836-.69A8.614,8.614,0,0,0,591.99,19.644Z" transform="translate(-580.729 -13.218)" fill="#fff9ea"/>
                  <path id="Path_2531" data-name="Path 2531" d="M582.916,19.192l8.043,7.8,3.182-12.909-3.81-.757A7.778,7.778,0,0,1,582.916,19.192Z" transform="translate(-571.655 -12.766)" fill="#fff9ea"/>
                </g>
              </g>
              <path id="Path_2532" data-name="Path 2532" d="M595.431,16.793a1.57,1.57,0,0,1,2.219-.041l5.026,4.825a4.89,4.89,0,0,1-.911,2.188c-.3.355-1.627.2-1.627.2l-4.66-4.948A1.562,1.562,0,0,1,595.431,16.793Z" transform="translate(-505.254 50.707)" fill="#ffcd9c"/>
            </g>
            <g id="Group_639" data-name="Group 639" transform="translate(90.296 78.674)">
              <rect id="Rectangle_661" data-name="Rectangle 661" width="7.616" height="15.68" rx="0.365" transform="translate(0 7.613) rotate(-88.349)" fill="#141b2f"/>
              <path id="Path_2533" data-name="Path 2533" d="M599.137,20.383a1.925,1.925,0,1,0-1.359,2.363A1.924,1.924,0,0,0,599.137,20.383Z" transform="translate(-594.041 -16.98)" fill="#ffa631"/>
            </g>
          </g>
          <g id="Group_667" data-name="Group 667" transform="translate(97.657 79.718)">
            <g id="Group_665" data-name="Group 665">
              <path id="Rectangle_662" data-name="Rectangle 662" d="M.8,0H80.4a.8.8,0,0,1,.8.8V55.823a.8.8,0,0,1-.8.8H.8a.8.8,0,0,1-.8-.8V.8A.8.8,0,0,1,.8,0Z" transform="translate(3.719 0.001)" fill="#1a222b"/>
              <path id="Path_2534" data-name="Path 2534" d="M587.985,18.779h72.958a4.137,4.137,0,0,1,4.125,4.124V71.274a4.138,4.138,0,0,1-4.125,4.13H587.985a4.141,4.141,0,0,1-4.124-4.13V22.9A4.14,4.14,0,0,1,587.985,18.779Z" transform="translate(-583.861 -18.779)" fill="#ede6d4"/>
              <path id="Path_2535" data-name="Path 2535" d="M588.712,18.779H661.66a4.138,4.138,0,0,1,4.129,4.124V71.274a4.139,4.139,0,0,1-4.129,4.13H588.712a4.139,4.139,0,0,1-4.13-4.13V22.9A4.138,4.138,0,0,1,588.712,18.779Z" transform="translate(-580.865 -18.779)" fill="#fff9ea"/>
              <path id="Path_2536" data-name="Path 2536" d="M661.66,18.779H645.512c-5.458,16.281-9.758,30.6-23.629,39.849-11.7,7.317-24.777,9.15-37.3,10.638v2.008a4.139,4.139,0,0,0,4.13,4.13H661.66a4.139,4.139,0,0,0,4.129-4.13V22.9A4.138,4.138,0,0,0,661.66,18.779Z" transform="translate(-580.865 -18.779)" fill="#ede6d4" opacity="0.4" style="mix-blend-mode: multiply;isolation: isolate"/>
              <path id="Path_2537" data-name="Path 2537" d="M596.922,24.735h-8.285a2.634,2.634,0,0,1-2.626-2.626h0a2.635,2.635,0,0,1,2.626-2.631h8.285a2.639,2.639,0,0,1,2.631,2.631h0A2.638,2.638,0,0,1,596.922,24.735Z" transform="translate(-574.94 -15.879)" fill="#141b2f"/>
              <g id="Group_664" data-name="Group 664" transform="translate(53.721 3.8)">
                <g id="Group_642" data-name="Group 642">
                  <g id="Group_640" data-name="Group 640" transform="translate(0.561 0.046)">
                    <path id="Path_2538" data-name="Path 2538" d="M595.592,20.355v8.491a.868.868,0,0,1-.257.618.807.807,0,0,1-.34.211.874.874,0,0,1-.592-.829V20.355a.628.628,0,1,1,1.189,0Z" transform="translate(-594.403 -19.526)" fill="#141b2f"/>
                  </g>
                  <g id="Group_641" data-name="Group 641">
                    <path id="Path_2539" data-name="Path 2539" d="M594.294,20.392a.877.877,0,0,1,.87-.875,1.02,1.02,0,0,1,.283.046.879.879,0,0,0-.592.829v8.491a.874.874,0,0,0,.592.829.861.861,0,0,1-.283.046.873.873,0,0,1-.87-.875Z" transform="translate(-594.294 -19.517)" fill="#18181b"/>
                  </g>
                </g>
                <g id="Group_645" data-name="Group 645" transform="translate(3.702)">
                  <g id="Group_643" data-name="Group 643" transform="translate(0.561 0.046)">
                    <path id="Path_2540" data-name="Path 2540" d="M596.316,20.355v8.491a.889.889,0,0,1-.257.618.858.858,0,0,1-.345.211.874.874,0,0,1-.592-.829V20.355a.63.63,0,1,1,1.195,0Z" transform="translate(-595.122 -19.526)" fill="#141b2f"/>
                  </g>
                  <g id="Group_644" data-name="Group 644">
                    <path id="Path_2541" data-name="Path 2541" d="M595.013,20.392a.881.881,0,0,1,.875-.875.982.982,0,0,1,.278.046.879.879,0,0,0-.592.829v8.491a.874.874,0,0,0,.592.829.829.829,0,0,1-.278.046.878.878,0,0,1-.875-.875Z" transform="translate(-595.013 -19.517)" fill="#18181b"/>
                  </g>
                </g>
                <g id="Group_648" data-name="Group 648" transform="translate(7.409)">
                  <g id="Group_646" data-name="Group 646" transform="translate(0.561 0.046)">
                    <path id="Path_2542" data-name="Path 2542" d="M597.031,20.355v8.491a.868.868,0,0,1-.257.618.807.807,0,0,1-.34.211.875.875,0,0,1-.592-.829V20.355a.628.628,0,1,1,1.19,0Z" transform="translate(-595.842 -19.526)" fill="#141b2f"/>
                  </g>
                  <g id="Group_647" data-name="Group 647">
                    <path id="Path_2543" data-name="Path 2543" d="M595.733,20.392a.878.878,0,0,1,.876-.875.979.979,0,0,1,.278.046.88.88,0,0,0-.592.829v8.491a.875.875,0,0,0,.592.829.826.826,0,0,1-.278.046.875.875,0,0,1-.876-.875Z" transform="translate(-595.733 -19.517)" fill="#18181b"/>
                  </g>
                </g>
                <g id="Group_651" data-name="Group 651" transform="translate(11.117)">
                  <g id="Group_649" data-name="Group 649" transform="translate(0.561 0.046)">
                    <path id="Path_2544" data-name="Path 2544" d="M597.751,20.355v8.491a.628.628,0,1,1-1.19,0V20.355a.628.628,0,1,1,1.19,0Z" transform="translate(-596.562 -19.526)" fill="#141b2f"/>
                  </g>
                  <g id="Group_650" data-name="Group 650">
                    <path id="Path_2545" data-name="Path 2545" d="M596.453,20.392a.877.877,0,0,1,.87-.875,1.052,1.052,0,0,1,.283.046.879.879,0,0,0-.592.829v8.491a.874.874,0,0,0,.592.829.883.883,0,0,1-.283.046.874.874,0,0,1-.87-.875Z" transform="translate(-596.453 -19.517)" fill="#18181b"/>
                  </g>
                </g>
                <g id="Group_654" data-name="Group 654" transform="translate(14.819)">
                  <g id="Group_652" data-name="Group 652" transform="translate(0.561 0.046)">
                    <path id="Path_2546" data-name="Path 2546" d="M598.47,20.355v8.491a.886.886,0,0,1-.252.618.859.859,0,0,1-.345.211.874.874,0,0,1-.592-.829V20.355a.628.628,0,1,1,1.189,0Z" transform="translate(-597.281 -19.526)" fill="#141b2f"/>
                  </g>
                  <g id="Group_653" data-name="Group 653">
                    <path id="Path_2547" data-name="Path 2547" d="M597.172,20.392a.881.881,0,0,1,.875-.875.982.982,0,0,1,.278.046.879.879,0,0,0-.592.829v8.491a.874.874,0,0,0,.592.829.829.829,0,0,1-.278.046.878.878,0,0,1-.875-.875Z" transform="translate(-597.172 -19.517)" fill="#18181b"/>
                  </g>
                </g>
                <g id="Group_657" data-name="Group 657" transform="translate(18.527)">
                  <g id="Group_655" data-name="Group 655" transform="translate(0.561 0.046)">
                    <path id="Path_2548" data-name="Path 2548" d="M599.19,20.355v8.491a.867.867,0,0,1-.257.618.808.808,0,0,1-.34.211.874.874,0,0,1-.592-.829V20.355a.628.628,0,1,1,1.189,0Z" transform="translate(-598.001 -19.526)" fill="#141b2f"/>
                  </g>
                  <g id="Group_656" data-name="Group 656">
                    <path id="Path_2549" data-name="Path 2549" d="M597.892,20.392a.878.878,0,0,1,.875-.875.987.987,0,0,1,.278.046.88.88,0,0,0-.592.829v8.491a.875.875,0,0,0,.592.829.832.832,0,0,1-.278.046.875.875,0,0,1-.875-.875Z" transform="translate(-597.892 -19.517)" fill="#18181b"/>
                  </g>
                </g>
                <g id="Group_660" data-name="Group 660" transform="translate(22.229)">
                  <g id="Group_658" data-name="Group 658" transform="translate(0.566 0.046)">
                    <path id="Path_2550" data-name="Path 2550" d="M599.91,20.355v8.491a.628.628,0,1,1-1.189,0V20.355a.628.628,0,1,1,1.189,0Z" transform="translate(-598.721 -19.526)" fill="#141b2f"/>
                  </g>
                  <g id="Group_659" data-name="Group 659">
                    <path id="Path_2551" data-name="Path 2551" d="M598.611,20.392a.881.881,0,0,1,.875-.875,1.052,1.052,0,0,1,.283.046.879.879,0,0,0-.592.829v8.491a.874.874,0,0,0,.592.829.877.877,0,0,1-1.158-.829Z" transform="translate(-598.611 -19.517)" fill="#18181b"/>
                  </g>
                </g>
                <g id="Group_663" data-name="Group 663" transform="translate(25.936)">
                  <g id="Group_661" data-name="Group 661" transform="translate(0.561 0.046)">
                    <path id="Path_2552" data-name="Path 2552" d="M600.63,20.355v8.491a.886.886,0,0,1-.253.618.857.857,0,0,1-.345.211.874.874,0,0,1-.592-.829V20.355a.628.628,0,1,1,1.19,0Z" transform="translate(-599.44 -19.526)" fill="#141b2f"/>
                  </g>
                  <g id="Group_662" data-name="Group 662">
                    <path id="Path_2553" data-name="Path 2553" d="M599.331,20.392a.881.881,0,0,1,.875-.875.979.979,0,0,1,.278.046.879.879,0,0,0-.592.829v8.491a.874.874,0,0,0,.592.829.827.827,0,0,1-.278.046.878.878,0,0,1-.875-.875Z" transform="translate(-599.331 -19.517)" fill="#18181b"/>
                  </g>
                </g>
              </g>
            </g>
            <g id="Group_666" data-name="Group 666" transform="translate(28.923 33.135)">
              <path id="Path_2554" data-name="Path 2554" d="M599.349,61.793h-7.415v4.279h18.305l1.071-40.858H589.478v4.279h4.238a3.773,3.773,0,0,1,3.682,2.95l5.638,24.747A3.778,3.778,0,0,1,599.349,61.793Z" transform="translate(-589.478 -25.214)" fill="#ede6d4"/>
              <path id="Path_2555" data-name="Path 2555" d="M614.433,66.077h-16.9a5.858,5.858,0,0,0,5.71-7.147l-6.622-29.144a5.856,5.856,0,0,0-5.716-4.572h16.9a5.862,5.862,0,0,1,5.72,4.572l6.622,29.144A5.862,5.862,0,0,1,614.433,66.077Z" transform="translate(-583.549 -25.214)" fill="#fff9ea"/>
            </g>
          </g>
          <g id="Group_668" data-name="Group 668" transform="translate(0 153.534)">
            <path id="Path_2556" data-name="Path 2556" d="M586.275,145.667,585.9,34.391h-9.77l4.714,111.276Z" transform="translate(-518.273 -27.819)" fill="#512f2e"/>
            <path id="Path_2557" data-name="Path 2557" d="M610.291,145.667l2.161-111.276h-9.77l3.229,111.276Z" transform="translate(-408.114 -27.819)" fill="#512f2e"/>
            <path id="Path_2558" data-name="Path 2558" d="M598.969,145.667l3.237-111.276h-9.77L593.7,145.667Z" transform="translate(-450.624 -27.819)" fill="#402524"/>
            <path id="Path_2559" data-name="Path 2559" d="M572.609,145.667l4.436-111.276h-9.77l-1.427,111.276Z" transform="translate(-560.937 -27.819)" fill="#402524"/>
            <path id="Path_2560" data-name="Path 2560" d="M569.493,33.115h186.73L754.97,48.39h-183.6Z" transform="translate(-545.819 -33.115)" fill="#512f2e"/>
            <path id="Path_2561" data-name="Path 2561" d="M621.783,48.39l-56.888,1.1V33.115H619.9Z" transform="translate(-564.895 -33.115)" fill="#402524"/>
          </g>
        </g>
        <g id="Group_671" data-name="Group 671" transform="translate(46.082 54.234)">
          <path id="Path_2562" data-name="Path 2562" d="M597.642,38.176v-.989a5.743,5.743,0,0,0-5.747-5.736h-3.6a5.739,5.739,0,0,0-5.741,5.736v.989Z" transform="translate(-537.725 59.283)" fill="#fff"/>
          <path id="Path_2563" data-name="Path 2563" d="M601.5,38.822c-.422,3.98-4.361.036-9.85-.546s-10.432,2.415-10.01-1.565,5.211-6.75,10.695-6.163S601.928,34.831,601.5,38.822Z" transform="translate(-541.604 55.208)" fill="#ffcd9c"/>
          <g id="Group_670" data-name="Group 670">
            <path id="Path_2564" data-name="Path 2564" d="M600.029,90.7c-6.565-4.737-14.5-13.022-15.046-25.591-.288-6.74,3.558-29.18,14.376-42.156a5.561,5.561,0,1,0-8.542-7.121c-7.327,8.784-11.462,20.009-13.635,27.877-2.549,9.2-3.5,17.615-3.316,21.884,1.133,26.26,24.978,38.15,32.249,41.162a42.429,42.429,0,0,0,5.911,1.91,101.161,101.161,0,0,1,.865-11.5A53.3,53.3,0,0,1,600.029,90.7Z" transform="translate(-573.844 -13.83)" fill="#141b2f"/>
            <path id="Path_2565" data-name="Path 2565" d="M579.628,39.832c.958.453,1.8.819,2.492,1.107a42.427,42.427,0,0,0,5.911,1.91,101.161,101.161,0,0,1,.865-11.5c-1.251-.448-2.683-1-4.176-1.653C582.882,32.973,581.348,36.443,579.628,39.832Z" transform="translate(-549.849 51.989)" fill="#141b2f" opacity="0.2" style="mix-blend-mode: multiply;isolation: isolate"/>
            <path id="Path_2566" data-name="Path 2566" d="M587.284,31.785c-.726-.2-3.095-1.03-5.16-1.771a101.147,101.147,0,0,0-.865,11.5c2.291.566,4.238.886,5.252,1.035Z" transform="translate(-543.078 53.321)" fill="#fff9ea"/>
          </g>
          <rect id="Rectangle_663" data-name="Rectangle 663" width="30.856" height="1.842" transform="translate(36.464 97.458)" fill="#141b2f"/>
        </g>
        <g id="Group_672" data-name="Group 672" transform="translate(78.369 134.466)">
          <rect id="Rectangle_664" data-name="Rectangle 664" width="15.68" height="7.616" rx="0.365" transform="matrix(0.236, -0.972, 0.972, 0.236, 0, 15.238)" fill="#141b2f"/>
          <path id="Path_2567" data-name="Path 2567" d="M583.267,33.568a1.927,1.927,0,1,0-2.353-1.38A1.927,1.927,0,0,0,583.267,33.568Z" transform="translate(-577.062 -27.896)" fill="#ffa631"/>
        </g>
      </g>
      <g id="Group_676" data-name="Group 676" transform="translate(275.54 169.9)">
        <rect id="Rectangle_665" data-name="Rectangle 665" width="80.259" height="21.66" rx="1.229" transform="translate(0 99.153)" fill="#bc3122"/>
        <g id="Group_674" data-name="Group 674" transform="translate(12.552 0)">
          <path id="Path_2568" data-name="Path 2568" d="M695.736,110.609V36.493a20.589,20.589,0,0,0-20.586-20.581H642.808a20.581,20.581,0,0,0-20.581,20.581v74.116Z" transform="translate(-615.111 -15.912)" fill="#ff4140"/>
          <path id="Path_2569" data-name="Path 2569" d="M620.845,112.417c0,11.364,9.222,23.871,20.586,23.871h32.342c11.374,0,20.581-12.507,20.581-23.871V36.493a20.577,20.577,0,0,0-20.581-20.581H641.431a20.589,20.589,0,0,0-20.586,20.581Z" transform="translate(-620.845 -15.912)" fill="#bc3122"/>
        </g>
        <g id="Group_675" data-name="Group 675" transform="translate(41.459 30.2)">
          <path id="Path_2570" data-name="Path 2570" d="M671.06,21.777V89.158a13.708,13.708,0,0,1-13.707,13.707H631.191a4.729,4.729,0,0,0-4.732,4.732v.051a4.729,4.729,0,0,0,4.732,4.732l31.682.01c7.595,0,14.351-5.329,15.051-12.615.118-1.246.221-58.736.252-78Z" transform="translate(-626.459 -21.777)" fill="#ff4140"/>
        </g>
      </g>
      <g id="Group_684" data-name="Group 684" transform="translate(298.83)">
        <g id="Group_678" data-name="Group 678">
          <path id="Path_2571" data-name="Path 2571" d="M678.6,8.44c-1.241-15.015-12.523-25.524-27.625-25.524h-.206c-15.1,0-26.384,10.509-27.625,25.524-.607,7.358-.736,14.021,11.364,28.207,2.528,2.971,3.275,8.918,3.553,12.42.154,1.905,9.372,3.151,12.811,3.4h0c3.445-.252,12.657-1.5,12.816-3.4.278-3.5,1.025-9.449,3.553-12.42C679.341,22.461,679.2,15.8,678.6,8.44Z" transform="translate(-622.93 17.084)" fill="#fbf9f7"/>
          <path id="Path_2572" data-name="Path 2572" d="M640.178-5.417h-14.67V13.439h0c.026.33.443.752,1.267,1.21l10.015,5.587a7.736,7.736,0,0,0,6.781,0l10.015-5.587c.814-.458,1.231-.88,1.267-1.21h0V-5.417Z" transform="translate(-612.236 65.492)" fill="#141b2f"/>
          <g id="Group_677" data-name="Group 677" transform="translate(11.879 60.075)">
            <rect id="Rectangle_666" data-name="Rectangle 666" width="32.128" height="3.831" fill="#383c48"/>
            <rect id="Rectangle_667" data-name="Rectangle 667" width="32.128" height="3.826" transform="translate(0 7.725)" fill="#383c48"/>
            <rect id="Rectangle_668" data-name="Rectangle 668" width="32.128" height="3.833" transform="translate(0 15.439)" fill="#383c48"/>
          </g>
        </g>
        <g id="Group_683" data-name="Group 683" transform="translate(4.076 5.782)">
          <g id="Group_682" data-name="Group 682">
            <g id="Group_680" data-name="Group 680">
              <g id="Group_679" data-name="Group 679" transform="translate(4.248)">
                <path id="Path_2573" data-name="Path 2573" d="M624.547,5.933a21.888,21.888,0,0,0,21.894,21.889V-15.961A21.893,21.893,0,0,0,624.547,5.933Z" transform="translate(-624.547 15.961)" fill="#f4b222"/>
                <path id="Path_2574" data-name="Path 2574" d="M650.688,5.933a21.9,21.9,0,0,1-17.749,21.5,21.961,21.961,0,0,1-4.14.391V-15.961c.489,0,.983.015,1.473.051A21.892,21.892,0,0,1,650.688,5.933Z" transform="translate(-606.905 15.961)" fill="#f4b222"/>
              </g>
              <path id="Path_2575" data-name="Path 2575" d="M645.611-15.961A21.891,21.891,0,1,0,667.5,5.933,21.892,21.892,0,0,0,645.611-15.961Z" transform="translate(-623.722 15.961)" fill="#ffca00"/>
              <circle id="Ellipse_133" data-name="Ellipse 133" cx="18.207" cy="18.207" r="18.207" transform="translate(3.684 3.687)" fill="#f4b222"/>
              <path id="Path_2576" data-name="Path 2576" d="M643.219,6.352c0,5.767-3.429,7.075-6.8,7.075v2.781h-3.239V13.386a17.8,17.8,0,0,1-5.952-1.03v-4.3c1.354.1,4.691.33,7.842.33,1.442,0,2.59-.34,2.59-1.807V5.6c0-1.22-.381-1.946-2.049-1.946h-2.626c-6.076,0-6.539-4.984-6.539-6.848V-5.31c.015-4.85,3.007-6.416,6.735-6.534v-2.914h3.239v2.935a23.037,23.037,0,0,1,5.885,1.02v4.325c-2.049-.175-5.7-.33-7.369-.33C632.972-6.835,632-6.675,632-4.8v.834c0,1.467.613,2.054,2.41,2.054h2.729c5.031,0,6.076,4.119,6.076,6.843Z" transform="translate(-612.411 20.948)" fill="#ffca00"/>
            </g>
            <g id="Group_681" data-name="Group 681" opacity="0.3" style="mix-blend-mode: screen;isolation: isolate">
              <path id="Path_2577" data-name="Path 2577" d="M640.333-15.317,624.366.65a21.975,21.975,0,0,0-.644,5.237l21.843-21.848A21.925,21.925,0,0,0,640.333-15.317Z" transform="translate(-623.722 15.961)" fill="#ffca00"/>
              <path id="Path_2578" data-name="Path 2578" d="M652.137-15.7l-28.15,28.155a21.945,21.945,0,0,0,6.992,9.582L661.725-8.7A21.966,21.966,0,0,0,652.137-15.7Z" transform="translate(-622.622 17.061)" fill="#ffca00"/>
            </g>
          </g>
        </g>
      </g>
      <g id="Group_710" data-name="Group 710" transform="translate(227.42 96.872)">
        <g id="Group_709" data-name="Group 709" transform="translate(0 0)">
          <g id="DOCTOR-2" data-name="DOCTOR">
            <g id="Group_696" data-name="Group 696" transform="translate(0 132.217)">
              <path id="Path_2579" data-name="Path 2579" d="M624.209,58.533V49.507a22.162,22.162,0,0,1,22.1-22.1h.386a22.162,22.162,0,0,1,22.1,22.1l.113,6.519v2.508Z" transform="translate(-546.216 -27.407)" fill="#141b2f"/>
              <g id="Group_695" data-name="Group 695" transform="translate(0 28.607)">
                <g id="Group_689" data-name="Group 689">
                  <g id="Group_688" data-name="Group 688" transform="translate(0 99.985)">
                    <rect id="Rectangle_669" data-name="Rectangle 669" width="6.614" height="7.865" transform="matrix(0.023, -1, 1, 0.023, 17.791, 6.612)" fill="#cf9b72"/>
                    <rect id="Rectangle_670" data-name="Rectangle 670" width="9.576" height="9.246" transform="matrix(0.025, -1, 1, 0.025, 16.933, 13.809)" fill="#edd6b6"/>
                    <g id="Group_687" data-name="Group 687" transform="translate(0 5.548)">
                      <g id="Group_686" data-name="Group 686">
                        <g id="Group_685" data-name="Group 685">
                          <path id="Path_2580" data-name="Path 2580" d="M615.006,53.458a3.392,3.392,0,0,1,3.4,3.409v3.115A3.406,3.406,0,0,1,615,63.391h0a3.4,3.4,0,0,1-3.409-3.409V56.841a3.389,3.389,0,0,1,3.414-3.383Z" transform="translate(-598.565 -53.458)" fill="#141b2f"/>
                          <path id="Path_2581" data-name="Path 2581" d="M636.769,56.141a1.72,1.72,0,0,1-1.715,1.725c-3.218-.005-10.118-.005-10.118-.005l-15.875-.01V55.564l27.717.046Z" transform="translate(-609.062 -44.72)" fill="#17191a"/>
                          <path id="Path_2582" data-name="Path 2582" d="M609.063,61.9l27.7.026.01-2.647v-3.5a1.719,1.719,0,0,0-1.411-1.684v.185a3.231,3.231,0,0,1-6.462.015v-.237l-6.818.443v.165a1.862,1.862,0,0,1-.329,1.148,1.73,1.73,0,0,1-.237.237,2.92,2.92,0,0,1-1.426.6c-.113.015-.227.036-.355.057-.3.031-.644.041-1.019.057l-3.347-.015C611.89,56.741,609.068,58.435,609.063,61.9Z" transform="translate(-609.058 -50.989)" fill="#141b2f"/>
                        </g>
                      </g>
                    </g>
                  </g>
                  <path id="Path_2583" data-name="Path 2583" d="M613.221,99.3c1.025-13.527,2.1-27.517,3.259-41.409l.026-.288a30.674,30.674,0,0,1,4.943-12.909l.3-.458a27.066,27.066,0,0,1,15.36-10.551l2.26-.36c11.451-.52,32.547-.33,45.013-.294v20.6c-8.383,0-16.4-.01-19.984-.041-13.244-.139-9.516-.257-22.78.283a5.959,5.959,0,0,0-2.832,2.018A11,11,0,0,0,637.02,59.8c-1.148,13.753-2.2,27.64-3.234,41.08-.51,6.72-1.035,28-1.576,34.906l-20.689-.005C612.1,128.357,612.67,106.545,613.221,99.3Z" transform="translate(-598.855 -32.963)" fill="#141b2f"/>
                  <path id="Path_2584" data-name="Path 2584" d="M634.518,54.111c3.924-7.842,17.239-10.051,18.233-21.1,10.71-.1,23.161-.01,31.631.015v20.6c-8.383,0-16.4-.01-19.984-.041-13.244-.139-9.516-.257-22.78.283a5.959,5.959,0,0,0-2.832,2.018A11,11,0,0,0,637.02,59.8c-1.148,13.753-2.2,27.64-3.234,41.08-.51,6.72-1.035,28-1.576,34.906l-20.689-.005c.165-2.1.325-5.371.489-9.119,3.908-1.3,8.851-1.565,12.322-3.3C638.591,100.953,624.333,76.515,634.518,54.111Z" transform="translate(-598.855 -32.962)" fill="#141b2f" opacity="0.2" style="mix-blend-mode: multiply;isolation: isolate"/>
                </g>
                <g id="Group_694" data-name="Group 694" transform="translate(31.059 0.012)">
                  <g id="Group_693" data-name="Group 693" transform="translate(0 99.973)">
                    <rect id="Rectangle_671" data-name="Rectangle 671" width="6.614" height="7.866" transform="translate(17.791 6.612) rotate(-88.664)" fill="#edb485"/>
                    <rect id="Rectangle_672" data-name="Rectangle 672" width="9.576" height="9.245" transform="translate(16.932 13.809) rotate(-88.582)" fill="#fff"/>
                    <g id="Group_692" data-name="Group 692" transform="translate(0 5.547)">
                      <g id="Group_691" data-name="Group 691">
                        <g id="Group_690" data-name="Group 690">
                          <path id="Path_2585" data-name="Path 2585" d="M621.037,53.458a3.393,3.393,0,0,1,3.409,3.409v3.115a3.409,3.409,0,0,1-3.409,3.409h0a3.407,3.407,0,0,1-3.414-3.409V56.841a3.392,3.392,0,0,1,3.414-3.383Z" transform="translate(-604.601 -53.458)" fill="#141b2f"/>
                          <path id="Path_2586" data-name="Path 2586" d="M642.8,56.141a1.719,1.719,0,0,1-1.714,1.725c-3.218-.005-10.118-.005-10.118-.005l-15.875-.01V55.564l27.718.046Z" transform="translate(-615.094 -44.72)" fill="#17191a"/>
                          <path id="Path_2587" data-name="Path 2587" d="M615.095,61.9l27.7.026.01-2.647v-3.5a1.719,1.719,0,0,0-1.411-1.684v.185a3.231,3.231,0,1,1-6.462.015v-.237l-6.823.443v.165a1.858,1.858,0,0,1-.324,1.148,1.468,1.468,0,0,1-.237.237,2.919,2.919,0,0,1-1.426.6c-.113.015-.232.036-.355.057-.3.031-.644.041-1.025.057l-3.342-.015C617.922,56.741,615.1,58.435,615.095,61.9Z" transform="translate(-615.09 -50.989)" fill="#141b2f"/>
                        </g>
                      </g>
                    </g>
                  </g>
                  <path id="Path_2588" data-name="Path 2588" d="M619.121,99.286c1.025-13.527,2.1-27.517,3.259-41.414l.031-.283a30.589,30.589,0,0,1,4.938-12.9l.3-.458c3.466-4.948,8.326-9.145,14.562-10.319,3.713-.705,10.566-.9,15.149-.9h.51c1.854-.021,3.769-.031,5.721-.041v.057c1.045,0,1.992-.005,2.811-.015h11.709v-.041h18.939v9.85A10.793,10.793,0,0,1,686.26,53.6s-18.583.026-32.7.01c-1.539.062-3.47.144-6.035.247a5.922,5.922,0,0,0-2.837,2.018,11.1,11.1,0,0,0-1.761,3.913c-1.148,13.753-2.2,27.635-3.239,41.08-.51,6.72-1.035,28-1.576,34.906l-20.684-.005C618,128.347,618.57,106.53,619.121,99.286Z" transform="translate(-605.414 -32.965)" fill="#141b2f"/>
                  <path id="Path_2589" data-name="Path 2589" d="M642.3,56.141c-18.032,18.032,9.233,67.582-24.8,73.05.453-9.634.89-24.232,1.323-29.906,1.025-13.527,2.1-27.517,3.259-41.414l.031-.283a30.589,30.589,0,0,1,4.938-12.9l.3-.458c3.466-4.948,8.326-9.145,14.562-10.319,3.713-.705,10.566-.9,15.149-.9h.51c1.854-.021,3.774-.031,5.721-.041v.057c1.045,0,1.992-.005,2.811-.015H677.81v-.041h15.35C691.9,57.609,654.32,42.12,642.3,56.141Z" transform="translate(-605.115 -32.965)" fill="#1c2842"/>
                  <path id="Path_2590" data-name="Path 2590" d="M642.6,56.141c12.018-14.021,49.6,1.467,50.858-23.176h3.589v9.85A10.793,10.793,0,0,1,686.26,53.6s-18.583.026-32.7.01c-1.539.062-3.47.144-6.035.247a5.922,5.922,0,0,0-2.837,2.018,11.1,11.1,0,0,0-1.761,3.913c-1.148,13.753-2.2,27.635-3.239,41.08-.51,6.72-1.035,28-1.576,34.906l-20.684-.005c.123-1.607.247-3.913.371-6.575C651.833,123.723,624.569,74.173,642.6,56.141Z" transform="translate(-605.414 -32.965)" fill="#141b2f" opacity="0.2" style="mix-blend-mode: multiply;isolation: isolate"/>
                </g>
              </g>
            </g>
            <g id="Body-2" data-name="Body" transform="translate(76.516 58.93)">
              <path id="Path_2591" data-name="Path 2591" d="M672.936,20.79v90.789a3.656,3.656,0,0,1-1.859,3.223,3.284,3.284,0,0,1-1,.345,2.9,2.9,0,0,1-.566.051H627.341a3,3,0,0,1-.644-.067,3.349,3.349,0,0,1-2.07-1.359h-.005a3.517,3.517,0,0,1-.5-.978,3.672,3.672,0,0,1-.2-1.215V20.79a3.978,3.978,0,0,1,.057-.711,3.378,3.378,0,0,1,1.427-2.219,5.906,5.906,0,0,1,1.787-.839l1.735-.335,8.5-1.627,1.3-.252,8.512-1.632.1.021,5.906,1.05,1.015.185,13.5,2.415,1.751.309a3.293,3.293,0,0,1,2.152.808,3.649,3.649,0,0,1,1.2,2.1A3.753,3.753,0,0,1,672.936,20.79Z" transform="translate(-623.922 -13.174)" fill="#fff9ea"/>
            </g>
            <g id="Body-3" data-name="Body" transform="translate(76.511 61.942)">
              <path id="Path_2592" data-name="Path 2592" d="M672.868,17.636a3.649,3.649,0,0,0-1.2-2.1,3.29,3.29,0,0,0-2.147-.808l-1.751-.309-3.676-.659c1.75,19.1,3.594,38.387,3.156,57.469,0,8.867-2.271,17.96-8.182,25.236-5.232,7.049-13.872,9.1-22.054,10.463a110.619,110.619,0,0,1-13.094.942v1.282a3.654,3.654,0,0,0,.206,1.215,3.591,3.591,0,0,0,.5.978l.005.005a3.363,3.363,0,0,0,2.07,1.354,3,3,0,0,0,.644.067h42.176a2.88,2.88,0,0,0,.561-.051,3.161,3.161,0,0,0,1-.35,3.637,3.637,0,0,0,1.853-3.218V18.362A3.754,3.754,0,0,0,672.868,17.636Z" transform="translate(-623.921 -13.759)" fill="#ede6d4"/>
            </g>
            <g id="Head-2" data-name="Head" transform="translate(78.59)">
              <g id="Group_700" data-name="Group 700">
                <g id="Group_697" data-name="Group 697" transform="translate(13.471 30.512)">
                  <path id="Path_2593" data-name="Path 2593" d="M626.941,39.652a7.461,7.461,0,0,0,7.466,7.461h0a7.453,7.453,0,0,0,7.461-7.461V15.116a7.456,7.456,0,0,0-7.461-7.461h0a7.464,7.464,0,0,0-7.466,7.461Z" transform="translate(-626.941 -7.655)" fill="#f3ad7a"/>
                  <path id="Path_2594" data-name="Path 2594" d="M635.2,37.921c-2.044-1.225-5.484,2.219-8.254,1.73V15.116a7.464,7.464,0,0,1,14.927,0V39.652a7.445,7.445,0,0,1-3.651,6.411C639.258,41.119,639.891,40.738,635.2,37.921Z" transform="translate(-626.941 -7.655)" fill="#f3ad7a" opacity="0.3" style="mix-blend-mode: multiply;isolation: isolate"/>
                </g>
                <g id="Group_699" data-name="Group 699">
                  <path id="Path_2595" data-name="Path 2595" d="M624.738,34.807a15.54,15.54,0,0,0,15.54,15.545h0a15.55,15.55,0,0,0,15.555-15.545V18.484A15.546,15.546,0,0,0,640.278,2.939h0a15.537,15.537,0,0,0-15.54,15.545Z" transform="translate(-622.61 3.29)" fill="#ffcd9c"/>
                  <path id="Path_2596" data-name="Path 2596" d="M647.625,31.661c3.053-5.087,5.087-14.757-.51-17.811-5.6-3.563-12.718,0-19.335-2.034a7.285,7.285,0,0,0-2.827.9,15.55,15.55,0,0,1,29.988,5.767V34.807a15.549,15.549,0,0,1-23.31,13.47A48.046,48.046,0,0,0,647.625,31.661Z" transform="translate(-621.718 3.29)" fill="#fec08a"/>
                  <path id="Path_2597" data-name="Path 2597" d="M624.834,22.335S622.146.327,643.546,1.8c11.544-.072,11.544,6.91,11.544,6.91s7.719-.278,9.963,4.82A38.661,38.661,0,0,1,667.52,27c0,9.9-5.669,18.079-13.048,19.433a16.1,16.1,0,0,0,1.318-6.421l.093-8.239a21.209,21.209,0,0,0-1.982,3.888c-1.3,3.223-1.735,4.521-1.735,2.914,0,0,4.341-23.114-2.317-23.372-5.463-.211-3.419,2.106-11.132,2.266-4.2.088-7.425-3.321-9.752-2.724C625.066,15.749,624.834,22.335,624.834,22.335Z" transform="translate(-622.66 -1.729)" fill="#bf4223"/>
                  <path id="Path_2598" data-name="Path 2598" d="M655.169,6.621s-.222,14.876-6.57,15.911a60.269,60.269,0,0,1-14.119.345,33.757,33.757,0,0,1-7.858-2.1S622.307,39.019,625.5,40.8c7.049,3.955,21.528,1.617,27.156-6.457,1.741-2.5,7.229-12.445,7.229-22.661l5.957-3.98Z" transform="translate(-624.325 18.567)" fill="#bf4223"/>
                  <path id="Path_2599" data-name="Path 2599" d="M626.259,50.971c11.7,5.087,24.937-1.529,30.534-13.228.51-1.529,5.087-3.059,6.611-5.092,6.617-6.611,3.563-17.811,1.529-26.461-.345-1.035-1.632-2.075-3.064-2.95a7.721,7.721,0,0,1,4.845,4.027,38.661,38.661,0,0,1,2.466,13.475c0,9.552-5.283,17.5-12.281,19.263a44.681,44.681,0,0,1-4.243,8.372c-5.628,8.074-20.107,10.411-27.156,6.457-.989-.551-1.256-2.672-1.159-5.34A9.158,9.158,0,0,0,626.259,50.971Z" transform="translate(-624.323 4.535)" fill="#91321b"/>
                  <g id="Group_698" data-name="Group 698" transform="translate(31.249 26.659)">
                    <path id="Path_2600" data-name="Path 2600" d="M632.022,16.408c1.658.69,3.867-.85,4.928-3.424s.592-5.226-1.056-5.916-3.867.855-4.933,3.434S630.375,15.723,632.022,16.408Z" transform="translate(-630.394 -6.907)" fill="#fec08a"/>
                    <path id="Path_2601" data-name="Path 2601" d="M631.343,11.351c.664.345,1.632-.211,2.163-1.241s.432-2.137-.227-2.482-1.627.216-2.163,1.241S630.689,11.011,631.343,11.351Z" transform="translate(-628.803 -4.326)" fill="#f3ad7a"/>
                  </g>
                </g>
              </g>
              <g id="Group_708" data-name="Group 708" transform="translate(2.207 23.901)">
                <g id="Group_701" data-name="Group 701" transform="translate(16.042 4.202)">
                  <path id="Path_2602" data-name="Path 2602" d="M627.869,9.6a1.964,1.964,0,1,0,3.826,0,1.965,1.965,0,1,0-3.826,0Z" transform="translate(-627.869 -7.187)" fill="#2a2626"/>
                  <path id="Path_2603" data-name="Path 2603" d="M628.24,8.256a.8.8,0,1,0,1.565,0,.8.8,0,1,0-1.565,0Z" transform="translate(-626.33 -6.83)" fill="#fefefe"/>
                </g>
                <g id="Group_703" data-name="Group 703" transform="translate(8.678 7.224)">
                  <g id="Group_702" data-name="Group 702">
                    <path id="Path_2604" data-name="Path 2604" d="M629.024,17.846h0a2.556,2.556,0,0,0,2.585-2.3c-.036-2.194-.54-3.29-.577-5.479a2.088,2.088,0,0,0-2.008-2.3h0a2.081,2.081,0,0,0-2,2.3c-.041,2.188-.546,3.285-.582,5.479A2.556,2.556,0,0,0,629.024,17.846Z" transform="translate(-626.439 -7.774)" fill="#f3ad7a"/>
                  </g>
                  <path id="Path_2605" data-name="Path 2605" d="M626.542,10.222c0,.726.365,1.313.814,1.313s.813-.587.813-1.313-.36-1.313-.813-1.313S626.542,9.5,626.542,10.222Z" transform="translate(-626.011 -3.065)" fill="#ffe9d4" opacity="0.3"/>
                </g>
                <g id="Group_704" data-name="Group 704" transform="translate(2.716 4.202)">
                  <path id="Path_2606" data-name="Path 2606" d="M625.281,9.6a1.96,1.96,0,1,0,3.815,0,1.961,1.961,0,1,0-3.815,0Z" transform="translate(-625.281 -7.187)" fill="#2a2626"/>
                  <path id="Path_2607" data-name="Path 2607" d="M625.651,8.256a.8.8,0,1,0,1.565,0,.8.8,0,1,0-1.565,0Z" transform="translate(-623.746 -6.83)" fill="#fefefe"/>
                </g>
                <path id="Path_2608" data-name="Path 2608" d="M628.286,11.671c.273.983,1.818,1.416,3.445.963s2.729-1.617,2.456-2.605-1.818-1.416-3.45-.963S628.013,10.683,628.286,11.671Z" transform="translate(-610.267 4.064)" fill="#f48fb7" opacity="0.1"/>
                <path id="Path_2609" data-name="Path 2609" d="M630.906,11.671c-.273.983-1.812,1.416-3.444.963s-2.729-1.617-2.451-2.605,1.817-1.416,3.445-.963S631.184,10.683,630.906,11.671Z" transform="translate(-623.865 4.064)" fill="#f48fb7" opacity="0.1"/>
                <g id="Group_705" data-name="Group 705" transform="translate(4.169 19.314)">
                  <path id="Path_2610" data-name="Path 2610" d="M625.583,10.122a12.146,12.146,0,0,0,.046,2.034c.5,1.787,2.739,3.218,5.489,3.378s5.149-1,5.86-2.724a13.053,13.053,0,0,0,.278-2.013Z" transform="translate(-625.563 -10.122)" fill="#462119"/>
                  <path id="Path_2611" data-name="Path 2611" d="M625.667,10.128a.989.989,0,0,0,.077.36c.51.834,2.6,1.555,5.139,1.7s4.7-.33,5.314-1.1a1.075,1.075,0,0,0,.108-.35Z" transform="translate(-625.132 -10.097)" fill="#fefefe"/>
                </g>
                <g id="Group_706" data-name="Group 706" transform="translate(13.012)">
                  <path id="Path_2612" data-name="Path 2612" d="M629.213,9.769a17.884,17.884,0,0,1,5.546,0,1.7,1.7,0,0,0,1.905-1.287h0a1.636,1.636,0,0,0-1.494-1.864,20.608,20.608,0,0,0-6.364,0,1.64,1.64,0,0,0-1.5,1.864h0A1.705,1.705,0,0,0,629.213,9.769Z" transform="translate(-627.28 -6.371)" fill="#bf4223"/>
                </g>
                <g id="Group_707" data-name="Group 707">
                  <path id="Path_2613" data-name="Path 2613" d="M626.687,9.769a17.884,17.884,0,0,1,5.546,0,1.7,1.7,0,0,0,1.9-1.287h0a1.633,1.633,0,0,0-1.493-1.864,20.607,20.607,0,0,0-6.364,0,1.636,1.636,0,0,0-1.494,1.864h0A1.7,1.7,0,0,0,626.687,9.769Z" transform="translate(-624.753 -6.371)" fill="#bf4223"/>
                </g>
              </g>
            </g>
          </g>
        </g>
      </g>
      <g id="Group_714" data-name="Group 714" transform="translate(242.815 140.709)">
        <g id="Group_713" data-name="Group 713" transform="translate(0 0)">
          <g id="Group_712" data-name="Group 712" transform="translate(5.463)">
            <rect id="Rectangle_673" data-name="Rectangle 673" width="9.829" height="5.679" transform="matrix(0.36, -0.933, 0.933, 0.36, 0, 22.998)" fill="#ffcd9c"/>
            <g id="Group_711" data-name="Group 711" transform="translate(1.164)">
              <path id="Path_2614" data-name="Path 2614" d="M616.5,20.469a1.45,1.45,0,0,1-1.684,1.159h0a1.461,1.461,0,0,1-1.148-1.684l1.581-8.5a1.441,1.441,0,0,1,1.689-1.153h0a1.435,1.435,0,0,1,1.143,1.679Z" transform="translate(-612.056 -10.129)" fill="#ffcd9c"/>
              <path id="Path_2615" data-name="Path 2615" d="M617.713,20.765a1.443,1.443,0,0,1-1.849.855h0a1.445,1.445,0,0,1-.86-1.854l2.961-8.11a1.452,1.452,0,0,1,1.848-.865h0a1.449,1.449,0,0,1,.86,1.854Z" transform="translate(-606.796 -8.324)" fill="#ffcd9c"/>
              <path id="Path_2616" data-name="Path 2616" d="M617.185,20.4a1.434,1.434,0,0,1-1.782.983h0a1.435,1.435,0,0,1-.989-1.771l2.358-8.321a1.437,1.437,0,0,1,1.787-.989h0a1.437,1.437,0,0,1,.994,1.776Z" transform="translate(-609.1 -10.243)" fill="#ffcd9c"/>
              <path id="Rectangle_674" data-name="Rectangle 674" d="M.553,0H9.23a.552.552,0,0,1,.552.552V9.224a.553.553,0,0,1-.553.553H.554A.554.554,0,0,1,0,9.223V.553A.553.553,0,0,1,.553,0Z" transform="matrix(0.273, -0.962, 0.962, 0.273, 0, 15.46)" fill="#ffcd9c"/>
            </g>
          </g>
          <path id="Path_2617" data-name="Path 2617" d="M679.7,16.126a5.9,5.9,0,0,0-7.605,3.429c-4.33,11.416-25.4,33.129-36.471,35.565-5.015,1.1-7.065-.536-8.285-2.085a8.424,8.424,0,0,1-.515-.711c-4.119-6.318-3.434-20.947-.793-30.23a28.41,28.41,0,0,1,1.684-4.6L616.96,13.433a35.439,35.439,0,0,0-1.571,3.913c-3.712,10.911-5.715,30.272,1.591,41.471.345.53.711,1.04,1.1,1.534,4.65,5.885,11.776,8.12,20.082,6.292,16.683-3.671,39.828-29.345,44.967-42.913A5.893,5.893,0,0,0,679.7,16.126Z" transform="translate(-612.052 2.993)" fill="#fff9ea"/>
        </g>
      </g>
      <path id="Path_2618" data-name="Path 2618" d="M623.462,13.591a1.565,1.565,0,0,0-1.988-.978l-6.6,2.235a4.843,4.843,0,0,0-.1,2.369c.123.448,1.385.875,1.385.875l6.323-2.508A1.557,1.557,0,0,0,623.462,13.591Z" transform="translate(-358.402 139.951)" fill="#ffcd9c"/>
      <g id="Group_719" data-name="Group 719" transform="translate(342.613 86.216)">
        <g id="Group_716" data-name="Group 716" transform="translate(32.667 0)">
          <rect id="Rectangle_675" data-name="Rectangle 675" width="6.418" height="11.117" transform="matrix(0.76, -0.65, 0.65, 0.76, 9.232, 16.272)" fill="#edb485"/>
          <g id="Group_715" data-name="Group 715">
            <path id="Path_2619" data-name="Path 2619" d="M638.016,2.516a1.791,1.791,0,0,1,2.431-.659l6.833,3.975a5.575,5.575,0,0,1-.417,2.641c-.237.479-1.741.654-1.741.654l-6.457-4.181A1.785,1.785,0,0,1,638.016,2.516Z" transform="translate(-637.778 8.493)" fill="#edb485"/>
            <path id="Path_2620" data-name="Path 2620" d="M643.823,16.374s-5.334-8.795-5.932-11.1A6.951,6.951,0,0,1,639.807.33c1.133-1.164,4.789-.572,5.51-.015,3.347,2.564,7.528,9.655,7.528,9.655a3.216,3.216,0,0,1-.752,4.49l-3.764,2.672A3.216,3.216,0,0,1,643.823,16.374Z" transform="translate(-637.473 0.34)" fill="#edb485"/>
          </g>
        </g>
        <g id="Group_718" data-name="Group 718" transform="translate(0 14.85)">
          <g id="Group_717" data-name="Group 717">
            <path id="Path_2621" data-name="Path 2621" d="M707.916,48.381c.85,10.9-1.57,19.9-7.013,25.8-7.512,8.146-20.035,10.787-37.207,7.847a141.017,141.017,0,0,1-28.207-8.336,6.478,6.478,0,0,1,4.83-12.023,126.738,126.738,0,0,0,25.57,7.6c8.656,1.473,20.066,2.008,25.509-3.872,3.533-3.826,4.639-11.673,2.95-20.993C691.866,30.6,675.42,10.123,675.42,10.123L684.6,2.544S704.414,27.2,707.1,42.1Q707.676,45.336,707.916,48.381Z" transform="translate(-631.434 -2.544)" fill="#fff9ea"/>
          </g>
        </g>
      </g>
    </g>
  </g>
</svg>
