<svg xmlns="http://www.w3.org/2000/svg" width="33.427" height="176.826" viewBox="0 0 33.427 176.826">
  <g id="Group_166" data-name="Group 166" transform="translate(-698.521 -93.042)">
    <circle id="Ellipse_81" data-name="Ellipse 81" cx="2.222" cy="2.222" r="2.222" transform="translate(698.521 93.042)" fill="#49d6cb"/>
    <circle id="Ellipse_82" data-name="Ellipse 82" cx="2.222" cy="2.222" r="2.222" transform="translate(727.504 93.042)" fill="#49d6cb"/>
    <circle id="Ellipse_83" data-name="Ellipse 83" cx="2.222" cy="2.222" r="2.222" transform="translate(698.521 121.772)" fill="#49d6cb"/>
    <circle id="Ellipse_84" data-name="Ellipse 84" cx="2.222" cy="2.222" r="2.222" transform="translate(727.504 121.772)" fill="#49d6cb"/>
    <path id="Path_1486" data-name="Path 1486" d="M702.965,152.725a2.222,2.222,0,1,1-2.222-2.222A2.222,2.222,0,0,1,702.965,152.725Z" fill="#49d6cb"/>
    <path id="Path_1487" data-name="Path 1487" d="M731.948,152.725a2.222,2.222,0,1,1-2.222-2.222A2.222,2.222,0,0,1,731.948,152.725Z" fill="#49d6cb"/>
    <path id="Path_1488" data-name="Path 1488" d="M702.965,181.455a2.222,2.222,0,1,1-2.222-2.222A2.222,2.222,0,0,1,702.965,181.455Z" fill="#49d6cb"/>
    <path id="Path_1489" data-name="Path 1489" d="M731.948,181.455a2.222,2.222,0,1,1-2.222-2.222A2.222,2.222,0,0,1,731.948,181.455Z" fill="#49d6cb"/>
    <circle id="Ellipse_85" data-name="Ellipse 85" cx="2.222" cy="2.222" r="2.222" transform="translate(698.521 207.963)" fill="#49d6cb"/>
    <circle id="Ellipse_86" data-name="Ellipse 86" cx="2.222" cy="2.222" r="2.222" transform="translate(727.504 207.963)" fill="#49d6cb"/>
    <circle id="Ellipse_87" data-name="Ellipse 87" cx="2.222" cy="2.222" r="2.222" transform="translate(698.521 236.694)" fill="#49d6cb"/>
    <circle id="Ellipse_88" data-name="Ellipse 88" cx="2.222" cy="2.222" r="2.222" transform="translate(727.504 236.694)" fill="#49d6cb"/>
    <path id="Path_1490" data-name="Path 1490" d="M702.965,267.646a2.222,2.222,0,1,1-2.222-2.222A2.222,2.222,0,0,1,702.965,267.646Z" fill="#49d6cb"/>
    <path id="Path_1491" data-name="Path 1491" d="M731.948,267.646a2.222,2.222,0,1,1-2.222-2.222A2.222,2.222,0,0,1,731.948,267.646Z" fill="#49d6cb"/>
  </g>
</svg>
