<svg xmlns="http://www.w3.org/2000/svg" width="91" height="91" viewBox="0 0 91 91">
  <g id="Group_1578" data-name="Group 1578" transform="translate(-444 -689.85)">
    <circle id="Ellipse_155" data-name="Ellipse 155" cx="45.5" cy="45.5" r="45.5" transform="translate(444 689.85)" fill="#49d6cb"/>
    <g id="Group_1050" data-name="Group 1050" transform="translate(460 710.85)">
      <g id="Group_1030" data-name="Group 1030">
        <path id="Path_3219" data-name="Path 3219" d="M2191.038,1383.207v-10.356a1.511,1.511,0,0,0-.855-1.364,1.486,1.486,0,0,0-1.588.2,46.548,46.548,0,0,1-27.085,8.93.121.121,0,0,1-.026.006h-3.425a7.894,7.894,0,0,0-7.848,7.92v4.985a7.891,7.891,0,0,0,7.848,7.914h2.254l2.537,15.786c.038.168,1.019,4.116,7.3,4.116,2.377,0,4.038-.625,4.937-1.856a3.609,3.609,0,0,0,.575-2.92l-2.388-13.518a46.611,46.611,0,0,1,15.334,7.319,1.484,1.484,0,0,0,.934.33,1.494,1.494,0,0,0,1.495-1.509v-9.443a8.408,8.408,0,0,0,0-16.538Zm-37.838,10.318v-4.985a4.884,4.884,0,0,1,4.858-4.9h4.2a1.686,1.686,0,0,0,.167-.035,49.907,49.907,0,0,0,14.741-2.619v20.077a48.415,48.415,0,0,0-14.2-2.622v-9.36a1.495,1.495,0,1,0-2.99,0v9.346h-1.915A4.883,4.883,0,0,1,2153.2,1393.525Zm19.558,23.756a.54.54,0,0,1-.084.427c-.24.3-1.022.616-2.523.616-3.515,0-4.277-1.514-4.388-1.792l-2.414-15.053a44.239,44.239,0,0,1,6.756.8Zm15.29-10.987a49.623,49.623,0,0,0-7.895-4.107v-22.318a48.161,48.161,0,0,0,7.895-4.1Zm2.99-9.655v-10.327a5.369,5.369,0,0,1,0,10.327Z" transform="translate(-2150.21 -1371.342)" fill="#fff"/>
      </g>
      <g id="Group_1031" data-name="Group 1031" transform="translate(53.039 17.506)">
        <path id="Path_3220" data-name="Path 3220" d="M2592.566,1515.354h-3.544a1.566,1.566,0,0,0,0,3.131h3.544a1.566,1.566,0,0,0,0-3.131Z" transform="translate(-2587.457 -1515.354)" fill="#fff"/>
      </g>
      <g id="Group_1032" data-name="Group 1032" transform="translate(50.39 4.247)">
        <path id="Path_3221" data-name="Path 3221" d="M2568.079,1410.151a1.552,1.552,0,0,0,1.046-.4l2.333-2.095a1.566,1.566,0,0,0-2.092-2.33l-2.333,2.095a1.565,1.565,0,0,0,1.046,2.731Z" transform="translate(-2566.512 -1404.925)" fill="#fff"/>
      </g>
      <g id="Group_1033" data-name="Group 1033" transform="translate(50.39 28.863)">
        <path id="Path_3222" data-name="Path 3222" d="M2569.125,1609.6a1.565,1.565,0,1,0-2.092,2.33l2.333,2.095a1.566,1.566,0,0,0,2.092-2.33Z" transform="translate(-2566.512 -1609.205)" fill="#fff"/>
      </g>
    </g>
  </g>
</svg>
