<svg xmlns="http://www.w3.org/2000/svg" width="45.212" height="60.21" viewBox="0 0 45.212 60.21">
  <g id="Group_1029" data-name="Group 1029" transform="translate(-2182.901 -3012.57)">
    <path id="Path_3216" data-name="Path 3216" d="M2226.44,3051c-2.4-2.729-10.087-4.712-10.957-4.93a1.505,1.505,0,0,0-1.693.759l-3.63,6.913-.994-4.923a12.046,12.046,0,0,0,3.92-2.416,1.5,1.5,0,0,0,.437-1.037l.07-4.981a10.265,10.265,0,0,0,1.675-2.511c1.366-.69,2.194-2.323,2.308-4.623a5.224,5.224,0,0,0-.657-3.455,12.855,12.855,0,0,0-2.709-9.574,10.53,10.53,0,0,0-7.972-3.437h-1.208c-.015,0-.028.008-.043.009-1.495-.02-5.815-.365-8.022-3.576a1.539,1.539,0,0,0-1.407-.642,1.5,1.5,0,0,0-1.227.941c-.117.3-2.711,7.068.377,11.412a15.544,15.544,0,0,0-.36,4.864,5.2,5.2,0,0,0-.66,3.456c.113,2.3.941,3.939,2.31,4.627a10.289,10.289,0,0,0,1.671,2.508l.07,4.981a1.507,1.507,0,0,0,.489,1.087,13.576,13.576,0,0,0,3.884,2.3l-1.074,5.317-3.8-7.237a1.5,1.5,0,0,0-1.692-.759c-.87.218-8.56,2.2-10.958,4.93-1.819,2.068-2.3,10.428-.784,12.333,3.981,5.871,14.073,9.392,21.615,9.443.008,0,.016,0,.023,0l.072,0,.072,0c.008,0,.015,0,.023,0,7.541-.051,17.633-3.572,21.548-9.354C2228.74,3061.427,2228.258,3053.066,2226.44,3051Zm-25.775-11.257a1.524,1.524,0,0,0-.494-1.092,7.265,7.265,0,0,1-1.614-2.423,1.837,1.837,0,0,0-.116-.262,1.5,1.5,0,0,0-1.008-.742c-.314-.064-.681-.831-.746-2.122-.055-1.12-.013-1.474.193-1.652a1.5,1.5,0,0,0,.518-1.31,12.837,12.837,0,0,1,.261-4.665,1.458,1.458,0,0,0-.041-.8,1.48,1.48,0,0,0-.3-1.237c-1.364-1.642-1.268-4.327-.867-6.4,3.614,2.907,8.463,2.793,9.175,2.758h.576a7.5,7.5,0,0,1,5.746,2.407c1.611,1.847,2.294,4.669,1.923,7.944a1.5,1.5,0,0,0,.514,1.307c.207.179.249.534.194,1.656-.064,1.29-.434,2.056-.751,2.122a1.5,1.5,0,0,0-1.064.859c-.019.045-.039.1-.056.151a7.165,7.165,0,0,1-1.575,2.38,6.678,6.678,0,0,1-5.171,1.555c-.278-.015-.539-.027-.776-.027a1.5,1.5,0,1,0,0,3c.192,0,.4.011.629.021.3.016.641.032,1.016.032a9.176,9.176,0,0,0,3.733-.756l-.032,2.211a8.047,8.047,0,0,1-4.77,1.818,9,9,0,0,1-5.03-1.854Zm4.377,9.672c.24.019.472.059.72.059.162,0,.308-.031.467-.04l1.719,8.52-2.433,4.631-2.262-4.306Zm19.7,12.233a11.353,11.353,0,0,1-1.831,2.032v-5.45a1.5,1.5,0,0,0-3,0v7.608a28.229,28.229,0,0,1-28.784-.009v-7.6a1.5,1.5,0,0,0-3,0v5.44a11.548,11.548,0,0,1-1.874-2.078c-.719-1.231-.278-7.588.6-8.61,1.185-1.348,5.322-2.854,8.3-3.7l9.059,17.245c.006.011.018.018.024.029a1.446,1.446,0,0,0,.3.373,1.389,1.389,0,0,0,.124.1,1.37,1.37,0,0,0,.158.129,1.349,1.349,0,0,0,.178.052,1.5,1.5,0,0,0,1.071,0,1.489,1.489,0,0,0,.168-.049,1.383,1.383,0,0,0,.153-.124,1.405,1.405,0,0,0,.133-.108,1.45,1.45,0,0,0,.3-.37c.006-.011.017-.017.023-.029l3.858-7.344a1.473,1.473,0,0,0,.279-.532l4.922-9.37c2.972.84,7.11,2.345,8.294,3.7C2225.06,3054,2225.5,3060.359,2224.739,3061.646Z" transform="translate(0 0)" fill="#fff"/>
    <path id="Path_3217" data-name="Path 3217" d="M2334.7,3152.258h-1.251a1.843,1.843,0,1,0,0,3.686h1.251a1.843,1.843,0,1,0,0-3.686Z" transform="translate(-132.513 -124.318)" fill="#fff"/>
    <path id="Path_3218" data-name="Path 3218" d="M2401.342,3155.944h1.251a1.843,1.843,0,1,0,0-3.686h-1.251a1.843,1.843,0,1,0,0,3.686Z" transform="translate(-193.014 -124.318)" fill="#fff"/>
  </g>
</svg>
