<svg xmlns="http://www.w3.org/2000/svg" width="20.783" height="17.119" viewBox="0 0 20.783 17.119">
  <path id="Path_1538" data-name="Path 1538" d="M564.375,219.19a8.524,8.524,0,0,1-2.1.6c.338-.057.837-.669,1.036-.917a3.87,3.87,0,0,0,.7-1.273c.018-.037.032-.082,0-.11a.118.118,0,0,0-.111.009,10.711,10.711,0,0,1-2.494.955.166.166,0,0,1-.172-.046,2.01,2.01,0,0,0-.218-.223,4.413,4.413,0,0,0-1.208-.74,4.207,4.207,0,0,0-1.853-.3,4.428,4.428,0,0,0-1.757.5,4.539,4.539,0,0,0-1.418,1.158,4.368,4.368,0,0,0-.847,1.7,4.59,4.59,0,0,0-.044,1.791c.013.1,0,.114-.086.1a13.318,13.318,0,0,1-8.569-4.362c-.1-.114-.154-.114-.237.009a4.344,4.344,0,0,0,.741,5.134c.168.159.34.318.526.463a4.353,4.353,0,0,1-1.654-.463c-.1-.063-.15-.027-.159.086a2.587,2.587,0,0,0,.027.491,4.394,4.394,0,0,0,2.708,3.5,2.543,2.543,0,0,0,.549.168,4.9,4.9,0,0,1-1.622.05c-.118-.023-.163.037-.118.15a4.562,4.562,0,0,0,3.407,2.853c.155.027.309.027.464.063-.009.014-.018.014-.027.027a5.4,5.4,0,0,1-2.326,1.233,8.338,8.338,0,0,1-3.535.452c-.19-.028-.23-.026-.282,0s-.006.078.055.127c.24.159.486.3.736.436a11.677,11.677,0,0,0,2.362.945,12.583,12.583,0,0,0,12.216-2.856c2.5-2.488,3.381-5.918,3.381-9.352,0-.135.159-.209.253-.28a8.231,8.231,0,0,0,1.655-1.729.5.5,0,0,0,.1-.331v-.018C564.453,219.135,564.46,219.152,564.375,219.19Z" transform="translate(-543.67 -217.139)" fill="#fff"/>
</svg>
